<svg xmlns="http://www.w3.org/2000/svg" width="842.73" height="573" viewBox="0 0 842.73 573">
  <g id="Group_38" data-name="Group 38" transform="translate(0)">
    <path id="Path_649" data-name="Path 649" d="M213.795,345.626a4.535,4.535,0,0,1-1.645-.311,4.475,4.475,0,0,1-2.87-4.2V294.086a6.012,6.012,0,0,0-6-6h-9.631a15.026,15.026,0,0,1-15.009-15.009V178.509A15.026,15.026,0,0,1,193.644,163.5H533.37a15.026,15.026,0,0,1,15.009,15.009v94.562a15.026,15.026,0,0,1-15.009,15.009H271.15a6.021,6.021,0,0,0-4.427,1.947L217.1,344.162a4.476,4.476,0,0,1-3.307,1.464ZM193.644,165.5a13.024,13.024,0,0,0-13.009,13.009v94.563a13.024,13.024,0,0,0,13.009,13.009h9.631a8.014,8.014,0,0,1,8,8v47.033a2.5,2.5,0,0,0,4.347,1.691l49.622-54.133a8.025,8.025,0,0,1,5.9-2.6H533.37a13.024,13.024,0,0,0,13.009-13.009V178.509A13.024,13.024,0,0,0,533.37,165.5Z" transform="translate(-178.635 -163.5)" fill="#ccc"/>
    <circle id="Ellipse_82" data-name="Ellipse 82" cx="13.134" cy="13.134" r="13.134" transform="translate(23.682 16.323)" fill="#ccc"/>
    <path id="Path_650" data-name="Path 650" d="M518.047,265.63H208.967a7,7,0,1,1,0-14.009h309.08a7,7,0,0,1,0,14.009Z" transform="translate(-178.635 -163.5)" fill="#ccc"/>
    <path id="Path_651" data-name="Path 651" d="M417.355,235.86H208.967a7,7,0,0,1,0-14.009H417.355a7,7,0,0,1,0,14.009Z" transform="translate(-178.635 -163.5)" fill="#ccc"/>
    <path id="Path_652" data-name="Path 652" d="M213.795,679.222a4.534,4.534,0,0,1-1.645-.311,4.475,4.475,0,0,1-2.87-4.2V627.682a6.012,6.012,0,0,0-6-6h-9.631a15.026,15.026,0,0,1-15.009-15.009V512.106A15.026,15.026,0,0,1,193.644,497.1H533.37a15.026,15.026,0,0,1,15.009,15.009v94.563a15.026,15.026,0,0,1-15.009,15.009H271.15a6.021,6.021,0,0,0-4.427,1.947L217.1,677.758A4.476,4.476,0,0,1,213.795,679.222ZM193.644,499.1a13.024,13.024,0,0,0-13.009,13.009v94.563a13.024,13.024,0,0,0,13.009,13.009h9.631a8.014,8.014,0,0,1,8,8v47.033a2.5,2.5,0,0,0,4.347,1.691l49.622-54.133a8.025,8.025,0,0,1,5.9-2.6H533.37a13.024,13.024,0,0,0,13.009-13.009V512.106A13.024,13.024,0,0,0,533.37,499.1Z" transform="translate(-178.635 -163.5)" fill="#ccc"/>
    <path id="Path_653" data-name="Path 653" d="M715.478,505.857a4.475,4.475,0,0,1-3.307-1.464L662.549,450.26a6.02,6.02,0,0,0-4.426-1.947H395.9A15.026,15.026,0,0,1,380.894,433.3V338.741A15.026,15.026,0,0,1,395.9,323.731H735.629a15.026,15.026,0,0,1,15.009,15.009V433.3a15.026,15.026,0,0,1-15.009,15.009H726a6.012,6.012,0,0,0-6,6v47.033a4.474,4.474,0,0,1-2.87,4.2,4.526,4.526,0,0,1-1.645.311ZM395.9,325.731a13.024,13.024,0,0,0-13.009,13.009V433.3A13.024,13.024,0,0,0,395.9,446.312h262.22a8.024,8.024,0,0,1,5.9,2.6l49.622,54.133a2.5,2.5,0,0,0,4.347-1.691V454.317a8.014,8.014,0,0,1,8-8h9.631A13.024,13.024,0,0,0,748.638,433.3V338.741a13.024,13.024,0,0,0-13.009-13.009Z" transform="translate(-178.635 -163.5)" fill="#3f3d56"/>
    <circle id="Ellipse_83" data-name="Ellipse 83" cx="13.134" cy="13.134" r="13.134" transform="translate(23.682 349.919)" fill="#ccc"/>
    <path id="Path_654" data-name="Path 654" d="M518.047,599.226H208.967a7,7,0,1,1,0-14.009h309.08a7,7,0,0,1,0,14.009Z" transform="translate(-178.635 -163.5)" fill="#ccc"/>
    <path id="Path_655" data-name="Path 655" d="M417.355,569.456H208.967a7,7,0,1,1,0-14.009H417.355a7,7,0,0,1,0,14.009Z" transform="translate(-178.635 -163.5)" fill="#ccc"/>
    <circle id="Ellipse_84" data-name="Ellipse 84" cx="13.134" cy="13.134" r="13.134" transform="translate(225.941 175.678)"/>
    <path id="Path_656" data-name="Path 656" d="M720.306,424.985H411.226a7,7,0,0,1,0-14.009h309.08a7,7,0,0,1,0,14.009Z" transform="translate(-178.635 -163.5)" fill="#5300b4"/>
    <path id="Path_657" data-name="Path 657" d="M619.614,395.215H411.226a7,7,0,1,1,0-14.009H619.614a7,7,0,0,1,0,14.009Z" transform="translate(-178.635 -163.5)" fill="#5300b4"/>
    <path id="Path_658" data-name="Path 658" d="M720.171,523.859a10.056,10.056,0,0,1,13.594-7.277l23.459-26.956,4.983,17.889-23.041,22.856a10.11,10.11,0,0,1-18.995-6.511Z" transform="translate(-178.635 -163.5)" fill="#ffb8b8"/>
    <circle id="Ellipse_85" data-name="Ellipse 85" cx="24.561" cy="24.561" r="24.561" transform="translate(645.729 184.74)" fill="#ffb8b8"/>
    <path id="Path_659" data-name="Path 659" d="M641.436,547.373H629.177l-5.833-47.288h18.1Z" fill="#ffb8b8"/>
    <path id="Path_660" data-name="Path 660" d="M823.2,722.757H783.667v-.5a15.386,15.386,0,0,1,15.387-15.386H823.2Z" transform="translate(-178.635 -163.5)" fill="#5300b4"/>
    <path id="Path_661" data-name="Path 661" d="M678.436,560.373H666.177l-1.7-46.158,13.96-1.129Z" fill="#ffb8b8"/>
    <path id="Path_662" data-name="Path 662" d="M860.2,735.757H820.667v-.5a15.386,15.386,0,0,1,15.387-15.386H860.2Z" transform="translate(-178.635 -163.5)" fill="#5300b4"/>
    <path id="Path_663" data-name="Path 663" d="M853.584,715.243l-9.547-1.124a4.512,4.512,0,0,1-3.974-4.4l-1.789-124.339a1.5,1.5,0,0,0-2.914-.478l-13.246,37.4.947,70.1a4.5,4.5,0,0,1-4.229,4.553l-12.464.529a4.527,4.527,0,0,1-4.744-3.925l-6.51-79.3,0-.05,9.877-82.819,74.183,5.367L858.579,711.3a4.507,4.507,0,0,1-4.466,3.973,4.385,4.385,0,0,1-.529-.031Z" transform="translate(-178.635 -163.5)" fill="#fff"/>
    <path id="Path_664" data-name="Path 664" d="M805.306,538.728a4.473,4.473,0,0,1-2.355-3.618s6.671-41.484,9.115-42.263l-5.349-44.363a40.909,40.909,0,0,1,8.781-30.49,39.014,39.014,0,0,1,27.032-14.482q1.121-.1,2.23-.154a39.369,39.369,0,0,1,33.134,15.082,40.12,40.12,0,0,1,7.219,36.406l-3,10.439V538.24a4.555,4.555,0,0,1-1.862,3.653c-9.341,6.855-19.9,9.279-30.156,9.279C830.686,551.173,812.34,542.493,805.306,538.728Z" transform="translate(-178.635 -163.5)" fill="#5300b4"/>
    <path id="Path_665" data-name="Path 665" d="M747.716,525.377l-12.9-9.648a4.5,4.5,0,0,1-.6-6.672l76.863-82.474a15.053,15.053,0,0,1,19.521-2.075h0a14.978,14.978,0,0,1,1.925,22.976l-78.964,77.5a4.472,4.472,0,0,1-5.362.709,4.621,4.621,0,0,1-.484-.317Z" transform="translate(-178.635 -163.5)" fill="#5300b4"/>
    <path id="Path_666" data-name="Path 666" d="M846.465,514.457a10.056,10.056,0,0,1,14.715-4.607l28.086-22.094,1.55,18.5-26.909,18.144a10.11,10.11,0,0,1-17.442-9.948Z" transform="translate(-178.635 -163.5)" fill="#ffb8b8"/>
    <path id="Path_667" data-name="Path 667" d="M871.6,523.082a4.464,4.464,0,0,1-3.023-3.249l-2.837-11.916a4.437,4.437,0,0,1,1.65-4.612l19.089-20.645-28.079-43.3a15.242,15.242,0,1,1,25.833-15.632l26.1,50.811a23.119,23.119,0,0,1-7.721,29.795l-26.677,17.82a4.461,4.461,0,0,1-2.97,1.137A4.551,4.551,0,0,1,871.6,523.082Z" transform="translate(-178.635 -163.5)" fill="#5300b4"/>
    <path id="Path_668" data-name="Path 668" d="M867.125,394.758a4.4,4.4,0,0,1-6.493-2.565l-.015-.061c-.5-2.044-.105-4.182.024-6.282s-.089-4.4-1.527-5.941c-2.681-2.863-7.414-1.312-11.271-2.019a9.511,9.511,0,0,1-7.453-10.117c.053-.437.136-.874.231-1.311a7.325,7.325,0,0,0-7.651-8.83c-3.893.243-8.091,1.446-11.329-1.421a8.351,8.351,0,0,1-2.053-8.992c1.811-5.321,7-8.129,12.135-9.685a44.588,44.588,0,0,1,37.826,6c3.263,2.274,6.314,5.136,7.719,8.856s.762,8.427-2.349,10.9a20.123,20.123,0,0,1,4.765,19.521C878.167,387.794,870.829,392.6,867.125,394.758Z" transform="translate(-178.635 -163.5)" fill="#5300b4"/>
    <path id="Path_669" data-name="Path 669" d="M1021.365,735.5a1,1,0,0,1-1,1h-381a1,1,0,0,1,0-2h381a1,1,0,0,1,1,1Z" transform="translate(-178.635 -163.5)" fill="#3f3d56"/>
  </g>
</svg>
