<?xml version="1.0" encoding="UTF-8"?><svg width="1440" height="720" xmlns="http://www.w3.org/2000/svg" xmlns:xlink="http://www.w3.org/1999/xlink"><defs><linearGradient x1="39.995%" y1="92.701%" x2="35.76%" y2="8.606%" id="l"><stop stop-color="#FFF6DF" offset="0%"/><stop stop-color="#FFF" offset="100%"/></linearGradient><linearGradient x1="48.176%" y1="22.629%" x2="43.015%" y2="54.592%" id="a"><stop stop-color="#FFA01B" offset="0%"/><stop stop-color="#FCBA33" offset="100%"/></linearGradient><linearGradient x1="100%" y1="43.81%" x2="37.932%" y2="43.81%" id="c"><stop stop-color="#FF5647" offset="0%"/><stop stop-color="#FF2F1C" offset="100%"/></linearGradient><linearGradient x1="50%" y1="81.756%" x2="50%" y2="100%" id="e"><stop stop-color="#FF5647" stop-opacity="0" offset="0%"/><stop stop-color="#FF5647" offset="100%"/></linearGradient><linearGradient x1="48.176%" y1="22.629%" x2="48.176%" y2="91.708%" id="v"><stop stop-color="#FFA01B" offset="0%"/><stop stop-color="#FCBA33" offset="100%"/></linearGradient><linearGradient x1="55.217%" y1="16.91%" x2="50%" y2="66.545%" id="f"><stop stop-color="#FFC698" offset="0%"/><stop stop-color="#FFDABC" offset="100%"/></linearGradient><linearGradient x1="50%" y1="28.69%" x2="43.015%" y2="54.592%" id="g"><stop stop-color="#FFA01B" offset="0%"/><stop stop-color="#FCBA33" offset="100%"/></linearGradient><linearGradient x1="50%" y1="97.498%" x2="50%" y2="1.931%" id="h"><stop stop-opacity="0" offset="0%"/><stop offset="100%"/></linearGradient><linearGradient x1="43.015%" y1="24.067%" x2="43.015%" y2="54.592%" id="i"><stop stop-color="#FFA01B" offset="0%"/><stop stop-color="#FCBA33" offset="100%"/></linearGradient><linearGradient x1="79.824%" y1="1.215%" x2="73.623%" y2="51.476%" id="j"><stop stop-color="#793816" offset="0%"/><stop stop-color="#9A512B" offset="100%"/></linearGradient><linearGradient x1="41.499%" y1="10.87%" x2="60.234%" y2="74.237%" id="k"><stop stop-color="#9A512B" offset="0%"/><stop stop-color="#A75A31" offset="100%"/></linearGradient><linearGradient x1="-6.905%" y1="0%" x2="60.396%" y2="59.818%" id="b"><stop stop-color="#FFF" offset="0%"/><stop stop-color="#FFF" stop-opacity="0" offset="100%"/></linearGradient><linearGradient x1="84.903%" y1="26.375%" x2="65.127%" y2="78.314%" id="m"><stop stop-color="#793816" offset="0%"/><stop stop-color="#9A512B" offset="100%"/></linearGradient><linearGradient x1="15.455%" y1="4.805%" x2="15.455%" y2="83.616%" id="o"><stop stop-color="#793816" offset="0%"/><stop stop-color="#9A512B" stop-opacity="0" offset="100%"/></linearGradient><linearGradient x1="46.363%" y1="31.584%" x2="46.363%" y2="93.064%" id="u"><stop stop-color="#FFC698" offset="0%"/><stop stop-color="#FFDABC" offset="100%"/></linearGradient><linearGradient x1="-9.84%" y1="65.126%" x2="81.732%" y2="65.126%" id="q"><stop stop-color="#793816" offset="0%"/><stop stop-color="#9A512B" stop-opacity="0" offset="100%"/></linearGradient><linearGradient x1="44.543%" y1="33.455%" x2="46.363%" y2="93.064%" id="t"><stop stop-color="#FFC698" offset="0%"/><stop stop-color="#FFDABC" offset="100%"/></linearGradient><linearGradient x1="50%" y1="97.498%" x2="50%" y2="1.931%" id="r"><stop stop-color="#FFF" stop-opacity="0" offset="0%"/><stop stop-color="#FFF" offset="100%"/></linearGradient><linearGradient x1="50%" y1="46.957%" x2="41.906%" y2="-16.488%" id="s"><stop stop-opacity="0" offset="0%"/><stop offset="100%"/></linearGradient><linearGradient x1="59.743%" y1="22.107%" x2="17.127%" y2="69.511%" id="w"><stop stop-color="#FFA01B" offset="0%"/><stop stop-color="#FCBA33" offset="100%"/></linearGradient><path d="M295.565 64.502c1.647-1.816 3.574-4.14 5.78-6.971 3.309-4.247 2.986-3.655 11.67-5.128 8.686-1.473 12.004-7.96 16.084-4.742 4.08 3.22 6.101 8.99 2.579 14.488-3.522 5.499-7.385 3.125-15.926 5.143-5.693 1.345-11.101 4.416-16.224 9.213l-3.963-12.003z" id="p"/><path d="M28.51 175.99s-9.911 2.098-16.592 3.929c-6.681 1.83-10.008 10.432-10.825 14.483-.817 4.051 3.376 1.824 5.43 1.824 2.053 0 9.099-.51 8.227 3.232-.873 3.74 1.02 2.743 9.321-2.315 5.535-3.372 9.298-6.135 11.291-8.29l-6.851-12.863z" id="n"/><path d="M151 666c38.223-28.954 66.246-43.431 84.067-43.431 18.034 0 41.962 1.56 59.008-13.87 8.22-7.44 15.922-37.493 21.404-38.933 16.848-4.425 34.218-3.556 41.94-3.556 7.722 0 30.112-57.513 42.466-72.908 12.353-15.395 23.33-13.355 37.903-29.45s17.154-75.726 23.641-75.726c4.325 0 25.413-1.665 63.265-4.994 18.028-4.433 34.362-6.65 49.002-6.65 21.96 0 52.706-8.8 70.246-26.946 17.54-18.146 44.474-68.785 96.816-68.785 20.057 0 40.836 7.04 60.044 3.137 30.918-6.281 58.005-24.825 73.25-26.052 12.932-1.042 89.221-2.67 228.867-4.884 19.478-.308 19.478 167.743-302.117 294.86C586.405 632.558 369.805 671.953 151 666z" id="d"/></defs><g fill="none" fill-rule="evenodd"><path fill="#FFF" d="M0 0h1440v720H0z"/><path fill="#FF5647" d="M0 720h1440V0H0z"/><g transform="translate(174 43)"><circle fill="url(#a)" fill-rule="nonzero" cx="481" cy="298" r="298"/><circle fill="url(#b)" opacity=".629" style="mix-blend-mode:soft-light" cx="185" cy="298" r="185"/><circle fill="url(#b)" opacity=".629" style="mix-blend-mode:soft-light" cx="849" cy="298" r="185"/><g style="mix-blend-mode:soft-light" fill="#3D3F3C"><path d="M732.67 308.756a5.95 5.95 0 00-2.178 8.126 5.95 5.95 0 0010.304-5.949 5.95 5.95 0 00-8.126-2.177M704.906 324.786a5.95 5.95 0 00-2.178 8.126 5.95 5.95 0 0010.304-5.95 5.95 5.95 0 00-8.126-2.176M677.142 340.816a5.95 5.95 0 00-2.178 8.125 5.95 5.95 0 0010.304-5.949 5.95 5.95 0 00-8.126-2.176M649.378 356.845a5.95 5.95 0 00-2.178 8.126 5.95 5.95 0 0010.304-5.949 5.95 5.95 0 00-8.126-2.177M621.614 372.875a5.95 5.95 0 00-2.178 8.125 5.95 5.95 0 0010.303-5.948 5.95 5.95 0 00-8.125-2.177M593.85 388.905a5.95 5.95 0 00-2.178 8.125 5.95 5.95 0 0010.303-5.949 5.95 5.95 0 00-8.125-2.176M566.086 404.934a5.95 5.95 0 00-2.178 8.126 5.95 5.95 0 0010.303-5.95 5.95 5.95 0 00-8.125-2.176M538.321 420.964a5.95 5.95 0 00-2.177 8.125 5.95 5.95 0 0010.303-5.949 5.95 5.95 0 00-8.126-2.176M510.557 436.993a5.95 5.95 0 00-2.178 8.126 5.95 5.95 0 0010.304-5.949 5.95 5.95 0 00-8.126-2.177M482.793 453.023a5.95 5.95 0 00-2.178 8.125 5.95 5.95 0 0010.304-5.948 5.95 5.95 0 00-8.126-2.177M455.03 469.053a5.95 5.95 0 00-2.179 8.125 5.95 5.95 0 0010.304-5.949 5.95 5.95 0 00-8.126-2.176M427.265 485.082a5.95 5.95 0 00-2.178 8.126 5.95 5.95 0 0010.304-5.95 5.95 5.95 0 00-8.126-2.176M730.525 272.981a5.95 5.95 0 00-2.178 8.126 5.95 5.95 0 0010.304-5.95 5.95 5.95 0 00-8.126-2.176M674.997 305.04a5.95 5.95 0 00-2.178 8.126 5.95 5.95 0 0010.303-5.949 5.95 5.95 0 00-8.125-2.177M647.232 321.07a5.95 5.95 0 00-2.177 8.126 5.95 5.95 0 0010.303-5.95 5.95 5.95 0 00-8.126-2.176M619.468 337.1a5.95 5.95 0 00-2.177 8.125 5.95 5.95 0 0010.303-5.949 5.95 5.95 0 00-8.126-2.176M591.704 353.13a5.95 5.95 0 00-2.178 8.125 5.95 5.95 0 0010.304-5.949 5.95 5.95 0 00-8.126-2.177M563.94 369.159a5.95 5.95 0 00-2.178 8.125 5.95 5.95 0 0010.304-5.948 5.95 5.95 0 00-8.126-2.177M536.176 385.189a5.95 5.95 0 00-2.178 8.125 5.95 5.95 0 0010.304-5.949 5.95 5.95 0 00-8.126-2.176M508.412 401.218a5.95 5.95 0 00-2.178 8.126 5.95 5.95 0 0010.304-5.95 5.95 5.95 0 00-8.126-2.176M480.648 417.248a5.95 5.95 0 00-2.178 8.125 5.95 5.95 0 0010.304-5.949 5.95 5.95 0 00-8.126-2.176M452.884 433.277a5.95 5.95 0 00-2.178 8.126 5.95 5.95 0 0010.303-5.949 5.95 5.95 0 00-8.125-2.177M425.12 449.307a5.95 5.95 0 00-2.178 8.125 5.95 5.95 0 0010.303-5.948 5.95 5.95 0 00-8.125-2.177M397.355 465.337a5.95 5.95 0 00-2.177 8.125 5.95 5.95 0 0010.303-5.949 5.95 5.95 0 00-8.126-2.176M672.851 269.265a5.95 5.95 0 00-2.178 8.126 5.95 5.95 0 0010.304-5.949 5.95 5.95 0 00-8.126-2.177M645.087 285.295a5.95 5.95 0 00-2.178 8.125 5.95 5.95 0 0010.304-5.948 5.95 5.95 0 00-8.126-2.177M617.323 301.324a5.95 5.95 0 00-2.178 8.126 5.95 5.95 0 0010.304-5.949 5.95 5.95 0 00-8.126-2.177M589.559 317.354a5.95 5.95 0 00-2.178 8.126 5.95 5.95 0 0010.304-5.95 5.95 5.95 0 00-8.126-2.176M561.795 333.384a5.95 5.95 0 00-2.178 8.125 5.95 5.95 0 0010.303-5.949 5.95 5.95 0 00-8.125-2.176M534.03 349.413a5.95 5.95 0 00-2.177 8.126 5.95 5.95 0 0010.303-5.949 5.95 5.95 0 00-8.125-2.177M506.266 365.443a5.95 5.95 0 00-2.177 8.125 5.95 5.95 0 0010.303-5.948 5.95 5.95 0 00-8.126-2.177M478.502 381.473a5.95 5.95 0 00-2.177 8.125 5.95 5.95 0 0010.303-5.949 5.95 5.95 0 00-8.126-2.176M450.738 397.502a5.95 5.95 0 00-2.178 8.126 5.95 5.95 0 0010.304-5.95 5.95 5.95 0 00-8.126-2.176M422.974 413.532a5.95 5.95 0 00-2.178 8.125 5.95 5.95 0 0010.304-5.948 5.95 5.95 0 00-8.126-2.177M395.21 429.561a5.95 5.95 0 00-2.178 8.126 5.95 5.95 0 0010.304-5.949 5.95 5.95 0 00-8.126-2.177M367.446 445.591a5.95 5.95 0 00-2.178 8.126 5.95 5.95 0 0010.304-5.95 5.95 5.95 0 00-8.126-2.176M698.47 217.46a5.95 5.95 0 00-2.178 8.126 5.95 5.95 0 0010.304-5.949 5.95 5.95 0 00-8.126-2.177M670.706 233.49a5.95 5.95 0 00-2.178 8.126 5.95 5.95 0 0010.303-5.95 5.95 5.95 0 00-8.125-2.176M642.942 249.52a5.95 5.95 0 00-2.178 8.125 5.95 5.95 0 0010.303-5.949 5.95 5.95 0 00-8.125-2.176M615.177 265.55a5.95 5.95 0 00-2.177 8.125 5.95 5.95 0 0010.303-5.949 5.95 5.95 0 00-8.126-2.177M587.413 281.579a5.95 5.95 0 00-2.177 8.125 5.95 5.95 0 0010.303-5.948 5.95 5.95 0 00-8.126-2.177M559.65 297.609a5.95 5.95 0 00-2.179 8.125 5.95 5.95 0 0010.304-5.949 5.95 5.95 0 00-8.126-2.176M531.022 324.583a5.95 5.95 0 0010.304-5.948 5.95 5.95 0 00-10.304 5.948zM668.56 197.715a5.95 5.95 0 00-2.178 8.125 5.95 5.95 0 0010.304-5.948 5.95 5.95 0 00-8.126-2.177M640.796 213.744a5.95 5.95 0 00-2.178 8.126 5.95 5.95 0 0010.304-5.949 5.95 5.95 0 00-8.126-2.177M613.032 229.774a5.95 5.95 0 00-2.178 8.126 5.95 5.95 0 0010.304-5.95 5.95 5.95 0 00-8.126-2.176M666.415 161.94a5.95 5.95 0 00-2.178 8.125 5.95 5.95 0 0010.304-5.949 5.95 5.95 0 00-8.126-2.176M638.65 177.97a5.95 5.95 0 00-2.177 8.125 5.95 5.95 0 0010.304-5.949 5.95 5.95 0 00-8.126-2.177"/></g><use fill="url(#c)" xlink:href="#d"/><use fill="url(#e)" xlink:href="#d"/><path d="M327.12 539.422c-.548 3.781-1.121 6.854-1.718 9.218-.896 3.546-2.998 7.29-2.998 9.461 0 4.952.116 8.146 4.716 9.128 6.94 1.481 26.3.242 28.475-1.769 2.175-2.01-8.271-5.546-12.115-7.359-2.563-1.208-2.563-4.887 0-11.035l-16.36-7.644z" fill="#49132C"/><path d="M113.034 48.065c21.835-12.916 35.118-21.894 39.848-26.934 7.095-7.56 9.446-18.505 12.738-20.129 3.293-1.623 14.056 10.012 14.056 13.857 0 3.845-4.19 4.587-12.281 8.09-8.091 3.504-14.872 15.78-24.967 25.116-6.73 6.224-15.984 10.674-27.763 13.351l-1.631-13.351z" fill="url(#f)" transform="translate(215 298)"/><path d="M238.17 602.916c-2.738 11.23-2.738 17.468 0 18.71 4.107 1.865 40.552.625 36.331-4.05-4.22-4.674-16.416-4.821-17.797-6.712-.92-1.26-1.238-4.44-.955-9.535l-17.579 1.587z" fill="#49132C"/><path d="M18.85 308.363c.635 1.958 8.916.64 24.846-3.954.703-21.206 1.224-35.235 1.562-42.088.396-8.05 2.477-13.552 2.87-17.146.392-3.593.392-8.372 3.874-15.9 3.52-7.607 14.314-26.515 32.383-56.72l-24.003-25.953-29.415 8.059c1.404 13.102 1.404 23.245 0 30.427-2.105 10.774-5.91 43.812-7.643 54.211-1.733 10.4-5.424 66.128-4.473 69.064z" fill="url(#g)" fill-rule="nonzero" transform="translate(215 298)"/><path d="M68.328 163.21l-7.946-16.608-29.415 8.059c1.404 13.102 1.404 23.245 0 30.427-2.105 10.774-5.91 43.812-7.643 54.211-1.155 6.933 13.846-18.43 45.004-76.09z" fill="url(#h)" fill-rule="nonzero" opacity=".309" style="mix-blend-mode:soft-light" transform="translate(215 298)"/><path d="M27.738 151.329C35.68 169.99 50.085 176.62 67.09 176.62c17.005 0 46.749.901 45.975 8.429-.774 7.527-5.406 36.56-5.406 43.987 0 4.951.555 10.937 1.665 17.957 13.49 5.72 21 8.103 22.53 7.15 2.295-1.431 2.923-26.14 2.61-35.436-.315-9.296 14.873-46.394 6.587-54.2-8.287-7.806-38.562-21.292-45.198-32.049-2.11-3.682-4.744-6.112-7.903-7.288-45.434 4.997-65.505 13.717-60.21 26.158z" fill="url(#i)" fill-rule="nonzero" transform="translate(215 298)"/><path d="M254.946 360.932c-8.69 1.918-13.036 9.355-13.036 22.31 0 19.433-6.01 55.889-2.269 65.465 3.742 9.577 12.663 4.963 27.159-4.859 14.496-9.821 40.448-11.969 42.757-15.118 2.31-3.149-6.4-19.265-6.4-24.055 0-4.79 8.381-16.727 5.585-24.128-1.865-4.934-2.268-9.464-1.211-13.59 16.212-1.14 25.947-3.614 29.204-7.419-1.932-5.31-4.931-10.493-8.999-15.55-8.972 3.568-15.707 5.032-20.205 4.392-6.748-.96-11.735-.414-24.293 3.595-12.557 4.01.955 3.812-10.653 7.563-7.739 2.5-13.618 2.965-17.639 1.394z" fill="#FFF" fill-rule="nonzero"/><path d="M26.91 85.243c0 12.955-.757 34.776-2.269 65.464l1.078 2.306 2.024 1.983 2.126.84c1.529 2.58 2.583 4.253 3.163 5.02 3.633 4.807 5.712 6.397 6.93 7.227 9.511 6.476 15.496 7.523 19.127 6.08 10.613-4.217 1.645-89.292-11.435-100.634-4.28-3.712-20.744 6.922-20.744 11.714z" fill="url(#h)" fill-rule="nonzero" opacity=".1" transform="translate(215 298)"/><path d="M37.593 63.757c6.635-3.767 11.005-7.18 13.11-10.239 2.106-3.058 3.929-7.056 5.468-11.994l20.662-1.774c-3.226 5.177-3.068 8.891.475 11.143 3.243 2.062-9.777 7.38-19.902 11.002-6.75 2.415-13.354 3.036-19.813 1.862z" fill="url(#f)" transform="translate(215 298)"/><path d="M264.063 336.426c7.483 9.056 34.958 4.995 41.276 1.049 6.32-3.947 1.492-28.438-5.054-33.122-6.547-4.685-17.595-9.96-28.528 1.7s-15.177 21.318-7.694 30.373z" fill="#FFDABC"/><path d="M264.441 372.293c-4.24-5.766-23.03-3.96-27.916-2.35-4.887 1.61-8.322 15.859-9.52 21.432-4.627 3.754-9.499 3.754-10.456 9.77-.958 6.018-2.634 39.847 0 44.634 2.634 4.788 21.866 1.953 31.48.984 9.615-.968 13.343-11.109 13.343-14.635s7.31-54.068 3.07-59.835z" fill="#49132C"/><path d="M264.441 372.293c-1.28-1.741-3.888-2.792-7.038-3.366 0 13.354-.537 40.103-2.322 54.823-1.785 14.72-4.128 14.72-7.052 23.013 9.615-.968 13.343-11.109 13.343-14.635s7.31-54.068 3.07-59.835z" fill="#3B0E23"/><path d="M221.59 402.722c2.786-4.712 22.501-3.38 24.327-2.592 1.826.788-1.435 29.568-4.044 34.191-2.608 4.623-18.32 4.555-20.283 1.592-1.963-2.963-2.59-28.81 0-33.191z" fill="#63203F" fill-rule="nonzero" opacity=".8"/><g><path d="M12.33 85.252c1.82-4.597 3.324-8.2 4.512-10.812 1.187-2.61 1.595-5.96 1.223-10.048 18.038-1.888 26.206-.218 24.505 5.009-1.702 5.227-.441 11.12 3.782 17.682l-34.022-1.83z" fill="url(#j)" transform="scale(-1 1) rotate(30 -470.42 -904.768)"/><path d="M12.503 55.533C16.57 71.58 34.47 75.35 45.818 74.354c11.348-.997 14.434-10.8 11.128-18.821-3.307-8.02 3.264-8.02-1.62-12.317-4.884-4.297-4.61-12.439-10.59-15.51-5.98-3.07-36.3 11.779-32.233 27.827z" fill="url(#k)" transform="scale(-1 1) rotate(30 -470.42 -904.768)"/><path d="M20.518 65.9C9.325 63.076 2.922 57.012 1.31 47.706c-2.417-13.958 7.9-25.491 19.935-28.989C29.268 16.386 38.453 10.24 48.801.278c4.551 10.218 5.202 18.402 1.952 24.552-4.876 9.225-16 4.02-17.887 17.581-1.258 9.042-5.374 16.871-12.348 23.49z" fill="url(#l)" transform="scale(-1 1) rotate(30 -470.42 -904.768)"/><path d="M492.636 359.77c-4.743 7.627-10.226 12.796-16.451 15.508-9.337 4.067-12.62 7.153-11.654 9.241.967 2.088 4.624 4.153 14.124 2.728 9.5-1.426 18.885-2.722 27.558-5.699 8.673-2.977 8.897-4.482 8.897-10.01 0-3.685-.731-7.827-2.195-12.427l-20.28.66z" fill="#49132C"/><g transform="translate(377 113)"><use fill="url(#m)" xlink:href="#n"/><use fill="url(#o)" xlink:href="#n"/></g><g transform="translate(377 113)"><use fill="url(#m)" xlink:href="#p"/><use fill="url(#q)" xlink:href="#p"/></g><path d="M404.132 286.164c-2.551 4.607 5.54 21.238 11.066 21.238 5.525 0 79.724-51.74 82.604-55.368 2.107 10.089-1.245 19.41 4.185 29.523 3.62 6.742 6.464 13.134 8.533 19.174 47.604-1.809 75.637-1.15 84.099 1.979 12.692 4.692 7.425-26.541 3.712-39.997-3.712-13.455-14.773-37.35-7.386-39.98 7.386-2.631 34.16.95 51.95-8.787 17.788-9.737 36.428-19.112 35.41-22.401-1.017-3.29-2.014-18.002-7.032-16.396-5.018 1.605-30.334 16.396-46.033 16.396-15.699 0-38.964 3.027-46.703-1.585-7.739-4.613-16.443-3.66-26.41-1.83-9.965 1.829-36.68 18.32-46.655 22.068-9.976 3.748-20.017 6.232-23.417 15.536-3.4 9.304-26.71 29.463-34.802 34.932-8.091 5.468-40.57 20.89-43.12 25.498z" fill="#49132C"/><path d="M196.534 187.072c10.495.442 17.523 1.321 21.085 2.638 12.692 4.692 7.425-26.541 3.712-39.997-3.712-13.455-14.773-37.35-7.386-39.98 7.386-2.631-4.67-28.161-12.408-32.773-7.739-4.613-16.443-3.66-26.41-1.83-9.965 1.829 6.966 111.334 21.407 111.942z" fill="url(#r)" fill-rule="nonzero" opacity=".226" style="mix-blend-mode:soft-light" transform="translate(377 113)"/><path d="M589.883 222.731c7.387-2.63 35.222.952 53.011-8.785 17.79-9.737 36.429-19.112 35.411-22.401-1.017-3.29-2.014-18.002-7.032-16.396-5.018 1.605-30.334 16.396-46.033 16.396-15.699 0-47.52-4.66-59.916-4.66 13.156 7.108 24.56 20.686 24.56 35.846zM404.132 286.164c-2.551 4.607 5.54 21.238 11.066 21.238 5.525 0 79.724-51.74 82.604-55.368-1.93-21.435-12.347-35.604-15.747-26.3-3.4 9.304-26.71 29.463-34.802 34.932-8.091 5.468-40.57 20.89-43.12 25.498z" fill="#49132C"/><path d="M487.27 360.668c18.297.828 28.563.124 30.797-2.111 3.351-3.353-4.791-12.831-3.644-20.855 1.147-8.024 1.686-14.709 15.168-14.11 13.48.598 28.143 10.056 29.978 16.115 1.835 6.058 14.73 24.065 17.638 30.952 2.91 6.888 20.232 5.332 25.432 1.816 5.2-3.516 14.521-15.327 9.453-27.732-5.069-12.405-11.417-31.616-11.417-34.136 0-1.68-2.41-6.353-7.229-14.019-58.56-12.828-90.895-19.242-97.007-19.242-9.17 0-24.993 6.735-23.716 18.396.749 6.837 5.97 20.705 12.905 49 .633 2.584 1.18 7.892 1.642 15.926z" fill="#FFF" fill-rule="nonzero"/><path d="M182.57 226.707c1.834 6.058 14.729 24.065 17.637 30.952 2.91 6.888 20.232 5.332 25.432 1.816 5.2-3.516 14.521-15.327 9.453-27.732-5.069-12.405-11.417-31.616-11.417-34.136 0-1.68-2.41-6.353-7.229-14.019l-51.3-10.662c11.353 34.985 17.16 52.912 17.423 53.78z" fill="url(#s)" fill-rule="nonzero" opacity=".1" transform="translate(377 113)"/></g><g><path d="M77.758 223.066l-3.229 20.502c2.244 4.96 4.568 7.58 6.974 7.864 2.405.284 6.415-1.59 12.03-5.623l-.89-19.564-14.885-3.179zM104.26 76.883c-7.59 2-8.117-7.48-14.363-8.995-4.164-1.01 2.832-4.193 20.986-9.548l4.64.69 16.311 2.424c-13.323 8.952-22.515 14.096-27.575 15.429z" fill="url(#t)" transform="translate(699 19)"/><path d="M19.322 148.129c-5.78 2.122-9.236 4.31-12.93 4.31-3.692 0-10.54 9.166-2.3 10.844 8.24 1.677 13.953 3.808 18.975 0 5.022-3.809 5.622-4.79 12.469-11.586 6.847-6.798 20.932-10.98 29.865-14.053 5.956-2.049 10.075-4.162 12.357-6.34l-18.674-16.226c-5.497 1.95-10.222 5.142-14.175 9.575-5.93 6.65-19.808 21.354-25.587 23.476z" fill="url(#u)" transform="translate(699 19)"/><path d="M55.1 113.961s8.22 6.738 24.663 20.212c13.537-8.292 21.217-13.964 23.042-17.018 1.825-3.054 2.957-4.387 3.396-4l21.792 22.723c-2.728 2.142-2.728 4.405 0 6.79 4.092 3.578 67.621 11.17 72.18 1.44 4.56-9.73 3.427-34.621-24.722-53.729-28.15-19.108-36.442-31.62-43.44-31.62-6.997 0-18.888 11.275-29.206 15.715-10.318 4.441-13.554 7.022-14.66 8.483-.453.598-5.244 4.649-11.321 11.31-2.239 2.453-4.72 7.313-7.125 9.551-7.015 6.526-14.6 10.143-14.6 10.143z" fill="url(#v)" fill-rule="nonzero" transform="translate(699 19)"/><path d="M106.201 113.156l21.792 22.722c-2.728 2.142-2.728 4.405 0 6.79 4.092 3.578 67.621 11.17 72.18 1.44 3.04-6.487-28.284-16.805-93.972-30.952z" fill="url(#v)" fill-rule="nonzero" transform="translate(699 19)"/><path d="M55.1 113.961s8.22 6.738 24.663 20.212c13.537-8.292 21.217-13.964 23.042-17.018 1.825-3.054 2.957-4.387 3.396-4-13.198-19.037-20.557-27.827-22.076-26.369a157.857 157.857 0 00-7.301 7.48c-2.239 2.454-4.72 7.314-7.125 9.552-7.015 6.526-14.6 10.143-14.6 10.143z" fill="url(#w)" fill-rule="nonzero" transform="translate(699 19)"/><path d="M782.994 91.057c0 6.046 23.442-9.14 28.568-14.45 5.126-5.308 4.544-19.445 3.034-23.418-1.509-3.974-8.514-17.82-21.198-15.216-12.684 2.603-22.484 10.578-22.484 15.216s1.167 17.72 3.391 19.856c2.224 2.137 2.896 4.045 2.56 8.135-.336 4.09 6.129 3.831 6.129 9.877z" fill="#FFDABC"/><path d="M811.048 77.588c5.437-4.613 8.741-8.741 9.911-12.383 1.17-3.642.573-7.937-1.793-12.887 1.366-6.538.513-11.537-2.558-14.997-3.071-3.46-8.713-5.781-16.927-6.961-3.609-2.483-6.875-3.546-9.8-3.192-2.924.355-7.278 2.344-13.061 5.967-7.196 2.097-10.555 5.316-10.078 9.656.476 4.34 1.988 7.372 4.534 9.097 5.736-3.688 10.447-6.206 14.133-7.552 3.685-1.346 8.15-1.517 13.394-.511l6.77 9.873c3.117-.482 4.996.823 5.638 3.916.641 3.093-.368 5.984-3.027 8.673l2.864 11.301zM829.515 154.432c-34.63 5.7-53.245 12.122-55.846 19.265-2.602 7.144-3.38 30.135-2.337 68.976 12.34 7.737 19.612 10.372 21.814 7.903 2.202-2.468 2.95-19.92 2.241-52.356 18.286-.1 34.74-2.28 49.361-6.544 14.622-4.263 28.731-14.637 42.328-31.122l-57.56-6.122z" fill="#49132C"/><path d="M898.268 159.672c0 .87 1.13 17.723-6.278 27.825-4.939 6.734-13.866 15.93-26.782 27.59l36.672 20.045c-5.666 9.629-9.497 14.443-11.495 14.443-2.997 0-51.252-17.184-55.778-21.319-4.525-4.135-8.011-18.627 1.016-32.231 6.017-9.07 15.62-21.187 28.808-36.353 22.558-.58 33.837-.58 33.837 0z" fill="#49132C"/><path d="M760.745 270.432c-6.612 2.643-16.432 2.919-11.754 9.11 4.678 6.192 32.889 2.857 39.98 2.857 7.092 0 9.624-1.143 6.82-9.051-1.868-5.272-3.752-9.468-5.652-12.59-4.455 4.12-7.502 6.165-9.142 6.136-3.541-.064-5.72-6.49-7.468-6.135-5.786 1.178-10.29 8.676-12.784 9.673zM892.427 247.952c-3.406-.155-6.728 1.019-9.967 3.52-3.24 2.5-3.853 5.263-1.84 8.286l31.338-1.302c4.524-3.69 5.473-7.192 2.85-10.504-2.625-3.313-7.16-7.528-13.606-12.645l-8.775 12.645z" fill="#FFF" fill-rule="nonzero"/></g><path d="M271.52 330.214c.669 0 9.806-5.548 8.808-12.655-.997-7.108-2.257-8.948 1.55-8.948 3.806 0 16.925-2.193 22.04-9.14 5.115-6.948.736-18.281-12.387-12.43 0-9.572-23.523-15.184-24.445 2.25-16.386-1.91-21.765 12.292-16.386 18.902-10.072 2.601-16.613 6.27-18.363 15.75s3.374 15.185 13.94 15.185c-2.657 12.236 8.566 15.65 18.848 10.66 7.39-3.587 6.129-19.574 6.394-19.574z" fill="#63203F" fill-rule="nonzero"/></g></g></svg>