<svg id="eR7wPBDvSqM1" xmlns="http://www.w3.org/2000/svg" xmlns:xlink="http://www.w3.org/1999/xlink" viewBox="0 0 786.82 572.258" shape-rendering="geometricPrecision" text-rendering="geometricPrecision"><style><![CDATA[#eR7wPBDvSqM61 {animation: eR7wPBDvSqM61_c_o 3000ms linear infinite normal forwards}@keyframes eR7wPBDvSqM61_c_o { 0% {opacity: 0} 33.333333% {opacity: 1} 100% {opacity: 1}} #eR7wPBDvSqM62 {animation: eR7wPBDvSqM62_c_o 3000ms linear infinite normal forwards}@keyframes eR7wPBDvSqM62_c_o { 0% {opacity: 0} 50% {opacity: 1} 100% {opacity: 1}} #eR7wPBDvSqM63 {animation: eR7wPBDvSqM63_c_o 3000ms linear infinite normal forwards}@keyframes eR7wPBDvSqM63_c_o { 0% {opacity: 0} 66.666667% {opacity: 1} 100% {opacity: 1}} #eR7wPBDvSqM72 {animation: eR7wPBDvSqM72_c_o 3000ms linear infinite normal forwards}@keyframes eR7wPBDvSqM72_c_o { 0% {opacity: 0} 66.666667% {opacity: 1} 100% {opacity: 1}}]]></style><defs><linearGradient id="eR7wPBDvSqM75-fill" x1="0.5" y1="0.739" x2="0.5" y2="1" spreadMethod="pad" gradientUnits="objectBoundingBox" gradientTransform="matrix(1 0 0 1 0 0)"><stop id="eR7wPBDvSqM75-fill-0" offset="0%" stop-color="rgb(0,0,0)"/><stop id="eR7wPBDvSqM75-fill-1" offset="100%" stop-color="rgb(105,25,214)"/></linearGradient><linearGradient id="eR7wPBDvSqM76-fill" x1="0.5" y1="0" x2="0.5" y2="1" spreadMethod="pad" gradientUnits="objectBoundingBox" gradientTransform="matrix(1 0 0 1 0 0)"><stop id="eR7wPBDvSqM76-fill-0" offset="0%" stop-color="rgb(0,0,0)"/><stop id="eR7wPBDvSqM76-fill-1" offset="46.8%" stop-color="rgb(3,0,5)"/><stop id="eR7wPBDvSqM76-fill-2" offset="100%" stop-color="rgb(79,6,141)"/></linearGradient></defs><g id="eR7wPBDvSqM2"><circle id="eR7wPBDvSqM3" r="26.701" transform="matrix(1 0 0 1 458.322 74.182)" fill="rgb(242,242,242)" stroke="none" stroke-width="1"/><path id="eR7wPBDvSqM4" d="M872.038,661.023C911.726,630.794,930.681,579.998,918.814,531.541Q918.372,529.735,917.88,527.941C910.013,499.178,890.548,471.841,862.18,462.65C838.36,454.933,812.36,460.867,787.511,457.798C738.73,451.774,700.911,412.304,674.3,370.979C647.689,329.654,627.238,283.396,591.878,249.255C533.593,192.98,438.516,180.864,366.251,217.495C293.986,254.126,247.951,335.395,249.918,416.395C251.885,497.395,299.964,574.817,369.793,615.9C395.445,630.993,425.114,641.685,454.641,637.944C480.261,634.698,503.541,620.931,529.041,616.844C569.132,610.418,608.968,628.544,643.641,649.668C678.314,670.792,711.811,695.828,751.215,705.62C789.478,715.131,836.88,687.8,872.038,661.023Z" transform="matrix(1 0 0 1 -206.59 -163.871)" fill="rgb(242,242,242)" stroke="none" stroke-width="1"/><path id="eR7wPBDvSqM5" d="M815.016,219.191C814.146,218.611,813.266,218.061,812.396,217.501C787.247007,201.416766,760.291377,188.350116,732.086,178.571L725.546,268.791L684.086,268.791L684.086,165.4C681.476,164.86,678.846,164.35,676.216,163.87L676.216,268.79L626.946,268.79C570.463839,268.79,524.676,223.002161,524.676,166.52L524.676,166.52C522.036,167.09,519.416,167.7,516.796,168.35L516.796,268.79L476.666,268.79L470.436,182.76C441.450674,193.876304,413.93319,208.494757,388.496,226.29C388.056,226.59,387.616,226.9,387.186,227.2C384.976,228.75,382.796,230.33,380.626,231.93L380.626,576.12L498.9,576.12L496.81,547.17L485.31,388.22L716.9,388.22L705.4,547.17L703.31,576.12L820.27,576.12L820.27,222.671Q817.656,220.9,815.016,219.191ZM516.8,361.971L483.41,361.971L477.24,276.671L516.8,276.671ZM676.22,361.971L620.14,361.971L620.14,360.281C620.140002,358.640228,619.487524,357.066803,618.326386,355.907541C617.165247,354.748278,615.59077,354.098345,613.95,354.101L589.57,354.101C587.930718,354.100204,586.358348,354.751053,585.199201,355.910201C584.040053,357.069348,583.389204,358.641718,583.39,360.281L583.39,361.971L524.68,361.971L524.68,276.671L676.22,276.671ZM684.09,361.971L684.09,276.671L724.98,276.671L718.81,361.971Z" transform="matrix(1 0 0 1 -206.59 -163.871)" fill="rgb(0,0,0)" stroke="none" stroke-width="1"/><path id="eR7wPBDvSqM6" d="M206.59,598.162C215.27726,608.455489,224.673499,618.12907,234.71,627.112L965.29,628.112C975.326497,619.129065,984.722735,609.455484,993.41,599.162Z" transform="matrix(1 0 0 1 -206.59 -163.871)" fill="rgb(0,0,0)" stroke="none" stroke-width="1"/><path id="eR7wPBDvSqM7" d="M702.02,505.462L702.02,591.162C702.021655,593.436175,703.864825,595.279345,706.139,595.281L833.139,595.281C835.413175,595.279345,837.256345,593.436175,837.258,591.162L837.258,505.462C837.253043,503.189844,835.41116,501.349749,833.139,501.347L706.139,501.347C703.86684,501.349749,702.024957,503.189844,702.02,505.462Z" transform="matrix(1 0 0 1 -206.59 -163.871)" fill="rgb(83,0,180)" stroke="none" stroke-width="1"/><path id="eR7wPBDvSqM8" d="M705,506.529L705,590.109C705.002749,591.322886,705.986114,592.306251,707.2,592.309L832.086,592.309C833.299886,592.306251,834.283251,591.322886,834.286,590.109L834.286,506.529C834.286004,505.312999,833.301996,504.326307,832.086,504.323L707.2,504.323C705.984004,504.326307,704.999996,505.312999,705,506.529Z" transform="matrix(1 0 0 1 -206.59 -163.871)" fill="rgb(0,0,0)" stroke="none" stroke-width="1"/><path id="eR7wPBDvSqM9" d="M699.364,607.881C699.835254,608.471964,700.551153,608.814623,701.307,608.811L837.3,608.811C838.05355,608.810949,838.766876,608.471004,839.241533,607.885736C839.71619,607.300468,839.901533,606.532324,839.746,605.795L837.635,595.768C837.457291,594.937141,836.87085,594.252835,836.077,593.95C835.794156,593.838805,835.492917,593.781814,835.189,593.782L703.41,593.782C703.106152,593.781543,702.804924,593.838192,702.522,593.949C701.72815,594.251835,701.141709,594.936141,700.964,595.767L698.853,605.8C698.70077,606.536801,698.888458,607.302982,699.364,607.886Z" transform="matrix(1 0 0 1 -206.59 -163.871)" fill="rgb(83,0,180)" stroke="none" stroke-width="1"/><rect id="eR7wPBDvSqM10" width="4.188" height="2.513" rx="0.488" ry="0.488" transform="matrix(-1 0 0 -1 627.632 434.23)" fill="rgb(0,0,0)" stroke="none" stroke-width="1"/><rect id="eR7wPBDvSqM11" width="4.188" height="2.513" rx="0.488" ry="0.488" transform="matrix(-1 0 0 -1 619.255 434.23)" fill="rgb(0,0,0)" stroke="none" stroke-width="1"/><rect id="eR7wPBDvSqM12" width="4.188" height="2.513" rx="0.488" ry="0.488" transform="matrix(-1 0 0 -1 610.878 434.23)" fill="rgb(0,0,0)" stroke="none" stroke-width="1"/><rect id="eR7wPBDvSqM13" width="4.188" height="2.513" rx="0.488" ry="0.488" transform="matrix(-1 0 0 -1 602.501 434.23)" fill="rgb(0,0,0)" stroke="none" stroke-width="1"/><rect id="eR7wPBDvSqM14" width="4.188" height="2.513" rx="0.488" ry="0.488" transform="matrix(-1 0 0 -1 594.124 434.23)" fill="rgb(0,0,0)" stroke="none" stroke-width="1"/><rect id="eR7wPBDvSqM15" width="4.188" height="2.513" rx="0.488" ry="0.488" transform="matrix(-1 0 0 -1 585.747 434.23)" fill="rgb(0,0,0)" stroke="none" stroke-width="1"/><rect id="eR7wPBDvSqM16" width="4.188" height="2.513" rx="0.488" ry="0.488" transform="matrix(-1 0 0 -1 577.37 434.23)" fill="rgb(0,0,0)" stroke="none" stroke-width="1"/><rect id="eR7wPBDvSqM17" width="4.188" height="2.513" rx="0.488" ry="0.488" transform="matrix(-1 0 0 -1 568.993 434.23)" fill="rgb(0,0,0)" stroke="none" stroke-width="1"/><rect id="eR7wPBDvSqM18" width="4.188" height="2.513" rx="0.488" ry="0.488" transform="matrix(-1 0 0 -1 560.616 434.23)" fill="rgb(0,0,0)" stroke="none" stroke-width="1"/><rect id="eR7wPBDvSqM19" width="4.188" height="2.513" rx="0.488" ry="0.488" transform="matrix(-1 0 0 -1 552.239 434.23)" fill="rgb(0,0,0)" stroke="none" stroke-width="1"/><rect id="eR7wPBDvSqM20" width="4.188" height="2.513" rx="0.488" ry="0.488" transform="matrix(-1 0 0 -1 543.862 434.23)" fill="rgb(0,0,0)" stroke="none" stroke-width="1"/><rect id="eR7wPBDvSqM21" width="4.188" height="2.513" rx="0.488" ry="0.488" transform="matrix(-1 0 0 -1 535.485 434.23)" fill="rgb(0,0,0)" stroke="none" stroke-width="1"/><rect id="eR7wPBDvSqM22" width="4.188" height="2.513" rx="0.488" ry="0.488" transform="matrix(-1 0 0 -1 527.109 434.23)" fill="rgb(0,0,0)" stroke="none" stroke-width="1"/><rect id="eR7wPBDvSqM23" width="4.188" height="2.513" rx="0.488" ry="0.488" transform="matrix(-1 0 0 -1 518.732 434.23)" fill="rgb(0,0,0)" stroke="none" stroke-width="1"/><rect id="eR7wPBDvSqM24" width="4.188" height="2.513" rx="0.488" ry="0.488" transform="matrix(-1 0 0 -1 510.355 434.23)" fill="rgb(0,0,0)" stroke="none" stroke-width="1"/><rect id="eR7wPBDvSqM25" width="4.188" height="2.513" rx="0.488" ry="0.488" transform="matrix(-1 0 0 -1 501.977 434.23)" fill="rgb(0,0,0)" stroke="none" stroke-width="1"/><rect id="eR7wPBDvSqM26" width="4.188" height="2.513" rx="0.488" ry="0.488" transform="matrix(-1 0 0 -1 627.731 438.419)" fill="rgb(0,0,0)" stroke="none" stroke-width="1"/><rect id="eR7wPBDvSqM27" width="4.188" height="2.513" rx="0.488" ry="0.488" transform="matrix(-1 0 0 -1 619.354 438.419)" fill="rgb(0,0,0)" stroke="none" stroke-width="1"/><rect id="eR7wPBDvSqM28" width="4.188" height="2.513" rx="0.488" ry="0.488" transform="matrix(-1 0 0 -1 610.977 438.419)" fill="rgb(0,0,0)" stroke="none" stroke-width="1"/><rect id="eR7wPBDvSqM29" width="4.188" height="2.513" rx="0.488" ry="0.488" transform="matrix(-1 0 0 -1 602.6 438.419)" fill="rgb(0,0,0)" stroke="none" stroke-width="1"/><rect id="eR7wPBDvSqM30" width="4.188" height="2.513" rx="0.488" ry="0.488" transform="matrix(-1 0 0 -1 594.223 438.419)" fill="rgb(0,0,0)" stroke="none" stroke-width="1"/><rect id="eR7wPBDvSqM31" width="4.188" height="2.513" rx="0.488" ry="0.488" transform="matrix(-1 0 0 -1 585.846 438.419)" fill="rgb(0,0,0)" stroke="none" stroke-width="1"/><rect id="eR7wPBDvSqM32" width="4.188" height="2.513" rx="0.488" ry="0.488" transform="matrix(-1 0 0 -1 577.469 438.419)" fill="rgb(0,0,0)" stroke="none" stroke-width="1"/><rect id="eR7wPBDvSqM33" width="4.188" height="2.513" rx="0.488" ry="0.488" transform="matrix(-1 0 0 -1 569.092 438.419)" fill="rgb(0,0,0)" stroke="none" stroke-width="1"/><rect id="eR7wPBDvSqM34" width="4.188" height="2.513" rx="0.488" ry="0.488" transform="matrix(-1 0 0 -1 560.715 438.419)" fill="rgb(0,0,0)" stroke="none" stroke-width="1"/><rect id="eR7wPBDvSqM35" width="4.188" height="2.513" rx="0.488" ry="0.488" transform="matrix(-1 0 0 -1 552.338 438.419)" fill="rgb(0,0,0)" stroke="none" stroke-width="1"/><rect id="eR7wPBDvSqM36" width="4.188" height="2.513" rx="0.488" ry="0.488" transform="matrix(-1 0 0 -1 543.961 438.419)" fill="rgb(0,0,0)" stroke="none" stroke-width="1"/><rect id="eR7wPBDvSqM37" width="4.188" height="2.513" rx="0.488" ry="0.488" transform="matrix(-1 0 0 -1 535.584 438.419)" fill="rgb(0,0,0)" stroke="none" stroke-width="1"/><rect id="eR7wPBDvSqM38" width="4.188" height="2.513" rx="0.488" ry="0.488" transform="matrix(-1 0 0 -1 527.207 438.419)" fill="rgb(0,0,0)" stroke="none" stroke-width="1"/><rect id="eR7wPBDvSqM39" width="4.188" height="2.513" rx="0.488" ry="0.488" transform="matrix(-1 0 0 -1 518.831 438.419)" fill="rgb(0,0,0)" stroke="none" stroke-width="1"/><rect id="eR7wPBDvSqM40" width="4.188" height="2.513" rx="0.488" ry="0.488" transform="matrix(-1 0 0 -1 510.453 438.419)" fill="rgb(0,0,0)" stroke="none" stroke-width="1"/><rect id="eR7wPBDvSqM41" width="4.188" height="2.513" rx="0.488" ry="0.488" transform="matrix(-1 0 0 -1 502.077 438.419)" fill="rgb(0,0,0)" stroke="none" stroke-width="1"/><rect id="eR7wPBDvSqM42" width="33.508" height="2.513" rx="0.488" ry="0.488" transform="matrix(-1 0 0 -1 587.522 443.445)" fill="rgb(0,0,0)" stroke="none" stroke-width="1"/><path id="eR7wPBDvSqM43" d="M711.507,654.353L698.157,633.253L740.057,599.853L757.357,580.692C761.929692,575.625731,768.851961,573.374055,775.530142,574.780638C782.208324,576.187222,787.634284,581.039728,789.775,587.52L789.775,587.52C793.015723,597.328363,787.898047,607.940131,778.205,611.511L750.856,621.586Z" transform="matrix(1 0 0 1 -204.59 -163.871)" fill="rgb(255,182,182)" stroke="none" stroke-width="1"/><path id="eR7wPBDvSqM44" d="M398.28,501.352L398.28,603.912L470.13,603.912L470.13,501.352C470.132505,499.837748,469.146753,498.499072,467.7,498.052C467.367826,497.942288,467.019803,497.888226,466.67,497.892L401.75,497.892C400.830863,497.890142,399.948691,498.25376,399.297824,498.902751C398.646957,499.551742,398.280794,500.432861,398.28,501.352ZM426.32,536.592C426.32,533.851773,427.781894,531.319698,430.155,529.949585C432.528106,528.579471,435.451894,528.579471,437.825,529.949585C440.198106,531.319698,441.66,533.851773,441.66,536.592L441.66,548.492C441.66,551.232227,440.198106,553.764302,437.825,555.134415C435.451894,556.504529,432.528106,556.504529,430.155,555.134415C427.781894,553.764302,426.32,551.232227,426.32,548.492Z" transform="matrix(1 0 0 1 -206.59 -163.871)" fill="rgb(0,0,0)" stroke="none" stroke-width="1"/><path id="eR7wPBDvSqM45" d="M398.06,600.632L398.06,610.522C398.063251,611.588189,398.923842,612.453239,399.99,612.462L468.42,612.462C469.487525,612.456497,470.350014,611.589539,470.35,610.522L470.35,600.632Z" transform="matrix(1 0 0 1 -206.59 -163.871)" fill="rgb(63,61,86)" stroke="none" stroke-width="1"/><path id="eR7wPBDvSqM46" d="M285.25,346.832L285.25,534.092C285.25386,539.060963,289.281037,543.08814,294.25,543.092L571.75,543.092C576.718963,543.08814,580.74614,539.060963,580.75,534.092L580.75,346.832C580.738435,341.867856,576.714154,337.848046,571.75,337.842L294.25,337.842C289.286073,337.848595,285.262114,341.868084,285.25,346.832Z" transform="matrix(1 0 0 1 -206.59 -163.871)" fill="rgb(255,255,255)" stroke="none" stroke-width="1"/><path id="eR7wPBDvSqM47" d="M291.76,349.162L291.76,531.782C291.764404,534.436663,293.915337,536.587596,296.57,536.592L569.44,536.592C572.094663,536.587596,574.245596,534.436663,574.25,531.782L574.25,349.162C574.250007,346.504277,572.098716,344.348065,569.441,344.342L296.57,344.342C293.912122,344.348064,291.760544,346.504115,291.76,349.162Z" transform="matrix(1 0 0 1 -206.59 -163.871)" fill="rgb(0,0,0)" stroke="none" stroke-width="1"/><path id="eR7wPBDvSqM48" d="M342.4,611.792C342.962662,612.49761,343.81753,612.90662,344.72,612.902L507.06,612.902C507.959148,612.90097,508.809995,612.494957,509.376406,611.796641C509.942818,611.098325,510.164526,610.18201,509.98,609.302L507.46,597.332C507.247715,596.340244,506.547621,595.523468,505.6,595.162C505.262337,595.029444,504.90275,594.961598,504.54,594.962L347.23,594.962C346.867268,594.961788,346.507716,595.029628,346.17,595.162C345.222269,595.523313,344.522115,596.340159,344.31,597.332L341.79,609.302C341.608417,610.181502,341.832455,611.096019,342.4,611.792Z" transform="matrix(1 0 0 1 -206.59 -163.871)" fill="rgb(0,0,0)" stroke="none" stroke-width="1"/><path id="eR7wPBDvSqM49" d="M560.585,369.5L305.261,369.5C304.700155,369.5,304.2455,369.045345,304.2455,368.4845C304.2455,367.923655,304.700155,367.469,305.261,367.469L560.585,367.469C561.145845,367.469,561.6005,367.923655,561.6005,368.4845C561.6005,369.045345,561.145845,369.5,560.585,369.5Z" transform="matrix(1 0 0 1 -206.59 -163.871)" fill="rgb(0,0,0)" stroke="none" stroke-width="1"/><ellipse id="eR7wPBDvSqM50" rx="5.95" ry="6.083" transform="matrix(1 0 0 1 116.051 192.33)" fill="rgb(255,0,0)" stroke="none" stroke-width="1"/><ellipse id="eR7wPBDvSqM51" rx="5.95" ry="6.083" transform="matrix(1 0 0 1 136.607 192.33)" fill="rgb(253,255,0)" stroke="none" stroke-width="1"/><ellipse id="eR7wPBDvSqM52" rx="5.95" ry="6.083" transform="matrix(1 0 0 1 157.163 192.33)" fill="rgb(19,255,3)" stroke="none" stroke-width="1"/><path id="eR7wPBDvSqM53" d="M548.206,351.622L533.606,351.622C532.995725,351.622,532.501,352.116725,532.501,352.727C532.501,353.337275,532.995725,353.832,533.606,353.832L548.206,353.832C548.600779,353.832,548.965569,353.621388,549.162958,353.2795C549.360347,352.937612,549.360347,352.516388,549.162958,352.1745C548.965569,351.832612,548.600779,351.622,548.206,351.622Z" transform="matrix(1 0 0 1 -206.59 -163.871)" fill="rgb(0,0,0)" stroke="none" stroke-width="1"/><path id="eR7wPBDvSqM54" d="M548.206,355.772L533.606,355.772C533.211221,355.772,532.846431,355.982612,532.649042,356.3245C532.451653,356.666388,532.451653,357.087612,532.649042,357.4295C532.846431,357.771388,533.211221,357.982,533.606,357.982L548.206,357.982C548.600779,357.982,548.965569,357.771388,549.162958,357.4295C549.360347,357.087612,549.360347,356.666388,549.162958,356.3245C548.965569,355.982612,548.600779,355.772,548.206,355.772Z" transform="matrix(1 0 0 1 -206.59 -163.871)" fill="rgb(0,0,0)" stroke="none" stroke-width="1"/><path id="eR7wPBDvSqM55" d="M548.206,359.922L533.606,359.922C532.995725,359.922,532.501,360.416725,532.501,361.027C532.501,361.637275,532.995725,362.132,533.606,362.132L548.206,362.132C548.600779,362.132,548.965569,361.921388,549.162958,361.5795C549.360347,361.237612,549.360347,360.816388,549.162958,360.4745C548.965569,360.132612,548.600779,359.922,548.206,359.922Z" transform="matrix(1 0 0 1 -206.59 -163.871)" fill="rgb(0,0,0)" stroke="none" stroke-width="1"/><path id="eR7wPBDvSqM56" d="M900.186,604.972C901.089796,607.603679,903.586897,609.352821,906.369,609.303L932.861,608.621C935.666618,608.566251,938.101203,606.670605,938.842,603.964L942.591,563.877C943.921062,564.479665,945.369064,564.777261,946.829,564.748C952.163242,564.614071,956.378929,560.181242,956.245,554.847C956.111071,549.512758,951.678242,545.297071,946.344,545.431C945.76057,545.428926,945.178593,545.48927,944.608,545.611C943.35254,544.254469,941.582239,543.491721,939.734,543.511L898.983,544.563C898.645014,544.575511,898.308753,544.617335,897.978,544.688C896.169957,545.025214,894.596168,546.12804,893.662047,547.712384C892.727926,549.296729,892.524801,551.207692,893.105,552.953ZM943.359,561.155L946.027,551.602C946.330481,550.498352,946.33738,549.334167,946.047,548.227C946.176,548.227,946.291,548.165,946.42,548.165C950.235459,548.075806,953.400806,551.096541,953.49,554.912C953.579194,558.727459,950.558459,561.892806,946.743,561.982C945.560858,562.019671,944.390842,561.734082,943.359,561.156Z" transform="matrix(1 0 0 1 -206.59 -163.871)" fill="rgb(255,255,255)" stroke="none" stroke-width="1"/><path id="eR7wPBDvSqM57" d="M897.978,544.686C898.846,549.65,908.607,553.14,920.344,552.533C931.137,552.033,939.961,548.246,941.578,543.754C940.979773,543.577043,940.357695,543.494054,939.734,543.508L898.984,544.56C898.646019,544.572571,898.309763,544.614394,897.979,544.685Z" transform="matrix(1 0 0 1 -206.59 -163.871)" fill="rgb(0,0,0)" stroke="none" stroke-width="1"/><path id="eR7wPBDvSqM58" d="M922.494,582.944C922.547637,582.930503,922.598664,582.9082,922.645,582.878L928.398,579.112C928.53882,579.019569,928.623635,578.862445,928.623635,578.694C928.623635,578.525555,928.53882,578.368431,928.398,578.276L922.418,574.359C922.187553,574.217094,921.886028,574.284302,921.73766,574.510643C921.589293,574.736985,921.647946,575.04029,921.87,575.195L927.211,578.695L922.097,582.043C921.895616,582.178512,921.82065,582.439086,921.919233,582.660897C922.017815,582.882708,922.261466,583.001674,922.497,582.943Z" transform="matrix(1 0 0 1 -206.59 -163.871)" fill="rgb(83,0,180)" stroke="none" stroke-width="1"/><path id="eR7wPBDvSqM59" d="M913.408,583.363C913.605258,583.312819,913.752409,583.148073,913.780086,582.946424C913.807764,582.744774,913.710442,582.546473,913.534,582.445L908.234,579.405L913.36,575.598C913.502906,575.49082,913.577777,575.315543,913.55641,575.138192C913.535043,574.960842,913.420684,574.808363,913.25641,574.738192C913.092137,574.668022,912.902906,574.69082,912.76,574.798L907.021,579.061C906.885643,579.161498,906.810044,579.323441,906.81992,579.491738C906.829796,579.660035,906.923818,579.812023,907.07,579.896L913.035,583.316C913.148485,583.379593,913.282287,583.396453,913.408,583.363Z" transform="matrix(1 0 0 1 -206.59 -163.871)" fill="rgb(83,0,180)" stroke="none" stroke-width="1"/><path id="eR7wPBDvSqM60" d="M921.922,586.244C921.970409,586.23192,922.016633,586.21235,922.059,586.186C922.294791,586.042381,922.369552,585.734832,922.226,585.499L914.071,572.091C913.92713,571.855174,913.619326,571.78063,913.3835,571.9245C913.147674,572.06837,913.07313,572.376174,913.217,572.612L921.372,586.02C921.486334,586.207247,921.709378,586.298086,921.922,586.244Z" transform="matrix(1 0 0 1 -206.59 -163.871)" fill="rgb(83,0,180)" stroke="none" stroke-width="1"/><rect id="eR7wPBDvSqM61" width="50.719" height="10.846" rx="3.264" ry="3.264" transform="matrix(1 0 0 1 209.385 260.827)" opacity="0" fill="rgb(108,99,255)" stroke="none" stroke-width="1"/><rect id="eR7wPBDvSqM62" width="102.236" height="10.846" rx="3.264" ry="3.264" transform="matrix(1 0 0 1 183.626 282.519)" opacity="0" fill="rgb(230,230,230)" stroke="none" stroke-width="1"/><rect id="eR7wPBDvSqM63" width="102.236" height="10.846" rx="3.264" ry="3.264" transform="matrix(1 0 0 1 183.626 304.21)" opacity="0" fill="rgb(230,230,230)" stroke="none" stroke-width="1"/><path id="eR7wPBDvSqM64" d="M497.3,540.717L497.517,541.401L497.528,541.424L504.053,561.262L511.559,584.123L525.682,627.084L525.819,633.757L525.819,633.78L526.868,687.465L523.959,694.743L527.233,706.675C527.233,706.675,525.727,688.638,517.651,698.996C513.077,704.882,507.726,710.906,503.334,716.552Q512.934,720.436,522.841,723.579C524.267,724.035,525.704,724.469,527.141,724.902L528.065,725.176C549.960831,731.650555,572.597065,735.288269,595.419,736C596.605,736.034,597.769,736.057,598.898,736.08C599.298,736.091,599.685,736.103,600.073,736.103C601.351,736.114,602.617,736.126,603.895,736.126Q607.762,736.126,611.595,736.012C630.508062,735.478975,649.310803,732.936008,667.686,728.426C667.561,720.84,667.218,711.976,666.728,702.508C666.5,697.865,661.378,692.834,661.07,687.975C660.853,684.325,665.451,680.891,665.211,677.183C663.66,654.356,661.72,663.119,660.283,646.954Q660.061,644.575,659.872,642.402C658.948,632.021,658.309,625.53,658.309,625.53L664.446,586.847L674.086,526.113L673.344,524.892L672.511,524.481L621.667,499.316L618.906,492.243C617.260298,488.074664,613.246353,485.324947,608.765,485.296L575.272,485.159C571.745644,485.143246,568.42828,486.829669,566.363,489.688L557.294,502.248Z" transform="matrix(1 0 0 1 -206.59 -163.871)" fill="rgb(83,0,180)" stroke="none" stroke-width="1"/><path id="eR7wPBDvSqM65" d="M533.407,617.525L525.821,633.758L520.642,644.846L511.733,691.492L507.273,696.226L503.451,679.467L463.451,688.348C462.139,681.059,463.1,688.595,462.29,680.598C462.518,680.37,462.758,680.142,462.997,679.913C463.636,679.32,464.172,678.761,464.161,678.225C463.705,650.641,465.074,603.699,476.504,575.259C478.294224,570.615726,480.654652,566.212975,483.531,562.152C483.759,561.844,483.976,561.536,484.193,561.228C489.463,553.847,492.793,546.581,497.517,541.413L497.517,541.4C497.546445,541.376264,497.573264,541.349445,497.597,541.32C497.614298,541.311599,497.629893,541.300072,497.643,541.286L530.086,524.086L531.478,563.191L532.47,591.3Z" transform="matrix(1 0 0 1 -206.59 -163.871)" fill="rgb(83,0,180)" stroke="none" stroke-width="1"/><path id="eR7wPBDvSqM66" d="M650.391,622.135L659.867,642.41L663.174,649.471L672.081,696.113L676.527,700.836L680.357,684.081L682.157,683.712L714.615,676.99L724.076,707.036C728.472125,699.711621,727.109214,690.305406,720.815,684.53C720.169,683.945,719.631,683.376,719.646,682.838C720.184,650.395,718.2,591.154,700.279,566.772C694.587,559.034,691.172,551.327,686.203,545.943C686.188,545.928,686.188,545.912,686.172,545.912L674.081,526.112L673.343,524.897L672.512,524.482Z" transform="matrix(1 0 0 1 -206.59 -163.871)" fill="rgb(83,0,180)" stroke="none" stroke-width="1"/><circle id="eR7wPBDvSqM67" r="44.558" transform="matrix(1 0 0 1 386.396 267.2)" fill="rgb(255,182,182)" stroke="none" stroke-width="1"/><path id="eR7wPBDvSqM68" d="M653.212,399.948C652.514198,399.20241,651.543084,398.772809,650.522,398.758L651.192,396.898C651.637035,395.705194,651.4049,394.365138,650.584581,393.391527C649.764262,392.417916,648.483018,391.96179,647.232,392.198L644.792,392.668L645.022,391.038C645.201385,389.802931,644.716036,388.564823,643.745104,387.780688C642.774173,386.996553,641.461644,386.782675,640.292,387.218C639.232746,387.634958,638.041731,387.550411,637.052,386.988C636.058964,386.443091,635.356543,385.488237,635.132,384.378L634.282,380.278L634.192,380.058C630.052,373.158,622.092,368.138,612.352,366.298C603.682,364.648,594.792,365.488,586.222,366.278C582.822,366.598,578.982,366.958,575.782,368.918C573.062,370.598,570.762,373.958,571.232,377.348C562.782,374.758,553.722,379.928,549.232,386.448C543.912,394.208,543.042,403.928,542.902,411.528C542.522,429.508,546.232,444.218,553.902,455.258C554.462,456.058,554.602,457.728,555.712,458.288L555.482,457.918C556.722,458.538,557.982,459.538,557.512,460.608C556.162,463.688,565.132,470.498,571.452,472.748C582.982,476.858,598.312,476.508,609.092,475.028L609.472,472.478C613.362,471.948,616.102,470.938,616.872,469.358C618.232,468.198,619.392,467.158,620.402,466.198L620.412,466.188C620.432,466.168,620.472,466.138,620.492,466.118C625.362,461.448,626.492,458.788,627.002,454.738C627.492,450.768,626.622,446.738,625.732,443.108C644.472,446.008,618.352,423.148,635.812,418.728C636.012266,418.666262,636.215941,418.616178,636.422,418.578C636.932,418.458,637.442,418.338,637.932,418.198C640.294012,417.556897,642.555595,416.591012,644.652,415.328C649.532,412.358,651.142,408.418,653.662,403.978C654.408455,402.680598,654.226244,401.048798,653.212,399.948Z" transform="matrix(1 0 0 1 -206.59 -163.871)" fill="rgb(0,0,2)" stroke="none" stroke-width="1"/><path id="eR7wPBDvSqM69" d="M750.582,625.308C750.572,627.058,750.552,629.508,750.472,632.538Q750.457,633.168,750.442,633.828C750.312,639.398,750.182,644.068,749.972,649.258C749.962,649.618,749.952,649.968,749.932,650.328C749.652,657.568,749.212,665.998,748.452,679.348C747.042,704.008,744.582,682.738,742.112,691.388C741.992,691.818,741.862,692.328,741.742,692.928C741.367933,695.104938,740.736854,697.229795,739.862,699.258C738.552,700.038,737.202,700.788,735.872,701.538C732.082,703.648,728.232,705.678,724.352,707.608C722.172,708.688,719.982,709.748,717.782,710.768C717.432,710.928,717.092,711.088,716.752,711.238C705.485535,716.449668,693.874171,720.880778,682,724.5C679.68,725.2,677.37,725.88,675.03,726.51C672.59,727.19,670.15,727.83,667.68,728.43C649.305222,732.941011,630.502847,735.485315,611.59,736.02C609.04,736.1,606.47,736.13,603.89,736.13C602.61,736.13,601.35,736.12,600.07,736.11C599.68,736.11,599.29,736.1,598.9,736.09C597.77,736.06,596.6,736.04,595.42,736.01C572.598943,735.298123,549.963797,731.658351,528.07,725.18L527.14,724.91C525.7,724.47,524.27,724.04,522.84,723.58Q512.94,720.445,503.33,716.56Q495.995,713.605,488.83,710.22C488.786402,710.208194,488.745603,710.187795,488.71,710.16C487.71,709.7,486.7,709.22,485.7,708.73C485.57,708.66,485.43,708.59,485.29,708.52Q479.69,705.79,474.22,702.8C471.15,695.75,466.83,694.4,464.15,688.2C463.370005,686.358039,462.806239,684.431841,462.47,682.46C462.47,682.44,462.46,682.42,462.46,682.39C462.74,686.11,461.27,675.79,462.45,682.35C462.44,682.23,462.43,682.1,462.42,681.95C462.39,681.59,462.35,681.15,462.29,680.6C458.86,647.11,459.08,608.81,457.59,577.25Q457.44,574.19,457.28,571.39C457.25,570.77,457.21,570.16,457.17,569.56C457.24,569.38,457.32,569.19,457.41,569.01C457.429148,568.958151,457.452561,568.90798,457.48,568.86C457.509492,568.797945,457.542893,568.737824,457.58,568.68C457.6,568.65,457.63,568.61,457.65,568.58C457.664624,568.545684,457.681321,568.512289,457.7,568.48C457.79,568.34,457.89,568.19,458,568.05C458.05,567.99,458.09,567.94,458.14,567.89C458.174541,567.838918,458.214801,567.791947,458.26,567.75C458.290693,567.701946,458.327689,567.658223,458.37,567.62C458.41,567.58,458.45,567.53,458.5,567.48C458.521351,567.448501,458.548501,567.421351,458.58,567.4C458.659104,567.309142,458.746111,567.225481,458.84,567.15C459.196785,566.82171,459.57787,566.520853,459.98,566.25C460.12,566.16,460.27,566.07,460.41,565.97C461.41778,565.367123,462.478925,564.858309,463.58,564.45C463.96,564.31,464.34,564.18,464.75,564.04C464.9,564,465.04,563.95,465.19,563.9C465.41,563.83,465.63,563.76,465.86,563.71C467,563.37,468.23,563.08,469.56,562.81C469.72,562.78,469.89,562.75,470.06,562.71C470.3,562.66,470.55,562.62,470.8,562.58C471.14,562.52,471.49,562.46,471.84,562.4C474.81,561.93,478.18,561.58,481.9,561.35L482.95,561.29L484.19,561.23C484.54,561.21,484.9,561.2,485.26,561.19C485.62,561.18,485.97,561.16,486.34,561.15C487.35,561.12,488.39,561.09,489.45,561.07C492.47,561.01,495.65,561.03,498.99,561.1C500.54,561.14,502.12,561.18,503.74,561.25C503.85,561.25,503.95,561.26,504.05,561.26C505.46,561.31,506.88,561.37,508.34,561.45C509.36,561.5,510.39,561.55,511.42,561.61C512.39,561.67,513.37,561.73,514.36,561.8C515.13,561.84,515.9,561.9,516.68,561.95C517.34,562,518,562.05,518.66,562.09L519.56,562.15C520.05,562.19,520.54,562.22,521.04,562.27C522.14,562.36,523.24,562.45,524.36,562.54C525.48,562.63,526.6,562.74,527.73,562.84C528.86,562.94,530,563.05,531.14,563.16L531.48,563.19C532.52,563.3,533.56,563.4,534.61,563.51C534.85,563.53,535.1,563.55,535.34,563.58C536.34,563.68,537.362,563.798,538.372,563.906L539.301,564.006C540.092,564.092,540.873,564.167,541.669,564.26C542.719,564.38,543.789,564.49,544.829,564.63C545.639,564.72,546.449,564.81,547.259,564.91C548.529,565.06,549.819,565.22,551.109,565.39C551.599,565.45,552.089,565.51,552.579,565.58C556.259,566.04,559.979,566.55,563.759,567.08C569.489,567.89,575.309,568.77,581.169,569.72C587.029,570.67,592.942,571.673,598.879,572.73C600.379,573,601.879,573.27,603.389,573.55L605.429,573.94C606.589,574.15,607.749,574.37,608.909,574.59C610.069,574.81,611.229,575.03,612.389,575.26L616.539,576.07C625.629,577.87,634.669,579.79,643.489,581.8C644.939,582.13,646.389,582.47,647.829,582.8Q652.149,583.8,656.389,584.84C657.169,585.02,657.939,585.21,658.709,585.4C660.629,585.88,662.549,586.36,664.439,586.85L664.769,586.94C666.159,587.28,667.519,587.63,668.879,587.99Q673.694,589.25,678.349,590.54Q681.439,591.395,684.459,592.27C687.469,593.14,690.419,594.02,693.289,594.91C693.999,595.13,694.709,595.35,695.409,595.56C697.509,596.21,699.579,596.87,701.589,597.53C703.189,598.05,704.749,598.58,706.289,599.11C707.829,599.64,709.339,600.17,710.819,600.7C711.769,601.04,712.709,601.4,713.649,601.74C714.999,602.24,716.329,602.74,717.629,603.24C718.029,603.39,718.419,603.55,718.809,603.7C719.059,603.81,719.299,603.9,719.539,604C720.009,604.19,720.489,604.37,720.949,604.56C721.409,604.75,721.879,604.93,722.339,605.13C722.789,605.31,723.249,605.5,723.689,605.69C724.129,605.88,724.579,606.06,725.019,606.26C725.389,606.41,725.749,606.57,726.099,606.73C726.809,607.04,727.519,607.35,728.209,607.67C728.549,607.83,728.889,607.98,729.229,608.14L730.009,608.5C730.119,608.56,730.229,608.61,730.339,608.66C730.589,608.78,730.849,608.91,731.099,609.03C731.679,609.3,732.249,609.59,732.809,609.86C733.559,610.24,734.289,610.62,734.989,610.99C735.689,611.36,736.389,611.75,737.049,612.12C737.159,612.18,737.259,612.24,737.369,612.3C737.519,612.38,737.669,612.47,737.819,612.55C738.329,612.84,738.819,613.14,739.309,613.43C740.269,614.02,741.179,614.6,742.029,615.18C742.219,615.31,742.399,615.44,742.589,615.56C743.219,616.01,743.819,616.45,744.379,616.9C744.379,616.91,744.379,616.91,744.389,616.91C744.579,617.05,744.759,617.2,744.939,617.34C745.089,617.48,745.249,617.6,745.399,617.74C745.919,618.19,746.399,618.62,746.839,619.06C746.986515,619.195796,747.126712,619.339331,747.259,619.49C747.317254,619.538175,747.370825,619.591746,747.419,619.65C747.619,619.85,747.799,620.05,747.969,620.25C747.995388,620.277494,748.018848,620.307656,748.039,620.34C748.279,620.62,748.499,620.9,748.709,621.18C748.809,621.32,748.919,621.46,749.009,621.6C749.129,621.77,749.249,621.95,749.349,622.12C749.439,622.26,749.519,622.41,749.599,622.55C749.811196,622.910418,749.991867,623.28849,750.139,623.68C750.25144,623.945427,750.341747,624.219694,750.409,624.5C750.484732,624.765645,750.541541,625.036323,750.579,625.31Z" transform="matrix(1 0 0 1 -206.59 -163.871)" fill="rgb(0,0,0)" stroke="none" stroke-width="1"/><path id="eR7wPBDvSqM70" d="M750.582,625.308C750.572,627.058,750.552,629.508,750.472,632.538C750.462,632.958,750.442,633.388,750.432,633.828C750.332,638.078,750.182,643.328,749.972,649.258C749.962,649.618,749.952,649.968,749.932,650.328C749.652,657.568,749.212,665.998,748.452,679.348C747.042,704.008,744.582,682.738,742.112,691.388C735.252,687.168,727.732,682.748,719.692,678.208Q717.517,676.978,715.302,675.738C699.222,666.768,681.262,657.368,662.512,648.058C661.772,647.688,661.022,647.318,660.282,646.958C617.332,625.728,570.452,605.078,532.472,591.298C525.142,588.638,518.142,586.238,511.562,584.128C497.702,579.698,485.722,576.598,476.502,575.258C466.902,573.858,460.272,574.358,457.592,577.248Q457.442,574.188,457.282,571.388Q457.222,570.458,457.162,569.558C457.224,569.393,457.304,569.236,457.382,569.078C457.393,569.055,457.401,569.031,457.412,569.008C457.431148,568.956151,457.454561,568.90598,457.482,568.858C457.511504,568.795951,457.544904,568.735831,457.582,568.678C457.614536,568.60713,457.654778,568.540059,457.702,568.478C457.792,568.338,457.892,568.188,458.002,568.048C458.082872,567.943122,458.169681,567.842958,458.262,567.748C458.292683,567.699939,458.32968,567.656215,458.372,567.618C458.412,567.578,458.452,567.528,458.502,567.478C458.523351,567.446501,458.550501,567.419351,458.582,567.398C458.661104,567.307142,458.748111,567.223481,458.842,567.148C459.198785,566.81971,459.57987,566.518853,459.982,566.248C460.122,566.158,460.272,566.068,460.412,565.968C461.41978,565.365123,462.480925,564.856309,463.582,564.448C463.962,564.308,464.342,564.178,464.752,564.038C464.902,563.998,465.042,563.948,465.192,563.898C465.412,563.828,465.632,563.758,465.862,563.708C467.002,563.368,468.232,563.078,469.562,562.808C469.962,562.728,470.382,562.648,470.802,562.578C471.142,562.518,471.492,562.458,471.842,562.398C474.812,561.928,478.182,561.578,481.902,561.348L482.952,561.288L484.192,561.228C484.542,561.208,484.902,561.198,485.262,561.188C485.622,561.178,485.972,561.158,486.342,561.148C487.352,561.118,488.392,561.088,489.452,561.068C492.472,561.018,495.652,561.038,498.992,561.108C500.542,561.138,502.122,561.188,503.742,561.258C503.842,561.258,503.952,561.268,504.052,561.268C505.462,561.308,506.892,561.378,508.342,561.448C509.362,561.498,510.392,561.548,511.422,561.608C512.392,561.668,513.372,561.728,514.362,561.798C515.132,561.838,515.902,561.898,516.682,561.948C517.342,561.998,518.002,562.048,518.662,562.088L521.042,562.268C522.142,562.358,523.242,562.448,524.362,562.538C525.482,562.628,526.602,562.738,527.732,562.838C528.862,562.938,530.002,563.048,531.142,563.158L531.482,563.188C532.522,563.298,533.562,563.398,534.612,563.508Q543.342,564.393,552.582,565.578Q558.102,566.283,563.762,567.088C569.492,567.898,575.312,568.778,581.172,569.718C587.032,570.658,592.945,571.671,598.882,572.728C600.382,572.998,601.882,573.268,603.392,573.548Q606.152,574.058,608.912,574.588C610.072,574.808,611.232,575.028,612.392,575.258L616.542,576.068C625.632,577.868,634.672,579.788,643.492,581.798C644.942,582.128,646.392,582.468,647.832,582.798Q652.152,583.798,656.392,584.838C657.172,585.028,657.942,585.218,658.712,585.408Q661.607,586.128,664.442,586.848L664.442,586.858C664.552,586.878,664.662,586.908,664.772,586.938C666.152,587.288,667.522,587.638,668.882,587.998Q673.697,589.258,678.352,590.538C680.412,591.118,682.452,591.688,684.462,592.268C687.472,593.148,690.422,594.028,693.292,594.908C694.002,595.128,694.712,595.348,695.412,595.558Q698.562,596.548,701.592,597.528C703.192,598.048,704.752,598.578,706.292,599.108C707.832,599.638,709.342,600.168,710.822,600.698C711.782,601.038,712.722,601.388,713.652,601.728C715.012,602.228,716.332,602.728,717.632,603.238C718.032,603.388,718.422,603.548,718.812,603.698C719.542,603.978,720.252,604.268,720.952,604.558C721.422,604.738,721.882,604.928,722.342,605.128C722.792,605.308,723.252,605.498,723.692,605.688C724.132,605.878,724.582,606.058,725.022,606.258C725.392,606.408,725.752,606.568,726.102,606.728C726.812,607.038,727.522,607.348,728.212,607.668C728.552,607.828,728.892,607.978,729.232,608.138L730.012,608.498C730.122,608.558,730.232,608.608,730.342,608.658C731.192,609.058,732.012,609.458,732.812,609.858C733.562,610.238,734.292,610.618,734.992,610.988C735.822,611.428,736.612,611.858,737.372,612.298C737.522,612.378,737.672,612.468,737.822,612.548C738.332,612.838,738.822,613.138,739.312,613.428C740.272,614.018,741.182,614.598,742.032,615.178C742.882,615.758,743.652,616.328,744.382,616.898C744.382,616.908,744.382,616.908,744.392,616.908C744.742,617.188,745.082,617.468,745.402,617.738C745.922,618.188,746.402,618.618,746.842,619.058C746.989498,619.193813,747.129694,619.337348,747.262,619.488C747.320226,619.536205,747.373795,619.589774,747.422,619.648C747.632,619.878,747.842,620.108,748.042,620.338C748.282,620.618,748.502,620.898,748.712,621.178C748.812,621.318,748.922,621.458,749.012,621.598C749.132,621.768,749.252,621.948,749.352,622.118C749.442,622.258,749.522,622.408,749.602,622.548C749.814218,622.908407,749.99489,623.28648,750.142,623.678C750.251428,623.944549,750.341658,624.218581,750.412,624.498C750.487761,624.763637,750.544571,625.034318,750.582,625.308Z" transform="matrix(1 0 0 1 -206.59 -163.871)" opacity="0.2" fill="rgb(0,0,0)" stroke="none" stroke-width="1"/><g id="eR7wPBDvSqM71" transform="matrix(1 0 0 1 -62 -381.871)"><g id="eR7wPBDvSqM72" opacity="0"><circle id="eR7wPBDvSqM73" r="8.5" transform="matrix(1 0 0 1 624.5 767.5)" fill="rgb(255,255,255)" stroke="none" stroke-width="1"/><circle id="eR7wPBDvSqM74" r="6.5" transform="matrix(1 0 0 1 626.5 757.5)" fill="rgb(255,255,255)" stroke="none" stroke-width="1"/><circle id="eR7wPBDvSqM75" r="2.5" transform="matrix(1 0 0 1 626.5 757.5)" fill="url(#eR7wPBDvSqM75-fill)" stroke="none" stroke-width="1"/><circle id="eR7wPBDvSqM76" r="2.5" transform="matrix(1 0 0 1 624.5 767.5)" fill="url(#eR7wPBDvSqM76-fill)" stroke="none" stroke-width="1"/><circle id="eR7wPBDvSqM77" r="2.5" transform="matrix(1 0 0 1 625.5 765.5)" fill="rgb(255,255,255)" stroke="none" stroke-width="1"/><circle id="eR7wPBDvSqM78" r="1" transform="matrix(1 0 0 1 627 758)" fill="rgb(255,255,255)" stroke="none" stroke-width="1"/></g></g></g></svg>