<svg id="Group_41" data-name="Group 41" xmlns="http://www.w3.org/2000/svg" width="666.74" height="729.254" viewBox="0 0 666.74 729.254">
  <path id="Path_747" data-name="Path 747" d="M281.824,290.106c8.344-5.707,19.084,6.871,13.242,14.7-5.905,7.916-18.816,5.672-23.262-2.411-5.672-10.313-.024-22.581,9.118-28.568,10.384-6.8,23.111-7.184,35.1-6.547,12.111.644,23.929,1.5,35.994-.238a120.738,120.738,0,0,0,29.693-8.328,126.144,126.144,0,0,0,49.875-37.784c6.154-7.808,11.905-16.583,15.428-25.93,2.713-7.2,4-16.668.154-23.715a12.073,12.073,0,0,0-18.353-3.687c-6.408,5.249-8.138,15-3.239,21.789,5.257,7.289,15.177,9.787,23.718,8.46,11.87-1.844,21.482-10.224,30.569-17.439l67.3-53.431c11.1-8.811,22.081-17.792,33.322-26.419,9.141-7.016,20.295-13.819,32.2-10.071,4.8,1.511,9.636,5.088,10.835,10.228a13.161,13.161,0,0,1-4.719,12.75,8.1,8.1,0,0,1-11.841-1.485c-2.509-3.5-2.715-8.488-1.27-12.442,3.862-10.567,18.032-11.672,27.488-10.813a77.225,77.225,0,0,1,31.584,10.4c19.984,11.607,34.764,30.489,43.432,51.716,9.605,23.519,12.564,49.545,12.172,74.793-.08,5.15-.436,10.846-3.335,15.286-2.839,4.349-7.792,5.665-12.234,2.757-1.447-.947-3.307-2.792-2.929-4.738.474-2.443,5.343-2.462,7.293-2.368,5.338.256,10.384,2.946,14.207,6.574,9.086,8.621,9.793,21.811,8.608,33.54-1.3,12.876-5.012,25.682-3.538,38.716,2.414,21.354,19.936,33.22,37.146,43.037,8.814,5.028,17.82,9.834,25.746,16.23a106.041,106.041,0,0,1,20.987,22.842,115.376,115.376,0,0,1,19.7,57.191,105.532,105.532,0,0,1-2.4,30.505c-2.264,9.779-5.83,22.106-15.226,27.359a12.607,12.607,0,0,1-14.367-1.289c-3.807-3.055-5.667-8.478-1.735-12.3,3.258-3.163,8.473-2.5,12.4-1.21,4.734,1.548,8.417,4.437,11.945,7.85,6.726,6.505,14.6,14.491,24.831,12.414,1.891-.384,1.09-3.276-.8-2.893-12.352,2.508-19.8-11.848-28.909-17.375-6.595-4-17.859-6.977-23.013.827-5.562,8.422,3.381,17.508,11.691,18.593,10.8,1.41,18.3-9.154,21.923-17.875,8.414-20.224,8.675-43.938,3.529-65a115.928,115.928,0,0,0-32.07-56.169c-7.976-7.6-17.12-13.43-26.659-18.855-9.63-5.476-19.665-10.73-27.9-18.246a41.84,41.84,0,0,1-14.156-32.263c.088-14.012,4.593-27.609,4.312-41.648-.233-11.64-4.188-23.006-14.314-29.559a23.145,23.145,0,0,0-14.191-3.961c-2.048.168-4.926.513-6.613,1.8-1.359,1.033-1.616,3.45-1.342,5.013.651,3.712,4.162,6.29,7.572,7.323a10.842,10.842,0,0,0,11.708-3.455c3.279-3.787,4.418-8.838,4.882-13.7.629-6.589.281-13.356-.009-19.956-1.18-26.82-6.48-54.282-20.418-77.575-11.848-19.8-30.274-36.4-52.368-43.746-10.411-3.461-22.761-5.535-33.5-2.387-9.243,2.708-16.325,10.315-14.8,20.39,1.292,8.528,10.129,14.427,17.916,9.044a15.523,15.523,0,0,0,2.487-23.4c-7.528-7.883-19.8-7.827-29.2-3.82-5.657,2.413-10.665,6.028-15.5,9.783-6.157,4.787-12.228,9.688-18.336,14.538L485.817,171.88c-5.808,4.611-11.522,9.39-17.523,13.748-5.6,4.067-11.779,7.834-18.673,9.14-9.708,1.839-25.076-2.984-23.9-15.3.457-4.782,3.625-10.063,8.466-11.435,4.746-1.344,9.226,1.709,10.99,6.031,3.889,9.528-.678,20.426-5.221,28.791-11.248,20.71-28.991,37.576-49.781,48.55a121.035,121.035,0,0,1-33.109,11.749c-12.973,2.549-25.7,2.05-38.818,1.254-12.714-.771-26.066-.692-37.4,5.933-9.292,5.433-15.491,15.285-14,26.264,1.293,9.534,8.94,16.821,18.8,16.016,8.277-.676,16.594-7.744,13.657-16.723-2.432-7.434-11.819-13.3-19-8.386-1.584,1.083-.085,3.684,1.514,2.59Z" transform="translate(-266.63 -85.373)" fill="#3f3d56"/>
  <path id="Path_748" data-name="Path 748" d="M917.588,506.7H844.9a4.288,4.288,0,0,0-4.283,4.283v45.254a4.288,4.288,0,0,0,4.283,4.283h72.685a4.288,4.288,0,0,0,4.283-4.283V510.985A4.288,4.288,0,0,0,917.588,506.7Z" transform="translate(-266.63 -85.373)" fill="#f2f2f2" style="isolation: isolate"/>
  <path id="Path_749" data-name="Path 749" d="M917.588,506.7H844.9a4.288,4.288,0,0,0-4.283,4.283v45.254a4.288,4.288,0,0,0,4.283,4.283h72.685a4.288,4.288,0,0,0,4.283-4.283V510.985A4.288,4.288,0,0,0,917.588,506.7Zm1.406,32.506a17.608,17.608,0,0,1-17.311,17.539c-7.375.1,4.081.133-4.814.133-20.34,0-41.549-.194-49.463-.32a3.99,3.99,0,0,1-3.908-3.974v-41.6a1.41,1.41,0,0,1,1.405-1.409h72.683a1.41,1.41,0,0,1,1.409,1.405Z" transform="translate(-266.63 -85.373)" fill="#e6e6e6"/>
  <path id="Path_750" data-name="Path 750" d="M908.64,480.644H853.262a2.38,2.38,0,0,0-2.237,1.578l-8.553,24a2.375,2.375,0,0,0,2.234,3.173l74.272.132h0a2.375,2.375,0,0,0,2.183-3.311l-.13.055.13-.055-10.34-24.127a2.372,2.372,0,0,0-2.183-1.44Z" transform="translate(-266.63 -85.373)" fill="#e6e6e6"/>
  <path id="Path_751" data-name="Path 751" d="M921.356,506.732a2.381,2.381,0,0,1-.192.936l-10.34,18.572a2.382,2.382,0,0,1-2.184,1.438H853.263a2.382,2.382,0,0,1-2.239-1.577l-8.551-18.44a2.374,2.374,0,0,1,1.44-3.034,2.337,2.337,0,0,1,.793-.139l9.073-.017,3.7-.006,48.726-.085,3.705-.006,9.066-.017h0a2.376,2.376,0,0,1,2.376,2.376Z" transform="translate(-266.63 -85.373)" fill="#e6e6e6"/>
  <path id="Path_752" data-name="Path 752" d="M850.352,540.647c1.1,0,16.178.922,16.178,2.02s-15.08,1.957-16.178,1.957a1.988,1.988,0,1,1,0-3.977Z" transform="translate(-266.63 -85.373)" fill="#e6e6e6"/>
  <path id="Path_753" data-name="Path 753" d="M905.192,466.046H858.5a4.725,4.725,0,0,0-4.72,4.72v56.912H908.64a2.346,2.346,0,0,0,1.271-.37V470.766A4.726,4.726,0,0,0,905.192,466.046Z" transform="translate(-266.63 -85.373)" fill="#f2f2f2"/>
  <path id="Path_754" data-name="Path 754" d="M887.369,469.873H861.78a4.3,4.3,0,0,0-4.3,4.3v53.508h48.726V488.71a18.859,18.859,0,0,0-18.837-18.837Z" transform="translate(-266.63 -85.373)" fill="#fff"/>
  <path id="Path_755" data-name="Path 755" d="M897.905,522.926H865.782a1.047,1.047,0,0,0,0,2.094h32.124a1.047,1.047,0,0,0,0-2.094Z" transform="translate(-266.63 -85.373)" fill="#e4e4e4"/>
  <path id="Path_756" data-name="Path 756" d="M897.905,518.785H865.782a1.048,1.048,0,1,0,0,2.1h32.124a1.048,1.048,0,0,0,0-2.1Z" transform="translate(-266.63 -85.373)" fill="#e4e4e4"/>
  <path id="Path_757" data-name="Path 757" d="M879.707,514.646H865.782a1.047,1.047,0,0,0,0,2.094h13.925a1.047,1.047,0,0,0,0-2.094Z" transform="translate(-266.63 -85.373)" fill="#e4e4e4"/>
  <path id="Path_758" data-name="Path 758" d="M897.905,505.975H865.782a1.048,1.048,0,1,0,0,2.1h32.124a1.048,1.048,0,1,0,0-2.1Z" transform="translate(-266.63 -85.373)" fill="#e4e4e4"/>
  <path id="Path_759" data-name="Path 759" d="M897.905,501.836H865.782a1.047,1.047,0,0,0,0,2.094h32.124a1.047,1.047,0,0,0,0-2.094Z" transform="translate(-266.63 -85.373)" fill="#e4e4e4"/>
  <path id="Path_760" data-name="Path 760" d="M879.707,497.7H865.782a1.048,1.048,0,1,0,0,2.1h13.925a1.048,1.048,0,1,0,0-2.1Z" transform="translate(-266.63 -85.373)" fill="#e4e4e4"/>
  <path id="Path_761" data-name="Path 761" d="M897.905,489.025H865.782a1.048,1.048,0,1,0,0,2.1h32.124a1.048,1.048,0,1,0,0-2.1Z" transform="translate(-266.63 -85.373)" fill="#e4e4e4"/>
  <path id="Path_762" data-name="Path 762" d="M897.905,484.886H865.782a1.048,1.048,0,1,0,0,2.1h32.124a1.048,1.048,0,1,0,0-2.1Z" transform="translate(-266.63 -85.373)" fill="#e4e4e4"/>
  <path id="Path_763" data-name="Path 763" d="M879.707,480.745H865.782a1.048,1.048,0,1,0,0,2.1h13.925a1.048,1.048,0,1,0,0-2.1Z" transform="translate(-266.63 -85.373)" fill="#e4e4e4"/>
  <circle id="Ellipse_97" data-name="Ellipse 97" cx="30.997" cy="30.997" r="30.997" transform="translate(236.126 137.132)" fill="#ffb6b6"/>
  <path id="Path_764" data-name="Path 764" d="M569.138,235.754c-3.261-5.044-9.379-8.406-15.311-7.462a20.909,20.909,0,0,0-35.033-12.2,6.5,6.5,0,0,0-6.358-.636,13.406,13.406,0,0,0-5.166,4.146,30.088,30.088,0,0,0-4.21,30.609c-.725-2.635,1.916-5.115,4.585-5.706s5.467-.032,8.174-.417c3.468-.493,6.586-2.505,10.06-2.958,2.919-.381,5.855.368,8.7,1.118s5.775,1.515,8.7,1.168,6.69,10.733,6.639,18.537c-.01,1.479.295,3.378,1.74,3.691,1.78.386,2.811-2.07,4.505-2.739a3.134,3.134,0,0,1,3.844,2.044,5.11,5.11,0,0,1-.976,4.576,15.1,15.1,0,0,1-3.661,3.176l.7.58c1.161,1.533,3.568,1.6,5.241.651a11.311,11.311,0,0,0,3.763-4.284c3.095-5.148,5.81-10.632,6.9-16.538S572.4,240.8,569.138,235.754Z" transform="translate(-266.63 -85.373)" fill="#5300b4"/>
  <path id="Path_765" data-name="Path 765" d="M303.485,710.95l-16.74,0-7.964-64.572h24.708Z" fill="#ffb6b6"/>
  <path id="Path_766" data-name="Path 766" d="M570.7,813.786l-51.48,0v-.651A20.038,20.038,0,0,1,539.261,793.1h0l9.4-7.134,17.545,7.135h4.494Z" transform="translate(-266.63 -85.373)" fill="#fff"/>
  <path id="Path_767" data-name="Path 767" d="M333.673,681.391l-13.133,10.38-46.294-45.715,19.384-15.323Z" fill="#ffb6b6"/>
  <path id="Path_768" data-name="Path 768" d="M611.6,780.1l-40.386,31.925-.4-.511a20.039,20.039,0,0,1,3.292-28.145h0l2.952-11.428,18.188-5.284,3.525-2.787Z" transform="translate(-266.63 -85.373)" fill="#fff"/>
  <path id="Path_769" data-name="Path 769" d="M216.918,408.274,215.9,427.117l4.971,6.005-.57,18.847L225.12,464.3l3.392,39.246,47.506,163.756,42.809-13.731L272.08,500.926l56.244-1.4,1.9-86.074-9.967-19.268Z" fill="#5300b4"/>
  <path id="Path_770" data-name="Path 770" d="M322.915,486.545l5.409,12.976-20.915,182.72-29.345,2.143L265.392,480.109Z" fill="#5300b4"/>
  <path id="Path_771" data-name="Path 771" d="M294.155,217.278l-9.636-13.338L253.4,205.187l-.6,10.27L232.139,410.681l20.3-.455,25.2,5.883L326.1,399.147Z" fill="#6c63ff"/>
  <path id="Path_772" data-name="Path 772" d="M506.75,499.664H459.033l12.449-87.873,5.048-35.618s-3.573-25.456-5.3-38.757a7.529,7.529,0,0,1,.709-4.14,13.656,13.656,0,0,1,2.193-3.308c5.8-6.693,18.858-12.5,27.044-15.673,4.216-1.626,7.146-2.562,7.146-2.562l11.116-10.9C535.392,320.77,506.75,499.664,506.75,499.664Z" transform="translate(-266.63 -85.373)" fill="#5300b4"/>
  <path id="Path_773" data-name="Path 773" d="M554.741,295.393l15.138,8.675s44.832,7.364,49.192,24.2l-16.5,49.815V482.777L562.562,498.82S528.052,329.682,554.741,295.393Z" transform="translate(-266.63 -85.373)" fill="#5300b4"/>
  <path id="Path_774" data-name="Path 774" d="M272.788,475.879l-7.4,85.669,12.593,99.7" opacity="0.4"/>
  <path id="Path_775" data-name="Path 775" d="M360.849,401.658a10.387,10.387,0,0,1,15.43,3.948l36.677-4.148-8.693,17.1-33.5,1.318a10.443,10.443,0,0,1-9.917-18.216Z" transform="translate(-266.63 -85.373)" fill="#ffb6b6"/>
  <path id="Path_776" data-name="Path 776" d="M248.158,241.42l10.5,6.27L199.871,330.5l-71.749,6.1-2.857-20.485,52.864-15.86,26.13-50.648Z" fill="#5300b4"/>
  <path id="Path_777" data-name="Path 777" d="M728.725,394.658a10.387,10.387,0,0,0-15.43,3.948l-36.677-4.148,8.693,17.1,33.5,1.318a10.443,10.443,0,0,0,9.917-18.216Z" transform="translate(-266.63 -85.373)" fill="#ffb6b6"/>
  <path id="Path_778" data-name="Path 778" d="M308.156,234.42l-10.495,6.27L356.444,323.5l71.749,6.1,2.856-20.485-52.863-15.86L352.056,242.6Z" fill="#5300b4"/>
  <path id="Path_779" data-name="Path 779" d="M431.871,300.307v-1.094H413.524V273.681h-1.092v25.531H391.4V279.5q-.551.434-1.089.892v18.824H376.428c-.154.362-.3.727-.443,1.094h14.332v21.454H372.522c.017.368.042.73.073,1.094h17.721v17.115H377.04c.163.368.334.73.514,1.089h12.763v14.388H391.4V341.059h21.027v14.388h1.092V341.059h18.347v-1.089H413.524a17.113,17.113,0,0,1,17.119-17.115h1.229v-1.094H413.524V300.307Zm-19.439,39.664H391.4V322.855h21.027Zm0-18.21H391.4v-.429a21.025,21.025,0,0,1,21.026-21.024Z" transform="translate(-266.63 -85.373)" fill="#e6e6e6"/>
  <path id="Path_780" data-name="Path 780" d="M591.276,148.829a.585.585,0,0,1-.763-.316l-1.519-3.671a.584.584,0,1,1,1.08-.447l1.519,3.671a.585.585,0,0,1-.316.763Z" transform="translate(-266.63 -85.373)" fill="#3f3d56"/>
  <path id="Path_781" data-name="Path 781" d="M621.92,121.632h0l-4.535-10.958a6.864,6.864,0,0,0-8.967-3.718h0L585.2,116.564a6.864,6.864,0,0,0-3.718,8.967h0l24.878,60.117a6.864,6.864,0,0,0,8.967,3.718h0l23.216-9.608a6.864,6.864,0,0,0,3.718-8.967h0l-17.115-41.359h0a.433.433,0,0,0,.234-.566l-2.9-7A.433.433,0,0,0,621.92,121.632Z" transform="translate(-266.63 -85.373)" fill="#fff"/>
  <path id="Path_782" data-name="Path 782" d="M616.053,111.275,640.9,171.305a5.123,5.123,0,0,1-2.724,6.673.281.281,0,0,1-.05.025l-23.329,9.654a5.129,5.129,0,0,1-6.7-2.777l-24.842-60.031a5.125,5.125,0,0,1,2.779-6.7l2.829-1.171a2.436,2.436,0,0,0,3.37,2.239l13.3-5.5a2.371,2.371,0,0,0,.775-.52,2.429,2.429,0,0,0,.021-3.442l3.034-1.255a5.125,5.125,0,0,1,6.694,2.775Z" transform="translate(-266.63 -85.373)" fill="#5300b4"/>
  <path id="Path_783" data-name="Path 783" d="M588.685,142.566a.585.585,0,0,1-.763-.316l-1.519-3.671a.584.584,0,1,1,1.08-.447L589,141.8A.585.585,0,0,1,588.685,142.566Z" transform="translate(-266.63 -85.373)" fill="#3f3d56"/>
  <path id="Path_784" data-name="Path 784" d="M585.628,135.484a.585.585,0,0,1-.763-.316l-1.519-3.671a.584.584,0,1,1,1.08-.447l1.519,3.671A.585.585,0,0,1,585.628,135.484Z" transform="translate(-266.63 -85.373)" fill="#3f3d56"/>
  <path id="Path_785" data-name="Path 785" d="M594.18,115.5a.585.585,0,0,1,.316-.763l3.671-1.519a.584.584,0,0,1,.447,1.08l-3.671,1.519a.585.585,0,0,1-.763-.316Z" transform="translate(-266.63 -85.373)" fill="#fff"/>
  <circle id="Ellipse_98" data-name="Ellipse 98" cx="0.584" cy="0.584" r="0.584" transform="translate(333.228 26.956)" fill="#fff"/>
  <path id="Path_786" data-name="Path 786" d="M727.162,372.752c-.074,0-.147,0-.222,0a5.391,5.391,0,0,1-4.335-2.465,60.9,60.9,0,0,0-12.82-13.887c-3.009-2.4-6.153-4.641-9.193-6.8-7.844-5.577-15.23-10.83-19.33-18.087-8.94-15.826,1.588-37.869,16.628-47.755,16.87-11.087,39.059-12.826,60.525-13.054q3.346-.035,6.7-.035h0A638.491,638.491,0,0,1,880.423,281.2c12.649,2.334,25.888,5.192,36.528,12.13,10.576,6.9,17,17.757,16.378,27.669-.916,14.47-16.255,25.282-30.223,28.109-13.313,2.692-27.144.873-41.786-1.054-3.233-.425-6.575-.865-9.88-1.247-35.92-4.152-103.4,8.645-106.253,9.192l-2.832.542-10.989,14.142A5.274,5.274,0,0,1,727.162,372.752Z" transform="translate(-266.63 -85.373)" fill="#5300b4"/>
  <path id="Path_787" data-name="Path 787" d="M887.117,302.162H735.3a3.3,3.3,0,0,1,0-6.607H887.117a3.3,3.3,0,0,1,0,6.607Z" transform="translate(-266.63 -85.373)" fill="#fff"/>
  <path id="Path_788" data-name="Path 788" d="M887.117,322.438H735.3a3.3,3.3,0,0,1-.007-6.607H887.117a3.3,3.3,0,0,1,0,6.607Z" transform="translate(-266.63 -85.373)" fill="#fff"/>
  <path id="Path_789" data-name="Path 789" d="M752.988,342.714H735.3a3.3,3.3,0,0,1,0-6.607h17.693a3.3,3.3,0,0,1,0,6.607Z" transform="translate(-266.63 -85.373)" fill="#fff"/>
  <circle id="Ellipse_99" data-name="Ellipse 99" cx="16.057" cy="16.057" r="16.057" transform="translate(446.35 278.295)" fill="#fff"/>
  <path id="Path_790" data-name="Path 790" d="M729.037,395.978a16.253,16.253,0,1,1,16.253-16.253,16.253,16.253,0,0,1-16.253,16.253Z" transform="translate(-266.63 -85.373)" fill="#fff"/>
  <path id="Path_791" data-name="Path 791" d="M727.834,386.142l-.1,0a2.1,2.1,0,0,1-1.557-.809l-2.683-3.45a2.1,2.1,0,0,1,.368-2.948l.1-.075a2.1,2.1,0,0,1,2.949.368,1.532,1.532,0,0,0,2.321.113l5.448-5.752a2.1,2.1,0,0,1,2.97-.081l.089.085a2.1,2.1,0,0,1,.08,2.97l-8.455,8.925A2.1,2.1,0,0,1,727.834,386.142Z" transform="translate(-266.63 -85.373)"/>
  <path id="Path_792" data-name="Path 792" d="M429.222,172.166,419.4,113.09a4.577,4.577,0,0,1,3.76-5.26l44.615-7.419a4.577,4.577,0,0,1,5.26,3.76l9.823,59.076a4.577,4.577,0,0,1-3.76,5.26l-44.615,7.419a4.577,4.577,0,0,1-5.26-3.76Z" transform="translate(-266.63 -85.373)" fill="#fff"/>
  <path id="Path_793" data-name="Path 793" d="M429.677,153.754l-6.315-37.979a4.286,4.286,0,0,1,3.521-4.926l38.343-6.376a4.287,4.287,0,0,1,4.926,3.521l8.742,52.569a4.287,4.287,0,0,1-3.522,4.926l-23.753,3.95A19.094,19.094,0,0,1,429.677,153.754Z" transform="translate(-266.63 -85.373)"/>
  <path id="Path_794" data-name="Path 794" d="M431.332,125.339a4.189,4.189,0,0,1,3.441-4.814l26.6-4.423a4.184,4.184,0,1,1,1.373,8.255l-26.6,4.423A4.189,4.189,0,0,1,431.332,125.339Z" transform="translate(-266.63 -85.373)" fill="#5300b4"/>
  <path id="Path_795" data-name="Path 795" d="M433.467,138.18a4.189,4.189,0,0,1,3.441-4.814l26.6-4.423a4.184,4.184,0,1,1,1.373,8.255l-26.6,4.423A4.189,4.189,0,0,1,433.467,138.18Z" transform="translate(-266.63 -85.373)" fill="#5300b4"/>
  <path id="Path_796" data-name="Path 796" d="M435.6,151.02a4.189,4.189,0,0,1,3.441-4.814l26.6-4.423a4.184,4.184,0,1,1,1.373,8.255l-26.6,4.423A4.189,4.189,0,0,1,435.6,151.02Z" transform="translate(-266.63 -85.373)" fill="#5300b4"/>
  <path id="Path_797" data-name="Path 797" d="M662.326,772.971l.707-15.9a51.352,51.352,0,0,1,23.953-6.063c-11.5,9.405-10.066,27.536-17.866,40.184a30.889,30.889,0,0,1-22.651,14.274l-9.627,5.894a51.76,51.76,0,0,1,10.91-41.943,50,50,0,0,1,9.188-8.538C659.246,766.959,662.326,772.971,662.326,772.971Z" transform="translate(-266.63 -85.373)" fill="#f2f2f2"/>
  <path id="Path_798" data-name="Path 798" d="M789.969,813.074a1.548,1.548,0,0,1-1.553,1.553H370.366a1.553,1.553,0,0,1,0-3.107h418.05a1.548,1.548,0,0,1,1.553,1.553Z" transform="translate(-266.63 -85.373)" fill="#ccc"/>
  <path id="Path_799" data-name="Path 799" d="M371.373,393.657c-7.414-.148-47.24-1.291-53.771-1.01-.369-1.293-12.75,14.573-13.051,14.671a1.808,1.808,0,0,0,.6,2.908c.728.442,64.932-.746,65.71-.591a1.786,1.786,0,0,0,1.594-1.038l.429-.961c.045-1.644.583-10.048.1-11.485a1.778,1.778,0,0,0-1.615-2.494Z" transform="translate(-266.63 -85.373)" fill="#f4f4ff"/>
  <path id="Path_800" data-name="Path 800" d="M372.889,407.634c-.377.905-.859,2.043-2.023,2l-65.032.73a1.794,1.794,0,0,1-1.565-2.633Z" transform="translate(-266.63 -85.373)" opacity="0.17" style="isolation: isolate"/>
  <path id="Path_801" data-name="Path 801" d="M317.906,392.453c-.7-1.211-18.086-87.238-19.537-87.958L286.5,289.974l-1.061-.8c-1.475-.81-5.014-.262-4.7,1.991h0c2.789,13.37,20.726,89.518,21.119,101.39l2.159,15.124a1.863,1.863,0,0,0,2.3,1.53,3.582,3.582,0,0,0,2.877-2.079C309.359,406.6,318.719,392.762,317.906,392.453Z" transform="translate(-266.63 -85.373)" fill="#fff"/>
  <path id="Path_802" data-name="Path 802" d="M286.5,289.974l22.7,117.161c-.759,1.922-4.312,3.268-5.139.747-.014,0-23.291-116.643-23.315-116.713C280.5,288.362,285.135,288.273,286.5,289.974Z" transform="translate(-266.63 -85.373)" opacity="0.17" style="isolation: isolate"/>
  <path id="Path_803" data-name="Path 803" d="M20.55,209.392l11.531,16.072,12.942,61.465-6.017,5.248Z" fill="#5300b4"/>
  <path id="Path_804" data-name="Path 804" d="M363.93,401.945l3.19.13a12.538,12.538,0,0,1,.46-2.76c.48-2.28.91-4.99-1.08-4.98-1.35-.13-1.81,1.58-2.05,3.44a26.319,26.319,0,0,1-.52,4.17Z" transform="translate(-266.63 -85.373)" fill="#2f2e41"/>
  <path id="Path_805" data-name="Path 805" d="M345.63,397.655l2.15.08,1.04.04c-.02-1.14.51-3.49-.78-4.07a1.6,1.6,0,0,0-.65-.13c-1.21-.07-1.57.85-1.68,1.91-.07.64-.04,1.32-.06,1.85C345.65,397.445,345.64,397.555,345.63,397.655Z" transform="translate(-266.63 -85.373)" fill="#2f2e41"/>
  <path id="Path_806" data-name="Path 806" d="M339.26,397.395l2.16.09,1.03.04c-.02-1.31.67-4.17-1.43-4.21-1.94-.11-1.69,2.36-1.74,3.76C339.28,397.185,339.27,397.294,339.26,397.395Z" transform="translate(-266.63 -85.373)" fill="#2f2e41"/>
  <path id="Path_807" data-name="Path 807" d="M332.89,397.145l2.15.08,1.04.04c-.02-1.3.67-4.16-1.43-4.2-1.94-.12-1.69,2.35-1.74,3.76C332.91,396.935,332.9,397.044,332.89,397.145Z" transform="translate(-266.63 -85.373)" fill="#2f2e41"/>
  <path id="Path_808" data-name="Path 808" d="M326.52,396.885l2.16.09,1.03.04c-.02-1.31.67-4.16-1.43-4.21-1.94-.11-1.69,2.36-1.74,3.76C326.54,396.674,326.53,396.785,326.52,396.885Z" transform="translate(-266.63 -85.373)" fill="#2f2e41"/>
  <path id="Path_809" data-name="Path 809" d="M320.15,396.635l2.15.08,1.04.04c-.02-1.2.56-3.71-.98-4.14h-.01a1.465,1.465,0,0,0-.44-.06,1.506,1.506,0,0,0-.54.05h-.01c-1.34.35-1.15,2.45-1.19,3.71C320.17,396.424,320.16,396.535,320.15,396.635Z" transform="translate(-266.63 -85.373)" fill="#2f2e41"/>
  <path id="Path_810" data-name="Path 810" d="M357.5,395.955l3.19.13c0-.12,0-.25.01-.4a13.335,13.335,0,0,0,.04-2.29c-.11-.84-.47-1.5-1.48-1.52-1.03-.06-1.44.6-1.6,1.45a3.109,3.109,0,0,0-.08.44v.01C357.5,394.555,357.55,395.395,357.5,395.955Z" transform="translate(-266.63 -85.373)" fill="#2f2e41"/>
  <path id="Path_811" data-name="Path 811" d="M351.13,395.695l3.19.13a23.282,23.282,0,0,0,.06-2.58c-.09-.88-.44-1.6-1.49-1.62-1.06-.07-1.47.65-1.63,1.54C351.11,394.025,351.19,395.055,351.13,395.695Z" transform="translate(-266.63 -85.373)" fill="#2f2e41"/>
  <path id="Path_812" data-name="Path 812" d="M344.76,395.445l.95.04,2.24.09c-.01-.48.08-1.18.09-1.87a4.227,4.227,0,0,0-.02-.62c-.08-.93-.41-1.7-1.5-1.72-1.11-.06-1.5.71-1.64,1.65C344.74,393.854,344.82,394.825,344.76,395.445Z" transform="translate(-266.63 -85.373)" fill="#2f2e41"/>
  <path id="Path_813" data-name="Path 813" d="M357.56,401.695l3.19.12c-.01-1.3.67-4.16-1.43-4.2C357.22,397.484,357.68,400.385,357.56,401.695Z" transform="translate(-266.63 -85.373)" fill="#2f2e41"/>
  <path id="Path_814" data-name="Path 814" d="M351.19,401.435l3.19.13c-.01-1.31.67-4.17-1.43-4.21C350.85,397.234,351.31,400.135,351.19,401.435Z" transform="translate(-266.63 -85.373)" fill="#2f2e41"/>
  <path id="Path_815" data-name="Path 815" d="M344.82,401.185l3.19.12c-.01-.93.34-2.65-.23-3.57a1.32,1.32,0,0,0-1.2-.63,1.406,1.406,0,0,0-.93.23C344.63,398,344.92,400.125,344.82,401.185Z" transform="translate(-266.63 -85.373)" fill="#2f2e41"/>
  <path id="Path_816" data-name="Path 816" d="M338.45,400.924l3.19.13c-.01-.93.33-2.64-.22-3.57a1.323,1.323,0,0,0-1.21-.64,1.389,1.389,0,0,0-.93.23C338.26,397.765,338.55,399.875,338.45,400.924Z" transform="translate(-266.63 -85.373)" fill="#2f2e41"/>
  <path id="Path_817" data-name="Path 817" d="M332.08,400.674l3.19.12c-.01-.93.34-2.65-.23-3.57a1.319,1.319,0,0,0-1.2-.63,1.4,1.4,0,0,0-.93.23C331.89,397.495,332.18,399.615,332.08,400.674Z" transform="translate(-266.63 -85.373)" fill="#2f2e41"/>
  <path id="Path_818" data-name="Path 818" d="M325.71,400.415l3.19.13c-.01-.93.33-2.64-.22-3.57a1.312,1.312,0,0,0-1.21-.64,1.389,1.389,0,0,0-.93.23C325.52,397.255,325.81,399.365,325.71,400.415Z" transform="translate(-266.63 -85.373)" fill="#2f2e41"/>
  <path id="Path_819" data-name="Path 819" d="M319.34,400.165l3.19.12c-.01-.93.33-2.64-.23-3.57a1.308,1.308,0,0,0-1.2-.63,1.4,1.4,0,0,0-.93.23C319.15,396.995,319.44,399.1,319.34,400.165Z" transform="translate(-266.63 -85.373)" fill="#2f2e41"/>
</svg>
