<svg id="ekTxCND9Awv1" xmlns="http://www.w3.org/2000/svg" xmlns:xlink="http://www.w3.org/1999/xlink" viewBox="0 0 666.74 729.254" shape-rendering="geometricPrecision" text-rendering="geometricPrecision"><style><![CDATA[#ekTxCND9Awv38 {animation: ekTxCND9Awv38_c_o 2000ms linear infinite normal forwards}@keyframes ekTxCND9Awv38_c_o { 0% {opacity: 0} 25% {opacity: 0} 100% {opacity: 1}} #ekTxCND9Awv49 {animation: ekTxCND9Awv49_c_o 2000ms linear infinite normal forwards}@keyframes ekTxCND9Awv49_c_o { 0% {opacity: 0} 50% {opacity: 0} 100% {opacity: 1}} #ekTxCND9Awv52 {animation: ekTxCND9Awv52_c_o 2000ms linear infinite normal forwards}@keyframes ekTxCND9Awv52_c_o { 0% {opacity: 0} 50% {opacity: 1} 100% {opacity: 1}} #ekTxCND9Awv53 {animation: ekTxCND9Awv53_c_o 2000ms linear infinite normal forwards}@keyframes ekTxCND9Awv53_c_o { 0% {opacity: 0} 75% {opacity: 1} 100% {opacity: 1}} #ekTxCND9Awv54 {animation: ekTxCND9Awv54_c_o 2000ms linear infinite normal forwards}@keyframes ekTxCND9Awv54_c_o { 0% {opacity: 0} 100% {opacity: 1}}]]></style><path id="ekTxCND9Awv2" d="M281.824,290.106C290.168,284.399,300.908,296.977,295.066,304.806C289.161,312.722,276.25,310.478,271.804,302.395C266.132,292.082,271.78,279.814,280.922,273.827C291.306,267.027,304.033,266.643,316.022,267.28C328.133,267.924,339.951,268.78,352.016,267.042C362.228956,265.546634,372.208002,262.74781,381.709,258.714C401.243399,250.507887,418.396069,237.513471,431.584,220.93C437.738,213.122,443.489,204.347,447.012,195C449.725,187.8,451.012,178.332,447.166,171.285C445.472444,168.074416,442.424212,165.796209,438.865441,165.081275C435.30667,164.366341,431.615091,165.290563,428.813,167.598C422.405,172.847,420.675,182.598,425.574,189.387C430.831,196.676,440.751,199.174,449.292,197.847C461.162,196.003,470.774,187.623,479.861,180.408L547.161,126.977C558.261,118.166,569.242,109.185,580.483,100.558C589.624,93.542,600.778,86.739,612.683,90.487C617.483,91.998,622.319,95.575,623.518,100.715C624.431842,105.511321,622.615282,110.419382,618.799,113.465C617.068941,114.93213,614.802957,115.606583,612.552202,115.324312C610.301448,115.042041,608.272188,113.828914,606.958,111.98C604.449,108.48,604.243,103.492,605.688,99.538C609.55,88.971,623.72,87.866,633.176,88.725C644.334299,89.857026,655.112118,93.405953,664.76,99.125C684.744,110.732,699.524,129.614,708.192,150.841C717.797,174.36,720.756,200.386,720.364,225.634C720.284,230.784,719.928,236.48,717.029,240.92C714.19,245.269,709.237,246.585,704.795,243.677C703.348,242.73,701.488,240.885,701.866,238.939C702.34,236.496,707.209,236.477,709.159,236.571C714.497,236.827,719.543,239.517,723.366,243.145C732.452,251.766,733.159,264.956,731.974,276.685C730.674,289.561,726.962,302.367,728.436,315.401C730.85,336.755,748.372,348.621,765.582,358.438C774.396,363.466,783.402,368.272,791.328,374.668C799.405506,381.212106,806.476812,388.908431,812.315,397.51C823.851048,414.482405,830.651435,434.224584,832.015,454.701C832.701244,464.931931,831.892747,475.208262,829.615,485.206C827.351,494.985,823.785,507.312,814.389,512.565C809.802997,515.188173,804.067821,514.673616,800.022,511.276C796.215,508.221,794.355,502.798,798.287,498.976C801.545,495.813,806.76,496.476,810.687,497.766C815.421,499.314,819.104,502.203,822.632,505.616C829.358,512.121,837.232,520.107,847.463,518.03C849.354,517.646,848.553,514.754,846.663,515.137C834.311,517.645,826.863,503.289,817.754,497.762C811.159,493.762,799.895,490.785,794.741,498.589C789.179,507.011,798.122,516.097,806.432,517.182C817.232,518.592,824.732,508.028,828.355,499.307C836.769,479.083,837.03,455.369,831.884,434.307C826.739306,412.920644,815.616335,393.439317,799.814,378.138C791.838,370.538,782.694,364.708,773.155,359.283C763.525,353.807,753.49,348.553,745.255,341.037C736.017707,332.890411,730.83904,321.087688,731.099,308.774C731.187,294.762,735.692,281.165,735.411,267.126C735.178,255.486,731.223,244.12,721.097,237.567C716.924413,234.736125,711.941511,233.345294,706.906,233.606C704.858,233.774,701.98,234.119,700.293,235.406C698.934,236.439,698.677,238.856,698.951,240.419C699.602,244.131,703.113,246.709,706.523,247.742C710.764849,249.105484,715.409009,247.735005,718.231,244.287C721.51,240.5,722.649,235.449,723.113,230.587C723.742,223.998,723.394,217.231,723.104,210.631C721.924,183.811,716.624,156.349,702.686,133.056C690.838,113.256,672.412,96.656,650.318,89.31C639.907,85.849,627.557,83.775,616.818,86.923C607.575,89.631,600.493,97.238,602.018,107.313C603.31,115.841,612.147,121.74,619.934,116.357C623.653082,113.786766,626.066909,109.722922,626.544698,105.227437C627.022488,100.731951,625.516762,96.25153,622.421,92.957C614.893,85.074,602.621,85.13,593.221,89.137C587.564,91.55,582.556,95.165,577.721,98.92C571.564,103.707,565.493,108.608,559.385,113.458L485.817,171.88C480.009,176.491,474.295,181.27,468.294,185.628C462.694,189.695,456.515,193.462,449.621,194.768C439.913,196.607,424.545,191.784,425.721,179.468C426.178,174.686,429.346,169.405,434.187,168.033C438.933,166.689,443.413,169.742,445.177,174.064C449.066,183.592,444.499,194.49,439.956,202.855C428.708,223.565,410.965,240.431,390.175,251.405C379.768807,256.910727,368.615004,260.868746,357.066,263.154C344.093,265.703,331.366,265.204,318.248,264.408C305.534,263.637,292.182,263.716,280.848,270.341C271.556,275.774,265.357,285.626,266.848,296.605C268.141,306.139,275.788,313.426,285.648,312.621C293.925,311.945,302.242,304.877,299.305,295.898C296.873,288.464,287.486,282.598,280.305,287.512C278.721,288.595,280.22,291.196,281.819,290.102Z" transform="matrix(1 0 0 1 -266.63 -85.373)" fill="rgb(63,61,86)" stroke="none" stroke-width="1"/><path id="ekTxCND9Awv3" style="isolation:isolate" d="M917.588,506.7L844.9,506.7C842.535707,506.702755,840.619755,508.618707,840.617,510.983L840.617,556.237C840.619755,558.601293,842.535707,560.517245,844.9,560.52L917.585,560.52C919.949293,560.517245,921.865245,558.601293,921.868,556.237L921.868,510.985C921.86635,508.621095,919.951902,506.70441,917.588,506.7Z" transform="matrix(1 0 0 1 -266.63 -85.373)" fill="rgb(242,242,242)" stroke="none" stroke-width="1"/><path id="ekTxCND9Awv4" d="M917.588,506.7L844.9,506.7C842.535707,506.702755,840.619755,508.618707,840.617,510.983L840.617,556.237C840.619755,558.601293,842.535707,560.517245,844.9,560.52L917.585,560.52C919.949293,560.517245,921.865245,558.601293,921.868,556.237L921.868,510.985C921.86635,508.621095,919.951902,506.70441,917.588,506.7ZM918.994,539.206C918.957809,548.788952,911.264658,556.583428,901.683,556.745C894.308,556.845,905.764,556.878,896.869,556.878C876.529,556.878,855.32,556.684,847.406,556.558C845.24068,556.513506,843.506228,554.749762,843.498,552.584L843.498,510.984C843.498546,510.207617,844.126622,509.577753,844.903,509.575L917.586,509.575C918.362383,509.575546,918.992247,510.203622,918.995,510.98Z" transform="matrix(1 0 0 1 -266.63 -85.373)" fill="rgb(230,230,230)" stroke="none" stroke-width="1"/><path id="ekTxCND9Awv5" d="M908.64,480.644L853.262,480.644C852.258166,480.645604,851.363266,481.276875,851.025,482.222L842.472,506.222C842.212715,506.948815,842.322713,507.756292,842.766962,508.387269C843.211211,509.018245,843.934322,509.394051,844.706,509.395L918.978,509.527L918.978,509.527C919.776464,509.527074,920.521529,509.125922,920.961039,508.459307C921.40055,507.792693,921.475679,506.94984,921.161,506.216L921.031,506.271L921.161,506.216L910.821,482.089C910.447552,481.214991,909.588449,480.64829,908.638,480.649Z" transform="matrix(1 0 0 1 -266.63 -85.373)" fill="rgb(230,230,230)" stroke="none" stroke-width="1"/><path id="ekTxCND9Awv6" d="M921.356,506.732C921.355903,507.053768,921.290588,507.372179,921.164,507.668L910.824,526.24C910.447691,527.111795,909.589544,527.67682,908.64,527.678L853.263,527.678C852.258879,527.676798,851.363344,527.046043,851.024,526.101L842.473,507.661C842.261418,507.06772,842.294284,506.414675,842.564362,505.845635C842.83444,505.276596,843.319589,504.838213,843.913,504.627C844.167302,504.535142,844.435616,504.488111,844.706,504.488L853.779,504.471L857.479,504.465L906.205,504.38L909.91,504.374L918.976,504.357L918.976,504.357C920.288229,504.357,921.352,505.420771,921.352,506.733Z" transform="matrix(1 0 0 1 -266.63 -85.373)" fill="rgb(230,230,230)" stroke="none" stroke-width="1"/><path id="ekTxCND9Awv7" d="M850.352,540.647C851.452,540.647,866.53,541.569,866.53,542.667C866.53,543.765,851.45,544.624,850.352,544.624C849.253782,544.624,848.3635,543.733718,848.3635,542.6355C848.3635,541.537282,849.253782,540.647,850.352,540.647Z" transform="matrix(1 0 0 1 -266.63 -85.373)" fill="rgb(230,230,230)" stroke="none" stroke-width="1"/><path id="ekTxCND9Awv8" d="M905.192,466.046L858.5,466.046C855.894358,466.048756,853.782756,468.160358,853.78,470.766L853.78,527.678L908.64,527.678C909.0904,527.679232,909.531635,527.550784,909.911,527.308L909.911,470.766C909.907696,468.160976,907.797023,466.049856,905.192,466.046Z" transform="matrix(1 0 0 1 -266.63 -85.373)" fill="rgb(242,242,242)" stroke="none" stroke-width="1"/><path id="ekTxCND9Awv9" d="M887.369,469.873L861.78,469.873C859.405176,469.873,857.48,471.798176,857.48,474.173L857.48,527.681L906.206,527.681L906.206,488.71C906.193877,478.311638,897.767362,469.885123,887.369,469.873Z" transform="matrix(1 0 0 1 -266.63 -85.373)" fill="rgb(255,255,255)" stroke="none" stroke-width="1"/><path id="ekTxCND9Awv10" d="M897.905,522.926L865.782,522.926C865.203758,522.926,864.735,523.394758,864.735,523.973C864.735,524.551242,865.203758,525.02,865.782,525.02L897.906,525.02C898.484242,525.02,898.953,524.551242,898.953,523.973C898.953,523.394758,898.484242,522.926,897.906,522.926Z" transform="matrix(1 0 0 1 -266.63 -85.373)" fill="rgb(228,228,228)" stroke="none" stroke-width="1"/><path id="ekTxCND9Awv11" d="M897.905,518.785L865.782,518.785C865.202101,518.785,864.732,519.255101,864.732,519.835C864.732,520.414899,865.202101,520.885,865.782,520.885L897.906,520.885C898.485899,520.885,898.956,520.414899,898.956,519.835C898.956,519.255101,898.485899,518.785,897.906,518.785Z" transform="matrix(1 0 0 1 -266.63 -85.373)" fill="rgb(228,228,228)" stroke="none" stroke-width="1"/><path id="ekTxCND9Awv12" d="M879.707,514.646L865.782,514.646C865.203758,514.646,864.735,515.114758,864.735,515.693C864.735,516.271242,865.203758,516.74,865.782,516.74L879.707,516.74C880.285242,516.74,880.754,516.271242,880.754,515.693C880.754,515.114758,880.285242,514.646,879.707,514.646Z" transform="matrix(1 0 0 1 -266.63 -85.373)" fill="rgb(228,228,228)" stroke="none" stroke-width="1"/><path id="ekTxCND9Awv13" d="M897.905,505.975L865.782,505.975C865.202101,505.975,864.732,506.445101,864.732,507.025C864.732,507.604899,865.202101,508.075,865.782,508.075L897.906,508.075C898.485899,508.075,898.956,507.604899,898.956,507.025C898.956,506.445101,898.485899,505.975,897.906,505.975Z" transform="matrix(1 0 0 1 -266.63 -85.373)" fill="rgb(228,228,228)" stroke="none" stroke-width="1"/><path id="ekTxCND9Awv14" d="M897.905,501.836L865.782,501.836C865.203758,501.836,864.735,502.304758,864.735,502.883C864.735,503.461242,865.203758,503.93,865.782,503.93L897.906,503.93C898.484242,503.93,898.953,503.461242,898.953,502.883C898.953,502.304758,898.484242,501.836,897.906,501.836Z" transform="matrix(1 0 0 1 -266.63 -85.373)" fill="rgb(228,228,228)" stroke="none" stroke-width="1"/><path id="ekTxCND9Awv15" d="M879.707,497.7L865.782,497.7C865.202101,497.7,864.732,498.170101,864.732,498.75C864.732,499.329899,865.202101,499.8,865.782,499.8L879.707,499.8C880.286899,499.8,880.757,499.329899,880.757,498.75C880.757,498.170101,880.286899,497.7,879.707,497.7Z" transform="matrix(1 0 0 1 -266.63 -85.373)" fill="rgb(228,228,228)" stroke="none" stroke-width="1"/><path id="ekTxCND9Awv16" d="M897.905,489.025L865.782,489.025C865.202101,489.025,864.732,489.495101,864.732,490.075C864.732,490.654899,865.202101,491.125,865.782,491.125L897.906,491.125C898.485899,491.125,898.956,490.654899,898.956,490.075C898.956,489.495101,898.485899,489.025,897.906,489.025Z" transform="matrix(1 0 0 1 -266.63 -85.373)" fill="rgb(228,228,228)" stroke="none" stroke-width="1"/><path id="ekTxCND9Awv17" d="M897.905,484.886L865.782,484.886C865.202101,484.886,864.732,485.356101,864.732,485.936C864.732,486.515899,865.202101,486.986,865.782,486.986L897.906,486.986C898.485899,486.986,898.956,486.515899,898.956,485.936C898.956,485.356101,898.485899,484.886,897.906,484.886Z" transform="matrix(1 0 0 1 -266.63 -85.373)" fill="rgb(228,228,228)" stroke="none" stroke-width="1"/><path id="ekTxCND9Awv18" d="M879.707,480.745L865.782,480.745C865.202101,480.745,864.732,481.215101,864.732,481.795C864.732,482.374899,865.202101,482.845,865.782,482.845L879.707,482.845C880.286899,482.845,880.757,482.374899,880.757,481.795C880.757,481.215101,880.286899,480.745,879.707,480.745Z" transform="matrix(1 0 0 1 -266.63 -85.373)" fill="rgb(228,228,228)" stroke="none" stroke-width="1"/><circle id="ekTxCND9Awv19" r="30.997" transform="matrix(1 0 0 1 267.123 168.129)" fill="rgb(255,182,182)" stroke="none" stroke-width="1"/><path id="ekTxCND9Awv20" d="M569.138,235.754C565.877,230.71,559.759,227.348,553.827,228.292C552.7027,220.575135,547.377376,214.125214,540.012826,211.56056C532.648275,208.995906,524.46848,210.742763,518.794,216.092C516.932343,214.781043,514.520445,214.539777,512.436,215.456C510.394308,216.384122,508.61809,217.809636,507.27,219.602C500.335118,228.250387,498.717479,240.011505,503.06,250.211C502.335,247.576,504.976,245.096,507.645,244.505C510.314,243.914,513.112,244.473,515.819,244.088C519.287,243.595,522.405,241.583,525.879,241.13C528.798,240.749,531.734,241.498,534.579,242.248C537.424,242.998,540.354,243.763,543.279,243.416C546.204,243.069,549.969,254.149,549.918,261.953C549.908,263.432,550.213,265.331,551.658,265.644C553.438,266.03,554.469,263.574,556.163,262.905C557.785705,262.439918,559.485236,263.343623,560.007,264.949C560.440122,266.542434,560.076571,268.246952,559.031,269.525C557.989635,270.773883,556.753381,271.846361,555.37,272.701L556.07,273.281C557.231,274.814,559.638,274.881,561.311,273.932C562.910593,272.848781,564.20609,271.373918,565.074,269.648C568.169,264.5,570.884,259.016,571.974,253.11C573.064,247.204,572.4,240.8,569.138,235.754Z" transform="matrix(1 0 0 1 -266.63 -85.373)" fill="rgb(83,0,180)" stroke="none" stroke-width="1"/><path id="ekTxCND9Awv21" d="M303.485,710.95L286.745,710.95L278.781,646.378L303.489,646.378Z" fill="rgb(255,182,182)" stroke="none" stroke-width="1"/><path id="ekTxCND9Awv22" d="M570.7,813.786L519.22,813.786L519.22,813.135C519.220796,807.820592,521.332699,802.724164,525.091116,798.966873C528.849532,795.209582,533.946592,793.099204,539.261,793.1L539.261,793.1L548.661,785.966L566.206,793.101L570.7,793.101Z" transform="matrix(1 0 0 1 -266.63 -85.373)" fill="rgb(255,255,255)" stroke="none" stroke-width="1"/><path id="ekTxCND9Awv23" d="M333.673,681.391L320.54,691.771L274.246,646.056L293.63,630.733Z" fill="rgb(255,182,182)" stroke="none" stroke-width="1"/><path id="ekTxCND9Awv24" d="M611.6,780.1L571.214,812.025L570.814,811.514C563.952072,802.832618,565.425855,790.232493,574.106,783.369L574.106,783.369L577.058,771.941L595.246,766.657L598.771,763.87Z" transform="matrix(1 0 0 1 -266.63 -85.373)" fill="rgb(255,255,255)" stroke="none" stroke-width="1"/><path id="ekTxCND9Awv25" d="M216.918,408.274L215.9,427.117L220.871,433.122L220.301,451.969L225.12,464.3L228.512,503.546L276.018,667.302L318.827,653.571L272.08,500.926L328.324,499.526L330.224,413.452L320.257,394.184Z" fill="rgb(83,0,180)" stroke="none" stroke-width="1"/><path id="ekTxCND9Awv26" d="M322.915,486.545L328.324,499.521L307.409,682.241L278.064,684.384L265.392,480.109Z" fill="rgb(83,0,180)" stroke="none" stroke-width="1"/><path id="ekTxCND9Awv27" d="M294.155,217.278L284.519,203.94L253.4,205.187L252.8,215.457L232.139,410.681L252.439,410.226L277.639,416.109L326.1,399.147Z" fill="rgb(108,99,255)" stroke="none" stroke-width="1"/><path id="ekTxCND9Awv28" d="M506.75,499.664L459.033,499.664L471.482,411.791L476.53,376.173C476.53,376.173,472.957,350.717,471.23,337.416C471.068818,335.996684,471.314721,334.560801,471.939,333.276C472.505009,332.072423,473.243809,330.95799,474.132,329.968C479.932,323.275,492.99,317.468,501.176,314.295C505.392,312.669,508.322,311.733,508.322,311.733L519.438,300.833C535.392,320.77,506.75,499.664,506.75,499.664Z" transform="matrix(1 0 0 1 -266.63 -85.373)" fill="rgb(83,0,180)" stroke="none" stroke-width="1"/><path id="ekTxCND9Awv29" d="M554.741,295.393L569.879,304.068C569.879,304.068,614.711,311.432,619.071,328.268L602.571,378.083L602.571,482.777L562.562,498.82C562.562,498.82,528.052,329.682,554.741,295.393Z" transform="matrix(1 0 0 1 -266.63 -85.373)" fill="rgb(83,0,180)" stroke="none" stroke-width="1"/><path id="ekTxCND9Awv30" d="M272.788,475.879L265.388,561.548L277.981,661.248" opacity="0.4" fill="rgb(0,0,0)" stroke="none" stroke-width="1"/><path id="ekTxCND9Awv31" d="M360.849,401.658C363.345139,399.864021,366.507687,399.267801,369.485686,400.029768C372.463685,400.791734,374.951234,402.833617,376.279,405.606L412.956,401.458L404.263,418.558L370.763,419.876C365.849782,421.840957,360.243392,419.820458,357.713246,415.172972C355.183101,410.525485,356.528984,404.720088,360.846,401.66Z" transform="matrix(1 0 0 1 -266.63 -85.373)" fill="rgb(255,182,182)" stroke="none" stroke-width="1"/><path id="ekTxCND9Awv32" d="M248.158,241.42L258.658,247.69L199.871,330.5L128.122,336.6L125.265,316.115L178.129,300.255L204.259,249.607Z" fill="rgb(83,0,180)" stroke="none" stroke-width="1"/><path id="ekTxCND9Awv33" d="M728.725,394.658C726.228861,392.864021,723.066313,392.267801,720.088314,393.029768C717.110315,393.791734,714.622766,395.833617,713.295,398.606L676.618,394.458L685.311,411.558L718.811,412.876C723.724218,414.840957,729.330608,412.820458,731.860754,408.172972C734.390899,403.525485,733.045016,397.720088,728.728,394.66Z" transform="matrix(1 0 0 1 -266.63 -85.373)" fill="rgb(255,182,182)" stroke="none" stroke-width="1"/><path id="ekTxCND9Awv34" d="M308.156,234.42L297.661,240.69L356.444,323.5L428.193,329.6L431.049,309.115L378.186,293.255L352.056,242.6Z" fill="rgb(83,0,180)" stroke="none" stroke-width="1"/><path id="ekTxCND9Awv35" d="M431.871,300.307L431.871,299.213L413.524,299.213L413.524,273.681L412.432,273.681L412.432,299.212L391.4,299.212L391.4,279.5Q390.849,279.934,390.311,280.392L390.311,299.216L376.428,299.216C376.274,299.578,376.128,299.943,375.985,300.31L390.317,300.31L390.317,321.764L372.522,321.764C372.539,322.132,372.564,322.494,372.595,322.858L390.316,322.858L390.316,339.973L377.04,339.973C377.203,340.341,377.374,340.703,377.554,341.062L390.317,341.062L390.317,355.45L391.4,355.45L391.4,341.059L412.427,341.059L412.427,355.447L413.519,355.447L413.519,341.059L431.866,341.059L431.866,339.97L413.524,339.97C413.523469,335.429964,415.32703,331.075782,418.537696,327.865867C421.748361,324.655952,426.102964,322.853408,430.643,322.855L431.872,322.855L431.872,321.761L413.524,321.761L413.524,300.307ZM412.432,339.971L391.4,339.971L391.4,322.855L412.427,322.855ZM412.432,321.761L391.4,321.761L391.4,321.332C391.400265,315.755823,393.615647,310.408138,397.558787,306.465373C401.501927,302.522608,406.849823,300.307735,412.426,300.308Z" transform="matrix(1 0 0 1 -266.63 -85.373)" fill="rgb(230,230,230)" stroke="none" stroke-width="1"/><path id="ekTxCND9Awv36" d="M591.276,148.829C590.978043,148.951818,590.636872,148.81052,590.513,148.513L588.994,144.842C588.914151,144.649077,588.943291,144.428209,589.070443,144.262596C589.197595,144.096983,589.403442,144.011786,589.610443,144.039096C589.817444,144.066407,589.994151,144.202077,590.074,144.395L591.593,148.066C591.715818,148.363957,591.57452,148.705128,591.277,148.829Z" transform="matrix(1 0 0 1 -266.63 -85.373)" fill="rgb(63,61,86)" stroke="none" stroke-width="1"/><path id="ekTxCND9Awv37" d="M621.92,121.632L621.92,121.632L617.385,110.674C616.688952,108.991854,615.353176,107.655113,613.671532,106.957851C611.989889,106.260589,610.100134,106.259923,608.418,106.956L608.418,106.956L585.2,116.564C583.517854,117.260048,582.181113,118.595824,581.483851,120.277468C580.786589,121.959111,580.785923,123.848866,581.482,125.531L581.482,125.531L606.36,185.648C607.056048,187.330146,608.391824,188.666887,610.073468,189.364149C611.755111,190.061411,613.644866,190.062077,615.327,189.366L615.327,189.366L638.543,179.758C640.225146,179.061952,641.561887,177.726176,642.259149,176.044532C642.956411,174.362889,642.957077,172.473134,642.261,170.791L642.261,170.791L625.146,129.432L625.146,129.432C625.2521,129.387991,625.336366,129.303627,625.380252,129.197475C625.424138,129.091324,625.424047,128.972085,625.38,128.866L622.48,121.866C622.388379,121.648339,622.139245,121.544237,621.92,121.632Z" transform="matrix(1 0 0 1 -266.63 -85.373)" fill="rgb(255,255,255)" stroke="none" stroke-width="1"/><path id="ekTxCND9Awv38" d="M616.053,111.275L640.9,171.305C641.974806,173.89997,640.759751,176.876498,638.176,177.978C638.160206,177.987975,638.143456,177.996349,638.126,178.003L614.797,187.657C612.179999,188.73997,609.180545,187.496763,608.097,184.88L583.255,124.849C582.733943,123.592111,582.734073,122.179611,583.25536,120.922818C583.776648,119.666025,584.776303,118.668104,586.034,118.149L588.863,116.978C588.866607,117.790004,589.27458,118.546824,589.950924,118.996181C590.627267,119.445539,591.483049,119.528346,592.233,119.217L605.533,113.717C605.823233,113.596724,606.086669,113.419967,606.308,113.197C606.768425,112.743996,607.02946,112.126263,607.033401,111.480362C607.037342,110.834461,606.783863,110.213589,606.329,109.755L609.363,108.5C611.977792,107.41841,614.974365,108.66064,616.057,111.275Z" transform="matrix(1 0 0 1 -266.63 -85.373)" opacity="0" fill="rgb(83,0,180)" stroke="none" stroke-width="1"/><path id="ekTxCND9Awv39" d="M588.685,142.566C588.387043,142.688818,588.045872,142.54752,587.922,142.25L586.403,138.579C586.323151,138.386077,586.352291,138.165209,586.479443,137.999596C586.606595,137.833983,586.812442,137.748786,587.019443,137.776096C587.226444,137.803407,587.403151,137.939077,587.483,138.132L589,141.8C589.059987,141.943332,589.060489,142.10464,589.001395,142.248342C588.942301,142.392044,588.828466,142.506334,588.685,142.566Z" transform="matrix(1 0 0 1 -266.63 -85.373)" fill="rgb(63,61,86)" stroke="none" stroke-width="1"/><path id="ekTxCND9Awv40" d="M585.628,135.484C585.330043,135.606818,584.988872,135.46552,584.865,135.168L583.346,131.497C583.266151,131.304077,583.295291,131.083209,583.422443,130.917596C583.549595,130.751983,583.755442,130.666786,583.962443,130.694096C584.169444,130.721407,584.346151,130.857077,584.426,131.05L585.945,134.721C586.067702,135.019233,585.925911,135.360517,585.628,135.484Z" transform="matrix(1 0 0 1 -266.63 -85.373)" fill="rgb(63,61,86)" stroke="none" stroke-width="1"/><path id="ekTxCND9Awv41" d="M594.18,115.5C594.057182,115.202043,594.19848,114.860872,594.496,114.737L598.167,113.218C598.465234,113.094564,598.807064,113.236266,598.9305,113.5345C599.053936,113.832734,598.912234,114.174564,598.614,114.298L594.943,115.817C594.645043,115.939818,594.303872,115.79852,594.18,115.501Z" transform="matrix(1 0 0 1 -266.63 -85.373)" fill="rgb(255,255,255)" stroke="none" stroke-width="1"/><circle id="ekTxCND9Awv42" r="0.584" transform="matrix(1 0 0 1 333.812 27.54)" fill="rgb(255,255,255)" stroke="none" stroke-width="1"/><path id="ekTxCND9Awv43" d="M727.162,372.752C727.088,372.752,727.015,372.752,726.94,372.752C725.178974,372.688217,723.56028,371.767784,722.605,370.287C719.080365,365.019069,714.754956,360.33366,709.785,356.4C706.776,354,703.632,351.759,700.592,349.6C692.748,344.023,685.362,338.77,681.262,331.513C672.322,315.687,682.85,293.644,697.89,283.758C714.76,272.671,736.949,270.932,758.415,270.704Q761.761,270.669,765.115,270.669L765.115,270.669C803.790622,270.679785,842.385278,274.204608,880.423,281.2C893.072,283.534,906.311,286.392,916.951,293.33C927.527,300.23,933.951,311.087,933.329,320.999C932.413,335.469,917.074,346.281,903.106,349.108C889.793,351.8,875.962,349.981,861.32,348.054C858.087,347.629,854.745,347.189,851.44,346.807C815.52,342.655,748.04,355.452,745.187,355.999L742.355,356.541L731.366,370.683C730.36477,371.991468,728.809582,372.756855,727.162,372.752Z" transform="matrix(1 0 0 1 -266.63 -85.373)" fill="rgb(83,0,180)" stroke="none" stroke-width="1"/><path id="ekTxCND9Awv44" d="M887.117,302.162L735.3,302.162C733.475527,302.162,731.9965,300.682973,731.9965,298.8585C731.9965,297.034027,733.475527,295.555,735.3,295.555L887.117,295.555C888.941473,295.555,890.4205,297.034027,890.4205,298.8585C890.4205,300.682973,888.941473,302.162,887.117,302.162Z" transform="matrix(1 0 0 1 -266.63 -85.373)" fill="rgb(255,255,255)" stroke="none" stroke-width="1"/><path id="ekTxCND9Awv45" d="M887.117,322.438L735.3,322.438C733.475527,322.439933,731.994933,320.962473,731.993,319.138C731.991067,317.313527,733.468527,315.832933,735.293,315.831L887.117,315.831C888.941473,315.831,890.4205,317.310027,890.4205,319.1345C890.4205,320.958973,888.941473,322.438,887.117,322.438Z" transform="matrix(1 0 0 1 -266.63 -85.373)" fill="rgb(255,255,255)" stroke="none" stroke-width="1"/><path id="ekTxCND9Awv46" d="M752.988,342.714L735.3,342.714C733.475527,342.714,731.9965,341.234973,731.9965,339.4105C731.9965,337.586027,733.475527,336.107,735.3,336.107L752.993,336.107C754.817473,336.107,756.2965,337.586027,756.2965,339.4105C756.2965,341.234973,754.817473,342.714,752.993,342.714Z" transform="matrix(1 0 0 1 -266.63 -85.373)" fill="rgb(255,255,255)" stroke="none" stroke-width="1"/><circle id="ekTxCND9Awv47" r="16.057" transform="matrix(1 0 0 1 462.407 294.352)" fill="rgb(255,255,255)" stroke="none" stroke-width="1"/><path id="ekTxCND9Awv48" d="M729.037,395.978C720.060716,395.978,712.784,388.701284,712.784,379.725C712.784,370.748716,720.060716,363.472,729.037,363.472C738.013284,363.472,745.29,370.748716,745.29,379.725C745.29,384.035564,743.577635,388.169578,740.529607,391.217607C737.481578,394.265635,733.347564,395.978,729.037,395.978Z" transform="matrix(1 0 0 1 -266.63 -85.373)" fill="rgb(255,255,255)" stroke="none" stroke-width="1"/><path id="ekTxCND9Awv49" d="M727.834,386.142L727.734,386.142C727.121811,386.112465,726.553076,385.816957,726.177,385.333L723.494,381.883C723.151682,381.443343,722.998128,380.885663,723.067149,380.332747C723.13617,379.779831,723.422105,379.277013,723.862,378.935L723.962,378.86C724.40172,378.517367,724.959628,378.363625,725.512789,378.432653C726.065949,378.501681,726.568967,378.787813,726.911,379.228C727.185228,379.580401,727.599559,379.79562,728.045558,379.817334C728.491558,379.839048,728.924836,379.665095,729.232,379.341L734.68,373.589C735.062984,373.184198,735.591159,372.948217,736.148214,372.933025C736.70527,372.917832,737.245522,373.124674,737.65,373.508L737.739,373.593C738.143665,373.976119,738.379462,374.504368,738.394467,375.061422C738.409472,375.618475,738.202454,376.158652,737.819,376.563L729.364,385.488C728.965804,385.907366,728.412294,386.143965,727.834,386.142Z" transform="matrix(1 0 0 1 -266.63 -85.373)" opacity="0" fill="rgb(0,0,0)" stroke="none" stroke-width="1"/><path id="ekTxCND9Awv50" d="M429.222,172.166L419.4,113.09C418.988729,110.599879,420.670795,108.246777,423.16,107.83L467.775,100.411C470.265121,99.999729,472.618223,101.681795,473.035,104.171L482.858,163.247C483.269271,165.737121,481.587205,168.090223,479.098,168.507L434.483,175.926C431.992879,176.337271,429.639777,174.655205,429.223,172.166Z" transform="matrix(1 0 0 1 -266.63 -85.373)" fill="rgb(255,255,255)" stroke="none" stroke-width="1"/><path id="ekTxCND9Awv51" d="M429.677,153.754L423.362,115.775C422.976621,113.443029,424.551839,111.239245,426.883,110.849L465.226,104.473C467.557836,104.088201,469.76125,105.663154,470.152,107.994L478.894,160.563C479.278762,162.895167,477.703252,165.098733,475.372,165.489L451.619,169.439C441.231581,171.15395,431.416036,164.137414,429.677,153.754Z" transform="matrix(1 0 0 1 -266.63 -85.373)" fill="rgb(0,0,0)" stroke="none" stroke-width="1"/><path id="ekTxCND9Awv52" d="M431.332,125.339C430.955645,123.060092,432.49496,120.906572,434.773,120.525L461.373,116.102C462.847614,115.856737,464.341059,116.416802,465.29077,117.571224C466.240481,118.725645,466.502173,120.299039,465.97727,121.698724C465.452367,123.098408,464.220614,124.111737,462.746,124.357L436.146,128.78C433.867092,129.156355,431.713572,127.61704,431.332,125.339Z" transform="matrix(1 0 0 1 -266.63 -85.373)" opacity="0" fill="rgb(83,0,180)" stroke="none" stroke-width="1"/><path id="ekTxCND9Awv53" d="M433.467,138.18C433.090645,135.901092,434.62996,133.747572,436.908,133.366L463.508,128.943C464.982614,128.697737,466.476059,129.257802,467.42577,130.412224C468.375481,131.566645,468.637173,133.140039,468.11227,134.539724C467.587367,135.939408,466.355614,136.952737,464.881,137.198L438.281,141.621C436.002092,141.997355,433.848572,140.45804,433.467,138.18Z" transform="matrix(1 0 0 1 -266.63 -85.373)" opacity="0" fill="rgb(83,0,180)" stroke="none" stroke-width="1"/><path id="ekTxCND9Awv54" d="M435.6,151.02C435.223645,148.741092,436.76296,146.587572,439.041,146.206L465.641,141.783C467.115614,141.537737,468.609059,142.097802,469.55877,143.252224C470.508481,144.406645,470.770173,145.980039,470.24527,147.379724C469.720367,148.779408,468.488614,149.792737,467.014,150.038L440.414,154.461C438.135092,154.837355,435.981572,153.29804,435.6,151.02Z" transform="matrix(1 0 0 1 -266.63 -85.373)" opacity="0" fill="rgb(83,0,180)" stroke="none" stroke-width="1"/><path id="ekTxCND9Awv55" d="M662.326,772.971L663.033,757.071C670.404878,753.13063,678.627209,751.049387,686.986,751.008C675.486,760.413,676.92,778.544,669.12,791.192C664.131162,799.144964,655.79618,804.397426,646.469,805.466L636.842,811.36C634.168701,796.456223,638.155485,781.129215,647.752,769.417C650.444148,766.196621,653.531097,763.328057,656.94,760.879C659.246,766.959,662.326,772.971,662.326,772.971Z" transform="matrix(1 0 0 1 -266.63 -85.373)" fill="rgb(242,242,242)" stroke="none" stroke-width="1"/><path id="ekTxCND9Awv56" d="M789.969,813.074C789.970334,813.486289,789.807143,813.882076,789.515609,814.173609C789.224076,814.465143,788.828289,814.628334,788.416,814.627L370.366,814.627C369.508026,814.627,368.8125,813.931474,368.8125,813.0735C368.8125,812.215526,369.508026,811.52,370.366,811.52L788.416,811.52C788.828289,811.518666,789.224076,811.681857,789.515609,811.973391C789.807143,812.264924,789.970334,812.660711,789.969,813.073Z" transform="matrix(1 0 0 1 -266.63 -85.373)" fill="rgb(204,204,204)" stroke="none" stroke-width="1"/><path id="ekTxCND9Awv57" d="M371.373,393.657C363.959,393.509,324.133,392.366,317.602,392.647C317.233,391.354,304.852,407.22,304.551,407.318C304.143109,407.747207,303.971229,408.348939,304.090877,408.928834C304.210525,409.508729,304.606537,409.993289,305.151,410.226C305.879,410.668,370.083,409.48,370.861,409.635C371.547717,409.624264,372.167443,409.220703,372.455,408.597L372.884,407.636C372.929,405.992,373.467,397.588,372.984,396.151C373.225023,395.603196,373.174279,394.970889,372.848977,394.468535C372.523675,393.96618,371.967468,393.661188,371.369,393.657Z" transform="matrix(1 0 0 1 -266.63 -85.373)" fill="rgb(244,244,255)" stroke="none" stroke-width="1"/><path id="ekTxCND9Awv58" style="isolation:isolate" d="M372.889,407.634C372.512,408.539,372.03,409.677,370.866,409.634L305.834,410.364C305.208589,410.356797,304.632074,410.024393,304.312506,409.486743C303.992938,408.949092,303.976453,408.283818,304.269,407.731Z" transform="matrix(1 0 0 1 -266.63 -85.373)" opacity="0.17" fill="rgb(0,0,0)" stroke="none" stroke-width="1"/><path id="ekTxCND9Awv59" d="M317.906,392.453C317.206,391.242,299.82,305.215,298.369,304.495L286.5,289.974L285.439,289.174C283.964,288.364,280.425,288.912,280.739,291.165L280.739,291.165C283.528,304.535,301.465,380.683,301.858,392.555L304.017,407.679C304.094952,408.199483,304.38941,408.662714,304.827602,408.954207C305.265793,409.245699,305.806831,409.338255,306.317,409.209C307.576079,409.073286,308.669926,408.282842,309.194,407.13C309.359,406.6,318.719,392.762,317.906,392.453Z" transform="matrix(1 0 0 1 -266.63 -85.373)" fill="rgb(255,255,255)" stroke="none" stroke-width="1"/><path id="ekTxCND9Awv60" style="isolation:isolate" d="M286.5,289.974L309.2,407.135C308.441,409.057,304.888,410.403,304.061,407.882C304.047,407.882,280.77,291.239,280.746,291.169C280.5,288.362,285.135,288.273,286.5,289.974Z" transform="matrix(1 0 0 1 -266.63 -85.373)" opacity="0.17" fill="rgb(0,0,0)" stroke="none" stroke-width="1"/><path id="ekTxCND9Awv61" d="M20.55,209.392L32.081,225.464L45.023,286.929L39.006,292.177Z" fill="rgb(83,0,180)" stroke="none" stroke-width="1"/><path id="ekTxCND9Awv62" d="M363.93,401.945L367.12,402.075C367.169875,401.140719,367.324168,400.214955,367.58,399.315C368.06,397.035,368.49,394.325,366.5,394.335C365.15,394.205,364.69,395.915,364.45,397.775C364.38809,399.176638,364.214203,400.571082,363.93,401.945Z" transform="matrix(1 0 0 1 -266.63 -85.373)" fill="rgb(47,46,65)" stroke="none" stroke-width="1"/><path id="ekTxCND9Awv63" d="M345.63,397.655L347.78,397.735L348.82,397.775C348.8,396.635,349.33,394.285,348.04,393.705C347.834784,393.616768,347.613366,393.572484,347.39,393.575C346.18,393.505,345.82,394.425,345.71,395.485C345.64,396.125,345.67,396.805,345.65,397.335C345.65,397.445,345.64,397.555,345.63,397.655Z" transform="matrix(1 0 0 1 -266.63 -85.373)" fill="rgb(47,46,65)" stroke="none" stroke-width="1"/><path id="ekTxCND9Awv64" d="M339.26,397.395L341.42,397.485L342.45,397.525C342.43,396.215,343.12,393.355,341.02,393.315C339.08,393.205,339.33,395.675,339.28,397.075C339.28,397.185,339.27,397.294,339.26,397.395Z" transform="matrix(1 0 0 1 -266.63 -85.373)" fill="rgb(47,46,65)" stroke="none" stroke-width="1"/><path id="ekTxCND9Awv65" d="M332.89,397.145L335.04,397.225L336.08,397.265C336.06,395.965,336.75,393.105,334.65,393.065C332.71,392.945,332.96,395.415,332.91,396.825C332.91,396.935,332.9,397.044,332.89,397.145Z" transform="matrix(1 0 0 1 -266.63 -85.373)" fill="rgb(47,46,65)" stroke="none" stroke-width="1"/><path id="ekTxCND9Awv66" d="M326.52,396.885L328.68,396.975L329.71,397.015C329.69,395.705,330.38,392.855,328.28,392.805C326.34,392.695,326.59,395.165,326.54,396.565C326.54,396.674,326.53,396.785,326.52,396.885Z" transform="matrix(1 0 0 1 -266.63 -85.373)" fill="rgb(47,46,65)" stroke="none" stroke-width="1"/><path id="ekTxCND9Awv67" d="M320.15,396.635L322.3,396.715L323.34,396.755C323.32,395.555,323.9,393.045,322.36,392.615L322.35,392.615C322.207234,392.572758,322.058863,392.552526,321.91,392.555C321.728457,392.538853,321.545492,392.555795,321.37,392.605L321.36,392.605C320.02,392.955,320.21,395.055,320.17,396.315C320.17,396.424,320.16,396.535,320.15,396.635Z" transform="matrix(1 0 0 1 -266.63 -85.373)" fill="rgb(47,46,65)" stroke="none" stroke-width="1"/><path id="ekTxCND9Awv68" d="M357.5,395.955L360.69,396.085C360.69,395.965,360.69,395.835,360.7,395.685C360.778983,394.924226,360.792366,394.158068,360.74,393.395C360.63,392.555,360.27,391.895,359.26,391.875C358.23,391.815,357.82,392.475,357.66,393.325C357.622806,393.469556,357.59607,393.616603,357.58,393.765L357.58,393.775C357.5,394.555,357.55,395.395,357.5,395.955Z" transform="matrix(1 0 0 1 -266.63 -85.373)" fill="rgb(47,46,65)" stroke="none" stroke-width="1"/><path id="ekTxCND9Awv69" d="M351.13,395.695L354.32,395.825C354.387685,394.966771,354.407715,394.105448,354.38,393.245C354.29,392.365,353.94,391.645,352.89,391.625C351.83,391.555,351.42,392.275,351.26,393.165C351.11,394.025,351.19,395.055,351.13,395.695Z" transform="matrix(1 0 0 1 -266.63 -85.373)" fill="rgb(47,46,65)" stroke="none" stroke-width="1"/><path id="ekTxCND9Awv70" d="M344.76,395.445L345.71,395.485L347.95,395.575C347.94,395.095,348.03,394.395,348.04,393.705C348.048527,393.498122,348.041843,393.290898,348.02,393.085C347.94,392.155,347.61,391.385,346.52,391.365C345.41,391.305,345.02,392.075,344.88,393.015C344.74,393.854,344.82,394.825,344.76,395.445Z" transform="matrix(1 0 0 1 -266.63 -85.373)" fill="rgb(47,46,65)" stroke="none" stroke-width="1"/><path id="ekTxCND9Awv71" d="M357.56,401.695L360.75,401.815C360.74,400.515,361.42,397.655,359.32,397.615C357.22,397.484,357.68,400.385,357.56,401.695Z" transform="matrix(1 0 0 1 -266.63 -85.373)" fill="rgb(47,46,65)" stroke="none" stroke-width="1"/><path id="ekTxCND9Awv72" d="M351.19,401.435L354.38,401.565C354.37,400.255,355.05,397.395,352.95,397.355C350.85,397.234,351.31,400.135,351.19,401.435Z" transform="matrix(1 0 0 1 -266.63 -85.373)" fill="rgb(47,46,65)" stroke="none" stroke-width="1"/><path id="ekTxCND9Awv73" d="M344.82,401.185L348.01,401.305C348,400.375,348.35,398.655,347.78,397.735C347.526572,397.320003,347.065506,397.077943,346.58,397.105C346.252634,397.070432,345.923516,397.151827,345.65,397.335C344.63,398,344.92,400.125,344.82,401.185Z" transform="matrix(1 0 0 1 -266.63 -85.373)" fill="rgb(47,46,65)" stroke="none" stroke-width="1"/><path id="ekTxCND9Awv74" d="M338.45,400.924L341.64,401.054C341.63,400.124,341.97,398.414,341.42,397.484C341.166946,397.062378,340.700929,396.815889,340.21,396.844C339.882534,396.807951,339.552915,396.88947,339.28,397.074C338.26,397.765,338.55,399.875,338.45,400.924Z" transform="matrix(1 0 0 1 -266.63 -85.373)" fill="rgb(47,46,65)" stroke="none" stroke-width="1"/><path id="ekTxCND9Awv75" d="M332.08,400.674L335.27,400.794C335.26,399.864,335.61,398.144,335.04,397.224C334.786729,396.808836,334.325555,396.566719,333.84,396.594C333.512598,396.558914,333.183306,396.640352,332.91,396.824C331.89,397.495,332.18,399.615,332.08,400.674Z" transform="matrix(1 0 0 1 -266.63 -85.373)" fill="rgb(47,46,65)" stroke="none" stroke-width="1"/><path id="ekTxCND9Awv76" d="M325.71,400.415L328.9,400.545C328.89,399.615,329.23,397.905,328.68,396.975C328.428733,396.551497,327.961478,396.304354,327.47,396.335C327.142534,396.298951,326.812915,396.38047,326.54,396.565C325.52,397.255,325.81,399.365,325.71,400.415Z" transform="matrix(1 0 0 1 -266.63 -85.373)" fill="rgb(47,46,65)" stroke="none" stroke-width="1"/><path id="ekTxCND9Awv77" d="M319.34,400.165L322.53,400.285C322.52,399.355,322.86,397.645,322.3,396.715C322.048474,396.29798,321.586092,396.055229,321.1,396.085C320.772598,396.049914,320.443306,396.131352,320.17,396.315C319.15,396.995,319.44,399.1,319.34,400.165Z" transform="matrix(1 0 0 1 -266.63 -85.373)" fill="rgb(47,46,65)" stroke="none" stroke-width="1"/></svg>