<svg id="illustration" xmlns="http://www.w3.org/2000/svg" xmlns:xlink="http://www.w3.org/1999/xlink" width="737.779" height="507.717" viewBox="0 0 737.779 507.717">
  <defs>
    <linearGradient id="linear-gradient" x1="0.5" y1="1.001" x2="0.5" gradientUnits="objectBoundingBox">
      <stop offset="0" stop-color="gray" stop-opacity="0.251"/>
      <stop offset="0.54" stop-color="gray" stop-opacity="0.122"/>
      <stop offset="1" stop-color="gray" stop-opacity="0.102"/>
    </linearGradient>
    <linearGradient id="linear-gradient-2" x1="0.141" y1="0.451" x2="1.272" y2="0.451" xlink:href="#linear-gradient"/>
  </defs>
  <path id="Path_79" data-name="Path 79" d="M780.8,286.357a4.89,4.89,0,0,0,.887-2.72c0-5.907-12.034-10.687-26.88-10.687s-26.88,4.78-26.88,10.687a5.04,5.04,0,0,0,1.108,3.031c-16.53,1.846-27.664,5.3-27.664,9.275,0,5.9,24.613,10.687,55.055,10.687s55.055-4.787,55.055-10.687C811.448,291.766,798.934,288.106,780.8,286.357Z" transform="translate(-266.823 -133.777)" fill="#6c63ff" opacity="0.1"/>
  <g id="Group_6" data-name="Group 6" transform="translate(544.593 37.816)" opacity="0.2">
    <path id="Path_80" data-name="Path 80" d="M940.392,761.034a31,31,0,0,0-.279,5.091q16.931.272,34.011,1.14c.078-.44.155-.9.22-1.36a27.042,27.042,0,0,0-1.587-14.068c-2.345-5.719-6.717-9.806-12.19-10.59s-10.81,1.9-14.664,6.7A26.984,26.984,0,0,0,940.392,761.034Z" transform="translate(-895.519 -336.524)" fill="#5300b4"/>
    <ellipse id="Ellipse_24" data-name="Ellipse 24" cx="22.449" cy="17.151" rx="22.449" ry="17.151" transform="translate(45.615 419.584) rotate(-81.82)" fill="#5300b4"/>
    <ellipse id="Ellipse_25" data-name="Ellipse 25" cx="22.449" cy="17.151" rx="22.449" ry="17.151" transform="translate(49.516 392.429) rotate(-81.82)" fill="#5300b4"/>
    <ellipse id="Ellipse_26" data-name="Ellipse 26" cx="22.449" cy="17.151" rx="22.449" ry="17.151" transform="translate(53.418 365.268) rotate(-81.82)" fill="#5300b4"/>
    <ellipse id="Ellipse_27" data-name="Ellipse 27" cx="22.449" cy="17.151" rx="22.449" ry="17.151" transform="translate(57.321 338.107) rotate(-81.82)" fill="#5300b4"/>
    <path id="Path_81" data-name="Path 81" d="M1038.99,258.056a83.338,83.338,0,0,0,7.662-8.42L1003.1,235.924l48.189,7.293a82.31,82.31,0,0,0,10.81-64.227l-69.538,24.27,65.982-35.281a82.149,82.149,0,1,0-147.366,71.708,82.255,82.255,0,0,0-11.4,13.5l53.578,38.4L894.6,261.994a82.174,82.174,0,0,0,2.137,78.23,82.142,82.142,0,1,0,127.812,18.369A82.155,82.155,0,0,0,1039,258.056Z" transform="translate(-871.273 -116.464)" fill="#5300b4"/>
    <path id="Path_82" data-name="Path 82" d="M886.556,380a81.76,81.76,0,0,0,10.175,52.769,82.142,82.142,0,1,0,127.812,18.369C1037.426,438.873,887.864,370.877,886.556,380Z" transform="translate(-871.27 -209.011)" fill="#5300b4" opacity="0.1"/>
  </g>
  <g id="Group_7" data-name="Group 7" transform="translate(0 63.974)" opacity="0.2">
    <path id="Path_83" data-name="Path 83" d="M196.716,722.742a26.321,26.321,0,0,0,1.133,4.3q13.8-4.443,27.89-8.42c-.052-.389-.11-.79-.181-1.192a23.836,23.836,0,0,0-5.039-11.244c-3.426-4.1-8.064-6.289-12.714-5.428s-8.265,4.534-10.111,9.612a24.166,24.166,0,0,0-.978,12.371Z" transform="translate(-88.897 -348.4)" fill="#5300b4"/>
    <ellipse id="Ellipse_28" data-name="Ellipse 28" cx="14.664" cy="19.619" rx="14.664" ry="19.619" transform="translate(100.648 330.962) rotate(-8.99)" fill="#5300b4"/>
    <ellipse id="Ellipse_29" data-name="Ellipse 29" cx="14.706" cy="19.675" rx="14.706" ry="19.675" transform="matrix(0.987, -0.16, 0.16, 0.987, 98.357, 307.816)" fill="#5300b4"/>
    <ellipse id="Ellipse_30" data-name="Ellipse 30" cx="14.664" cy="19.619" rx="14.664" ry="19.619" transform="translate(92.484 283.715) rotate(-8.99)" fill="#5300b4"/>
    <ellipse id="Ellipse_31" data-name="Ellipse 31" cx="14.664" cy="19.619" rx="14.664" ry="19.619" transform="translate(88.409 260.087) rotate(-8.99)" fill="#5300b4"/>
    <path id="Path_84" data-name="Path 84" d="M162.485,262.432a73.194,73.194,0,0,0,3.97-9.068l-38.992.609,41.039-7.235A73.34,73.34,0,0,0,169.719,216a72.472,72.472,0,0,0-9.573-25.539L110.2,229.782l44.122-47.5A69.033,69.033,0,0,0,88.426,158C50.244,165,24.808,202.364,31.551,241.421a71.714,71.714,0,0,0,22.333,41.006,72.731,72.731,0,0,0-5.654,14.347l53.708,17.106-55.58-8.362a73.333,73.333,0,0,0,.272,23.356A71.714,71.714,0,0,0,68.962,369.88a73.152,73.152,0,0,0-7.235,46.447c6.743,39.063,43.137,65.03,81.294,58s63.618-44.381,56.875-83.444a71.733,71.733,0,0,0-22.333-41,73.191,73.191,0,0,0,7.235-46.453A71.733,71.733,0,0,0,162.485,262.432Z" transform="translate(-30.468 -156.85)" fill="#5300b4"/>
    <path id="Path_85" data-name="Path 85" d="M55.445,421.251a71.714,71.714,0,0,0,22.333,41.006A73.152,73.152,0,0,0,70.543,508.7c6.743,39.063,43.137,65.03,81.294,58s63.618-44.381,56.875-83.444a71.733,71.733,0,0,0-22.333-41C193.561,428.518,54.071,413.317,55.445,421.251Z" transform="translate(-39.263 -249.227)" fill="#5300b4" opacity="0.1"/>
  </g>
  <path id="Path_86" data-name="Path 86" d="M144.32,651.45c0,33.881,21.251,61.292,47.516,61.292" transform="translate(-70.577 -267.121)"/>
  <path id="Path_87" data-name="Path 87" d="M217.68,712.369c0-34.257,23.719-61.979,53.034-61.979" transform="translate(-96.422 -266.747)" fill="#6c63ff"/>
  <path id="Path_88" data-name="Path 88" d="M170.9,656.19c0,32.185,13.55,58.222,30.3,58.222" transform="translate(-79.941 -268.791)" fill="#6c63ff"/>
  <path id="Path_89" data-name="Path 89" d="M217.68,703.005c0-43.772,27.417-79.2,61.3-79.2" transform="translate(-96.422 -257.383)"/>
  <ellipse id="Ellipse_32" data-name="Ellipse 32" cx="330.978" cy="11.005" rx="330.978" ry="11.005" transform="translate(10.915 460.221)" fill="#6c63ff" opacity="0.1"/>
  <ellipse id="Ellipse_33" data-name="Ellipse 33" cx="12.099" cy="2.047" rx="12.099" ry="2.047" transform="translate(103.673 450.227)" fill="#6c63ff" opacity="0.1"/>
  <path id="Path_90" data-name="Path 90" d="M196.66,739.646s6.9-.207,8.984-1.69,10.609-3.239,11.128-.874,10.363,11.814,2.591,11.872-18.1-1.211-20.176-2.474S196.66,739.646,196.66,739.646Z" transform="translate(-89.016 -296.88)" fill="#a8a8a8"/>
  <path id="Path_91" data-name="Path 91" d="M219.492,750.151c-7.772.058-18.1-1.218-20.176-2.481-1.58-.959-2.215-4.417-2.422-6.011h-.233s.44,5.57,2.513,6.833,12.391,2.539,20.176,2.474c2.248,0,3.025-.816,2.986-2C222.024,749.692,221.163,750.138,219.492,750.151Z" transform="translate(-89.016 -298.901)" opacity="0.2"/>
  <path id="Path_92" data-name="Path 92" d="M578.255,213.316C568.961,167.51,529.127,133,480.666,133a99.51,99.51,0,0,0-88.3,53.76c-39.834,3.983-71.034,37.839-71.034,79.02A79.9,79.9,0,0,0,401,345.448H573.611A66.589,66.589,0,0,0,640,279.058,65.58,65.58,0,0,0,578.255,213.316ZM501.9,252.469v50.456h-42.49V252.469H414.269l66.39-66.357,66.39,66.39Z" transform="translate(-132.937 -84.474)" fill="#fff"/>
  <path id="Path_93" data-name="Path 93" d="M421.511,218.5c-.648-3.7-.33-7.682-2.027-11.011a2.4,2.4,0,0,0-.771-.991,2.662,2.662,0,0,0-1.38-.317c-1.535-.058-3.064-.078-4.6-.039a1.273,1.273,0,0,0-1.153.44.467.467,0,0,0-.058.13c-1.755-1.943-3.083-4.4-4.974-6.212.272-.091.538-.175.816-.246a2.6,2.6,0,0,0-.1-.544.665.665,0,0,0-.045-.162c-.013-.052-.058-.246-.1-.369a1.21,1.21,0,0,0-.065-.181,3.581,3.581,0,0,0-.117-.343.5.5,0,0,0-.071-.175l-.136-.343-.078-.162c-.052-.117-.1-.233-.162-.343l-.078-.143c-.058-.123-.123-.246-.188-.369L406.16,197c-.071-.13-.149-.259-.22-.4a.265.265,0,0,1-.045-.071c-.084-.149-.175-.3-.266-.44h0c-.738-1.2-1.555-2.39-2.157-3.627-1.056-2.176-1.406-4.631-2.112-6.95s-1.943-4.676-4.042-5.784c-1.017-.518-2.377-.978-2.474-2.124a2.532,2.532,0,0,1,.227-1.069,14.318,14.318,0,0,1,1.056-2.144c.155-.246.317-.492.479-.738l.13-.175c.13-.181.266-.363.4-.531l.168-.214c.136-.168.279-.324.421-.486l.175-.188c.2-.214.4-.421.615-.648a1.5,1.5,0,0,0,.453-.576,1.748,1.748,0,0,0,.032-.687,8.22,8.22,0,0,1,1.943-5.072,19.407,19.407,0,0,0,2.96-4.644c.071-.2.13-.4.181-.609a1.83,1.83,0,0,0,.045-.2c.032-.136.058-.272.084-.415l.039-.233a3.62,3.62,0,0,1,.045-.382v-1.516a1.968,1.968,0,0,0-.032-.408v-.22a3.945,3.945,0,0,0-.065-.473v-.155q-.045-.317-.117-.648h0a32.381,32.381,0,0,0-1.192-4.055,14.489,14.489,0,0,0-.984-2.358c.24-.045.486-.1.725-.162a10.569,10.569,0,0,1-.525-.92,24.121,24.121,0,0,0,3.31-7.183,33.248,33.248,0,0,0,.648-5.551,115.152,115.152,0,0,0,.253-16.84v-.22a13.6,13.6,0,0,0,.039-3.627,15.233,15.233,0,0,0-2.034-6.691,8.158,8.158,0,0,0-5.635-3.964,8.913,8.913,0,0,1-1.257,1.166,4.942,4.942,0,0,1-1.47-2.286A12.442,12.442,0,0,0,406.4,91.592c0-.2.045-.408.058-.609V89.209a1.827,1.827,0,0,0-.039-.421,1.161,1.161,0,0,0,0-.149l-.058-.453v-.1a2.543,2.543,0,0,0-.084-.486v-.052c-.032-.175-.071-.343-.117-.518h0a12.474,12.474,0,0,0-1.367-3.355,12.494,12.494,0,0,0,.984-3.6c0-.227.045-.447.058-.648s0-.285,0-.427v-.764a.181.181,0,0,1,0-.058,12.591,12.591,0,0,0-3.491-8.33,7.285,7.285,0,0,0,.615-1.3h0c.052-.136.1-.272.136-.415h0c.039-.136.078-.266.11-.4V67.7l.078-.369a.2.2,0,0,1,0-.065,3.614,3.614,0,0,1,.065-.44,3.567,3.567,0,0,1,.039-.453V65.308a7.662,7.662,0,0,0-15.273-.343,7.908,7.908,0,0,0,.071,2.351,12.533,12.533,0,0,0-6.95,9.774,12.714,12.714,0,0,0-.071,2.1,12.637,12.637,0,0,0-1.943,5.829h0v.233c0,.259-.032.525-.032.784a12.585,12.585,0,0,0,4.838,9.955,8.854,8.854,0,0,0,2.448,2.591,9.757,9.757,0,0,1,.4,1.619,4.91,4.91,0,0,1-1.49,4.022c-.278.233-.589.427-.881.648a1.639,1.639,0,0,0-.9,0c-3.342,1.049-6.542,3.128-8.077,6.309a12.307,12.307,0,0,0-.8,2.254l-.181.279a32.385,32.385,0,0,0-4.314,10.363,22.846,22.846,0,0,1-1.567,5.557,5.74,5.74,0,0,0-.512,1.133,11.314,11.314,0,0,0-.078,1.82,29.405,29.405,0,0,1-.946,3.161c-.13.648-.1,1.3-.214,1.943a19.813,19.813,0,0,1-1.211,3.239c-.687,1.9-.68,4-1.192,5.959a2.092,2.092,0,0,1-.4.887,4.566,4.566,0,0,1-1.347.725,2.973,2.973,0,0,0-1.354,2.027,8.919,8.919,0,0,0-.045,2.526l.253,3.284-3.679,1.114L351.9,159.3a17.967,17.967,0,0,0-5.013,2.118,9.217,9.217,0,0,0-3.161,3.834,19.316,19.316,0,0,0-1.172,5.007,76.054,76.054,0,0,1-3.1,14.12c-.123.35-.253.706-.382,1.056h0l-.408,1.03c-.032.071-.065.143-.091.214l-.35.823c-.155.35-.317.693-.486,1.036l14.139,4.715a4.564,4.564,0,0,0,.058.551c.492,3.472.253,7,.706,10.473a6.769,6.769,0,0,0,.4,1.69,2.41,2.41,0,0,0-.745,1.179,6.27,6.27,0,0,0-.071,2.254c.162,1.775.317,3.549.479,5.324a8.237,8.237,0,0,1,0,1.943,20.879,20.879,0,0,1-1.218,3.323c-.369,1.121-.35,2.558.576,3.239a2.293,2.293,0,0,0,2.228.2,5.233,5.233,0,0,0,1.846-1.418c2.843-3.161,4.119-7.429,6.328-11.076a20.882,20.882,0,0,0,1.516-2.636c.3-.706.5-1.457.745-2.189a22.482,22.482,0,0,1,1.218-2.843c.266-.525,1.3-1.788,1.062-2.371-.363-1-4.242-1.885-5.182-2.2a2.591,2.591,0,0,0-1.9-.084,1.191,1.191,0,0,0-.259.168l-.33-4.281c.576-.052,1.146-.123,1.71-.22q0-1.2-.058-2.429c0-.738-.032-1.483-.052-2.228-.039-1.814-.078-3.627-.123-5.408a29.964,29.964,0,0,0-.2-3.141c-.22-1.587-.706-3.141-.861-4.741a1.807,1.807,0,0,1,.8-.363h0a5.688,5.688,0,0,1,1.373-.052h.363a11.762,11.762,0,0,0,5.719-1.58c1.781-.926,3.433-2.086,5.182-3.038l.648-.343.246-.123.415-.207.343-.162.078-.039c1.03-.492,2.073-.972,3.07-1.509a3.48,3.48,0,0,0,.22.317,2.066,2.066,0,0,0,2.157.784c-1.224,2.947-2.662,5.8-3.025,8.984-.531,4.605,1.3,9.068,3.115,13.356l5.758,13.6c.648,1.5,1.483,3.187,3.057,3.543a4.534,4.534,0,0,0,2.889-.576,54.1,54.1,0,0,0,7.423-4.741l.1.078c2.183,1.723,3.549,4.126,5.059,6.425l4.035,6.632a2,2,0,0,0,.162.972,5.654,5.654,0,0,0,1.134,1.47,19.1,19.1,0,0,1,4.858,9.942,6.108,6.108,0,0,0,.8,2.707c1.082,1.5,3.387,1.406,5.013.551a3.161,3.161,0,0,0,1.257-1.036,4.093,4.093,0,0,0,.505-1.567,21.626,21.626,0,0,0,.486-4.171C422.955,223.64,421.977,221.108,421.511,218.5ZM398.342,96.457a9.466,9.466,0,0,0,.816-.6,12.527,12.527,0,0,1-2.591,4.443h0c-.272.3-.564.576-.861.848v-.207c-.032-.648,0-1.367,0-2.053a8.667,8.667,0,0,0,2.636-2.429Zm-22.87,51.11.039-.123a2.473,2.473,0,0,1,.589.6,2.448,2.448,0,0,0,.091,2.2c.337.57.946,1.1.816,1.755s-.959.913-1.632,1.023c-.887.143-1.762.3-2.636.479v-.045a6.8,6.8,0,0,0-.291-2.157A6.235,6.235,0,0,0,375.472,147.567Z" transform="translate(-138.714 -58.08)" fill="url(#linear-gradient)"/>
  <path id="Path_94" data-name="Path 94" d="M425.015,73.511a7.688,7.688,0,1,0-14.25-4.851,7.534,7.534,0,0,0,.071,2.325,12.306,12.306,0,0,0-7.021,11.743,12.358,12.358,0,1,0,22.741,6.743v-.589a12.365,12.365,0,0,0-1.509-15.37Z" transform="translate(-161.3 -59.43)" fill="#fff"/>
  <g id="Group_8" data-name="Group 8" transform="translate(240.508 9.139)" opacity="0.1">
    <path id="Path_95" data-name="Path 95" d="M415.59,72.66l.1-.058a3.985,3.985,0,0,1-.058-.4.379.379,0,0,0,0,.084,3.515,3.515,0,0,0-.045.376Z" transform="translate(-406.652 -72.194)"/>
    <path id="Path_96" data-name="Path 96" d="M428.417,92.062a12.306,12.306,0,0,1-1.911,5.266v.583a12.358,12.358,0,0,1-24.671,1c0,.337-.045.648-.045,1.01a12.358,12.358,0,1,0,24.716,0c0-.2,0-.4,0-.589a12.236,12.236,0,0,0,1.911-5.266,11.926,11.926,0,0,0,.045-2.494A1.813,1.813,0,0,1,428.417,92.062Z" transform="translate(-401.79 -79.017)"/>
    <path id="Path_97" data-name="Path 97" d="M438.637,72.19a7.714,7.714,0,0,1-1.017,2.941c.22.22.421.453.648.687a7.662,7.662,0,0,0,.4-1.691,7.449,7.449,0,0,0-.032-1.937Z" transform="translate(-414.413 -72.19)"/>
  </g>
  <path id="Path_98" data-name="Path 98" d="M360.315,277.646a5.6,5.6,0,0,0,.564,2.021,2.215,2.215,0,0,0,1.639,1.2,3.3,3.3,0,0,0,1.807-.525A6.182,6.182,0,0,0,367.135,278a6.363,6.363,0,0,0,.382-3.53l-.738-9.424c-1.775-.052-3.562-.052-5.344.045s-2.073.512-1.827,2.235C360.095,270.741,359.836,274.219,360.315,277.646Z" transform="translate(-146.396 -130.979)" fill="#fbbebe"/>
  <path id="Path_99" data-name="Path 99" d="M437.867,288.153l4.229,6.84a1.684,1.684,0,0,0,.926.868,1.406,1.406,0,0,0,.881-.155,11.011,11.011,0,0,0,3.53-2.928,6.478,6.478,0,0,0,1.7-2.591,3.31,3.31,0,0,0-.842-3.115,9.953,9.953,0,0,0-1.587-1.153c-3.349-2.26-4.858-6.548-8.161-8.867a1.3,1.3,0,0,0-.648-.291,1.425,1.425,0,0,0-.687.233l-4.534,2.474c-1.943,1.069-1.341,1.2.149,2.351C434.991,283.516,436.338,285.886,437.867,288.153Z" transform="translate(-171.729 -135.12)" fill="#fbbebe"/>
  <path id="Path_100" data-name="Path 100" d="M369.177,275.984a2.591,2.591,0,0,0-1.9-.065,2.086,2.086,0,0,0-.991,1.561,19.094,19.094,0,0,1-.279,1.9,6.477,6.477,0,0,1-1.846,2.591,2.759,2.759,0,0,1-1.159.81c-.615.155-1.263-.13-1.885,0a2.06,2.06,0,0,0-1.483,1.516,5.945,5.945,0,0,0-.071,2.222l.479,5.246a8.025,8.025,0,0,1,0,1.943,20.385,20.385,0,0,1-1.218,3.277,2.922,2.922,0,0,0,.576,3.239,2.338,2.338,0,0,0,2.235.194,5.182,5.182,0,0,0,1.846-1.4c2.85-3.109,4.126-7.326,6.341-10.914a20.959,20.959,0,0,0,1.516-2.591c.3-.7.5-1.438.745-2.157a21.5,21.5,0,0,1,1.224-2.8c.259-.518,1.3-1.762,1.062-2.338C374.029,277.162,370.136,276.288,369.177,275.984Z" transform="translate(-146.067 -134.771)"/>
  <path id="Path_101" data-name="Path 101" d="M451.957,294.511a5.454,5.454,0,0,1-3.005,2.591,2.766,2.766,0,0,0-1.017.525,1.58,1.58,0,0,0-.181,1.729,5.59,5.59,0,0,0,1.14,1.451,18.738,18.738,0,0,1,4.858,9.8,6.1,6.1,0,0,0,.81,2.675c1.082,1.483,3.394,1.386,5.026.538a3.239,3.239,0,0,0,1.257-1.017,4,4,0,0,0,.505-1.548,21.036,21.036,0,0,0,.486-4.113c0-2.591-1.01-5.11-1.477-7.675-.648-3.647-.337-7.578-2.034-10.868a2.4,2.4,0,0,0-.758-1,2.727,2.727,0,0,0-1.386-.311c-1.529-.058-3.07-.071-4.605-.039a1.285,1.285,0,0,0-1.153.434,1.334,1.334,0,0,0,.168,1.25C451.53,290.794,453.071,292.264,451.957,294.511Z" transform="translate(-177.413 -138.809)"/>
  <path id="Path_102" data-name="Path 102" d="M376.812,196.2a2.377,2.377,0,0,0-.557,2.992c.343.563.952,1.088.816,1.736s-.959.894-1.632,1a133.449,133.449,0,0,0-17.488,4.424l-6.05,1.82a18.051,18.051,0,0,0-5.026,2.086,9.068,9.068,0,0,0-3.161,3.776,18.784,18.784,0,0,0-1.179,4.936c-.907,6.186-2.066,12.423-4.825,18.032l14.658,4.812a21.543,21.543,0,0,0,4.4,1.1,16.1,16.1,0,0,0,4.281-.207c-.091-3.271-.149-6.645-.24-9.923a27.4,27.4,0,0,0-.2-3.1c-.22-1.567-.706-3.1-.861-4.676.648-.557,1.665-.415,2.539-.4a12.015,12.015,0,0,0,5.739-1.548c1.775-.92,3.433-2.06,5.182-3,2.947-1.561,6.3-2.591,8.556-5.072-1.146,4.372-3.886,8.181-4.385,12.669s1.3,8.971,3.128,13.161l5.771,13.395c.648,1.477,1.483,3.141,3.057,3.491a4.631,4.631,0,0,0,2.9-.57c5.311-2.487,9.56-7.17,15.234-8.66-.427-2.811-2.643-5.136-3.886-7.682-1.062-2.144-1.406-4.566-2.112-6.853s-1.943-4.612-4.055-5.7c-1.017-.512-2.384-.965-2.474-2.1a2.318,2.318,0,0,1,.227-1.056,13.647,13.647,0,0,1,3.452-5.02,1.612,1.612,0,0,0,.453-.57,1.807,1.807,0,0,0,.032-.648,8,8,0,0,1,1.943-5,19.189,19.189,0,0,0,2.966-4.579c1.056-2.96,0-6.212-1.036-9.172a9.236,9.236,0,0,0-1.736-3.362c-1.36-1.451-3.472-1.872-5.454-2.092C389.4,193.931,381.9,192.254,376.812,196.2Z" transform="translate(-138.708 -105.85)" fill="#5300b4"/>
  <g id="Group_9" data-name="Group 9" transform="translate(198.99 90.148)" opacity="0.1">
    <path id="Path_103" data-name="Path 103" d="M432.2,214.814a7.86,7.86,0,0,0-1.943,5,1.807,1.807,0,0,1-.032.648,1.613,1.613,0,0,1-.453.57,13.647,13.647,0,0,0-3.452,5.02,2.332,2.332,0,0,0-.227,1.056,2.027,2.027,0,0,0,1.3,1.516,13.6,13.6,0,0,1,2.4-2.915,1.613,1.613,0,0,0,.453-.57,1.808,1.808,0,0,0,.032-.648,8,8,0,0,1,1.943-5,19.187,19.187,0,0,0,2.966-4.579,9.508,9.508,0,0,0,.155-5.182q-.065.253-.155.505A18.917,18.917,0,0,1,432.2,214.814Z" transform="translate(-368.832 -201.653)"/>
    <path id="Path_104" data-name="Path 104" d="M397.05,198.348a1.224,1.224,0,0,0,.926-.836.835.835,0,0,0,0-.253l-.279.2A2.254,2.254,0,0,0,397.05,198.348Z" transform="translate(-358.602 -197.26)"/>
    <path id="Path_105" data-name="Path 105" d="M356.758,259.57a21.544,21.544,0,0,1-4.4-1.1l-12.954-4.249a37.262,37.262,0,0,1-1.716,4.113l14.671,4.812a21.54,21.54,0,0,0,4.4,1.1,16.1,16.1,0,0,0,4.281-.207c-.045-1.535-.078-3.1-.117-4.657a16.032,16.032,0,0,1-4.165.188Z" transform="translate(-337.69 -217.327)"/>
    <path id="Path_106" data-name="Path 106" d="M413.782,270.6a4.631,4.631,0,0,1-2.9.57c-1.574-.35-2.422-2.014-3.057-3.491l-5.771-13.395a36.672,36.672,0,0,1-3.025-9.152c-.039.22-.071.44-.1.648-.525,4.534,1.3,8.971,3.128,13.161l5.771,13.395c.648,1.477,1.483,3.141,3.057,3.491a4.631,4.631,0,0,0,2.9-.57c5.311-2.487,9.56-7.17,15.234-8.66a11.011,11.011,0,0,0-1.742-4.1C422.442,264.393,418.536,268.363,413.782,270.6Z" transform="translate(-359.232 -214.124)"/>
    <path id="Path_107" data-name="Path 107" d="M393.776,219.38c-2.254,2.461-5.609,3.511-8.556,5.072-1.768.939-3.426,2.079-5.182,3A12.021,12.021,0,0,1,374.3,229c-.874,0-1.859-.168-2.539.389.142,1.457.563,2.876.8,4.32a7.775,7.775,0,0,1,1.736-.039,12.015,12.015,0,0,0,5.739-1.548c1.775-.92,3.433-2.06,5.182-3,1.943-1.03,4.061-1.833,5.927-2.973a51.089,51.089,0,0,0,2.63-6.775Z" transform="translate(-349.693 -205.053)"/>
  </g>
  <path id="Path_108" data-name="Path 108" d="M411.8,123.156a4.787,4.787,0,0,1-1.49,3.957c-.356.3-.777.531-1.121.849a3.038,3.038,0,0,0,.44,4.618,5.773,5.773,0,0,0,4,.285,23.085,23.085,0,0,0,5.246-1.367,8.673,8.673,0,0,0,4.132-3.388,5.091,5.091,0,0,1-2.351-4.21c-.091-1.678.369-3.582-.693-4.884s-2.947-1.244-4.534-.816c-.784.22-1.542.518-2.325.732-.4.1-1.71.11-1.943.4C410.705,119.866,411.754,122.308,411.8,123.156Z" transform="translate(-163.585 -79.164)" fill="#fbbebe"/>
  <path id="Path_109" data-name="Path 109" d="M411.8,123.156a4.787,4.787,0,0,1-1.49,3.957c-.356.3-.777.531-1.121.849a3.038,3.038,0,0,0,.44,4.618,5.773,5.773,0,0,0,4,.285,23.085,23.085,0,0,0,5.246-1.367,8.673,8.673,0,0,0,4.132-3.388,5.091,5.091,0,0,1-2.351-4.21c-.091-1.678.369-3.582-.693-4.884s-2.947-1.244-4.534-.816c-.784.22-1.542.518-2.325.732-.4.1-1.71.11-1.943.4C410.705,119.866,411.754,122.308,411.8,123.156Z" transform="translate(-163.585 -79.164)" opacity="0.1"/>
  <circle id="Ellipse_34" data-name="Ellipse 34" cx="8.686" cy="8.686" r="8.686" transform="translate(244.031 26.53)" fill="#fbbebe"/>
  <path id="Path_110" data-name="Path 110" d="M377.224,213.31a5.882,5.882,0,0,1-.816,1.943,8.99,8.99,0,0,0-1.036,5.927,6.238,6.238,0,0,0,3.647,4.612,2.494,2.494,0,0,0,2.494-.155c-1.159-1.509-1.224-3.569-1.153-5.473a1.833,1.833,0,0,1,.24-1.017.648.648,0,0,1,.92-.162,8.173,8.173,0,0,0,.68,3.491c.181.421.492.887.959.874.648,0,.836-.913.81-1.574-.1-2.694-.233-5.5-1.529-7.857a9.294,9.294,0,0,1-1.3-2.649,1.567,1.567,0,0,0-.337-.926,1.159,1.159,0,0,0-.486-.227c-.745-.214-2.52-.868-3.135-.168S377.34,212.417,377.224,213.31Z" transform="translate(-151.931 -111.472)" fill="#fbbebe"/>
  <path id="Path_111" data-name="Path 111" d="M389.725,144.074c-1-.117-1.781.8-2.325,1.639a31.673,31.673,0,0,0-4.327,10.247,21.98,21.98,0,0,1-1.568,5.48,5.585,5.585,0,0,0-.512,1.114,11.86,11.86,0,0,0-.078,1.8,29.1,29.1,0,0,1-.946,3.115c-.13.648-.1,1.3-.22,1.943a18.952,18.952,0,0,1-1.2,3.18c-.693,1.878-.687,3.938-1.2,5.875a2.014,2.014,0,0,1-.4.868c-.343.382-.9.473-1.347.719a2.928,2.928,0,0,0-1.36,2,8.64,8.64,0,0,0-.045,2.487l.4,5.136c.408-.175.648-.648,1.023-.926a2.893,2.893,0,0,1,2.351-.259l1.172.214a5.049,5.049,0,0,1,3.239,1.438c.609-.959.266-2.364,1.2-3,.3-.207.687-.272,1-.453a2.247,2.247,0,0,0,1.023-1.8,6.645,6.645,0,0,0-.291-2.131,6.233,6.233,0,0,0,3.025-3.679,30.783,30.783,0,0,0,1.4-5.674,146.63,146.63,0,0,0,2.72-23.078,11.094,11.094,0,0,0-.421-3.841C391.635,145.26,391.014,144.217,389.725,144.074Z" transform="translate(-151.536 -88.372)" fill="#6c63ff"/>
  <path id="Path_112" data-name="Path 112" d="M389.725,144.074c-1-.117-1.781.8-2.325,1.639a31.673,31.673,0,0,0-4.327,10.247,21.98,21.98,0,0,1-1.568,5.48,5.585,5.585,0,0,0-.512,1.114,11.86,11.86,0,0,0-.078,1.8,29.1,29.1,0,0,1-.946,3.115c-.13.648-.1,1.3-.22,1.943a18.952,18.952,0,0,1-1.2,3.18c-.693,1.878-.687,3.938-1.2,5.875a2.014,2.014,0,0,1-.4.868c-.343.382-.9.473-1.347.719a2.928,2.928,0,0,0-1.36,2,8.64,8.64,0,0,0-.045,2.487l.4,5.136c.408-.175.648-.648,1.023-.926a2.893,2.893,0,0,1,2.351-.259l1.172.214a5.049,5.049,0,0,1,3.239,1.438c.609-.959.266-2.364,1.2-3,.3-.207.687-.272,1-.453a2.247,2.247,0,0,0,1.023-1.8,6.645,6.645,0,0,0-.291-2.131,6.233,6.233,0,0,0,3.025-3.679,30.783,30.783,0,0,0,1.4-5.674,146.63,146.63,0,0,0,2.72-23.078,11.094,11.094,0,0,0-.421-3.841C391.635,145.26,391.014,144.217,389.725,144.074Z" transform="translate(-151.536 -88.372)" fill="#5300b4"/>
  <path id="Path_113" data-name="Path 113" d="M418.065,131.24a10.959,10.959,0,0,1-5.279,3.07,32.387,32.387,0,0,1-6.121.9,3.886,3.886,0,0,1-1.891-.162,1.3,1.3,0,0,1-.784-1.548,1.854,1.854,0,0,0,.227-.6c0-.531-.79-.576-1.3-.421-3.342,1.036-6.548,3.083-8.09,6.224a18.783,18.783,0,0,0-1.438,5.726c-.725,5.182-1.451,10.409-.479,15.545.525,2.727,1.522,5.376,1.58,8.148.039,1.554-.227,3.1-.214,4.657a2.351,2.351,0,0,0,.415,1.535c.24.279.6.453.771.784.279.544-.1,1.3.272,1.794.46.609,1.406.168,2.034-.259a16.154,16.154,0,0,1,10.745-2.7c4.534.486,9.068,2.915,13.485,1.7a6.173,6.173,0,0,1-.583-1.049c-2.2-7.228-2.053-15.318,1.244-22.119,1.121-2.325,2.591-4.534,3.044-7.086a13.6,13.6,0,0,0,.045-3.595,14.9,14.9,0,0,0-2.04-6.6A8.088,8.088,0,0,0,418.065,131.24Z" transform="translate(-157.99 -83.854)" fill="#5300b4"/>
  <path id="Path_114" data-name="Path 114" d="M399.294,217.287a8.012,8.012,0,0,0-.5,2.96,17.871,17.871,0,0,0,.143,2.882,4.611,4.611,0,0,0,.849,2.267,2.066,2.066,0,0,0,2.163.771,2.267,2.267,0,0,0,1.3-1.451,13.822,13.822,0,0,0,.415-1.982c.376-1.943,1.412-3.821,1.431-5.829a1.691,1.691,0,0,0-.11-.7,3.972,3.972,0,0,0-3.122-1.613C400.745,214.768,399.708,216.335,399.294,217.287Z" transform="translate(-160.224 -113.214)" fill="#fbbebe"/>
  <path id="Path_115" data-name="Path 115" d="M424.569,142.56c-.168,1.729,1.5,3.031,2.163,4.631a7.922,7.922,0,0,1,.453,2.332,110.992,110.992,0,0,1-.259,16.6,30.986,30.986,0,0,1-.648,5.473c-.933,3.776-3.239,7.054-5.473,10.227a8.677,8.677,0,0,1-1.172,1.438,8.789,8.789,0,0,1-2.176,1.3l-7.708,3.737a14.9,14.9,0,0,0-2.74,1.574,7.475,7.475,0,0,0-2.267,2.954c-1.5-.764-3.051-1.451-4.534-2.215-.35-.181-.745-.415-.8-.8-.078-.518.466-.887.842-1.3a7.626,7.626,0,0,0,1.3-2.63c1.244-2.979,4.359-4.884,5.486-7.9.434-1.159.564-2.474,1.334-3.446a8.538,8.538,0,0,1,1.47-1.3,24.79,24.79,0,0,0,3.239-3.336,5.669,5.669,0,0,0,1.069-1.561,7.722,7.722,0,0,0,.253-2.733c.058-3.018,1.425-5.829,2.26-8.731.784-2.727,1.114-5.59,2.144-8.239S421.81,143.272,424.569,142.56Z" transform="translate(-160.44 -87.842)" opacity="0.1"/>
  <path id="Path_116" data-name="Path 116" d="M426.1,142.56c-.168,1.729,1.5,3.031,2.157,4.631a7.927,7.927,0,0,1,.46,2.332,111.871,111.871,0,0,1-.259,16.6,31,31,0,0,1-.68,5.473c-.933,3.776-3.238,7.054-5.473,10.227a8.675,8.675,0,0,1-1.172,1.438,8.789,8.789,0,0,1-2.176,1.3l-7.714,3.737a15.323,15.323,0,0,0-2.74,1.574,7.533,7.533,0,0,0-2.267,2.954c-1.5-.764-3.044-1.451-4.534-2.215-.35-.181-.745-.415-.8-.8-.084-.518.46-.887.836-1.3a7.4,7.4,0,0,0,1.3-2.63c1.237-2.979,4.359-4.884,5.486-7.9.434-1.159.564-2.474,1.334-3.446a8.077,8.077,0,0,1,1.47-1.3,24.788,24.788,0,0,0,3.239-3.336,5.667,5.667,0,0,0,1.069-1.561,7.876,7.876,0,0,0,.253-2.733c.058-3.018,1.418-5.829,2.254-8.731.79-2.727,1.114-5.59,2.144-8.239S423.351,143.272,426.1,142.56Z" transform="translate(-160.964 -87.842)" fill="#5300b4"/>
  <path id="Path_117" data-name="Path 117" d="M423.088,91.671a12.306,12.306,0,0,0-7.708,1.6,4.6,4.6,0,0,1,1.03.078,12.358,12.358,0,0,1,4.748,22.942A12.358,12.358,0,0,0,423.1,91.678Z" transform="translate(-166.07 -69.882)" fill="#fff"/>
  <path id="Path_118" data-name="Path 118" d="M424.467,100.241a5.628,5.628,0,0,1,.1,4.327c-.058-.175-.123-.35-.2-.525-1.529-3.4-6.231-4.806-10.512-3.141a8.582,8.582,0,0,0-5.071,4.838c-1.088-3.29,1.12-7.06,5.182-8.64C418.236,95.435,422.939,96.84,424.467,100.241Z" transform="translate(-163.648 -71.58)" fill="#fff"/>
  <g id="Group_10" data-name="Group 10" transform="translate(249.31 3.834)" opacity="0.1">
    <path id="Path_119" data-name="Path 119" d="M426.916,102.8a12.365,12.365,0,0,0-8.258-10.661,12.261,12.261,0,0,0-3.277,1.3,4.6,4.6,0,0,1,1.03.078,12.352,12.352,0,0,1,10.506,9.288Z" transform="translate(-415.38 -73.914)"/>
    <path id="Path_120" data-name="Path 120" d="M430.006,88.871a12.378,12.378,0,0,0-8.258-10.661,12.494,12.494,0,0,0-3.277,1.334,4.689,4.689,0,0,1,1.036.078,12.345,12.345,0,0,1,10.5,9.249Z" transform="translate(-416.469 -69.006)"/>
    <path id="Path_121" data-name="Path 121" d="M432.573,70.4a4.649,4.649,0,0,0-6.963-5.6,2.844,2.844,0,0,1,.648.052A7.449,7.449,0,0,1,432.573,70.4Z" transform="translate(-418.984 -64)"/>
    <path id="Path_122" data-name="Path 122" d="M436.736,106a12.378,12.378,0,0,1-9.573,13.058,12.436,12.436,0,0,1-2.863,2.306A12.358,12.358,0,0,0,436.736,106Z" transform="translate(-418.522 -78.796)"/>
  </g>
  <path id="Path_123" data-name="Path 123" d="M573.568,305.116a4.761,4.761,0,0,0-5.693-.279,8.074,8.074,0,0,0-2.39,4.055c-.777,2.222-2.034,4.379-2.241,6.73-.577,6.477-5.117,11.924-6.477,18.272-.5,2.267-.6,4.651-1.535,6.769a20.385,20.385,0,0,1-1.555,2.675,70.8,70.8,0,0,0-5.829,11.289,8.575,8.575,0,0,0-2.954,2.286,11.011,11.011,0,0,1-4.048,2.461,4,4,0,0,0-1.678.823c-.648.687-.648,1.794-1.185,2.591A3.835,3.835,0,0,1,536.506,364a5.537,5.537,0,0,1-.091-.557c-.136-.991-.246-1.982-.35-2.973a11.218,11.218,0,0,0-1.529-14.476,21.787,21.787,0,0,1,.136-4.638,2.04,2.04,0,0,0-.648-2.06c-.317-.2-.706-.246-1.043-.415a4.229,4.229,0,0,1-1.218-1.25,5.829,5.829,0,0,0-7.436-1.1c-1.814,1.211-2.772,3.362-4.32,4.91-.8.8-1.755,1.425-2.552,2.222a11.491,11.491,0,0,0-2.967,6.173,33.607,33.607,0,0,0-.278,6.943,6.348,6.348,0,0,0,.3,2.073,5.446,5.446,0,0,0,.946,1.5,17.994,17.994,0,0,0,7.28,5.629,3.14,3.14,0,0,1,.032.415,2.761,2.761,0,0,1-.052.648l-.317-.052a13.169,13.169,0,0,1-3.478-.447c-1.846-.8-2.591-3.141-4.411-4.061a2.692,2.692,0,0,0-.473-.194,30.025,30.025,0,0,0-2.636-8.705,10.775,10.775,0,0,1-1.457-4.106,10.449,10.449,0,0,1,.9-3.945,101.911,101.911,0,0,0,3.459-13.6q.881-4.333,1.775-8.666a13.016,13.016,0,0,0,2.111-2.468,12.022,12.022,0,0,0,2.112-6.108,8.284,8.284,0,0,0-2.137-6,3.549,3.549,0,0,0-2.662-1.3,3.238,3.238,0,0,0-2.228,1.3,10.653,10.653,0,0,0-1.684,3.679,16.068,16.068,0,0,0-1,6.62c.266,1.846,1.166,3.847.246,5.467-3.031,5.3-5.123,11.27-7.371,16.957a28.439,28.439,0,0,0-1.412,4.21,22.275,22.275,0,0,0-.233,7.034,92.906,92.906,0,0,0,2.533,13.012,16.722,16.722,0,0,0,2.144,5.6,24.133,24.133,0,0,0-.285,6.581,3.64,3.64,0,0,0,.389,1.457,6.206,6.206,0,0,0,1.334,1.367,6.652,6.652,0,0,1,2.118,5.078,15.066,15.066,0,0,0,1.017,5.182c1.548,4.618,3.1,9.236,4.456,13.919a9.14,9.14,0,0,1,.479,2.688c0,1.3-.615,2.591-.33,3.886a13.851,13.851,0,0,1,.531,1.794,4.65,4.65,0,0,1-.181,1.393c-.842,3.66-3.277,12.1-2.856,15.836l.835-.292c-.356,4.948-1.885,9.793-2.442,14.742a48.448,48.448,0,0,0,.117,10.83,38.108,38.108,0,0,1,.415,4.851c0,1.457-.233,2.9-.291,4.346a39.591,39.591,0,0,0,.343,5.829,60.229,60.229,0,0,0,1.444,9c1.347,5.026.44,10.26.589,15.467a94.165,94.165,0,0,1-.11,10.9c-.136,1.535-.35,3.064-.4,4.605-.136,4.573,1.218,9.126.738,13.673-.227,2.131-.771,4.534.57,6.212.427.525,1,.9,1.457,1.4a1.943,1.943,0,0,1,.563,1.846c-.175.512-.648.887-.758,1.425-.123.842.8,1.425,1.606,1.7l.227.065a2,2,0,0,0,.576,1.529,3.433,3.433,0,0,0,1.729.687l10.363,2.008c2.312.447,4.825.868,7,.084a1.775,1.775,0,0,0,.486.823,3.432,3.432,0,0,0,1.723.687l10.363,2.008c2.643.512,5.544.984,7.9-.324a4.444,4.444,0,0,0,1.665-1.548,4.8,4.8,0,0,0,.227-4.048,3.31,3.31,0,0,0-1.153-1.678,4.3,4.3,0,0,0-2.409-.518,4.754,4.754,0,0,1-2.086-.317,1.547,1.547,0,0,1-.518-.44c.518-.648,1.017-1.3,1.49-1.943-.447-.1-.648-.719-.758-1.172-1.334-6.723.538-13.6.81-20.468a43.59,43.59,0,0,0-.8-10.253c-.253-1.3-.557-2.526-.738-3.808-.952-6.691,1.593-13.485.784-20.2-.382-3.135.965-6.412,1.444-9.534a34.277,34.277,0,0,0-.123-8.42L553.9,438.168c-.291-2.973-.6-6.017-1.865-8.725a11.425,11.425,0,0,1-.881-4.787c2.591-1.483,4.974-3.524,7.9-3.53.563-2.137-1.056-8.88-2-10.875a47.444,47.444,0,0,1-4.217-25.228c.343-3.1-.894-6.231-.479-9.327a5.616,5.616,0,0,1,.6-2.079,2.144,2.144,0,0,1,1.723-1.146c-.181-1.859-.421-3.731-.738-5.59a13.6,13.6,0,0,0,2.591-3.724,48.892,48.892,0,0,0,2.727-8.945c1.425-5.318,3.6-10.4,5.324-15.616s1.386-10.739,2.623-16.1a11.814,11.814,0,0,1,5.052-7.183,9.494,9.494,0,0,0,2.785-2.105,4.806,4.806,0,0,0,.777-2.649A6.781,6.781,0,0,0,573.568,305.116ZM533.98,531.736c.194-.266.382-.531.557-.81-.687-.039-1.555-.44-1.639-1.127a7.311,7.311,0,0,1,.227-2.04,8.111,8.111,0,0,0-.214-3.569c-.24-.8-.6-1.574-.855-2.377a24.043,24.043,0,0,1-.6-2.727,46.571,46.571,0,0,0-2.947-9.58c-1.3-2.986-.291-6.244-.278-9.5a18.124,18.124,0,0,1,.155-4.592c.227-.881.648-1.7.887-2.591.531-2.053-.136-4.21-.79-6.224,2.558-6.05,2.9-12.954,3.426-19.535q.44-5.518.881-11.011a10.468,10.468,0,0,1,1.14-4.741,56.521,56.521,0,0,1,2.714,14.45,21.92,21.92,0,0,0,.492,4.223c.408,1.535,1.2,2.928,1.736,4.417,1.179,3.277,1.056,6.859,1.587,10.3.214,1.393.538,2.766.745,4.158.894,6.147-.551,12.371-1.988,18.414-.881,3.7-.738,7.8-.939,11.607-.188,3.647-.382,7.293-.292,10.946,0,1.114.071,2.254.058,3.387a8.281,8.281,0,0,0-1.062-.058,4.755,4.755,0,0,1-2.086-.317,2.377,2.377,0,0,1-.913-1.1Z" transform="translate(-196.459 -144.725)" fill="url(#linear-gradient-2)"/>
  <path id="Path_124" data-name="Path 124" d="M576.163,662.13a4.365,4.365,0,0,1,2.409.512,3.355,3.355,0,0,1,1.153,1.671,4.748,4.748,0,0,1-.233,4.022,4.412,4.412,0,0,1-1.665,1.535c-2.358,1.3-5.259.836-7.9.33l-10.363-1.988a3.446,3.446,0,0,1-1.729-.648,2.241,2.241,0,0,1-.3-2.591,4.961,4.961,0,0,1,1.943-1.943,23.685,23.685,0,0,1,9.9-2.986c1.3-.155,2.507-.57,3.478.33.518.473.492,1.062,1.218,1.444a4.845,4.845,0,0,0,2.1.311Z" transform="translate(-216.05 -270.067)"/>
  <path id="Path_125" data-name="Path 125" d="M545.927,656.628a4.339,4.339,0,0,1,2.4.512,3.278,3.278,0,0,1,1.153,1.671,4.722,4.722,0,0,1-.227,4.022,4.462,4.462,0,0,1-1.665,1.535c-2.358,1.3-5.259.835-7.909.33L529.32,662.7a3.439,3.439,0,0,1-1.729-.648,2.241,2.241,0,0,1-.311-2.591,5.085,5.085,0,0,1,1.976-1.943,24.124,24.124,0,0,1,9.9-2.979c1.3-.162,2.507-.57,3.478.324.512.473.492,1.062,1.211,1.444a4.793,4.793,0,0,0,2.086.317Z" transform="translate(-205.394 -268.128)"/>
  <path id="Path_126" data-name="Path 126" d="M539.731,485.847a124.512,124.512,0,0,0-17.9,1.367,3.576,3.576,0,0,0-1.133.3c-1.257.648-1.3,2.409-1.263,3.821.084,5.745-1.878,11.309-2.526,17.009a47.43,47.43,0,0,0,.11,10.758,40.2,40.2,0,0,1,.415,4.825c0,1.438-.24,2.869-.3,4.314a39.064,39.064,0,0,0,.337,5.765,59.484,59.484,0,0,0,1.444,8.938c1.341,4.994.434,10.195.576,15.364a91.5,91.5,0,0,1-.123,10.83c-.136,1.529-.35,3.044-.4,4.579-.136,4.534,1.211,9.068.732,13.6-.227,2.112-.777,4.534.564,6.166.427.518,1,.894,1.451,1.393a1.943,1.943,0,0,1,.57,1.827c-.181.512-.68.887-.758,1.418-.13.836.8,1.418,1.6,1.684a14.806,14.806,0,0,0,16.7-6c-.687-.039-1.555-.44-1.639-1.121a7.22,7.22,0,0,1,.227-2.027,7.9,7.9,0,0,0-.214-3.543c-.233-.8-.6-1.567-.848-2.364a24.044,24.044,0,0,1-.6-2.707,45.77,45.77,0,0,0-2.941-9.521c-1.3-2.966-.285-6.205-.272-9.431a18.207,18.207,0,0,1,.155-4.566c.227-.881.648-1.691.894-2.591.531-2.04-.136-4.178-.79-6.179,2.591-6.011,2.915-12.9,3.439-19.431l.887-11.011a10.417,10.417,0,0,1,1.14-4.709,55.787,55.787,0,0,1,2.714,14.353,21.227,21.227,0,0,0,.486,4.2c.408,1.516,1.2,2.9,1.736,4.385,1.172,3.239,1.049,6.807,1.58,10.227.214,1.386.531,2.746.738,4.132.894,6.108-.557,12.306-2,18.3-.881,3.679-.745,7.772-.946,11.536-.194,3.621-.389,7.241-.3,10.869.078,3.336.337,6.917-1.457,9.716a17.649,17.649,0,0,0,6.322,2.26,11.173,11.173,0,0,0,7.274-2.2,23.639,23.639,0,0,0,5.331-5.59c-.453-.1-.648-.719-.758-1.166-1.334-6.678.544-13.537.823-20.338a43.273,43.273,0,0,0-.8-10.182c-.253-1.3-.563-2.52-.745-3.789-.939-6.645,1.606-13.4.8-20.079-.376-3.122.972-6.373,1.451-9.482a33.525,33.525,0,0,0-.117-8.329l-2.131-21.86a25.908,25.908,0,0,0-1.859-8.673c-1.516-3.239-.576-7.228-.738-10.8a44.445,44.445,0,0,1-16.957,3.757Z" transform="translate(-201.75 -207.456)" fill="#5300b4"/>
  <path id="Path_127" data-name="Path 127" d="M571.483,359.234A69.6,69.6,0,0,1,578.31,345.5a20.265,20.265,0,0,0,1.554-2.662c.946-2.1,1.043-4.469,1.542-6.723,1.393-6.309,5.939-11.723,6.522-18.136.207-2.338,1.464-4.482,2.248-6.691a8.136,8.136,0,0,1,2.39-4.029,4.793,4.793,0,0,1,5.687.272,6.691,6.691,0,0,1,2.3,5.447,4.793,4.793,0,0,1-.777,2.63,9.318,9.318,0,0,1-2.785,2.092,11.756,11.756,0,0,0-5.059,7.125c-1.244,5.331-.907,10.8-2.636,15.992s-3.886,10.24-5.331,15.545c-.81,3-1.386,6.088-2.74,8.887s-3.653,5.324-6.678,6.043a18.085,18.085,0,0,0-1.477-5.577C572.163,363.671,570.718,361.313,571.483,359.234Z" transform="translate(-220.988 -145.582)" fill="#a0616a"/>
  <path id="Path_128" data-name="Path 128" d="M514.437,368.457a29.548,29.548,0,0,0-2.876-10.9,10.5,10.5,0,0,1-1.451-4.074,10.293,10.293,0,0,1,.9-3.919,100.993,100.993,0,0,0,3.465-13.544l1.788-8.614a13.1,13.1,0,0,0,2.105-2.448,11.879,11.879,0,0,0,2.118-6.069,8.187,8.187,0,0,0-2.131-5.972,3.556,3.556,0,0,0-2.662-1.257,3.238,3.238,0,0,0-2.228,1.3,10.442,10.442,0,0,0-1.652,3.627,15.969,15.969,0,0,0-1.01,6.574c.259,1.833,1.166,3.821.24,5.428-3.038,5.279-5.13,11.2-7.384,16.84a28.353,28.353,0,0,0-1.406,4.184,22.023,22.023,0,0,0-.246,7,91.821,91.821,0,0,0,2.526,12.954c.648,2.669,1.457,5.57,3.7,7.17A42.742,42.742,0,0,1,514.437,368.457Z" transform="translate(-196.529 -147.415)" fill="#a0616a"/>
  <circle id="Ellipse_35" data-name="Ellipse 35" cx="11.121" cy="11.121" r="11.121" transform="translate(319.424 199.545)" fill="#a0616a"/>
  <path id="Path_129" data-name="Path 129" d="M532.093,397.545a14.953,14.953,0,0,1-1.814,5.765c-.525,1.108-1.211,2.345-2.409,2.591a53.916,53.916,0,0,0,10.447,3,11.492,11.492,0,0,0,3.731.214,8.963,8.963,0,0,0,2.973-1.1A15.247,15.247,0,0,0,552.58,397a20.081,20.081,0,0,1-4.139.11,3.031,3.031,0,0,1-2.118-.784,3.18,3.18,0,0,1-.6-1.736q-.369-2.759-.589-5.531a21.919,21.919,0,0,0-7.934,1.82c-1.036.453-2.047.978-3.115,1.367-.648.233-2.52.279-2.973.7C530.415,393.613,532.132,396.146,532.093,397.545Z" transform="translate(-205.7 -174.682)" fill="#a0616a"/>
  <path id="Path_130" data-name="Path 130" d="M530.921,401.925A7,7,0,0,0,525,396.3a13.436,13.436,0,0,1-3.478-.434c-1.846-.8-2.623-3.122-4.411-4.035s-4.106-.065-5.428,1.464a12.094,12.094,0,0,0-2.28,5.551,26.879,26.879,0,0,0-.6,8.226,3.694,3.694,0,0,0,.4,1.451,6.29,6.29,0,0,0,1.328,1.36,6.568,6.568,0,0,1,2.118,5.039,14.768,14.768,0,0,0,1.01,5.182c1.548,4.586,3.1,9.178,4.45,13.829a8.971,8.971,0,0,1,.479,2.669c-.032,1.3-.648,2.591-.33,3.854a15.068,15.068,0,0,1,.525,1.781,4.587,4.587,0,0,1-.181,1.386c-.849,3.64-3.284,12.021-2.863,15.733,5.525-2.034,13.861-3.239,19.716-3.886a43.387,43.387,0,0,1,4.851-.285c3.886,0,7.96.732,11.587-.693,3.362-1.3,6.153-4.417,9.767-4.43.563-2.118-1.056-8.815-1.995-10.8a46.777,46.777,0,0,1-4.2-25.06c.337-3.083-.894-6.192-.473-9.269a5.546,5.546,0,0,1,.589-2.066,2.176,2.176,0,0,1,1.729-1.146,68.007,68.007,0,0,0-2.817-14.211c-.525-1.645-1.47-3.549-3.193-3.66-1.555-.1-2.7,1.3-3.821,2.39a11.011,11.011,0,0,1-4.048,2.442,3.984,3.984,0,0,0-1.684.823c-.648.68-.648,1.788-1.185,2.591-.933,1.438-3.316,1.574-3.886,3.18a9.83,9.83,0,0,0-.253,1.438,5.13,5.13,0,0,1-1.529,2.448,9.871,9.871,0,0,1-3.97,2.766Z" transform="translate(-198.951 -172.844)" fill="#5300b4"/>
  <path id="Path_131" data-name="Path 131" d="M541.621,360.651a2.008,2.008,0,0,0-.648-2.04,9.842,9.842,0,0,0-1.049-.421,4.269,4.269,0,0,1-1.211-1.257,5.829,5.829,0,0,0-7.429-1.088c-1.82,1.2-2.772,3.342-4.327,4.877-.8.8-1.749,1.418-2.552,2.215a11.432,11.432,0,0,0-2.973,6.127,33.237,33.237,0,0,0-.278,6.9,6.108,6.108,0,0,0,.3,2.06,5.474,5.474,0,0,0,.946,1.49,17.682,17.682,0,0,0,7.649,5.739,10.821,10.821,0,0,0,9.32-.8,1.658,1.658,0,0,0,.648-.648,2.041,2.041,0,0,0,0-1.244,8.42,8.42,0,0,1,.447-4.812,31.9,31.9,0,0,0,1.438-3.271,10.946,10.946,0,0,0,.1-3.886C541.685,367.3,541.109,363.967,541.621,360.651Z" transform="translate(-203.31 -162.673)"/>
  <path id="Path_132" data-name="Path 132" d="M843.32,630c0,63.721,39.976,115.292,89.383,115.292" transform="translate(-316.831 -259.564)"/>
  <path id="Path_133" data-name="Path 133" d="M981.32,744.587c0-64.447,44.608-116.587,99.747-116.587" transform="translate(-365.447 -258.859)" fill="#6c63ff"/>
  <path id="Path_134" data-name="Path 134" d="M893.32,638.86c0,60.535,25.487,109.521,57,109.521" transform="translate(-334.446 -262.685)" fill="#6c63ff"/>
  <path id="Path_135" data-name="Path 135" d="M981.32,726.972C981.32,644.63,1032.884,578,1096.612,578" transform="translate(-365.447 -241.245)"/>
  <ellipse id="Ellipse_36" data-name="Ellipse 36" cx="22.223" cy="3.757" rx="22.223" ry="3.757" transform="translate(589.77 500.204)" fill="#6c63ff" opacity="0.1"/>
  <path id="Path_136" data-name="Path 136" d="M952.28,805.475s12.676-.389,16.5-3.109,19.5-5.972,20.448-1.606,19.049,21.7,4.741,21.815-33.253-2.228-37.068-4.534S952.28,805.475,952.28,805.475Z" transform="translate(-355.217 -318.97)" fill="#a8a8a8"/>
  <path id="Path_137" data-name="Path 137" d="M994.189,824.774c-14.308.117-33.253-2.228-37.068-4.534-2.9-1.775-4.061-8.116-4.443-11.05h-.427s.8,10.221,4.618,12.546,22.754,4.67,37.068,4.534c4.126-.032,5.557-1.5,5.48-3.679C998.859,823.964,997.285,824.748,994.189,824.774Z" transform="translate(-355.206 -322.692)" opacity="0.2"/>
  <path id="Path_138" data-name="Path 138" d="M802.77,87.358a4.89,4.89,0,0,0,.887-2.72c0-5.907-12.034-10.687-26.88-10.687S749.9,78.73,749.9,84.637a5.04,5.04,0,0,0,1.056,3.031c-16.529,1.846-27.664,5.3-27.664,9.275,0,5.9,24.613,10.687,55.055,10.687S833.4,102.844,833.4,96.944C833.419,92.766,820.906,89.106,802.77,87.358Z" transform="translate(-274.545 -63.671)" opacity="0.1"/>
  <path id="Path_139" data-name="Path 139" d="M293.8,105.358a4.89,4.89,0,0,0,.887-2.72c0-5.907-12.034-10.687-26.88-10.687s-26.88,4.78-26.88,10.687a5.039,5.039,0,0,0,1.108,3.031c-16.529,1.846-27.664,5.3-27.664,9.275,0,5.9,24.645,10.687,55.055,10.687s55.055-4.787,55.055-10.687C324.448,110.766,311.934,107.106,293.8,105.358Z" transform="translate(-95.255 -70.012)" opacity="0.1"/>
  <path id="Path_140" data-name="Path 140" d="M628.74,95.19c1.509-.874,3.549-.039,4.586,1.373a11.4,11.4,0,0,1,1.587,4.936c.576,3.834,1,8.232-1.587,11.115A36.137,36.137,0,0,1,663.12,88.57" transform="translate(-241.236 -68.821)" fill="none" stroke="#6c63ff" stroke-miterlimit="10" stroke-width="3" opacity="0.1"/>
  <path id="Path_141" data-name="Path 141" d="M295.21,197.441a2.418,2.418,0,0,1,2.947.881,6.937,6.937,0,0,1,1.023,3.174c.369,2.468.648,5.292-1.017,7.125A23.207,23.207,0,0,1,317.3,193.16" transform="translate(-123.735 -105.668)" fill="none" stroke="#6c63ff" stroke-miterlimit="10" stroke-width="3" opacity="0.1"/>
  <path id="Path_142" data-name="Path 142" d="M745.21,227.441a2.418,2.418,0,0,1,2.947.881,6.936,6.936,0,0,1,1.023,3.174c.369,2.468.648,5.292-1.017,7.125A23.207,23.207,0,0,1,767.3,223.16" transform="translate(-282.267 -116.237)" fill="none" stroke="#6c63ff" stroke-miterlimit="10" stroke-width="3" opacity="0.1"/>
  <path id="Path_143" data-name="Path 143" d="M701.979,554.727V538.987l7.254,7.254,1.814-1.878L700.683,534,690.32,544.363l1.814,1.807,7.254-7.183v15.739Z" transform="translate(-262.93 -225.744)" fill="#6c63ff" opacity="0.1"/>
  <path id="Path_144" data-name="Path 144" d="M459.979,634.727V618.987l7.254,7.254,1.814-1.878L458.683,614,448.32,624.363l1.814,1.807,7.254-7.183v15.739Z" transform="translate(-177.675 -253.927)" fill="#6c63ff" opacity="0.1"/>
  <path id="Path_145" data-name="Path 145" d="M637.979,705.727V689.987l7.254,7.254,1.814-1.878L636.683,685,626.32,695.363l1.814,1.807,7.254-7.183v15.739Z" transform="translate(-240.383 -278.94)" fill="#6c63ff" opacity="0.1"/>
</svg>
