<svg id="eQE3GSC2ayb1" xmlns="http://www.w3.org/2000/svg" xmlns:xlink="http://www.w3.org/1999/xlink" viewBox="0 0 737.779 507.717" shape-rendering="geometricPrecision" text-rendering="geometricPrecision"><style><![CDATA[#eQE3GSC2ayb79 {animation: eQE3GSC2ayb79__tt 2000ms linear infinite normal forwards}@keyframes eQE3GSC2ayb79__tt { 0% {transform: translate(-274.545px,-63.671px) translate(9px,0px)} 50% {transform: translate(-274.545px,-63.671px) translate(0px,0px)} 100% {transform: translate(-274.545px,-63.671px) translate(-9px,0px)}} #eQE3GSC2ayb80 {animation: eQE3GSC2ayb80__tt 2000ms linear infinite normal forwards}@keyframes eQE3GSC2ayb80__tt { 0% {transform: translate(-95.255px,-70.012px) translate(-9px,0px)} 50% {transform: translate(-95.255px,-70.012px) translate(0px,0px)} 100% {transform: translate(-95.255px,-70.012px) translate(9px,0px)}}]]></style><defs><linearGradient id="eQE3GSC2ayb28-fill" x1="0.5" y1="1.001" x2="0.5" y2="0" spreadMethod="pad" gradientUnits="objectBoundingBox" gradientTransform="matrix(1 0 0 1 0 0)"><stop id="eQE3GSC2ayb28-fill-0" offset="0%" stop-color="rgba(128,128,128,0.251)"/><stop id="eQE3GSC2ayb28-fill-1" offset="54%" stop-color="rgba(128,128,128,0.122)"/><stop id="eQE3GSC2ayb28-fill-2" offset="100%" stop-color="rgba(128,128,128,0.102)"/></linearGradient><linearGradient id="eQE3GSC2ayb62-fill" x1="0.141" y1="0.451" x2="1.272" y2="0.451" spreadMethod="pad" gradientUnits="objectBoundingBox" gradientTransform="matrix(1 0 0 1 0 0)"><stop id="eQE3GSC2ayb62-fill-0" offset="0%" stop-color="rgba(128,128,128,0.251)"/><stop id="eQE3GSC2ayb62-fill-1" offset="54%" stop-color="rgba(128,128,128,0.122)"/><stop id="eQE3GSC2ayb62-fill-2" offset="100%" stop-color="rgba(128,128,128,0.102)"/></linearGradient></defs><path id="eQE3GSC2ayb2" d="M780.8,286.357C781.360216,285.559034,781.669106,284.611819,781.687,283.637C781.687,277.73,769.653,272.95,754.807,272.95C739.961,272.95,727.927,277.73,727.927,283.637C727.954144,284.741465,728.343442,285.806415,729.035,286.668C712.505,288.514,701.371,291.968,701.371,295.943C701.371,301.843,725.984,306.63,756.426,306.63C786.868,306.63,811.481,301.843,811.481,295.943C811.448,291.766,798.934,288.106,780.8,286.357Z" transform="matrix(1 0 0 1 -266.823 -133.777)" opacity="0.1" fill="rgb(108,99,255)" stroke="none" stroke-width="1"/><g id="eQE3GSC2ayb3" transform="matrix(1 0 0 1 544.593 37.816)" opacity="0.2"><path id="eQE3GSC2ayb4" d="M940.392,761.034C940.159366,762.72046,940.066051,764.423218,940.113,766.125Q957.044,766.397,974.124,767.265C974.202,766.825,974.279,766.365,974.344,765.905C975.073664,761.157941,974.525891,756.302199,972.757,751.837C970.412,746.118,966.04,742.031,960.567,741.247C955.094,740.463,949.757,743.147,945.903,747.947C942.930546,751.739079,941.027655,756.257883,940.392,761.034Z" transform="matrix(1 0 0 1 -895.519 -336.524)" fill="rgb(83,0,180)" stroke="none" stroke-width="1"/><ellipse id="eQE3GSC2ayb5" rx="22.449" ry="17.151" transform="matrix(0.142283 -0.989826 0.989826 0.142283 65.785617 399.803691)" fill="rgb(83,0,180)" stroke="none" stroke-width="1"/><ellipse id="eQE3GSC2ayb6" rx="22.449" ry="17.151" transform="matrix(0.142283 -0.989826 0.989826 0.142283 69.686617 372.648691)" fill="rgb(83,0,180)" stroke="none" stroke-width="1"/><ellipse id="eQE3GSC2ayb7" rx="22.449" ry="17.151" transform="matrix(0.142283 -0.989826 0.989826 0.142283 73.588617 345.487691)" fill="rgb(83,0,180)" stroke="none" stroke-width="1"/><ellipse id="eQE3GSC2ayb8" rx="22.449" ry="17.151" transform="matrix(0.142283 -0.989826 0.989826 0.142283 77.491617 318.326691)" fill="rgb(83,0,180)" stroke="none" stroke-width="1"/><path id="eQE3GSC2ayb9" d="M1038.99,258.056C1041.73294,255.427262,1044.292911,252.614033,1046.652,249.636L1003.1,235.924L1051.289,243.217C1063.569606,224.204839,1067.479457,200.974682,1062.099,178.99L992.561,203.26L1058.543,167.979C1047.082195,139.456873,1020.656942,119.719437,990.054988,116.82423C959.453035,113.929024,929.795109,128.360511,913.188653,154.227235C896.582197,180.093959,895.806026,213.067553,911.177,239.687C906.903291,243.764617,903.081245,248.290724,899.777,253.187L953.355,291.587L894.6,261.994C882.052254,286.757549,882.856049,316.182401,896.737,340.224C865.728292,369.787947,862.649773,418.219744,889.665633,451.471965C916.681493,484.724187,964.717474,491.627865,1000.004408,467.329733C1035.291342,443.0316,1045.976829,395.693068,1024.549,358.593C1051.986603,332.429467,1057.957652,290.8883,1039,258.056Z" transform="matrix(1 0 0 1 -871.273 -116.464)" fill="rgb(83,0,180)" stroke="none" stroke-width="1"/><path id="eQE3GSC2ayb10" d="M886.556,380C883.904765,398.233688,887.490216,416.828349,896.731,432.769C865.722292,462.332947,862.643773,510.764744,889.659633,544.016965C916.675493,577.269187,964.711474,584.172865,999.998408,559.874733C1035.285342,535.5766,1045.970829,488.238068,1024.543,451.138C1037.426,438.873,887.864,370.877,886.556,380Z" transform="matrix(1 0 0 1 -871.27 -209.011)" opacity="0.1" fill="rgb(83,0,180)" stroke="none" stroke-width="1"/></g><g id="eQE3GSC2ayb11" transform="matrix(1 0 0 1 0 63.974)" opacity="0.2"><path id="eQE3GSC2ayb12" d="M196.716,722.742C196.971698,724.204727,197.350717,725.643192,197.849,727.042Q211.649,722.599,225.739,718.622C225.687,718.233,225.629,717.832,225.558,717.43C224.892828,713.305141,223.155102,709.427586,220.519,706.186C217.093,702.086,212.455,699.897,207.805,700.758C203.155,701.619,199.54,705.292,197.694,710.37C196.296726,714.338237,195.959611,718.602503,196.716,722.741Z" transform="matrix(1 0 0 1 -88.897 -348.4)" fill="rgb(83,0,180)" stroke="none" stroke-width="1"/><ellipse id="eQE3GSC2ayb13" rx="14.664" ry="19.619" transform="matrix(0.987716 -0.156262 0.156262 0.987716 118.197565 348.048568)" fill="rgb(83,0,180)" stroke="none" stroke-width="1"/><ellipse id="eQE3GSC2ayb14" rx="14.706" ry="19.675" transform="matrix(0.987 -0.16 0.16 0.987 116.019813 324.882257)" fill="rgb(83,0,180)" stroke="none" stroke-width="1"/><ellipse id="eQE3GSC2ayb15" rx="14.664" ry="19.619" transform="matrix(0.987716 -0.156262 0.156262 0.987716 110.033565 300.801568)" fill="rgb(83,0,180)" stroke="none" stroke-width="1"/><ellipse id="eQE3GSC2ayb16" rx="14.664" ry="19.619" transform="matrix(0.987716 -0.156262 0.156262 0.987716 105.958565 277.173568)" fill="rgb(83,0,180)" stroke="none" stroke-width="1"/><path id="eQE3GSC2ayb17" d="M162.485,262.432C164.011448,259.502385,165.337814,256.472792,166.455,253.364L127.463,253.973L168.502,246.738C171.076083,236.693246,171.490873,226.216822,169.719,216C168.173092,206.957858,164.924576,198.291414,160.146,190.461L110.2,229.782L154.322,182.282C138.422224,162.785301,113.174967,153.481945,88.426,158C50.244,165,24.808,202.364,31.551,241.421C34.212435,257.19831,42.073659,271.632437,53.884,282.427C51.496235,286.995456,49.600918,291.804815,48.23,296.774L101.938,313.88L46.358,305.518C45.200253,313.267865,45.292084,321.153199,46.63,328.874C49.291165,344.65118,57.152028,359.08529,68.962,369.88C61.506106,384.144741,58.963086,400.47033,61.727,416.327C68.47,455.39,104.864,481.357,143.021,474.327C181.178,467.297,206.639,429.946,199.896,390.883C197.231902,375.108323,189.371011,360.67692,177.563,349.883C185.017415,335.615609,187.560322,319.288636,184.798,303.43C182.13888,287.658643,174.285243,273.228336,162.485,262.432Z" transform="matrix(1 0 0 1 -30.468 -156.85)" fill="rgb(83,0,180)" stroke="none" stroke-width="1"/><path id="eQE3GSC2ayb18" d="M55.445,421.251C58.106435,437.02831,65.967659,451.462437,77.778,462.257C70.322988,476.52059,67.779992,492.844623,70.543,508.7C77.286,547.763,113.68,573.73,151.837,566.7C189.994,559.67,215.455,522.319,208.712,483.256C206.047902,467.481323,198.187011,453.04992,186.379,442.256C193.561,428.518,54.071,413.317,55.445,421.251Z" transform="matrix(1 0 0 1 -39.263 -249.227)" opacity="0.1" fill="rgb(83,0,180)" stroke="none" stroke-width="1"/></g><path id="eQE3GSC2ayb19" d="M144.32,651.45C144.32,685.331,165.571,712.742,191.836,712.742" transform="matrix(1 0 0 1 -70.577 -267.121)" fill="rgb(0,0,0)" stroke="none" stroke-width="1"/><path id="eQE3GSC2ayb20" d="M217.68,712.369C217.68,678.112,241.399,650.39,270.714,650.39" transform="matrix(1 0 0 1 -96.422 -266.747)" fill="rgb(108,99,255)" stroke="none" stroke-width="1"/><path id="eQE3GSC2ayb21" d="M170.9,656.19C170.9,688.375,184.45,714.412,201.2,714.412" transform="matrix(1 0 0 1 -79.941 -268.791)" fill="rgb(108,99,255)" stroke="none" stroke-width="1"/><path id="eQE3GSC2ayb22" d="M217.68,703.005C217.68,659.233,245.097,623.805,278.98,623.805" transform="matrix(1 0 0 1 -96.422 -257.383)" fill="rgb(0,0,0)" stroke="none" stroke-width="1"/><ellipse id="eQE3GSC2ayb23" rx="330.978" ry="11.005" transform="matrix(1 0 0 1 341.893 471.226)" opacity="0.1" fill="rgb(108,99,255)" stroke="none" stroke-width="1"/><ellipse id="eQE3GSC2ayb24" rx="12.099" ry="2.047" transform="matrix(1 0 0 1 115.772 452.274)" opacity="0.1" fill="rgb(108,99,255)" stroke="none" stroke-width="1"/><path id="eQE3GSC2ayb25" d="M196.66,739.646C196.66,739.646,203.56,739.439,205.644,737.956C207.728,736.473,216.253,734.717,216.772,737.082C217.291,739.447,227.135,748.896,219.363,748.954C211.591,749.012,201.263,747.743,199.187,746.48C197.111,745.217,196.66,739.646,196.66,739.646Z" transform="matrix(1 0 0 1 -89.016 -296.88)" fill="rgb(168,168,168)" stroke="none" stroke-width="1"/><path id="eQE3GSC2ayb26" d="M219.492,750.151C211.72,750.209,201.392,748.933,199.316,747.67C197.736,746.711,197.101,743.253,196.894,741.659L196.661,741.659C196.661,741.659,197.101,747.229,199.174,748.492C201.247,749.755,211.565,751.031,219.35,750.966C221.598,750.966,222.375,750.15,222.336,748.966C222.024,749.692,221.163,750.138,219.492,750.151Z" transform="matrix(1 0 0 1 -89.016 -298.901)" opacity="0.2" fill="rgb(0,0,0)" stroke="none" stroke-width="1"/><path id="eQE3GSC2ayb27" d="M578.255,213.316C568.961,167.51,529.127,133,480.666,133C443.503235,133.025979,409.45168,153.757707,392.366,186.76C352.532,190.743,321.332,224.599,321.332,265.78C321.45942,309.726534,357.053466,345.32058,401,345.448L573.611,345.448C610.231434,345.338173,639.890725,315.678436,640,279.058C640.145649,244.222985,613.030724,215.352802,578.255,213.316ZM501.9,252.469L501.9,302.925L459.41,302.925L459.41,252.469L414.269,252.469L480.659,186.112L547.049,252.502Z" transform="matrix(1 0 0 1 -132.937 -84.474)" fill="rgb(255,255,255)" stroke="none" stroke-width="1"/><path id="eQE3GSC2ayb28" d="M421.511,218.5C420.863,214.8,421.181,210.818,419.484,207.489C419.319494,207.096102,419.053387,206.754063,418.713,206.498C418.290053,206.269689,417.813183,206.160147,417.333,206.181C415.798,206.123,414.269,206.103,412.733,206.142C412.298516,206.080112,411.862793,206.246389,411.58,206.582C411.554137,206.622115,411.534576,206.665957,411.522,206.712C409.767,204.769,408.439,202.312,406.548,200.5C406.82,200.409,407.086,200.325,407.364,200.254C407.350104,200.069627,407.316581,199.887262,407.264,199.71C407.255914,199.654314,407.240794,199.599879,407.219,199.548C407.206,199.496,407.161,199.302,407.119,199.179C407.10217,199.117038,407.080435,199.056513,407.054,198.998C407.020814,198.881765,406.981764,198.767285,406.937,198.655C406.924665,198.592686,406.900568,198.533294,406.866,198.48L406.73,198.137L406.652,197.975C406.6,197.858,406.552,197.742,406.49,197.632L406.412,197.489C406.354,197.366,406.289,197.243,406.224,197.12L406.16,197C406.089,196.87,406.011,196.741,405.94,196.6C405.921318,196.578878,405.906127,196.55491,405.895,196.529C405.811,196.38,405.72,196.229,405.629,196.089L405.629,196.089C404.891,194.889,404.074,193.699,403.472,192.462C402.416,190.286,402.066,187.831,401.36,185.512C400.654,183.193,399.417,180.836,397.318,179.728C396.301,179.21,394.941,178.75,394.844,177.604C394.840949,177.235391,394.91842,176.870561,395.071,176.535C395.362635,175.792153,395.715865,175.074989,396.127,174.391C396.282,174.145,396.444,173.899,396.606,173.653L396.736,173.478C396.866,173.297,397.002,173.115,397.136,172.947L397.304,172.733C397.44,172.565,397.583,172.409,397.725,172.247L397.9,172.059C398.1,171.845,398.3,171.638,398.515,171.411C398.711298,171.259404,398.866942,171.061498,398.968,170.835C399.024056,170.610379,399.034933,170.37686,399,170.148C399.054262,168.286015,399.739347,166.497672,400.943,165.076C402.145405,163.676575,403.142104,162.112835,403.903,160.432C403.974,160.232,404.033,160.032,404.084,159.823C404.102725,159.757227,404.117749,159.690455,404.129,159.623C404.161,159.487,404.187,159.351,404.213,159.208L404.252,158.975C404.26022,158.846959,404.275241,158.719446,404.297,158.593L404.297,157.077C404.300542,156.940257,404.289817,156.803518,404.265,156.669L404.265,156.449C404.252903,156.290166,404.231196,156.13221,404.2,155.976L404.2,155.821Q404.155,155.504,404.083,155.173L404.083,155.173C403.774399,153.796817,403.376217,152.442265,402.891,151.118C402.633079,150.304556,402.303799,149.515489,401.907,148.76C402.147,148.715,402.393,148.66,402.632,148.598C402.441733,148.300301,402.266513,147.993249,402.107,147.678C403.598027,145.482091,404.71639,143.055141,405.417,140.495C405.788405,138.666132,406.005171,136.80924,406.065,134.944C406.560268,129.344367,406.644827,123.715984,406.318,118.104L406.318,117.884C406.492889,116.682165,406.506006,115.462318,406.357,114.257C406.207065,111.899109,405.510716,109.608415,404.323,107.566C403.122129,105.477433,401.059506,104.026459,398.688,103.602C398.307443,104.030157,397.886496,104.42063,397.431,104.768C396.736982,104.158361,396.227722,103.36641,395.961,102.482C401.495411,101.615885,405.768604,97.158076,406.4,91.592C406.4,91.392,406.445,91.184,406.458,90.983L406.458,89.209C406.461336,89.06763,406.448249,88.926351,406.419,88.788C406.42219,88.738385,406.42219,88.688615,406.419,88.639L406.361,88.186L406.361,88.086C406.348813,87.921661,406.320681,87.758896,406.277,87.6L406.277,87.548C406.245,87.373,406.206,87.205,406.16,87.03L406.16,87.03C405.870024,85.851103,405.409502,84.720853,404.793,83.675C405.299386,82.531032,405.631085,81.317497,405.777,80.075C405.777,79.848,405.822,79.628,405.835,79.427C405.848,79.226,405.835,79.142,405.835,79L405.835,78.236C405.831882,78.216792,405.831882,78.197208,405.835,78.178C405.741546,75.065153,404.497791,72.097385,402.344,69.848C402.591375,69.436011,402.797379,69.000557,402.959,68.548L402.959,68.548C403.011,68.412,403.059,68.276,403.095,68.133L403.095,68.133C403.134,67.997,403.173,67.867,403.205,67.733L403.205,67.7L403.283,67.331C403.279456,67.309478,403.279456,67.287522,403.283,67.266C403.295612,67.118138,403.31732,66.971193,403.348,66.826C403.351353,66.674324,403.36438,66.523017,403.387,66.373L403.387,65.308C403.163147,61.315585,399.906722,58.166642,395.909045,58.076863C391.911367,57.987083,388.51686,60.98666,388.114,64.965C388.02034,65.747824,388.044271,66.540254,388.185,67.316C384.358697,69.182185,381.741325,72.863077,381.235,77.09C381.153431,77.786842,381.129684,78.48924,381.164,79.19C380.046645,80.94356,379.379252,82.945739,379.221,85.019L379.221,85.019L379.221,85.252C379.221,85.511,379.189,85.777,379.189,86.036C379.177576,89.923453,380.963354,93.597991,384.027,95.991C384.658912,97.011692,385.491788,97.89322,386.475,98.582C386.654294,99.109262,386.788116,99.650907,386.875,100.201C387.021119,101.699187,386.471936,103.181614,385.385,104.223C385.107,104.456,384.796,104.65,384.504,104.871C384.209877,104.787019,383.898123,104.787019,383.604,104.871C380.262,105.92,377.062,107.999,375.527,111.18C375.187785,111.903578,374.919853,112.658475,374.727,113.434L374.546,113.713C372.51574,116.889883,371.055814,120.396887,370.232,124.076C369.946774,125.987148,369.420237,127.854389,368.665,129.633C368.453814,129.991014,368.28214,130.370909,368.153,130.766C368.078123,131.369584,368.052039,131.978223,368.075,132.586C367.819078,133.656542,367.503247,134.711869,367.129,135.747C366.999,136.395,367.029,137.047,366.915,137.69C366.606502,138.802897,366.201293,139.88669,365.704,140.929C365.017,142.829,365.024,144.929,364.512,146.888C364.450235,147.210996,364.313195,147.514882,364.112,147.775C363.706965,148.090695,363.251575,148.335801,362.765,148.5C362.044683,148.951072,361.551855,149.688858,361.411,150.527C361.276219,151.362599,361.261067,152.21313,361.366,153.053L361.619,156.337L357.94,157.451L351.9,159.3C350.131152,159.74737,348.440766,160.461561,346.887,161.418C345.50221,162.382519,344.408805,163.708718,343.726,165.252C343.113924,166.861306,342.719766,168.545225,342.554,170.259C341.971345,175.053421,340.933324,179.78144,339.454,184.379C339.331,184.729,339.201,185.085,339.072,185.435L339.072,185.435L338.664,186.465C338.632,186.536,338.599,186.608,338.573,186.679L338.223,187.502C338.068,187.852,337.906,188.195,337.737,188.538L351.876,193.253C351.884157,193.437672,351.903526,193.621677,351.934,193.804C352.426,197.276,352.187,200.804,352.64,204.277C352.700214,204.855172,352.834654,205.423179,353.04,205.967C352.680895,206.277986,352.421707,206.688164,352.295,207.146C352.135302,207.886867,352.111246,208.65055,352.224,209.4C352.386,211.175,352.541,212.949,352.703,214.724C352.779656,215.369398,352.779656,216.021602,352.703,216.667C352.391781,217.807143,351.984317,218.918802,351.485,219.99C351.116,221.111,351.135,222.548,352.061,223.229C352.718571,223.677973,353.56198,223.753683,354.289,223.429C355.002989,223.10092,355.63393,222.616265,356.135,222.011C358.978,218.85,360.254,214.582,362.463,210.935C363.031723,210.094343,363.538399,209.213341,363.979,208.299C364.279,207.593,364.479,206.842,364.724,206.11C365.064254,205.135496,365.471217,204.185583,365.942,203.267C366.208,202.742,367.242,201.479,367.004,200.896C366.641,199.896,362.762,199.011,361.822,198.696C361.222212,198.428168,360.543084,198.398143,359.922,198.612C359.828744,198.656526,359.741679,198.713001,359.663,198.78L359.333,194.499C359.909,194.447,360.479,194.376,361.043,194.279Q361.043,193.079,360.985,191.85C360.985,191.112,360.953,190.367,360.933,189.622C360.894,187.808,360.855,185.995,360.81,184.214C360.798405,183.164219,360.731646,182.115773,360.61,181.073C360.39,179.486,359.904,177.932,359.749,176.332C359.981746,176.147033,360.256533,176.022348,360.549,175.969L360.549,175.969C361.002884,175.896251,361.463913,175.87879,361.922,175.917L362.285,175.917C364.29503,175.887704,366.264008,175.34373,368.004,174.337C369.785,173.411,371.437,172.251,373.186,171.299L373.834,170.956L374.08,170.833L374.495,170.626L374.838,170.464L374.916,170.425C375.946,169.933,376.989,169.453,377.986,168.916C378.053414,169.025654,378.12686,169.131483,378.206,169.233C378.700374,169.906385,379.55162,170.215786,380.363,170.017C379.139,172.964,377.701,175.817,377.338,179.001C376.807,183.606,378.638,188.069,380.453,192.357L386.211,205.957C386.859,207.457,387.694,209.144,389.268,209.5C390.268268,209.634916,391.284957,209.432212,392.157,208.924C394.756079,207.548047,397.238638,205.96246,399.58,204.183L399.68,204.261C401.863,205.984,403.229,208.387,404.739,210.686L408.774,217.318C408.746088,217.65044,408.801778,217.984582,408.936,218.29C409.230419,218.839137,409.613583,219.335832,410.07,219.76C412.634858,222.522053,414.325139,225.981249,414.928,229.702C414.979648,230.65442,415.25363,231.581507,415.728,232.409C416.81,233.909,419.115,233.815,420.741,232.96C421.243311,232.730409,421.6767,232.373216,421.998,231.924C422.270732,231.441263,422.44254,230.908146,422.503,230.357C422.79992,228.985724,422.962687,227.588807,422.989,226.186C422.955,223.64,421.977,221.108,421.511,218.5ZM398.342,96.457C398.624513,96.271706,398.896902,96.071419,399.158,95.857C398.610935,97.501268,397.728675,99.014151,396.567,100.3L396.567,100.3C396.295,100.6,396.003,100.876,395.706,101.148L395.706,100.941C395.674,100.293,395.706,99.574,395.706,98.888C396.744327,98.270863,397.642193,97.443505,398.342,96.459ZM375.472,147.567L375.511,147.444C375.740142,147.608914,375.939354,147.811846,376.1,148.044C375.780208,148.750361,375.813964,149.566462,376.191,150.244C376.528,150.814,377.137,151.344,377.007,151.999C376.877,152.654,376.048,152.912,375.375,153.022C374.488,153.165,373.613,153.322,372.739,153.501L372.739,153.456C372.758444,152.726039,372.660186,151.997712,372.448,151.299C373.91396,150.50878,375.002863,149.164935,375.472,147.567Z" transform="matrix(1 0 0 1 -138.714 -58.08)" fill="url(#eQE3GSC2ayb28-fill)" stroke="none" stroke-width="1"/><path id="eQE3GSC2ayb29" d="M425.015,73.511C426.604654,70.819096,426.405954,67.432652,424.512397,64.945127C422.618839,62.457601,419.407544,61.364408,416.389556,62.179941C413.371567,62.995473,411.147948,65.557308,410.765,68.66C410.668164,69.434002,410.692116,70.218349,410.836,70.985C406.334831,73.117743,403.563169,77.753495,403.815,82.728C400.959757,87.151718,401.220882,92.898717,404.46553,97.045276C407.710178,101.191835,413.22575,102.827273,418.206259,101.119579C423.186768,99.411886,426.53838,94.73611,426.556,89.471L426.556,88.882C429.707747,84.035832,429.08106,77.652678,425.047,73.512Z" transform="matrix(1 0 0 1 -161.3 -59.43)" fill="rgb(255,255,255)" stroke="none" stroke-width="1"/><g id="eQE3GSC2ayb30" transform="matrix(1 0 0 1 240.508 9.139)" opacity="0.1"><path id="eQE3GSC2ayb31" d="M415.59,72.66L415.69,72.602C415.663913,72.469734,415.644555,72.336229,415.632,72.202C415.628888,72.229914,415.628888,72.258086,415.632,72.286C415.610255,72.410434,415.595233,72.535949,415.587,72.662Z" transform="matrix(1 0 0 1 -406.652 -72.194)" fill="rgb(0,0,0)" stroke="none" stroke-width="1"/><path id="eQE3GSC2ayb32" d="M428.417,92.062C428.193322,93.940908,427.53938,95.742928,426.506,97.328L426.506,97.911C426.477993,104.521103,421.253351,109.938787,414.648612,110.2065C408.043873,110.474212,402.397897,105.497152,401.835,98.911C401.835,99.248,401.79,99.559,401.79,99.921C401.79,106.746135,407.322865,112.279,414.148,112.279C420.973135,112.279,426.506,106.746135,426.506,99.921C426.506,99.721,426.506,99.521,426.506,99.332C427.541659,97.748067,428.195801,95.945496,428.417,94.066C428.519137,93.238525,428.53422,92.402621,428.462,91.572C428.469338,91.736619,428.454198,91.901471,428.417,92.062Z" transform="matrix(1 0 0 1 -401.79 -79.017)" fill="rgb(0,0,0)" stroke="none" stroke-width="1"/><path id="eQE3GSC2ayb33" d="M438.637,72.19C438.501309,73.229242,438.155269,74.229933,437.62,75.131C437.84,75.351,438.041,75.584,438.268,75.818C438.465026,75.271325,438.599222,74.704011,438.668,74.127C438.741696,73.482693,438.730939,72.831521,438.636,72.19Z" transform="matrix(1 0 0 1 -414.413 -72.19)" fill="rgb(0,0,0)" stroke="none" stroke-width="1"/></g><path id="eQE3GSC2ayb34" d="M360.315,277.646C360.373988,278.349184,360.565346,279.034885,360.879,279.667C361.198903,280.308705,361.809642,280.75586,362.518,280.867C363.15852,280.871079,363.786383,280.688662,364.325,280.342C365.476476,279.862676,366.456037,279.046259,367.135,278C367.594699,276.883416,367.727192,275.659077,367.517,274.47L366.779,265.046C365.004,264.994,363.217,264.994,361.435,265.091C359.653,265.188,359.362,265.603,359.608,267.326C360.095,270.741,359.836,274.219,360.315,277.646Z" transform="matrix(1 0 0 1 -146.396 -130.979)" fill="rgb(251,190,190)" stroke="none" stroke-width="1"/><path id="eQE3GSC2ayb35" d="M437.867,288.153L442.096,294.993C442.279647,295.392031,442.61194,295.703511,443.022,295.861C443.32471,295.906621,443.634038,295.852199,443.903,295.706C445.272138,294.988587,446.474891,293.99095,447.433,292.778C448.200942,292.064588,448.784299,291.175483,449.133,290.187C449.411725,289.072907,449.093048,287.893955,448.291,287.072C447.801257,286.636347,447.269676,286.250139,446.704,285.919C443.355,283.659,441.846,279.371,438.543,277.052C438.358204,276.896724,438.133827,276.795962,437.895,276.761C437.649734,276.778101,437.413065,276.858368,437.208,276.994L432.674,279.468C430.731,280.537,431.333,280.668,432.823,281.819C434.991,283.516,436.338,285.886,437.867,288.153Z" transform="matrix(1 0 0 1 -171.729 -135.12)" fill="rgb(251,190,190)" stroke="none" stroke-width="1"/><path id="eQE3GSC2ayb36" d="M369.177,275.984C368.57478,275.722373,367.895691,275.699141,367.277,275.919C366.721505,276.256518,366.355089,276.833688,366.286,277.48C366.224928,278.117612,366.13181,278.751747,366.007,279.38C365.616641,280.383705,364.982169,281.274233,364.161,281.971C363.851589,282.337095,363.452137,282.616263,363.002,282.781C362.387,282.936,361.739,282.651,361.117,282.781C360.380539,282.973522,359.81027,283.556481,359.634,284.297C359.470826,285.026613,359.446738,285.780458,359.563,286.519L360.042,291.765C360.120695,292.410276,360.120695,293.062724,360.042,293.708C359.73059,294.833197,359.323091,295.929561,358.824,296.985C358.33224,298.080459,358.560717,299.365244,359.4,300.224C360.063296,300.665214,360.905602,300.738327,361.635,300.418C362.348106,300.096632,362.979211,299.618004,363.481,299.018C366.331,295.909,367.607,291.692,369.822,288.104C370.388614,287.277679,370.895247,286.411792,371.338,285.513C371.638,284.813,371.838,284.075,372.083,283.356C372.424071,282.394816,372.833104,281.45912,373.307,280.556C373.566,280.038,374.607,278.794,374.369,278.218C374.029,277.162,370.136,276.288,369.177,275.984Z" transform="matrix(1 0 0 1 -146.067 -134.771)" fill="rgb(0,0,0)" stroke="none" stroke-width="1"/><path id="eQE3GSC2ayb37" d="M451.957,294.511C451.31616,295.721314,450.243442,296.646243,448.952,297.102C448.580106,297.204183,448.233691,297.383011,447.935,297.627C447.534528,298.11536,447.463349,298.79529,447.754,299.356C448.050996,299.899479,448.436243,300.389825,448.894,300.807C451.451946,303.517818,453.143357,306.929885,453.752,310.607C453.811333,311.549339,454.08861,312.465039,454.562,313.282C455.644,314.765,457.956,314.668,459.588,313.82C460.086237,313.592714,460.518711,313.242812,460.845,312.803C461.117688,312.327082,461.289583,311.800167,461.35,311.255C461.646897,309.903324,461.809686,308.525649,461.836,307.142C461.836,304.551,460.826,302.032,460.359,299.467C459.711,295.82,460.022,291.889,458.325,288.599C458.165486,288.204344,457.903878,287.859214,457.567,287.599C457.140586,287.374716,456.662361,287.267408,456.181,287.288C454.652,287.23,453.111,287.217,451.576,287.249C451.142849,287.187991,450.708413,287.351517,450.423,287.683C450.266056,288.1015,450.329128,288.570789,450.591,288.933C451.53,290.794,453.071,292.264,451.957,294.511Z" transform="matrix(1 0 0 1 -177.413 -138.809)" fill="rgb(0,0,0)" stroke="none" stroke-width="1"/><path id="eQE3GSC2ayb38" d="M376.812,196.2C375.928511,196.932167,375.694171,198.190954,376.255,199.192C376.598,199.755,377.207,200.28,377.071,200.928C376.935,201.576,376.112,201.822,375.439,201.928C369.516556,203.006539,363.673878,204.484582,357.951,206.352L351.901,208.172C350.129882,208.609362,348.435297,209.312686,346.875,210.258C345.493199,211.200993,344.399188,212.507852,343.714,214.034C343.099527,215.618426,342.702908,217.278909,342.535,218.97C341.628,225.156,340.469,231.393,337.71,237.002L352.368,241.814C353.791877,242.334463,355.266714,242.703172,356.768,242.914C358.197848,243.036099,359.637603,242.966482,361.049,242.707C360.958,239.436,360.9,236.062,360.809,232.784C360.801011,231.747716,360.734237,230.71272,360.609,229.684C360.389,228.117,359.903,226.584,359.748,225.008C360.396,224.451,361.413,224.593,362.287,224.608C364.299459,224.580817,366.272848,224.048528,368.026,223.06C369.801,222.14,371.459,221,373.208,220.06C376.155,218.499,379.508,217.469,381.764,214.988C380.618,219.36,377.878,223.169,377.379,227.657C376.88,232.145,378.679,236.628,380.507,240.818L386.278,254.213C386.926,255.69,387.761,257.354,389.335,257.704C390.337977,257.835841,391.356535,257.635641,392.235,257.134C397.546,254.647,401.795,249.964,407.469,248.474C407.042,245.663,404.826,243.338,403.583,240.792C402.521,238.648,402.177,236.226,401.471,233.939C400.765,231.652,399.528,229.327,397.416,228.239C396.399,227.727,395.032,227.274,394.942,226.139C394.933456,225.774036,395.011234,225.412214,395.169,225.083C395.926685,223.170921,397.106754,221.45483,398.621,220.063C398.813494,219.910033,398.968446,219.715061,399.074,219.493C399.123673,219.2807,399.134515,219.061162,399.106,218.845C399.158937,217.004389,399.845206,215.238387,401.049,213.845C402.250706,212.467719,403.249465,210.925806,404.015,209.266C405.071,206.306,404.015,203.054,402.979,200.094C402.638548,198.865539,402.04748,197.720856,401.243,196.732C399.883,195.281,397.771,194.86,395.789,194.64C389.4,193.931,381.9,192.254,376.812,196.2Z" transform="matrix(1 0 0 1 -138.708 -105.85)" fill="rgb(83,0,180)" stroke="none" stroke-width="1"/><g id="eQE3GSC2ayb39" transform="matrix(1 0 0 1 198.99 90.148)" opacity="0.1"><path id="eQE3GSC2ayb40" d="M432.2,214.814C430.986046,216.201254,430.298302,217.971054,430.257,219.814C430.285515,220.030162,430.274673,220.2497,430.225,220.462C430.119416,220.684042,429.964469,220.879008,429.772,221.032C428.257754,222.42383,427.077685,224.139921,426.32,226.052C426.162734,226.381384,426.084982,226.743086,426.093,227.108C426.230065,227.806551,426.723525,228.382002,427.393,228.624C428.053566,227.545465,428.86135,226.564344,429.793,225.709C429.985469,225.556008,430.140416,225.361042,430.246,225.139C430.295652,224.926696,430.306493,224.707163,430.278,224.491C430.330937,222.650389,431.017206,220.884387,432.221,219.491C433.422728,218.113736,434.421489,216.571819,435.187,214.912C435.717682,213.232372,435.771344,211.438343,435.342,209.73Q435.277,209.983,435.187,210.235C434.418309,211.897917,433.412137,213.440355,432.2,214.814Z" transform="matrix(1 0 0 1 -368.832 -201.653)" fill="rgb(0,0,0)" stroke="none" stroke-width="1"/><path id="eQE3GSC2ayb41" d="M397.05,198.348C397.488175,198.25935,397.843165,197.938862,397.976,197.512C397.98885,197.428156,397.98885,197.342844,397.976,197.259L397.697,197.459C397.411255,197.697382,397.188976,198.002802,397.05,198.348Z" transform="matrix(1 0 0 1 -358.602 -197.26)" fill="rgb(0,0,0)" stroke="none" stroke-width="1"/><path id="eQE3GSC2ayb42" d="M356.758,259.57C355.256716,259.359165,353.781879,258.990456,352.358,258.47L339.404,254.221C338.914573,255.625009,338.341548,256.998465,337.688,258.334L352.359,263.146C353.78287,263.666484,355.25771,264.035194,356.759,264.246C358.188848,264.368099,359.628603,264.298482,361.04,264.039C360.995,262.504,360.962,260.939,360.923,259.382C359.548768,259.625692,358.148598,259.688893,356.758,259.57Z" transform="matrix(1 0 0 1 -337.69 -217.327)" fill="rgb(0,0,0)" stroke="none" stroke-width="1"/><path id="eQE3GSC2ayb43" d="M413.782,270.6C412.903535,271.101641,411.884977,271.301841,410.882,271.17C409.308,270.82,408.46,269.156,407.825,267.679L402.054,254.284C400.647389,251.379715,399.630272,248.302473,399.029,245.132C398.99,245.352,398.958,245.572,398.929,245.78C398.404,250.314,400.229,254.751,402.057,258.941L407.828,272.336C408.476,273.813,409.311,275.477,410.885,275.827C411.887977,275.958841,412.906535,275.758641,413.785,275.257C419.096,272.77,423.345,268.087,429.019,266.597C428.723742,265.125921,428.130946,263.730705,427.277,262.497C422.442,264.393,418.536,268.363,413.782,270.6Z" transform="matrix(1 0 0 1 -359.232 -214.124)" fill="rgb(0,0,0)" stroke="none" stroke-width="1"/><path id="eQE3GSC2ayb44" d="M393.776,219.38C391.522,221.841,388.167,222.891,385.22,224.452C383.452,225.391,381.794,226.531,380.038,227.452C378.285046,228.440127,376.312084,228.972394,374.3,229C373.426,229,372.441,228.832,371.761,229.389C371.903,230.846,372.324,232.265,372.561,233.709C373.136395,233.631219,373.718692,233.618138,374.297,233.67C376.309459,233.642817,378.282848,233.110528,380.036,232.122C381.811,231.202,383.469,230.062,385.218,229.122C387.161,228.092,389.279,227.289,391.145,226.149C392.181386,223.955963,393.060276,221.691903,393.775,219.374Z" transform="matrix(1 0 0 1 -349.693 -205.053)" fill="rgb(0,0,0)" stroke="none" stroke-width="1"/></g><path id="eQE3GSC2ayb45" d="M411.8,123.156C411.944332,124.634758,411.393838,126.096707,410.31,127.113C409.954,127.413,409.533,127.644,409.189,127.962C408.564438,128.601356,408.253106,129.483299,408.337881,130.373055C408.422657,131.262812,408.894937,132.070093,409.629,132.58C410.885443,133.149917,412.304447,133.251021,413.629,132.865C415.425287,132.616952,417.186092,132.158122,418.875,131.498C420.574568,130.831669,422.020549,129.646048,423.007,128.11C421.566297,127.190301,420.683255,125.609014,420.656,123.9C420.565,122.222,421.025,120.318,419.963,119.016C418.901,117.714,417.016,117.772,415.429,118.2C414.645,118.42,413.887,118.718,413.104,118.932C412.704,119.032,411.394,119.042,411.161,119.332C410.705,119.866,411.754,122.308,411.8,123.156Z" transform="matrix(1 0 0 1 -163.585 -79.164)" fill="rgb(251,190,190)" stroke="none" stroke-width="1"/><path id="eQE3GSC2ayb46" d="M411.8,123.156C411.944332,124.634758,411.393838,126.096707,410.31,127.113C409.954,127.413,409.533,127.644,409.189,127.962C408.564438,128.601356,408.253106,129.483299,408.337881,130.373055C408.422657,131.262812,408.894937,132.070093,409.629,132.58C410.885443,133.149917,412.304447,133.251021,413.629,132.865C415.425287,132.616952,417.186092,132.158122,418.875,131.498C420.574568,130.831669,422.020549,129.646048,423.007,128.11C421.566297,127.190301,420.683255,125.609014,420.656,123.9C420.565,122.222,421.025,120.318,419.963,119.016C418.901,117.714,417.016,117.772,415.429,118.2C414.645,118.42,413.887,118.718,413.104,118.932C412.704,119.032,411.394,119.042,411.161,119.332C410.705,119.866,411.754,122.308,411.8,123.156Z" transform="matrix(1 0 0 1 -163.585 -79.164)" opacity="0.1" fill="rgb(0,0,0)" stroke="none" stroke-width="1"/><circle id="eQE3GSC2ayb47" r="8.686" transform="matrix(1 0 0 1 252.717 35.216)" fill="rgb(251,190,190)" stroke="none" stroke-width="1"/><path id="eQE3GSC2ayb48" d="M377.224,213.31C377.071186,214.001509,376.794751,214.659738,376.408,215.253C375.392152,217.05103,375.026317,219.143984,375.372,221.18C375.74148,223.229779,377.109614,224.959922,379.019,225.792C379.81813,226.190563,380.76937,226.131444,381.513,225.637C380.354,224.128,380.289,222.068,380.36,220.164C380.339632,219.808895,380.423021,219.455534,380.6,219.147C380.698288,219.000694,380.851932,218.900737,381.025517,218.870171C381.199102,218.839605,381.377648,218.881067,381.52,218.985C381.487655,220.184475,381.719818,221.376359,382.2,222.476C382.381,222.897,382.692,223.363,383.159,223.35C383.807,223.35,383.995,222.437,383.969,221.776C383.869,219.082,383.736,216.276,382.44,213.919C381.868363,213.110864,381.4295,212.216595,381.14,211.27C381.130168,210.933125,381.011989,210.608396,380.803,210.344C380.660979,210.231371,380.494522,210.153622,380.317,210.117C379.572,209.903,377.797,209.249,377.182,209.949C376.567,210.649,377.34,212.417,377.224,213.31Z" transform="matrix(1 0 0 1 -151.931 -111.472)" fill="rgb(251,190,190)" stroke="none" stroke-width="1"/><path id="eQE3GSC2ayb49" d="M389.725,144.074C388.725,143.957,387.944,144.874,387.4,145.713C385.364496,148.846677,383.899577,152.315829,383.073,155.96C382.790401,157.846981,382.263303,159.689133,381.505,161.44C381.293969,161.791419,381.122268,162.165003,380.993,162.554C380.921398,163.151154,380.895323,163.75289,380.915,164.354C380.658039,165.409172,380.342212,166.449132,379.969,167.469C379.839,168.117,379.869,168.769,379.749,169.412C379.44505,170.505801,379.043436,171.57008,378.549,172.592C377.856,174.47,377.862,176.53,377.349,178.467C377.287243,178.784237,377.150047,179.081952,376.949,179.335C376.606,179.717,376.049,179.808,375.602,180.054C374.881642,180.493538,374.385947,181.222502,374.242,182.054C374.107122,182.87649,374.091965,183.714169,374.197,184.541L374.597,189.677C375.005,189.502,375.245,189.029,375.62,188.751C376.330965,188.333627,377.186227,188.239406,377.971,188.492L379.143,188.706C380.360949,188.778237,381.511543,189.28906,382.382,190.144C382.991,189.185,382.648,187.78,383.582,187.144C383.882,186.937,384.269,186.872,384.582,186.691C385.195574,186.293201,385.577202,185.621715,385.605,184.891C385.624363,184.169577,385.526075,183.449818,385.314,182.76C386.769601,181.982471,387.857452,180.659429,388.339,179.081C388.984552,177.238345,389.453331,175.338452,389.739,173.407C391.254761,165.798404,392.164283,158.08151,392.459,150.329C392.544432,149.033897,392.401937,147.733849,392.038,146.488C391.635,145.26,391.014,144.217,389.725,144.074Z" transform="matrix(1 0 0 1 -151.536 -88.372)" fill="rgb(108,99,255)" stroke="none" stroke-width="1"/><path id="eQE3GSC2ayb50" d="M389.725,144.074C388.725,143.957,387.944,144.874,387.4,145.713C385.364496,148.846677,383.899577,152.315829,383.073,155.96C382.790401,157.846981,382.263303,159.689133,381.505,161.44C381.293969,161.791419,381.122268,162.165003,380.993,162.554C380.921398,163.151154,380.895323,163.75289,380.915,164.354C380.658039,165.409172,380.342212,166.449132,379.969,167.469C379.839,168.117,379.869,168.769,379.749,169.412C379.44505,170.505801,379.043436,171.57008,378.549,172.592C377.856,174.47,377.862,176.53,377.349,178.467C377.287243,178.784237,377.150047,179.081952,376.949,179.335C376.606,179.717,376.049,179.808,375.602,180.054C374.881642,180.493538,374.385947,181.222502,374.242,182.054C374.107122,182.87649,374.091965,183.714169,374.197,184.541L374.597,189.677C375.005,189.502,375.245,189.029,375.62,188.751C376.330965,188.333627,377.186227,188.239406,377.971,188.492L379.143,188.706C380.360949,188.778237,381.511543,189.28906,382.382,190.144C382.991,189.185,382.648,187.78,383.582,187.144C383.882,186.937,384.269,186.872,384.582,186.691C385.195574,186.293201,385.577202,185.621715,385.605,184.891C385.624363,184.169577,385.526075,183.449818,385.314,182.76C386.769601,181.982471,387.857452,180.659429,388.339,179.081C388.984552,177.238345,389.453331,175.338452,389.739,173.407C391.254761,165.798404,392.164283,158.08151,392.459,150.329C392.544432,149.033897,392.401937,147.733849,392.038,146.488C391.635,145.26,391.014,144.217,389.725,144.074Z" transform="matrix(1 0 0 1 -151.536 -88.372)" fill="rgb(83,0,180)" stroke="none" stroke-width="1"/><path id="eQE3GSC2ayb51" d="M418.065,131.24C416.631757,132.742843,414.801003,133.807517,412.786,134.31C410.779061,134.804639,408.729378,135.106014,406.665,135.21C406.030966,135.313124,405.381255,135.257464,404.774,135.048C404.156143,134.807434,403.818332,134.140429,403.99,133.5C404.099956,133.31471,404.176772,133.111671,404.217,132.9C404.217,132.369,403.427,132.324,402.917,132.479C399.575,133.515,396.369,135.562,394.827,138.703C394.048825,140.523931,393.563498,142.456464,393.389,144.429C392.664,149.611,391.938,154.838,392.91,159.974C393.435,162.701,394.432,165.35,394.49,168.122C394.529,169.676,394.263,171.222,394.276,172.779C394.231848,173.323337,394.378579,173.866065,394.691,174.314C394.931,174.593,395.291,174.767,395.462,175.098C395.741,175.642,395.362,176.398,395.734,176.892C396.194,177.501,397.14,177.06,397.768,176.633C400.919408,174.494516,404.725039,173.538238,408.513,173.933C413.047,174.419,417.581,176.848,421.998,175.633C421.770057,175.303099,421.574801,174.951772,421.415,174.584C419.215,167.356,419.362,159.266,422.659,152.465C423.78,150.14,425.25,147.931,425.703,145.379C425.877027,144.187938,425.892159,142.979044,425.748,141.784C425.594424,139.454567,424.895645,137.193811,423.708,135.184C422.508367,133.094425,420.439567,131.648502,418.065,131.24Z" transform="matrix(1 0 0 1 -157.99 -83.854)" fill="rgb(83,0,180)" stroke="none" stroke-width="1"/><path id="eQE3GSC2ayb52" d="M399.294,217.287C398.942329,218.233352,398.772685,219.237644,398.794,220.247C398.763905,221.209951,398.811727,222.173758,398.937,223.129C399.013048,223.946793,399.306149,224.729432,399.786,225.396C400.28463,226.066917,401.138417,226.371249,401.949,226.167C402.578659,225.903681,403.056178,225.370696,403.249,224.716C403.435608,224.066369,403.574313,223.403925,403.664,222.734C404.04,220.791,405.076,218.913,405.095,216.905C405.108181,216.666517,405.070691,216.427946,404.985,216.205C404.251704,215.211195,403.097844,214.615046,401.863,214.592C400.745,214.768,399.708,216.335,399.294,217.287Z" transform="matrix(1 0 0 1 -160.224 -113.214)" fill="rgb(251,190,190)" stroke="none" stroke-width="1"/><path id="eQE3GSC2ayb53" d="M424.569,142.56C424.401,144.289,426.069,145.591,426.732,147.191C426.999355,147.941146,427.152071,148.727316,427.185,149.523C427.513202,155.05504,427.426627,160.603892,426.926,166.123C426.87299,167.962959,426.656133,169.794535,426.278,171.596C425.345,175.372,423.039,178.65,420.805,181.823C420.466843,182.342838,420.073931,182.824925,419.633,183.261C418.974292,183.7972,418.241338,184.235086,417.457,184.561L409.749,188.298C408.782457,188.724062,407.86396,189.251695,407.009,189.872C406.016252,190.649674,405.236389,191.665869,404.742,192.826C403.242,192.062,401.691,191.375,400.208,190.611C399.858,190.43,399.463,190.196,399.408,189.811C399.33,189.293,399.874,188.924,400.25,188.511C400.849467,187.726734,401.290969,186.833542,401.55,185.881C402.794,182.902,405.909,180.997,407.036,177.981C407.47,176.822,407.6,175.507,408.37,174.535C408.808407,174.046609,409.301664,173.610395,409.84,173.235C411.021799,172.226933,412.106234,171.110022,413.079,169.899C413.520258,169.442221,413.881622,168.91454,414.148,168.338C414.394857,167.449417,414.480544,166.523799,414.401,165.605C414.459,162.587,415.826,159.776,416.661,156.874C417.445,154.147,417.775,151.284,418.805,148.635C419.835,145.986,421.81,143.272,424.569,142.56Z" transform="matrix(1 0 0 1 -160.44 -87.842)" opacity="0.1" fill="rgb(0,0,0)" stroke="none" stroke-width="1"/><path id="eQE3GSC2ayb54" d="M426.1,142.56C425.932,144.289,427.6,145.591,428.257,147.191C428.526667,147.940796,428.681743,148.726965,428.717,149.523C429.041935,155.055111,428.955363,160.603719,428.458,166.123C428.394386,167.963913,428.166819,169.795493,427.778,171.596C426.845,175.372,424.54,178.65,422.305,181.823C421.966855,182.342847,421.573943,182.824936,421.133,183.261C420.474292,183.7972,419.741338,184.235086,418.957,184.561L411.243,188.298C410.277864,188.726839,409.35965,189.25431,408.503,189.872C407.512041,190.651443,406.732561,191.667139,406.236,192.826C404.736,192.062,403.192,191.375,401.702,190.611C401.352,190.43,400.957,190.196,400.902,189.811C400.818,189.293,401.362,188.924,401.738,188.511C402.342511,187.729878,402.784529,186.83564,403.038,185.881C404.275,182.902,407.397,180.997,408.524,177.981C408.958,176.822,409.088,175.507,409.858,174.535C410.293342,174.043531,410.786985,173.606977,411.328,173.235C412.509807,172.226942,413.594243,171.110029,414.567,169.899C415.008287,169.442245,415.369656,168.914559,415.636,168.338C415.879643,167.448829,415.965276,166.523786,415.889,165.605C415.947,162.587,417.307,159.776,418.143,156.874C418.933,154.147,419.257,151.284,420.287,148.635C421.317,145.986,423.351,143.272,426.1,142.56Z" transform="matrix(1 0 0 1 -160.964 -87.842)" fill="rgb(83,0,180)" stroke="none" stroke-width="1"/><path id="eQE3GSC2ayb55" d="M423.088,91.671C420.412784,91.345959,417.704832,91.908066,415.38,93.271C415.725173,93.258247,416.070684,93.284412,416.41,93.349C421.679686,93.985269,425.954472,97.915583,427.030194,103.113395C428.105916,108.311208,425.742271,113.615389,421.158,116.291C427.757195,116.505034,433.358967,111.493745,433.878313,104.911537C434.397658,98.329329,429.651104,92.501543,423.1,91.678Z" transform="matrix(1 0 0 1 -166.07 -69.882)" fill="rgb(255,255,255)" stroke="none" stroke-width="1"/><path id="eQE3GSC2ayb56" d="M424.467,100.241C425.075779,101.612341,425.111777,103.169999,424.567,104.568C424.509,104.393,424.444,104.218,424.367,104.043C422.838,100.643,418.136,99.237,413.855,100.902C411.553179,101.719502,409.708789,103.479147,408.784,105.74C407.696,102.45,409.904,98.68,413.966,97.1C418.236,95.435,422.939,96.84,424.467,100.241Z" transform="matrix(1 0 0 1 -163.648 -71.58)" fill="rgb(255,255,255)" stroke="none" stroke-width="1"/><g id="eQE3GSC2ayb57" transform="matrix(1 0 0 1 249.31 3.834)" opacity="0.1"><path id="eQE3GSC2ayb58" d="M426.916,102.8C426.513886,97.925933,423.276772,93.746849,418.658,92.139C417.508746,92.41221,416.405006,92.850068,415.381,93.439C415.726173,93.426247,416.071684,93.452412,416.411,93.517C421.501314,94.132373,425.68218,97.828536,426.917,102.805Z" transform="matrix(1 0 0 1 -415.38 -73.914)" fill="rgb(0,0,0)" stroke="none" stroke-width="1"/><path id="eQE3GSC2ayb59" d="M430.006,88.871C429.600639,83.998195,426.364737,79.820677,421.748,78.21C420.597917,78.496966,419.494523,78.946135,418.471,79.544C418.818156,79.531544,419.165622,79.557705,419.507,79.622C424.585008,80.232255,428.760862,83.910585,430.007,88.871Z" transform="matrix(1 0 0 1 -416.469 -69.006)" fill="rgb(0,0,0)" stroke="none" stroke-width="1"/><path id="eQE3GSC2ayb60" d="M432.573,70.4C433.374682,68.488831,432.814483,66.277809,431.199486,64.978946C429.584488,63.680083,427.30477,63.607098,425.61,64.8C425.827278,64.792509,426.044698,64.809956,426.258,64.852C429.305053,65.223527,431.812193,67.426158,432.573,70.4Z" transform="matrix(1 0 0 1 -418.984 -64)" fill="rgb(0,0,0)" stroke="none" stroke-width="1"/><path id="eQE3GSC2ayb61" d="M436.736,106C437.2289,112.125546,433.153047,117.685192,427.163,119.058C426.328176,119.964256,425.363303,120.741412,424.3,121.364C428.185272,121.505961,431.910839,119.811267,434.356896,116.789297C436.802953,113.767327,437.68429,109.770443,436.736,106Z" transform="matrix(1 0 0 1 -418.522 -78.796)" fill="rgb(0,0,0)" stroke="none" stroke-width="1"/></g><path id="eQE3GSC2ayb62" d="M573.568,305.116C571.941774,303.771858,569.624864,303.658312,567.875,304.837C566.693278,305.921296,565.861248,307.332961,565.485,308.892C564.708,311.114,563.451,313.271,563.244,315.622C562.667,322.099,558.127,327.546,556.767,333.894C556.267,336.161,556.167,338.545,555.232,340.663C554.782184,341.592773,554.262353,342.487015,553.677,343.338C551.399609,346.918708,549.448756,350.696916,547.848,354.627C546.707318,355.162679,545.698726,355.943194,544.894,356.913C543.73921,358.017324,542.357911,358.857091,540.846,359.374C540.229525,359.51198,539.654497,359.794011,539.168,360.197C538.52,360.884,538.52,361.991,537.983,362.788C537.6008,363.310136,537.092698,363.727075,536.506,364C536.466218,363.816001,536.435845,363.630093,536.415,363.443C536.279,362.452,536.169,361.461,536.065,360.47C539.180183,355.924126,538.532146,349.788753,534.536,345.994C534.416108,344.447567,534.4617,342.892751,534.672,341.356C534.866959,340.601934,534.615538,339.802663,534.024,339.296C533.707,339.096,533.318,339.05,532.981,338.881C532.492503,338.553554,532.07767,338.127823,531.763,337.631C529.883365,335.501645,526.742628,335.037039,524.327,336.531C522.513,337.742,521.555,339.893,520.007,341.441C519.207,342.241,518.252,342.866,517.455,343.663C515.861517,345.37124,514.826533,347.524579,514.488,349.836C514.155684,352.134511,514.06252,354.461278,514.21,356.779C514.194522,357.481845,514.295902,358.182379,514.51,358.852C514.741261,359.400328,515.06083,359.907044,515.456,360.352C517.353744,362.827621,519.862451,364.767389,522.736,365.981C522.755834,366.118473,522.766524,366.257111,522.768,366.396C522.776245,366.613294,522.75879,366.830801,522.716,367.044L522.399,366.992C521.224924,366.998708,520.055223,366.848376,518.921,366.545C517.075,365.745,516.33,363.404,514.51,362.484C514.358845,362.404475,514.200464,362.339515,514.037,362.29C513.605477,359.271311,512.716614,356.335973,511.401,353.585C510.640805,352.329826,510.145004,350.932601,509.944,349.479C509.984086,348.117919,510.289818,346.777796,510.844,345.534C512.308118,341.085529,513.463857,336.541426,514.303,331.934Q515.184,327.601,516.078,323.268C516.881943,322.536691,517.591129,321.707572,518.189,320.8C519.437322,318.994943,520.167716,316.88261,520.301,314.692C520.416708,312.487133,519.647448,310.327301,518.164,308.692C517.508599,307.891335,516.536414,307.416563,515.502,307.392C514.611333,307.498041,513.804555,307.968782,513.274,308.692C512.482797,309.799495,511.911155,311.048349,511.59,312.371C510.795535,314.482972,510.454807,316.738596,510.59,318.991C510.856,320.837,511.756,322.838,510.836,324.458C507.805,329.758,505.713,335.728,503.465,341.415C502.885327,342.779387,502.413221,344.18701,502.053,345.625C501.603081,347.942505,501.524433,350.3168,501.82,352.659C502.353426,357.051114,503.199914,361.399513,504.353,365.671C504.724408,367.651602,505.45075,369.548765,506.497,371.271C506.101656,373.44133,506.005763,375.655618,506.212,377.852C506.238537,378.359496,506.371047,378.855813,506.601,379.309C506.972461,379.830775,507.422456,380.291902,507.935,380.676C509.340739,381.983695,510.112904,383.834995,510.053,385.754C510.084267,387.527737,510.428555,389.282014,511.07,390.936C512.618,395.554,514.17,400.172,515.526,404.855C515.81935,405.721964,515.980817,406.628071,516.005,407.543C516.005,408.843,515.39,410.134,515.675,411.429C515.892232,412.014349,516.069636,412.613716,516.206,413.223C516.216554,413.69382,516.155525,414.163511,516.025,414.616C515.183,418.276,512.748,426.716,513.169,430.452L514.004,430.16C513.648,435.108,512.119,439.953,511.562,444.902C511.196098,448.505026,511.235344,452.13772,511.679,455.732C511.920592,457.338501,512.059209,458.958807,512.094,460.583C512.094,462.04,511.861,463.483,511.803,464.929C511.7737,466.877794,511.888345,468.826091,512.146,470.758C512.399305,473.790168,512.882021,476.798782,513.59,479.758C514.937,484.784,514.03,490.018,514.179,495.225C514.352838,498.857409,514.31611,502.496839,514.069,506.125C513.933,507.66,513.719,509.189,513.669,510.73C513.533,515.303,514.887,519.856,514.407,524.403C514.18,526.534,513.636,528.937,514.977,530.615C515.404,531.14,515.977,531.515,516.434,532.015C516.935603,532.487045,517.149801,533.189373,516.997,533.861C516.822,534.373,516.349,534.748,516.239,535.286C516.116,536.128,517.039,536.711,517.845,536.986L518.072,537.051C518.037564,537.619427,518.247076,538.17558,518.648,538.58C519.150112,538.963781,519.748418,539.201512,520.377,539.267L530.74,541.275C533.052,541.722,535.565,542.143,537.74,541.359C537.823703,541.67261,537.991798,541.957263,538.226,542.182C538.726389,542.564808,539.322496,542.802489,539.949,542.869L550.312,544.877C552.955,545.389,555.856,545.861,558.212,544.553C558.891831,544.190091,559.465607,543.656635,559.877,543.005C560.546782,541.755409,560.629875,540.27364,560.104,538.957C559.905504,538.290422,559.502081,537.703307,558.951,537.279C558.215725,536.875029,557.378338,536.694969,556.542,536.761C555.8317,536.812919,555.118811,536.704584,554.456,536.444C554.252852,536.337545,554.075916,536.187251,553.938,536.004C554.456,535.356,554.955,534.704,555.428,534.061C554.981,533.961,554.78,533.342,554.67,532.889C553.336,526.166,555.208,519.289,555.48,512.421C555.618844,508.983739,555.350309,505.542126,554.68,502.168C554.427,500.868,554.123,499.642,553.942,498.36C552.99,491.669,555.535,484.875,554.726,478.16C554.344,475.025,555.691,471.748,556.17,468.626C556.475226,465.824946,556.433914,462.996943,556.047,460.206L553.9,438.168C553.609,435.195,553.3,432.151,552.035,429.443C551.400896,427.929139,551.100411,426.296425,551.154,424.656C553.745,423.173,556.128,421.132,559.054,421.126C559.617,418.989,557.998,412.246,557.054,410.251C553.365274,402.3863,551.906593,393.659813,552.837,385.023C553.18,381.923,551.943,378.792,552.358,375.696C552.42134,374.970658,552.625122,374.264553,552.958,373.617C553.297776,372.964776,553.948131,372.532212,554.681,372.471C554.5,370.612,554.26,368.74,553.943,366.881C555.009077,365.793489,555.884927,364.534645,556.534,363.157C557.726715,360.269313,558.639891,357.273949,559.261,354.212C560.686,348.894,562.861,343.812,564.585,338.596C566.309,333.38,565.971,327.857,567.208,322.496C567.906498,319.541476,569.715609,316.969258,572.26,315.313C573.310466,314.78951,574.25476,314.07578,575.045,313.208C575.557485,312.419987,575.827631,311.498986,575.822,310.559C575.939209,308.49601,575.10939,306.492148,573.568,305.116ZM533.98,531.736C534.174,531.47,534.362,531.205,534.537,530.926C533.85,530.887,532.982,530.486,532.898,529.799C532.877359,529.111709,532.953779,528.424942,533.125,527.759C533.320027,526.568225,533.246918,525.348939,532.911,524.19C532.671,523.39,532.311,522.616,532.056,521.813C531.803341,520.916391,531.603003,520.005856,531.456,519.086C530.821163,515.795948,529.833109,512.584018,528.509,509.506C527.209,506.52,528.218,503.262,528.231,500.006C528.087652,498.474956,528.139737,496.931893,528.386,495.414C528.613,494.533,529.034,493.714,529.273,492.823C529.804,490.77,529.137,488.613,528.483,486.599C531.041,480.549,531.383,473.645,531.909,467.064Q532.349,461.546,532.79,456.053C532.7915,454.404961,533.182096,452.780562,533.93,451.312C535.459954,455.989956,536.372338,460.847712,536.644,465.762C536.670776,467.182283,536.835551,468.596601,537.136,469.985C537.544,471.52,538.336,472.913,538.872,474.402C540.051,477.679,539.928,481.261,540.459,484.702C540.673,486.095,540.997,487.468,541.204,488.86C542.098,495.007,540.653,501.231,539.216,507.274C538.335,510.974,538.478,515.074,538.277,518.881C538.089,522.528,537.895,526.174,537.985,529.827C537.985,530.941,538.056,532.081,538.043,533.214C537.690609,533.17193,537.335877,533.152557,536.981,533.156C536.270701,533.207884,535.557819,533.099551,534.895,532.839C534.485007,532.574701,534.166255,532.190662,533.982,531.739Z" transform="matrix(1 0 0 1 -196.459 -144.725)" fill="url(#eQE3GSC2ayb62-fill)" stroke="none" stroke-width="1"/><path id="eQE3GSC2ayb63" d="M576.163,662.13C576.998499,662.0659,577.834791,662.243642,578.572,662.642C579.119681,663.066559,579.52246,663.650292,579.725,664.313C580.248165,665.621794,580.162799,667.095374,579.492,668.335C579.080004,668.982814,578.506099,669.51191,577.827,669.87C575.469,671.17,572.568,670.706,569.927,670.2L559.564,668.212C558.939451,668.157302,558.341657,667.933259,557.835,667.564C557.190915,666.853488,557.070313,665.811892,557.535,664.973C557.986804,664.155308,558.660308,663.481804,559.478,663.03C562.517796,661.317658,565.898352,660.298027,569.378,660.044C570.678,659.889,571.885,659.474,572.856,660.374C573.374,660.847,573.348,661.436,574.074,661.818C574.742402,662.075635,575.459617,662.181851,576.174,662.129Z" transform="matrix(1 0 0 1 -216.05 -270.067)" fill="rgb(0,0,0)" stroke="none" stroke-width="1"/><path id="eQE3GSC2ayb64" d="M545.927,656.628C546.759601,656.56417,547.592934,656.741948,548.327,657.14C548.878481,657.560951,549.282182,658.14602,549.48,658.811C550.008688,660.118306,549.925429,661.593484,549.253,662.833C548.839239,663.479336,548.265769,664.008031,547.588,664.368C545.23,665.668,542.329,665.203,539.679,664.698L529.32,662.7C528.695372,662.645652,528.097487,662.421574,527.591,662.052C526.943302,661.34399,526.818252,660.302178,527.28,659.461C527.746076,658.642881,528.430148,657.970233,529.256,657.518C532.301946,655.821241,535.679497,654.804905,539.156,654.539C540.456,654.377,541.663,653.969,542.634,654.863C543.146,655.336,543.126,655.925,543.845,656.307C544.508154,656.566303,545.220752,656.674593,545.931,656.624Z" transform="matrix(1 0 0 1 -205.394 -268.128)" fill="rgb(0,0,0)" stroke="none" stroke-width="1"/><path id="eQE3GSC2ayb65" d="M539.731,485.847C533.739214,485.871376,527.757003,486.32823,521.831,487.214C521.439404,487.251008,521.056597,487.352369,520.698,487.514C519.441,488.162,519.398,489.923,519.435,491.335C519.519,497.08,517.557,502.644,516.909,508.344C516.537525,511.922566,516.574429,515.531778,517.019,519.102C517.254172,520.700532,517.392757,522.311788,517.434,523.927C517.434,525.365,517.194,526.796,517.134,528.241C517.103945,530.168349,517.216586,532.09528,517.471,534.006C517.724567,537.017691,518.207298,540.005677,518.915,542.944C520.256,547.938,519.349,553.139,519.491,558.308C519.663878,561.917262,519.622806,565.533595,519.368,569.138C519.232,570.667,519.018,572.182,518.968,573.717C518.832,578.251,520.179,582.785,519.7,587.317C519.473,589.429,518.923,591.851,520.264,593.483C520.691,594.001,521.264,594.377,521.715,594.876C522.212555,595.342709,522.428904,596.036165,522.285,596.703C522.104,597.215,521.605,597.59,521.527,598.121C521.397,598.957,522.327,599.539,523.127,599.805C529.408331,601.731888,536.208199,599.288821,539.827,593.805C539.14,593.766,538.272,593.365,538.188,592.684C538.167366,592.000996,538.243795,591.318521,538.415,590.657C538.613335,589.475056,538.540155,588.263479,538.201,587.114C537.968,586.314,537.601,585.547,537.353,584.75C537.101096,583.859959,536.900763,582.956123,536.753,582.043C536.122098,578.771756,535.135921,575.579173,533.812,572.522C532.512,569.556,533.527,566.317,533.54,563.091C533.399749,561.568529,533.451825,560.034455,533.695,558.525C533.922,557.644,534.343,556.834,534.589,555.934C535.12,553.894,534.453,551.756,533.799,549.755C536.39,543.744,536.714,536.855,537.238,530.324L538.125,519.313C538.129613,517.675551,538.520176,516.062252,539.265,514.604C540.794832,519.248703,541.707319,524.074394,541.979,528.957C542.000822,530.369685,542.163629,531.776663,542.465,533.157C542.873,534.673,543.665,536.057,544.201,537.542C545.373,540.781,545.25,544.349,545.781,547.769C545.995,549.155,546.312,550.515,546.519,551.901C547.413,558.009,545.962,564.207,544.519,570.201C543.638,573.88,543.774,577.973,543.573,581.737C543.379,585.358,543.184,588.978,543.273,592.606C543.351,595.942,543.61,599.523,541.816,602.322C543.759314,603.472909,545.905472,604.240121,548.138,604.582C550.74524,604.7211,553.318864,603.942715,555.412,602.382C557.483479,600.823568,559.284519,598.935027,560.743,596.792C560.29,596.692,560.095,596.073,559.985,595.626C558.651,588.948,560.529,582.089,560.808,575.288C560.944202,571.87432,560.675665,568.45652,560.008,565.106C559.755,563.806,559.445,562.586,559.263,561.317C558.324,554.672,560.869,547.917,560.063,541.238C559.687,538.116,561.035,534.865,561.514,531.756C561.821405,528.985599,561.782102,526.187674,561.397,523.427L559.266,501.567C559.149509,498.59063,558.520628,495.65664,557.407,492.894C555.891,489.655,556.831,485.666,556.669,482.094C551.318744,484.449303,545.556405,485.726009,539.712,485.851Z" transform="matrix(1 0 0 1 -201.75 -207.456)" fill="rgb(83,0,180)" stroke="none" stroke-width="1"/><path id="eQE3GSC2ayb66" d="M571.483,359.234C573.245768,354.418478,575.535332,349.812519,578.31,345.5C578.89483,344.653406,579.414333,343.763499,579.864,342.838C580.81,340.738,580.907,338.369,581.406,336.115C582.799,329.806,587.345,324.392,587.928,317.979C588.135,315.641,589.392,313.497,590.176,311.288C590.560441,309.739732,591.391565,308.338644,592.566,307.259C594.315986,306.091959,596.622383,306.20227,598.253,307.531C599.823827,308.891061,600.673667,310.903704,600.553,312.978C600.555679,313.911632,600.285623,314.825721,599.776,315.608C598.987414,316.474189,598.042576,317.18392,596.991,317.7C594.451836,319.336765,592.640225,321.888204,591.932,324.825C590.688,330.156,591.025,335.625,589.296,340.817C587.567,346.009,585.41,351.057,583.965,356.362C583.155,359.362,582.579,362.45,581.225,365.249C579.871,368.048,577.572,370.573,574.547,371.292C574.356267,369.365942,573.85759,367.482988,573.07,365.715C572.163,363.671,570.718,361.313,571.483,359.234Z" transform="matrix(1 0 0 1 -220.988 -145.582)" fill="rgb(160,97,106)" stroke="none" stroke-width="1"/><path id="eQE3GSC2ayb67" d="M514.437,368.457C514.186727,364.672767,513.210293,360.972097,511.561,357.557C510.799881,356.314396,510.305734,354.926972,510.11,353.483C510.149438,352.130202,510.455273,350.798462,511.01,349.564C512.476465,345.134791,513.634239,340.609285,514.475,336.02L516.263,327.406C517.062921,326.679917,517.769956,325.857674,518.368,324.958C519.618328,323.168088,520.35116,321.068202,520.486,318.889C520.606682,316.692904,519.838675,314.54061,518.355,312.917C517.690906,312.133135,516.720251,311.674791,515.693,311.66C514.802333,311.766041,513.995555,312.236782,513.465,312.96C512.686575,314.051723,512.125694,315.283149,511.813,316.587C511.018659,318.683157,510.674529,320.923067,510.803,323.161C511.062,324.994,511.969,326.982,511.043,328.589C508.005,333.868,505.913,339.789,503.659,345.429C503.082321,346.785012,502.612231,348.183916,502.253,349.613C501.798096,351.918269,501.715046,354.281484,502.007,356.613C502.537182,360.986001,503.381362,365.315181,504.533,369.567C505.181,372.236,505.99,375.137,508.233,376.737C509.958086,373.735962,512.041346,370.955597,514.437,368.457Z" transform="matrix(1 0 0 1 -196.529 -147.415)" fill="rgb(160,97,106)" stroke="none" stroke-width="1"/><circle id="eQE3GSC2ayb68" r="11.121" transform="matrix(1 0 0 1 330.545 210.666)" fill="rgb(160,97,106)" stroke="none" stroke-width="1"/><path id="eQE3GSC2ayb69" d="M532.093,397.545C531.887031,399.570105,531.269759,401.531835,530.279,403.31C529.754,404.418,529.068,405.655,527.87,405.901C531.242388,407.250354,534.742502,408.25546,538.317,408.901C539.54066,409.175427,540.800987,409.247716,542.048,409.115C543.096484,408.927883,544.103226,408.555391,545.021,408.015C549.100704,405.701359,551.888589,401.638844,552.58,397C551.207809,397.179184,549.820771,397.216047,548.441,397.11C547.660364,397.131272,546.901641,396.850422,546.323,396.326C545.956597,395.818947,545.74789,395.215087,545.723,394.59Q545.354,391.831,545.134,389.059C542.398894,389.164962,539.707831,389.782272,537.2,390.879C536.164,391.332,535.153,391.857,534.085,392.246C533.437,392.479,531.565,392.525,531.112,392.946C530.415,393.613,532.132,396.146,532.093,397.545Z" transform="matrix(1 0 0 1 -205.7 -174.682)" fill="rgb(160,97,106)" stroke="none" stroke-width="1"/><path id="eQE3GSC2ayb70" d="M530.921,401.925C530.358967,398.973641,527.97628,396.710068,525,396.3C523.82669,396.307817,522.65741,396.161909,521.522,395.866C519.676,395.066,518.899,392.744,517.111,391.831C515.323,390.918,513.005,391.766,511.683,393.295C510.468715,394.924399,509.684576,396.833502,509.403,398.846C508.780993,401.540803,508.578611,404.315461,508.803,407.072C508.835341,407.577992,508.9715,408.07191,509.203,408.523C509.574217,409.040989,510.021995,409.499557,510.531,409.883C511.935591,411.175161,512.708656,413.014385,512.649,414.922C512.671669,416.695978,513.013802,418.451356,513.659,420.104C515.207,424.69,516.759,429.282,518.109,433.933C518.40298,434.793257,518.564491,435.693202,518.588,436.602C518.556,437.902,517.94,439.193,518.258,440.456C518.469446,441.03831,518.644779,441.633105,518.783,442.237C518.793825,442.705534,518.732784,443.172959,518.602,443.623C517.753,447.263,515.318,455.644,515.739,459.356C521.264,457.322,529.6,456.117,535.455,455.47C537.065406,455.284451,538.684946,455.189302,540.306,455.185C544.192,455.185,548.266,455.917,551.893,454.492C555.255,453.192,558.046,450.075,561.66,450.062C562.223,447.944,560.604,441.247,559.665,439.262C555.97957,431.456205,554.525935,422.78285,555.465,414.202C555.802,411.119,554.571,408.01,554.992,404.933C555.0518,404.212526,555.251886,403.510695,555.581,402.867C555.926465,402.217204,556.576959,401.786049,557.31,401.721C556.879679,396.89721,555.935322,392.133185,554.493,387.51C553.968,385.865,553.023,383.961,551.3,383.85C549.745,383.75,548.6,385.15,547.479,386.24C546.322387,387.337482,544.941224,388.170684,543.431,388.682C542.812204,388.818505,542.234894,389.100646,541.747,389.505C541.099,390.185,541.099,391.293,540.562,392.096C539.629,393.534,537.246,393.67,536.676,395.276C536.556135,395.748399,536.471569,396.229058,536.423,396.714C536.158118,397.659514,535.627445,398.509147,534.894,399.162C533.820632,400.39908,532.456312,401.349636,530.924,401.928Z" transform="matrix(1 0 0 1 -198.951 -172.844)" fill="rgb(83,0,180)" stroke="none" stroke-width="1"/><path id="eQE3GSC2ayb71" d="M541.621,360.651C541.815637,359.902958,541.56363,359.109604,540.973,358.611C540.631687,358.450687,540.281443,358.310122,539.924,358.19C539.43807,357.858875,539.025787,357.430931,538.713,356.933C536.831066,354.811401,533.69528,354.352155,531.284,355.845C529.464,357.045,528.512,359.187,526.957,360.722C526.157,361.522,525.208,362.14,524.405,362.937C522.814563,364.629876,521.777538,366.767062,521.432,369.064C521.100003,371.348108,521.006834,373.660586,521.154,375.964C521.135386,376.662774,521.23686,377.359559,521.454,378.024C521.686662,378.568567,522.006147,379.071773,522.4,379.514C524.374171,382.093219,527.020624,384.078837,530.049,385.253C533.116407,386.412257,536.544022,386.118041,539.369,384.453C539.64159,384.302169,539.866169,384.07759,540.017,383.805C540.14645,383.400436,540.14645,382.965564,540.017,382.561C539.692597,380.947781,539.847999,379.274862,540.464,377.749C541.004069,376.686389,541.484155,375.594343,541.902,374.478C542.166916,373.199008,542.200784,371.882925,542.002,370.592C541.685,367.3,541.109,363.967,541.621,360.651Z" transform="matrix(1 0 0 1 -203.31 -162.673)" fill="rgb(0,0,0)" stroke="none" stroke-width="1"/><path id="eQE3GSC2ayb72" d="M843.32,630C843.32,693.721,883.296,745.292,932.703,745.292" transform="matrix(1 0 0 1 -316.831 -259.564)" fill="rgb(0,0,0)" stroke="none" stroke-width="1"/><path id="eQE3GSC2ayb73" d="M981.32,744.587C981.32,680.14,1025.928,628,1081.067,628" transform="matrix(1 0 0 1 -365.447 -258.859)" fill="rgb(108,99,255)" stroke="none" stroke-width="1"/><path id="eQE3GSC2ayb74" d="M893.32,638.86C893.32,699.395,918.807,748.381,950.32,748.381" transform="matrix(1 0 0 1 -334.446 -262.685)" fill="rgb(108,99,255)" stroke="none" stroke-width="1"/><path id="eQE3GSC2ayb75" d="M981.32,726.972C981.32,644.63,1032.884,578,1096.612,578" transform="matrix(1 0 0 1 -365.447 -241.245)" fill="rgb(0,0,0)" stroke="none" stroke-width="1"/><ellipse id="eQE3GSC2ayb76" rx="22.223" ry="3.757" transform="matrix(1 0 0 1 611.993 503.961)" opacity="0.1" fill="rgb(108,99,255)" stroke="none" stroke-width="1"/><path id="eQE3GSC2ayb77" d="M952.28,805.475C952.28,805.475,964.956,805.086,968.78,802.366C972.604,799.646,988.28,796.394,989.228,800.76C990.176,805.126,1008.277,822.46,993.969,822.575C979.661,822.69,960.716,820.347,956.901,818.041C953.086,815.735,952.28,805.475,952.28,805.475Z" transform="matrix(1 0 0 1 -355.217 -318.97)" fill="rgb(168,168,168)" stroke="none" stroke-width="1"/><path id="eQE3GSC2ayb78" d="M994.189,824.774C979.881,824.891,960.936,822.546,957.121,820.24C954.221,818.465,953.06,812.124,952.678,809.19L952.251,809.19C952.251,809.19,953.051,819.411,956.869,821.736C960.687,824.061,979.623,826.406,993.937,826.27C998.063,826.238,999.494,824.77,999.417,822.591C998.859,823.964,997.285,824.748,994.189,824.774Z" transform="matrix(1 0 0 1 -355.206 -322.692)" opacity="0.2" fill="rgb(0,0,0)" stroke="none" stroke-width="1"/><path id="eQE3GSC2ayb79" d="M802.77,87.358C803.330216,86.560034,803.639106,85.612819,803.657,84.638C803.657,78.731,791.623,73.951,776.777,73.951C761.931,73.951,749.9,78.73,749.9,84.637C749.912286,85.735416,750.283098,86.799743,750.956,87.668C734.427,89.514,723.292,92.968,723.292,96.943C723.292,102.843,747.905,107.63,778.347,107.63C808.789,107.63,833.4,102.844,833.4,96.944C833.419,92.766,820.906,89.106,802.77,87.358Z" transform="translate(-274.545,-63.671) translate(9,0)" opacity="0.1" fill="rgb(0,0,0)" stroke="none" stroke-width="1"/><path id="eQE3GSC2ayb80" d="M293.8,105.358C294.360216,104.560034,294.669106,103.612819,294.687,102.638C294.687,96.731,282.653,91.951,267.807,91.951C252.961,91.951,240.927,96.731,240.927,102.638C240.95407,103.742479,241.343377,104.807452,242.035,105.669C225.506,107.515,214.371,110.969,214.371,114.944C214.371,120.844,239.016,125.631,269.426,125.631C299.836,125.631,324.481,120.844,324.481,114.944C324.448,110.766,311.934,107.106,293.8,105.358Z" transform="translate(-95.255,-70.012) translate(-9,0)" opacity="0.1" fill="rgb(0,0,0)" stroke="none" stroke-width="1"/><path id="eQE3GSC2ayb81" d="M628.74,95.19C630.249,94.316,632.289,95.151,633.326,96.563C634.227103,98.064599,634.770147,99.753612,634.913,101.499C635.489,105.333,635.913,109.731,633.326,112.614C637.847033,99.564636,649.410159,90.2331,663.12,88.57" transform="matrix(1 0 0 1 -241.236 -68.821)" opacity="0.1" fill="none" stroke="rgb(108,99,255)" stroke-width="3" stroke-miterlimit="10"/><path id="eQE3GSC2ayb82" d="M295.21,197.441C296.276581,196.991491,297.512131,197.360856,298.157,198.322C298.751014,199.281078,299.102159,200.370556,299.18,201.496C299.549,203.964,299.828,206.788,298.163,208.621C301.06067,200.231908,308.489325,194.230214,317.3,193.16" transform="matrix(1 0 0 1 -123.735 -105.668)" opacity="0.1" fill="none" stroke="rgb(108,99,255)" stroke-width="3" stroke-miterlimit="10"/><path id="eQE3GSC2ayb83" d="M745.21,227.441C746.276581,226.991491,747.512131,227.360856,748.157,228.322C748.75105,229.281061,749.102199,230.370549,749.18,231.496C749.549,233.964,749.828,236.788,748.163,238.621C751.06067,230.231908,758.489325,224.230214,767.3,223.16" transform="matrix(1 0 0 1 -282.267 -116.237)" opacity="0.1" fill="none" stroke="rgb(108,99,255)" stroke-width="3" stroke-miterlimit="10"/><path id="eQE3GSC2ayb84" d="M701.979,554.727L701.979,538.987L709.233,546.241L711.047,544.363L700.683,534L690.32,544.363L692.134,546.17L699.388,538.987L699.388,554.726Z" transform="matrix(1 0 0 1 -262.93 -225.744)" opacity="0.1" fill="rgb(108,99,255)" stroke="none" stroke-width="1"/><path id="eQE3GSC2ayb85" d="M459.979,634.727L459.979,618.987L467.233,626.241L469.047,624.363L458.683,614L448.32,624.363L450.134,626.17L457.388,618.987L457.388,634.726Z" transform="matrix(1 0 0 1 -177.675 -253.927)" opacity="0.1" fill="rgb(108,99,255)" stroke="none" stroke-width="1"/><path id="eQE3GSC2ayb86" d="M637.979,705.727L637.979,689.987L645.233,697.241L647.047,695.363L636.683,685L626.32,695.363L628.134,697.17L635.388,689.987L635.388,705.726Z" transform="matrix(1 0 0 1 -240.383 -278.94)" opacity="0.1" fill="rgb(108,99,255)" stroke="none" stroke-width="1"/></svg>