<svg xmlns="http://www.w3.org/2000/svg" width="121.757" height="98.736" viewBox="0 0 121.757 98.736">
  <g id="Group_2" data-name="Group 2" transform="translate(-885.243 -341.22)">
    <rect id="Rectangle_1" data-name="Rectangle 1" width="72" height="11" rx="5.5" transform="translate(887 397)" fill="#fff"/>
    <rect id="Rectangle_2" data-name="Rectangle 2" width="72" height="11" rx="5.5" transform="translate(885.243 404.793) rotate(-62)" fill="#fff"/>
    <rect id="Rectangle_3" data-name="Rectangle 3" width="72" height="11" rx="5.5" transform="translate(916 343.088)" fill="#fff"/>
    <rect id="Rectangle_4" data-name="Rectangle 4" width="37" height="11" rx="5.5" transform="translate(946.243 404.793) rotate(-62)" fill="#fff"/>
    <g id="Rectangle_5" data-name="Rectangle 5" transform="translate(934.5 373.54)" fill="#fff" stroke="#707070" stroke-width="1">
      <rect width="37" height="11" rx="5.5" stroke="none"/>
      <rect x="0.5" y="0.5" width="36" height="10" rx="5" fill="none"/>
    </g>
    <rect id="Rectangle_6" data-name="Rectangle 6" width="37" height="11" rx="5.5" transform="translate(934.5 373.54)" fill="#fff"/>
    <g id="Group_1" data-name="Group 1" transform="translate(1 1)">
      <rect id="Rectangle_7" data-name="Rectangle 7" width="72" height="11" rx="5.5" transform="translate(905 426)" fill="#fff"/>
      <rect id="Rectangle_8" data-name="Rectangle 8" width="72" height="11" rx="5.5" transform="translate(903.243 433.793) rotate(-62)" fill="#fff"/>
      <rect id="Rectangle_9" data-name="Rectangle 9" width="72" height="11" rx="5.5" transform="translate(934 372.088)" fill="#fff"/>
      <rect id="Rectangle_10" data-name="Rectangle 10" width="37" height="11" rx="5.5" transform="translate(964.243 433.793) rotate(-62)" fill="#fff"/>
      <rect id="Rectangle_11" data-name="Rectangle 11" width="32" height="11" rx="5.5" transform="translate(957.5 402.54)" fill="#fff"/>
    </g>
  </g>
</svg>
