<svg xmlns="http://www.w3.org/2000/svg" width="327" height="327" viewBox="0 0 327 327">
  <g id="Group_6" data-name="Group 6" transform="translate(-570 725)">
    <g id="Group_5" data-name="Group 5" transform="translate(-306.156 -1028.033)">
      <rect id="Rectangle_1" data-name="Rectangle 1" width="182.031" height="27.81" rx="13.905" transform="translate(889.685 482.243)" fill="#fff"/>
      <rect id="Rectangle_2" data-name="Rectangle 2" width="182.031" height="27.81" rx="13.905" transform="translate(885.243 500.183) rotate(-62)" fill="#fff"/>
      <rect id="Rectangle_3" data-name="Rectangle 3" width="192.031" height="27.81" rx="13.905" transform="translate(963.003 343.942)" fill="#fff"/>
      <rect id="Rectangle_4" data-name="Rectangle 4" width="93.543" height="27.81" rx="13.905" transform="translate(1039.463 500.944) rotate(-62)" fill="#fff"/>
      <rect id="Rectangle_5" data-name="Rectangle 5" width="93.543" height="27.81" rx="13.905" transform="translate(1009.775 422.931)" fill="#fff"/>
      <rect id="Rectangle_6" data-name="Rectangle 6" width="93.543" height="27.81" rx="13.905" transform="translate(1009.775 422.931)" fill="#fff"/>
      <g id="Group_1" data-name="Group 1" transform="translate(926.651 416.066)">
        <rect id="Rectangle_7" data-name="Rectangle 7" width="182.031" height="27.81" rx="13.905" transform="translate(4.442 149.022)" fill="#fff"/>
        <rect id="Rectangle_8" data-name="Rectangle 8" width="189.171" height="27.81" rx="13.905" transform="translate(-3.352 167.028) rotate(-62)" fill="#fff"/>
        <rect id="Rectangle_9" data-name="Rectangle 9" width="192.031" height="27.81" rx="13.905" transform="translate(77.76 4.722)" fill="#fff"/>
        <rect id="Rectangle_10" data-name="Rectangle 10" width="93.543" height="27.81" rx="13.905" transform="translate(155.22 167.028) rotate(-62)" fill="#fff"/>
        <rect id="Rectangle_11" data-name="Rectangle 11" width="80.902" height="27.81" rx="13.905" transform="translate(137.173 88.711)" fill="#fff"/>
      </g>
    </g>
    <g id="Ellipse_1" data-name="Ellipse 1" transform="translate(570 -725)" fill="none" stroke="#fff" stroke-width="12">
      <circle cx="163.5" cy="163.5" r="163.5" stroke="none"/>
      <circle cx="163.5" cy="163.5" r="157.5" fill="none"/>
    </g>
  </g>
</svg>
