<svg id="ew8xHvrAC7X1" xmlns="http://www.w3.org/2000/svg" xmlns:xlink="http://www.w3.org/1999/xlink" viewBox="0 0 1108 731.14" shape-rendering="geometricPrecision" text-rendering="geometricPrecision"><style><![CDATA[#ew8xHvrAC7X30 {animation: ew8xHvrAC7X30__tt 2000ms linear infinite normal forwards}@keyframes ew8xHvrAC7X30__tt { 0% {transform: translate(-46px,-84.41px) translate(-10px,0px)} 50% {transform: translate(-46px,-84.41px) translate(0px,0px)} 100% {transform: translate(-46px,-84.41px) translate(10px,0px)}} #ew8xHvrAC7X67 {animation: ew8xHvrAC7X67__tt 2000ms linear infinite normal forwards}@keyframes ew8xHvrAC7X67__tt { 0% {transform: translate(-46px,-84.41px) translate(0px,5px)} 50% {transform: translate(-46px,-84.41px) translate(0px,0px)} 100% {transform: translate(-46px,-84.41px) translate(0px,-5px)}} #ew8xHvrAC7X69 {animation: ew8xHvrAC7X69__tt 2000ms linear infinite normal forwards}@keyframes ew8xHvrAC7X69__tt { 0% {transform: translate(-46px,-84.41px) translate(-5px,0px)} 50% {transform: translate(-46px,-84.41px) translate(0px,0px)} 100% {transform: translate(-46px,-84.41px) translate(5px,0px)}} #ew8xHvrAC7X70 {animation: ew8xHvrAC7X70__tt 2000ms linear infinite normal forwards}@keyframes ew8xHvrAC7X70__tt { 0% {transform: translate(-46px,-84.41px) translate(5px,1px)} 50% {transform: translate(-46px,-84.41px) translate(0px,1px)} 100% {transform: translate(-46px,-84.41px) translate(-5px,0px)}}]]></style><g id="ew8xHvrAC7X2" transform="matrix(1 0 0 1 0 -0.03978)"><ellipse id="ew8xHvrAC7X3" rx="554" ry="23.5" transform="matrix(1 0 0 1 554 707.68)" fill="rgb(63,61,86)" stroke="none" stroke-width="1"/><ellipse id="ew8xHvrAC7X4" rx="554" ry="23.5" transform="matrix(1 0 0 1 554 707.68)" opacity="0.5" fill="rgb(0,0,0)" stroke="none" stroke-width="1"/><ellipse id="ew8xHvrAC7X5" rx="554" ry="23.5" transform="matrix(1 0 0 1 554 694.68)" fill="rgb(0,0,0)" stroke="none" stroke-width="1"/><path id="ew8xHvrAC7X6" d="M131,770.73C128,765.22,131.4,758.47,135.28,753.55C139.16,748.63,143.89,743.55,143.79,737.26C143.65,728.26,134.09,722.95,126.46,718.18C120.798715,714.637405,115.575841,710.438295,110.9,705.67C108.945569,703.831801,107.327842,701.665808,106.12,699.27C104.54,695.75,104.59,691.75,104.69,687.89Q105.19,668.63,106.59,649.41" transform="matrix(1 0 0 1 -46 -84.41)" fill="none" stroke="rgb(63,61,86)" stroke-width="4" stroke-miterlimit="10"/><path id="ew8xHvrAC7X7" d="M92.11,648.7C92.329435,643.92633,94.968609,639.594315,99.11,637.21L102.25,643.42L102.16,635.9C103.657422,635.454237,105.219443,635.264901,106.78,635.34C114.49487,635.717312,120.446547,642.271564,120.080378,649.986971C119.71421,657.702378,113.16856,663.663515,105.452632,663.30849C97.736705,662.953466,91.76612,656.416433,92.11,648.7Z" transform="matrix(1 0 0 1 -46 -84.41)" fill="rgb(108,99,255)" stroke="none" stroke-width="1"/><path id="ew8xHvrAC7X8" d="M117.14,743.7C120.008676,749.409731,126.379377,752.452578,132.623441,751.095377C138.867504,749.738177,143.400296,744.325363,143.64,737.94C143.73984,736.000462,143.429768,734.061657,142.73,732.25C140.669679,726.760117,135.406391,723.135855,129.542722,723.169336C123.679052,723.202818,118.457495,726.886947,116.46,732.4L125.23,739.53L115.59,737.29C115.584593,739.520115,116.116243,741.718746,117.14,743.7Z" transform="matrix(1 0 0 1 -46 -84.41)" fill="rgb(108,99,255)" stroke="none" stroke-width="1"/><path id="ew8xHvrAC7X9" d="M124.07,716.45C131.320287,716.99849,137.783672,711.905472,138.946041,704.727979C140.108409,697.550486,135.582817,690.677845,128.53,688.91L128.6,694.7L125.42,688.41L125.42,688.41C117.674206,688.048253,111.101747,694.034206,110.74,701.78C110.378253,709.525794,116.364206,716.098253,124.11,716.46Z" transform="matrix(1 0 0 1 -46 -84.41)" fill="rgb(108,99,255)" stroke="none" stroke-width="1"/><path id="ew8xHvrAC7X10" d="M90,693.78C95.946768,694.062378,101.423039,690.557166,103.656809,685.038647C105.89058,679.520127,104.394371,673.192615,99.925542,669.258997C95.456712,665.32538,88.9905,664.644095,83.8,667.56L86.28,674.36L81.17,669.46C78.436954,671.96309,76.807912,675.44773,76.64,679.15C76.572237,680.444009,76.693512,681.740985,77,683C78.43421,689.09668,83.743201,693.499059,90,693.78Z" transform="matrix(1 0 0 1 -46 -84.41)" fill="rgb(108,99,255)" stroke="none" stroke-width="1"/><path id="ew8xHvrAC7X11" d="M94,652.44C97.24,652.8,100.39,653.81,103.64,654.01C106.89,654.21,110.46,653.43,112.52,650.91C113.63,649.54,114.18,647.82,115.11,646.34C116.000739,644.957887,117.216062,643.814658,118.65,643.01C120.960215,647.839131,120.314357,653.562905,116.986115,657.755804C113.657872,661.948703,108.229985,663.876596,103.002587,662.722514C97.775189,661.568433,93.663539,657.534444,92.41,652.33C92.94,652.35,93.47,652.39,94,652.44Z" transform="matrix(1 0 0 1 -46 -84.41)" opacity="0.1" fill="rgb(0,0,0)" stroke="none" stroke-width="1"/><path id="ew8xHvrAC7X12" d="M90,693.78C94.924004,694.02984,99.616436,691.671217,102.35366,687.570506C105.090885,683.469795,105.469336,678.231589,103.35,673.78C102.23594,674.532221,101.278273,675.493284,100.53,676.61C99.53,678.12,98.92,679.86,97.75,681.25C95.56,683.82,91.83,684.66,88.44,684.5C85.05,684.34,81.78,683.39,78.44,683.08C77.97,683.08,77.5,683,77.03,682.99C78.457292,689.080337,83.751623,693.484795,90,693.78Z" transform="matrix(1 0 0 1 -46 -84.41)" opacity="0.1" fill="rgb(0,0,0)" stroke="none" stroke-width="1"/><path id="ew8xHvrAC7X13" d="M124.07,716.45C128.948394,716.700573,133.604653,714.390292,136.356074,710.354057C139.107495,706.317822,139.556187,701.139326,137.54,696.69C136.373953,697.448325,135.357087,698.414348,134.54,699.54C133.45,701.08,132.77,702.85,131.54,704.27C129.18,706.91,125.2,707.84,121.61,707.75C118.02,707.66,114.79,706.82,111.33,706.56C113.060458,712.217346,118.160251,716.17629,124.07,716.45Z" transform="matrix(1 0 0 1 -46 -84.41)" opacity="0.1" fill="rgb(0,0,0)" stroke="none" stroke-width="1"/><path id="ew8xHvrAC7X14" d="M117.14,743.7C120.008676,749.409731,126.379377,752.452578,132.623441,751.095377C138.867504,749.738177,143.400296,744.325363,143.64,737.94C143.73984,736.000462,143.429768,734.061657,142.73,732.25C141.573753,733.006348,140.535837,733.929688,139.65,734.99C138.31,736.62,137.44,738.46,135.89,739.99C133.02,742.81,128.39,743.99,124.27,744.08C121.888026,744.089607,119.507459,743.962732,117.14,743.7Z" transform="matrix(1 0 0 1 -46 -84.41)" opacity="0.1" fill="rgb(0,0,0)" stroke="none" stroke-width="1"/><path id="ew8xHvrAC7X15" d="M152.19,764.39C152.19,764.39,141.11,764.05,137.78,761.67C134.45,759.29,120.78,756.45,119.91,760.27C119.04,764.09,103.26,779.27,115.77,779.33C128.28,779.39,144.83,777.33,148.16,775.33C151.49,773.33,152.19,764.39,152.19,764.39Z" transform="matrix(1 0 0 1 -46 -84.41)" fill="rgb(101,99,128)" stroke="none" stroke-width="1"/><path id="ew8xHvrAC7X16" d="M115.54,778C128.05,778.1,144.6,776,147.94,774C150.47,772.46,151.48,766.91,151.82,764.35L152.19,764.35C152.19,764.35,151.49,773.28,148.19,775.35C144.89,777.42,128.3,779.43,115.8,779.35C112.19,779.35,110.94,778.04,111.01,776.13C111.48,777.26,112.86,778,115.54,778Z" transform="matrix(1 0 0 1 -46 -84.41)" opacity="0.2" fill="rgb(0,0,0)" stroke="none" stroke-width="1"/><path id="ew8xHvrAC7X17" d="M1101,779.73C1098,774.22,1101.4,767.47,1105.28,762.55C1109.16,757.63,1113.89,752.55,1113.79,746.26C1113.65,737.26,1104.09,731.95,1096.46,727.18C1090.798731,723.637382,1085.57586,719.438274,1080.9,714.67C1078.945569,712.831801,1077.327842,710.665808,1076.12,708.27C1074.54,704.75,1074.59,700.75,1074.69,696.89Q1075.18,677.63,1076.59,658.41" transform="matrix(1 0 0 1 -46 -84.41)" fill="none" stroke="rgb(63,61,86)" stroke-width="4" stroke-miterlimit="10"/><path id="ew8xHvrAC7X18" d="M1062.11,657.7C1062.329435,652.92633,1064.968609,648.594315,1069.11,646.21L1072.25,652.42L1072.16,644.9C1073.65743,644.454274,1075.219444,644.264939,1076.78,644.34C1084.493236,644.722749,1090.439774,651.279095,1090.070091,658.992968C1089.700408,666.706842,1083.154144,672.664477,1075.439655,672.307861C1067.725167,671.951244,1061.756452,665.415082,1062.1,657.7Z" transform="matrix(1 0 0 1 -46 -84.41)" fill="rgb(108,99,255)" stroke="none" stroke-width="1"/><path id="ew8xHvrAC7X19" d="M1087.14,752.7C1090.008676,758.409731,1096.379377,761.452578,1102.623441,760.095377C1108.867504,758.738177,1113.400296,753.325363,1113.64,746.94C1113.73981,745.000463,1113.429739,743.061665,1112.73,741.25C1110.669679,735.760117,1105.406391,732.135855,1099.542722,732.169336C1093.679052,732.202818,1088.457495,735.886947,1086.46,741.4L1095.23,748.53L1085.59,746.29C1085.584515,748.520125,1086.116169,750.718774,1087.14,752.7Z" transform="matrix(1 0 0 1 -46 -84.41)" fill="rgb(108,99,255)" stroke="none" stroke-width="1"/><path id="ew8xHvrAC7X20" d="M1094.07,725.45C1101.320287,725.99849,1107.783672,720.905472,1108.946041,713.727979C1110.108409,706.550486,1105.582817,699.677845,1098.53,697.91L1098.6,703.7L1095.42,697.41L1095.42,697.41C1087.674206,697.048253,1081.101747,703.034206,1080.74,710.78C1080.378253,718.525794,1086.364206,725.098253,1094.11,725.46Z" transform="matrix(1 0 0 1 -46 -84.41)" fill="rgb(108,99,255)" stroke="none" stroke-width="1"/><path id="ew8xHvrAC7X21" d="M1060,702.78C1065.946768,703.062378,1071.423039,699.557166,1073.656809,694.038647C1075.89058,688.520127,1074.394371,682.192615,1069.925542,678.258997C1065.456712,674.32538,1058.9905,673.644095,1053.8,676.56L1056.28,683.36L1051.17,678.46C1048.436954,680.96309,1046.807912,684.44773,1046.64,688.15C1046.572222,689.44401,1046.693498,690.740988,1047,692C1048.43421,698.09668,1053.743201,702.499059,1060,702.78Z" transform="matrix(1 0 0 1 -46 -84.41)" fill="rgb(108,99,255)" stroke="none" stroke-width="1"/><path id="ew8xHvrAC7X22" d="M1064,661.44C1067.24,661.8,1070.39,662.81,1073.64,663.01C1076.89,663.21,1080.46,662.43,1082.52,659.91C1083.63,658.54,1084.18,656.82,1085.11,655.34C1086.000739,653.957887,1087.216062,652.814658,1088.65,652.01C1090.960215,656.839131,1090.314357,662.562905,1086.986115,666.755804C1083.657872,670.948703,1078.229985,672.876596,1073.002587,671.722514C1067.775189,670.568433,1063.663539,666.534444,1062.41,661.33C1062.94,661.35,1063.47,661.39,1064,661.44Z" transform="matrix(1 0 0 1 -46 -84.41)" opacity="0.1" fill="rgb(0,0,0)" stroke="none" stroke-width="1"/><path id="ew8xHvrAC7X23" d="M1060,702.78C1064.924004,703.02984,1069.616436,700.671217,1072.35366,696.570506C1075.090885,692.469795,1075.469336,687.231589,1073.35,682.78C1072.23594,683.532221,1071.278273,684.493284,1070.53,685.61C1069.53,687.12,1068.92,688.86,1067.75,690.25C1065.56,692.82,1061.83,693.66,1058.44,693.5C1055.05,693.34,1051.78,692.39,1048.44,692.08C1047.97,692.08,1047.5,692,1047.03,691.99C1048.457292,698.080337,1053.751623,702.484795,1060,702.78Z" transform="matrix(1 0 0 1 -46 -84.41)" opacity="0.1" fill="rgb(0,0,0)" stroke="none" stroke-width="1"/><path id="ew8xHvrAC7X24" d="M1094.07,725.45C1098.948394,725.700573,1103.604653,723.390292,1106.356074,719.354057C1109.107495,715.317822,1109.556187,710.139326,1107.54,705.69C1106.373925,706.44829,1105.357053,707.414318,1104.54,708.54C1103.45,710.08,1102.77,711.85,1101.54,713.27C1099.18,715.91,1095.2,716.84,1091.61,716.75C1088.02,716.66,1084.79,715.82,1081.33,715.56C1083.060458,721.217346,1088.160251,725.17629,1094.07,725.45Z" transform="matrix(1 0 0 1 -46 -84.41)" opacity="0.1" fill="rgb(0,0,0)" stroke="none" stroke-width="1"/><path id="ew8xHvrAC7X25" d="M1087.14,752.7C1090.008676,758.409731,1096.379377,761.452578,1102.623441,760.095377C1108.867504,758.738177,1113.400296,753.325363,1113.64,746.94C1113.73981,745.000463,1113.429739,743.061665,1112.73,741.25C1111.573753,742.006348,1110.535837,742.929688,1109.65,743.99C1108.31,745.62,1107.44,747.46,1105.89,748.99C1103.02,751.81,1098.39,752.99,1094.27,753.08C1091.888026,753.089607,1089.507459,752.962732,1087.14,752.7Z" transform="matrix(1 0 0 1 -46 -84.41)" opacity="0.1" fill="rgb(0,0,0)" stroke="none" stroke-width="1"/><path id="ew8xHvrAC7X26" d="M1122.19,773.39C1122.19,773.39,1111.11,773.05,1107.78,770.67C1104.45,768.29,1090.78,765.45,1089.91,769.27C1089.04,773.09,1073.26,788.27,1085.77,788.33C1098.28,788.39,1114.83,786.33,1118.16,784.33C1121.49,782.33,1122.19,773.39,1122.19,773.39Z" transform="matrix(1 0 0 1 -46 -84.41)" fill="rgb(101,99,128)" stroke="none" stroke-width="1"/><path id="ew8xHvrAC7X27" d="M1085.54,787C1098.05,787.1,1114.6,785,1117.94,783C1120.47,781.46,1121.48,775.91,1121.82,773.35L1122.19,773.35C1122.19,773.35,1121.49,782.28,1118.19,784.35C1114.89,786.42,1098.3,788.43,1085.8,788.35C1082.19,788.35,1080.94,787.04,1081.01,785.13C1081.48,786.26,1082.86,787,1085.54,787Z" transform="matrix(1 0 0 1 -46 -84.41)" opacity="0.2" fill="rgb(0,0,0)" stroke="none" stroke-width="1"/><path id="ew8xHvrAC7X28" d="M791.57,415.56Q781.65,412.16,771.57,409.26Q773.23,402.47,774.66,395.61C789.8,322.1,779.9,262.88,746.09,243.39C713.67,224.69,660.65,244.19,607.09,290.78Q599.17,297.7,591.62,304.98Q586.55,300.13,581.32,295.47C525.21,245.64,469,224.65,435.18,244.2C402.79,262.95,393.18,318.62,406.83,388.29Q408.83,398.64,411.42,408.87C403.47,411.13,395.78,413.54,388.42,416.11C322.63,439,280.61,475,280.61,512.29C280.61,550.8,325.72,589.43,394.25,612.85Q402.59,615.68,411.05,618.11Q408.31,629.11,406.17,640.29C393.17,708.75,403.33,763.11,435.63,781.74C469,801,525,781.2,579.52,733.54C583.83,729.77,588.15,725.77,592.52,721.59Q600.7,729.48,609.31,736.91C662.13,782.36,714.31,800.72,746.57,782.03C779.9,762.74,790.73,704.34,776.67,633.3Q775.07,625.16,772.94,616.69Q778.85,614.95,784.5,613.08C855.74,589.48,902.1,551.32,902.1,512.29C902.1,474.86,858.72,438.67,791.6,415.56Z" transform="matrix(1 0 0 1 -46 -84.41)" fill="rgb(0,29,255)" stroke="none" stroke-width="1"/><path id="ew8xHvrAC7X29" d="M776.12,587.88C772.72,589.01,769.24,590.09,765.68,591.15C756.994078,564.221013,746.479626,537.916507,734.21,512.42C746.012004,487.263475,756.117899,461.345611,764.46,434.84C770.81,436.68,776.99,438.62,782.93,440.67C840.44,460.46,875.52,489.73,875.52,512.29C875.52,536.29,837.63,567.5,776.12,587.88ZM750.6,638.46C756.82,669.87,757.7,698.27,753.6,720.46C749.9,740.41,742.46,753.71,733.26,759.04C713.67,770.37,671.79,755.64,626.62,716.77Q618.85,710.08,610.99,702.52C629.821894,681.67063,647.224793,659.573725,663.08,636.38C691.401409,633.980503,719.524369,629.636931,747.25,623.38Q749.15,631.06,750.62,638.38ZM492.48,757.1C473.34,763.86,458.1,764.05,448.89,758.74C429.29,747.43,421.14,703.74,432.26,645.24Q434.26,634.87,436.79,624.61C464.400995,630.538381,492.381618,634.590977,520.54,636.74C536.858972,659.85281,554.680788,681.867012,573.89,702.64Q568.1,708.25,562.05,713.55C537.94,734.63,513.77,749.55,492.48,757.1ZM402.84,587.73C372.53,577.37,347.51,563.91,330.35,549.23C314.94,536.03,307.16,522.92,307.16,512.29C307.16,489.66,340.9,460.79,397.16,441.18Q407.76,437.49,418.55,434.45C426.906584,461.248772,437.025305,487.465914,448.84,512.93C436.878215,538.759192,426.635912,565.35043,418.18,592.53Q410.44,590.32,402.84,587.73ZM432.89,383.19C421.21,323.5,428.96,278.47,448.48,267.19C469.27,255.19,515.24,272.31,563.7,315.34C566.8,318.09,569.91,320.97,573.02,323.94C553.948085,344.586266,536.265976,366.474265,520.09,389.46C492.197316,391.96131,464.495973,396.266993,437.16,402.35Q434.77,392.83,432.89,383.2ZM701,449.38Q691.89,433.64,682.11,418.3C701.94,420.81,720.93,424.13,738.77,428.21C733.04507,446.370141,726.406614,464.229556,718.88,481.72Q710.27,465.37,701,449.38ZM591.64,342.91C604.563456,356.999923,616.768924,371.731925,628.21,387.05Q591.5,385.32,554.76,387.05C566.83,371.13,579.2,356.33,591.64,342.92ZM481.64,449.56Q472.49,465.43,464.09,481.7C456.36,463.37,449.75,445.34,444.35,427.93C462.08,423.93,480.99,420.72,500.69,418.25Q490.77,433.69,481.62,449.56ZM501.25,608.21C482.021513,606.122617,462.912986,603.048564,444,599C449.49,581.29,456.25,562.87,464.15,544.14Q472.58,560.43,481.76,576.3Q491.1,592.49,501.23,608.21ZM592.39,683.54C579.171517,669.270866,566.691866,654.334669,555,638.79Q572.85,639.5,591.36,639.5Q610.36,639.5,628.87,638.66C617.479179,654.234611,605.296487,669.214316,592.37,683.54ZM719.08,543.19C726.996575,561.034857,733.979347,579.279518,740,597.85C720.852846,602.158292,701.492927,605.459492,682,607.74Q691.85,592.11,701.08,576.11Q710.46,559.85,719.08,543.19ZM678.08,562.85Q663.96,587.37,648.27,610.95C629.83,612.27,610.78,612.95,591.36,612.95C571.94,612.95,553.21,612.35,535.09,611.17Q519,587.67,504.7,563Q490.4,538.33,478.19,512.92Q490.46,487.39,504.62,462.82L504.62,462.82Q518.76,438.26,534.75,414.82C553.24,413.42,572.18,412.69,591.34,412.69C610.5,412.69,629.56,413.43,648.03,414.83Q663.84,438.2,678.03,462.64Q692.22,487.08,704.82,512.51Q692.37,538.13,678.11,562.81ZM732.85,266.39C753.66,278.39,761.75,326.79,748.68,390.26Q747.39,396.45,745.88,402.61C718.503591,396.403686,690.746173,392.017419,662.79,389.48C646.769808,366.473548,629.220193,344.570774,610.26,323.92Q617.26,317.18,624.55,310.81C670.43,270.88,713.31,255.12,732.85,266.39Z" transform="matrix(1 0 0 1 -46 -84.41)" fill="rgb(0,0,0)" stroke="none" stroke-width="1"/><path id="ew8xHvrAC7X30" d="M591.34,456.79C560.965315,456.792761,536.343619,481.417815,536.345,511.7925C536.346381,542.167185,560.970315,566.79,591.345,566.79C621.719685,566.79,646.343619,542.167185,646.345,511.7925C646.346381,481.417815,621.724685,456.792761,591.35,456.79" transform="translate(-46,-84.41) translate(-10,0)" fill="rgb(0,0,255)" stroke="none" stroke-width="1"/><path id="ew8xHvrAC7X31" d="M605.26,104.81C605.221397,112.683613,599.631378,119.435735,591.903353,120.943348C584.175328,122.45096,576.457322,118.295016,573.46215,111.013244C570.466978,103.731471,573.027155,95.347858,579.579372,90.981656C586.131589,86.615453,594.854638,87.480259,600.422,93.048C603.532189,96.170924,605.272754,100.402532,605.26,104.81Z" transform="matrix(1 0 0 1 -46 -84.41)" fill="rgb(63,61,86)" stroke="none" stroke-width="1"/><path id="ew8xHvrAC7X32" d="M575.4,109C572.728128,104.171687,572.626983,98.332061,575.130045,93.414116C577.633106,88.496171,582.41393,85.141296,587.89,84.46C581.655251,84.241658,575.824505,87.537403,572.796088,92.991618C569.76767,98.445832,570.052981,105.137479,573.534665,110.314123C577.016348,115.490767,583.106464,118.278245,589.3,117.53C583.493048,117.315533,578.220984,114.08023,575.4,109Z" transform="matrix(1 0 0 1 -46 -84.41)" fill="rgb(63,61,86)" stroke="none" stroke-width="1"/><rect id="ew8xHvrAC7X33" width="44.47" height="69.37" rx="0" ry="0" transform="matrix(1 0 0 1 521.91 43.52)" fill="rgb(63,61,86)" stroke="none" stroke-width="1"/><rect id="ew8xHvrAC7X34" width="44.47" height="69.37" rx="0" ry="0" transform="matrix(1 0 0 1 521.91 43.52)" opacity="0.1" fill="rgb(0,0,0)" stroke="none" stroke-width="1"/><path id="ew8xHvrAC7X35" d="M497.66,379.61C497.66,379.61,492.91,392.66,481.66,394.44C470.41,396.22,463.87,399.18,463.87,399.18L490.55,416.37L504.78,414.59C504.78,414.59,506.56,396.21,512.49,392.06C518.42,387.91,497.66,379.61,497.66,379.61Z" transform="matrix(1 0 0 1 -46 -84.41)" fill="rgb(160,97,106)" stroke="none" stroke-width="1"/><path id="ew8xHvrAC7X36" d="M690.34,379.61C690.34,379.61,695.09,392.66,706.34,394.44C717.59,396.22,724.13,399.18,724.13,399.18L697.45,416.37L683.22,414.59C683.22,414.59,681.44,396.21,675.51,392.06C669.58,387.91,690.34,379.61,690.34,379.61Z" transform="matrix(1 0 0 1 -46 -84.41)" fill="rgb(160,97,106)" stroke="none" stroke-width="1"/><path id="ew8xHvrAC7X37" d="M560.5,264.59C560.5,264.59,553.39,268.15,551.02,275.27C551.02,275.27,538.02,279.42,530.86,290.68C530.86,290.68,521.96,300.17,520.78,304.91C519.6,309.65,506,338.11,506,338.11C506,338.11,492.36,382.58,485.25,387.32C485.25,387.32,507.78,382.58,511.93,405.11C511.93,405.11,517.26,405.11,523.19,384.36C529.12,363.61,543.35,338.11,543.35,338.11C543.35,338.11,548.09,320.33,552.24,317.36C556.39,314.39,562.91,300.76,568.84,304.36C574.77,307.96,613.9,303.76,613.9,303.76C613.9,303.76,637,314.4,637.58,321.51C638.16,328.62,642.32,329.22,642.91,335.15C643.5,341.08,665.44,387.91,665.44,387.91C665.44,387.91,669.59,400.91,670.78,403.91C670.78,403.91,683.78,372.49,701.02,390.28C701.02,390.28,700.42,378.42,695.09,371.28C689.76,364.14,666.63,308.44,666.63,308.44C666.63,308.44,664.26,300.14,661.89,297.77C659.52,295.4,641.13,276.42,634.61,276.42C634.61,276.42,631.06,267.53,626.91,266.34Z" transform="matrix(1 0 0 1 -46 -84.41)" fill="rgb(255,255,255)" stroke="none" stroke-width="1"/><path id="ew8xHvrAC7X38" d="M507.14,410.44C497.720689,414.221749,487.007744,412.78298,478.92,406.65C475.056407,403.682859,470.824478,401.229079,466.33,399.35C460.04,396.81,452.52,394.93,450.23,399.18C446.08,406.89,500.62,425.86,500.62,425.86C500.62,425.86,507.74,421.71,507.14,410.44Z" transform="matrix(1 0 0 1 -46 -84.41)" fill="rgb(246,245,255)" stroke="none" stroke-width="1"/><path id="ew8xHvrAC7X39" d="M680.86,410.44C690.279311,414.221749,700.992256,412.78298,709.08,406.65C712.943611,403.682887,717.175537,401.22911,721.67,399.35C727.96,396.81,735.48,394.93,737.77,399.18C741.92,406.89,687.38,425.86,687.38,425.86C687.38,425.86,680.26,421.71,680.86,410.44Z" transform="matrix(1 0 0 1 -46 -84.41)" fill="rgb(255,255,255)" stroke="none" stroke-width="1"/><path id="ew8xHvrAC7X40" d="M579.88,167.08C579.66,169.14,578.98,171.37,577.22,172.46C575.78,173.36,573.96,173.29,572.3,173.63C568.765266,174.515094,565.862121,177.02843,564.48,180.4C563.148493,183.755285,562.88654,187.440097,563.73,190.95C564.122323,192.668923,564.630142,194.359427,565.25,196.01C566.99,200.93,569.09,205.81,572.34,209.9C575.113233,213.151519,578.23153,216.092107,581.64,218.67C583.75,220.39,585.93,222.14,588.53,222.95C590.292709,223.415379,592.106937,223.657276,593.93,223.67C596.18,223.77,598.58,223.84,600.53,222.72C603.53,220.99,604.42,217.17,606.05,214.1C607.43,211.5,609.49,209.29,610.78,206.64C611.696588,204.551332,612.367742,202.36337,612.78,200.12L615.55,187.82C616.55,183.35,617.47,178.31,614.96,174.48C614.777801,174.168346,614.524171,173.904434,614.22,173.71C613.73715,173.519586,613.210756,173.46764,612.7,173.56C609.511709,173.76726,606.332112,173.040991,603.55,171.47C603.113794,171.244499,602.723724,170.939228,602.4,170.57C602.000456,169.929496,601.760405,169.202484,601.7,168.45C601.429618,166.926104,601.000618,165.43466,600.42,164C600.256454,163.482905,599.955792,163.019816,599.55,162.66C599.124217,162.393108,598.640761,162.231956,598.14,162.19C593.859053,161.495428,589.542093,161.044701,585.21,160.84C583.79,160.77,581.65,160.2,580.67,161.46C579.69,162.72,580,165.58,579.88,167.08Z" transform="matrix(1 0 0 1 -46 -84.41)" fill="rgb(160,97,106)" stroke="none" stroke-width="1"/><path id="ew8xHvrAC7X41" d="M579.88,167.08C579.66,169.14,578.98,171.37,577.22,172.46C575.78,173.36,573.96,173.29,572.3,173.63C568.765266,174.515094,565.862121,177.02843,564.48,180.4C563.148493,183.755285,562.88654,187.440097,563.73,190.95C564.122323,192.668923,564.630142,194.359427,565.25,196.01C566.99,200.93,569.09,205.81,572.34,209.9C575.113233,213.151519,578.23153,216.092107,581.64,218.67C583.75,220.39,585.93,222.14,588.53,222.95C590.292709,223.415379,592.106937,223.657276,593.93,223.67C596.18,223.77,598.58,223.84,600.53,222.72C603.53,220.99,604.42,217.17,606.05,214.1C607.43,211.5,609.49,209.29,610.78,206.64C611.696588,204.551332,612.367742,202.36337,612.78,200.12L615.55,187.82C616.55,183.35,617.47,178.31,614.96,174.48C614.777801,174.168346,614.524171,173.904434,614.22,173.71C613.73715,173.519586,613.210756,173.46764,612.7,173.56C609.511709,173.76726,606.332112,173.040991,603.55,171.47C603.113794,171.244499,602.723724,170.939228,602.4,170.57C602.000456,169.929496,601.760405,169.202484,601.7,168.45C601.429618,166.926104,601.000618,165.43466,600.42,164C600.256454,163.482905,599.955792,163.019816,599.55,162.66C599.124217,162.393108,598.640761,162.231956,598.14,162.19C593.859053,161.495428,589.542093,161.044701,585.21,160.84C583.79,160.77,581.65,160.2,580.67,161.46C579.69,162.72,580,165.58,579.88,167.08Z" transform="matrix(1 0 0 1 -46 -84.41)" opacity="0.1" fill="rgb(0,0,0)" stroke="none" stroke-width="1"/><path id="ew8xHvrAC7X42" d="M571.85,174.15C569.534354,173.458433,567.136155,173.081718,564.72,173.03C559,172.89,552.88,174.86,549.58,179.53C547.331823,182.900861,546.508579,187.024275,547.29,191C548.086344,194.938489,549.87635,198.608002,552.49,201.66C554.000171,203.264304,555.340615,205.020286,556.49,206.9C558.07,209.9,558.12,213.49,558.55,216.9C559.55,225.02,563.01,232.65,564.38,240.72C565.75,248.79,564.57,258.14,558.2,263.27C557.13,264.13,555.83,265.04,555.74,266.41C555.6,268.6,558.45,269.53,560.64,269.74C567.19,270.36,573.91,270.97,580.27,269.28C582.9,268.58,585.44,267.49,588.12,266.99C594.92,265.72,601.76,268.33,608.57,269.58C613.498153,270.393609,618.485144,270.798321,623.48,270.79C624.642511,270.893921,625.813637,270.740275,626.91,270.34C628.024627,269.902831,628.728312,268.794729,628.65,267.6C628.427808,266.846142,628.022411,266.159029,627.47,265.6C624.03,261.35,622.98,255.7,622.04,250.31L618.89,232.2C617.2,222.52,615.63,212,620.21,203.31C623.5,197.06,629.57,192.66,633.04,186.51C634.249604,184.651151,634.795796,182.438191,634.59,180.23C634.07,177.14,631.28,174.93,628.42,173.64C622.917044,171.171412,616.669265,170.941873,611,173C611.1,177.33,610,181.71,609.29,186L608.08,193C607.464192,197.125244,606.558619,201.201996,605.37,205.2C604.93835,206.79944,604.201491,208.300323,603.2,209.62C602.132218,210.807303,600.827524,211.757719,599.37,212.41C596.213555,213.953303,592.743492,214.747242,589.23,214.73C587.708502,214.753393,586.193947,214.520124,584.75,214.04C582.423936,213.020253,580.325926,211.544506,578.58,209.7C577.968156,209.176978,577.42095,208.582772,576.95,207.93C576.451694,207.098933,576.07773,206.199396,575.84,205.26C575.030248,202.814092,574.392034,200.314697,573.93,197.78C573.63,195.84,573.53,193.87,573.39,191.91C573,186.12,573,179.72,571.85,174.15Z" transform="matrix(1 0 0 1 -46 -84.41)" fill="rgb(83,0,180)" stroke="none" stroke-width="1"/><path id="ew8xHvrAC7X43" d="M565.84,288.9C565.84,288.9,563.47,320.33,578.29,325.66C593.11,330.99,580.07,299.57,580.07,299.57L575.32,290.09Z" transform="matrix(1 0 0 1 -46 -84.41)" fill="rgb(160,97,106)" stroke="none" stroke-width="1"/><path id="ew8xHvrAC7X44" d="M616.23,288.9C616.23,288.9,618.6,320.33,603.78,325.66C588.96,330.99,602,299.57,602,299.57L606.75,290.09Z" transform="matrix(1 0 0 1 -46 -84.41)" fill="rgb(160,97,106)" stroke="none" stroke-width="1"/><path id="ew8xHvrAC7X45" d="M552.79,184L548.05,191.71C548.05,191.71,552.2,218.39,552.79,223.13C553.301724,226.550322,554.097817,229.922008,555.17,233.21C556.242183,236.497992,555.76,247.44,555.76,252.78C555.76,258.12,558.76,267.01,558.76,267.01C559.178452,272.050115,560.1853,277.023944,561.76,281.83C564.13,288.35,566.5,296.06,566.5,296.06C566.5,296.06,569.5,287.76,581.32,300.21C584.074953,297.414715,584.074953,292.925285,581.32,290.13C578.565047,287.334715,577.77,274.13,577.77,265.82C577.77,257.51,571.24,217.82,571.24,217.82C571.24,217.82,567,172.7,552.79,184Z" transform="matrix(1 0 0 1 -46 -84.41)" opacity="0.1" fill="rgb(0,0,0)" stroke="none" stroke-width="1"/><path id="ew8xHvrAC7X46" d="M551.61,183.37L546.87,191.08C546.87,191.08,551.02,217.76,551.61,222.5C552.123312,225.920937,552.922783,229.292767,554,232.58C555.077217,235.867233,554.59,246.81,554.59,252.14C554.59,257.47,557.59,266.37,557.59,266.37C558.005768,271.410496,559.012679,276.384636,560.59,281.19C562.96,287.72,565.34,295.42,565.34,295.42C565.34,295.42,568.34,287.12,580.16,299.57C582.908389,296.775918,582.908389,292.294082,580.16,289.5C577.411611,286.705918,576.6,273.5,576.6,265.19C576.6,256.88,570.08,217.19,570.08,217.19C570.08,217.19,565.84,172.1,551.61,183.37Z" transform="matrix(1 0 0 1 -46 -84.41)" fill="rgb(83,0,180)" stroke="none" stroke-width="1"/><path id="ew8xHvrAC7X47" d="M629.87,179.22L632.87,182.75C632.87,182.75,636.36,202.93,628.65,228.43L626.28,251.55C626.28,251.55,622.13,271.12,621.54,275.86C620.95,280.6,620.95,281.19,619.76,282.97C619.013796,283.830795,619.013796,285.109205,619.76,285.97L616.2,298.97C616.2,298.97,610.87,292.45,600.2,300.75C600.2,300.75,597.2,296.01,599.6,291.86C602,287.71,601.97,285.93,601.38,284.74C600.79,283.55,603.75,277.63,603.75,276.44C603.75,275.25,607.93,248,607.93,248C607.93,248,609.71,221.32,611.49,212.43C612.58,206.96,612.56,194.77,612.37,186.19C612.18,177.25,623,172.41,629.37,178.69C629.546264,178.857359,629.713183,179.034294,629.87,179.22Z" transform="matrix(1 0 0 1 -46 -84.41)" opacity="0.1" fill="rgb(0,0,0)" stroke="none" stroke-width="1"/><path id="ew8xHvrAC7X48" d="M631.65,178L634.65,181.53C634.65,181.53,638.14,201.72,630.43,227.21L628.06,250.33C628.06,250.33,623.91,269.9,623.32,274.64C622.73,279.38,622.72,279.98,621.54,281.76C620.789454,282.61917,620.789454,283.90083,621.54,284.76L618,297.8C618,297.8,612.67,291.27,602,299.57C602,299.57,599,294.83,601.41,290.68C603.82,286.53,603.78,284.75,603.19,283.57C602.6,282.39,605.56,276.45,605.56,275.27C605.56,274.09,609.71,246.81,609.71,246.81C609.71,246.81,611.49,220.13,613.27,211.23C615.05,202.33,613.86,175.66,613.86,175.66C613.86,175.66,623.35,169.14,631.65,178Z" transform="matrix(1 0 0 1 -46 -84.41)" fill="rgb(83,0,180)" stroke="none" stroke-width="1"/><circle id="ew8xHvrAC7X49" r="23.72" transform="matrix(1 0 0 1 545.92 61.61)" fill="rgb(160,97,106)" stroke="none" stroke-width="1"/><path id="ew8xHvrAC7X50" d="M604.29,110.41C601.954965,116.927605,595.820127,121.311621,588.897558,121.409593C581.974989,121.507564,575.718543,117.298915,573.2,110.85C582.46,107.12,591.92,110.44,591.92,110.44C596.65,108.78,600.75,108.93,604.29,110.41Z" transform="matrix(1 0 0 1 -46 -84.41)" opacity="0.1" fill="rgb(0,0,0)" stroke="none" stroke-width="1"/><path id="ew8xHvrAC7X51" d="M591.92,111.63C591.92,111.63,546.27,95.63,557.54,173.29C557.54,173.29,567.62,179.81,575.32,175.66C575.32,175.66,569.99,121.71,590.74,124.08C611.49,126.45,607.93,174.48,607.93,174.48C607.93,174.48,619.79,178.03,623.35,171.48C626.91,164.93,622.16,101,591.92,111.63Z" transform="matrix(1 0 0 1 -46 -84.41)" fill="rgb(63,61,86)" stroke="none" stroke-width="1"/><path id="ew8xHvrAC7X52" d="M590.74,120.52C576.5,118.9,574.54,143.79,574.74,159.57C574.91,143.88,577.55,122.57,590.74,124.08C605.55,125.77,607.98,150.74,608.15,164.88C608.32,151.9,606.9,122.37,590.74,120.52Z" transform="matrix(1 0 0 1 -46 -84.41)" opacity="0.1" fill="rgb(0,0,0)" stroke="none" stroke-width="1"/><path id="ew8xHvrAC7X53" d="M557.54,169.73C556.507775,162.932011,555.916539,156.074349,555.77,149.2C555.720519,157.264223,556.312384,165.319611,557.54,173.29C558.767616,181.260389,567.62,179.81,575.32,175.66C575.32,175.66,575.2,174.38,575.06,172.23C567.39,176.1,557.54,169.73,557.54,169.73Z" transform="matrix(1 0 0 1 -46 -84.41)" opacity="0.1" fill="rgb(0,0,0)" stroke="none" stroke-width="1"/><path id="ew8xHvrAC7X54" d="M623.35,168C620.03,174.08,609.52,171.41,608.1,171C608.03,173.2,607.93,174.52,607.93,174.52C607.93,174.52,619.79,178.07,623.35,171.52C624.08,170.18,624.46,166.39,624.35,161.32C624.25,164.57,623.9,167,623.35,168Z" transform="matrix(1 0 0 1 -46 -84.41)" opacity="0.1" fill="rgb(0,0,0)" stroke="none" stroke-width="1"/><path id="ew8xHvrAC7X55" d="M872.73,757.37C877.47,748.59,872.09,737.83,865.91,730C859.73,722.17,852.18,714,852.34,704C852.57,689.65,867.79,681.19,879.96,673.58C888.981048,667.938474,897.302318,661.248562,904.75,653.65C907.75,650.6,910.62,647.34,912.37,643.44C914.89,637.84,914.82,631.44,914.66,625.32Q913.87,594.61,911.66,563.98" transform="matrix(1 0 0 1 -46 -84.41)" fill="none" stroke="rgb(63,61,86)" stroke-width="4" stroke-miterlimit="10"/><path id="ew8xHvrAC7X56" d="M934.74,562.9C934.39256,555.288242,930.184391,548.380209,923.58,544.58L918.58,554.48L918.73,542.48C909.397257,539.719141,899.350355,543.3093,893.880865,551.359586C888.411375,559.409873,888.774522,570.072781,894.779042,577.732297C900.783562,585.391812,911.051442,588.290109,920.174725,584.900691C929.298007,581.511274,935.182938,572.612,934.73,562.89Z" transform="matrix(1 0 0 1 -46 -84.41)" fill="rgb(108,99,255)" stroke="none" stroke-width="1"/><path id="ew8xHvrAC7X57" d="M894.86,714.29C890.02459,723.693126,879.263626,728.423862,869.065984,725.629567C858.868343,722.835273,852.021975,713.279884,852.655249,702.725315C853.288523,692.170746,861.228308,683.502526,871.686902,681.947606C882.145496,680.392685,892.263607,686.376166,895.94,696.29L881.94,707.66L897.31,704.09C897.317991,707.636677,896.477978,711.133875,894.86,714.29Z" transform="matrix(1 0 0 1 -46 -84.41)" fill="rgb(108,99,255)" stroke="none" stroke-width="1"/><path id="ew8xHvrAC7X58" d="M883.81,670.86C872.483486,671.340016,862.588579,663.27125,860.779481,652.079848C858.970382,640.888446,865.819119,630.113058,876.72,627L876.6,636.22L881.66,626.22L881.72,626.22C889.716375,625.824834,897.314276,629.733212,901.642811,636.46834C905.971346,643.203468,906.370485,651.73835,902.689411,658.848052C899.008337,665.957754,891.808355,670.558163,883.81,670.911Z" transform="matrix(1 0 0 1 -46 -84.41)" fill="rgb(108,99,255)" stroke="none" stroke-width="1"/><path id="ew8xHvrAC7X59" d="M938.11,634.73C928.6231,635.174198,919.889826,629.579608,916.327238,620.775827C912.764651,611.972046,915.149421,601.878366,922.275396,595.599905C929.40137,589.321444,939.715031,588.226954,948,592.87L944,603.7L952.13,595.9C958.785626,602.005363,961.116904,611.51411,958.040019,620.005611C954.963135,628.497112,947.081777,634.305324,938.06,634.73Z" transform="matrix(1 0 0 1 -46 -84.41)" fill="rgb(108,99,255)" stroke="none" stroke-width="1"/><path id="ew8xHvrAC7X60" d="M931.74,568.86C926.57,569.43,921.55,571.04,916.37,571.36C911.19,571.68,905.5,570.44,902.23,566.36C900.46,564.19,899.58,561.45,898.09,559.08C896.674858,556.879621,894.741746,555.059818,892.46,553.78C888.522076,561.522018,889.421763,570.843709,894.767653,577.689697C900.113544,584.535684,908.939108,587.668221,917.404806,585.724505C925.870505,583.78079,932.445751,577.112244,934.27,568.62C933.42,568.71,932.58,568.77,931.74,568.86Z" transform="matrix(1 0 0 1 -46 -84.41)" opacity="0.1" fill="rgb(0,0,0)" stroke="none" stroke-width="1"/><path id="ew8xHvrAC7X61" d="M938.11,634.73C930.26861,635.089624,922.811549,631.3166,918.456413,624.785941C914.101276,618.255283,913.484174,609.920857,916.83,602.82C918.610889,604.014116,920.13984,605.546465,921.33,607.33C922.92,609.73,923.89,612.51,925.76,614.72C929.24,618.81,935.2,620.15,940.6,619.91C946,619.67,951.2,618.13,956.6,617.63C957.35,617.57,958.1,617.52,958.86,617.5C956.572565,627.236035,948.100591,634.270835,938.11,634.73Z" transform="matrix(1 0 0 1 -46 -84.41)" opacity="0.1" fill="rgb(0,0,0)" stroke="none" stroke-width="1"/><path id="ew8xHvrAC7X62" d="M883.81,670.86C876.04892,671.222739,868.655464,667.532456,864.280044,661.112048C859.904625,654.69164,859.173968,646.460751,862.35,639.37C864.194615,640.580935,865.798444,642.123731,867.08,643.92C868.82,646.37,869.9,649.19,871.94,651.46C875.71,655.66,882.05,657.14,887.77,657C893.31,656.88,898.64,655.52,904.15,655.1C901.374722,664.11897,893.236274,670.424867,883.81,670.86Z" transform="matrix(1 0 0 1 -46 -84.41)" opacity="0.1" fill="rgb(0,0,0)" stroke="none" stroke-width="1"/><path id="ew8xHvrAC7X63" d="M894.86,714.29C889.475015,724.96828,876.643622,729.522459,865.731622,724.628382C854.819622,719.734304,849.686946,707.123165,854.08,696C855.924526,697.208812,857.579252,698.684921,858.99,700.38C861.12,702.97,862.52,705.91,864.99,708.32C869.56,712.81,876.94,714.66,883.51,714.83C887.300631,714.871711,891.090451,714.691402,894.86,714.29Z" transform="matrix(1 0 0 1 -46 -84.41)" opacity="0.1" fill="rgb(0,0,0)" stroke="none" stroke-width="1"/><path id="ew8xHvrAC7X64" d="M839,747.26C839,747.26,856.65,746.72,862,742.93C867.35,739.14,889.16,734.62,890.48,740.69C891.8,746.76,917.01,770.91,897.08,771.07C877.15,771.23,850.77,767.97,845.46,764.73C840.15,761.49,839,747.26,839,747.26Z" transform="matrix(1 0 0 1 -46 -84.41)" fill="rgb(101,99,128)" stroke="none" stroke-width="1"/><path id="ew8xHvrAC7X65" d="M897.4,769C877.47,769.16,851.09,765.89,845.78,762.66C841.78,760.19,840.13,751.36,839.59,747.28L839,747.28C839,747.28,840.12,761.52,845.43,764.75C850.74,767.98,877.12,771.25,897.05,771.09C902.8,771.09,904.79,769,904.68,765.97C903.88,767.78,901.69,768.92,897.4,769Z" transform="matrix(1 0 0 1 -46 -84.41)" opacity="0.2" fill="rgb(0,0,0)" stroke="none" stroke-width="1"/><path id="ew8xHvrAC7X66" d="M369,127.27L350.75,138.84L361.83,118.69C358.703466,116.190025,354.832776,114.803614,350.83,114.75L350.53,114.75C349.264226,114.767721,347.999348,114.674027,346.75,114.47L340.56,118.39L343.21,113.57C338.829649,112.039372,335.043469,109.166494,332.39,105.36L321.32,112.36L328.32,99.64C321.84,91.87,313.12,87.1,303.51,87.1C292,87.1,281.75,93.95,275.13,104.62C271.144528,111.114068,263.98586,114.97578,256.37,114.74L255.75,114.74C243.04,114.74,232.75,129.15,232.75,146.93C232.75,164.71,243.05,179.11,255.75,179.11C258.53939,179.101894,261.284959,178.415502,263.75,177.11C272.04,172.8,282.92,172.72,291.6,176.57C299.126632,179.955383,307.739139,179.973568,315.28,176.62C323.9,172.85,334.65,172.93,342.89,177.16C345.334514,178.453433,348.054463,179.139423,350.82,179.16C363.53,179.16,373.82,164.75,373.82,146.98C373.896149,140.109234,372.238367,133.330215,369,127.27Z" transform="matrix(1 0 0 1 -46 -84.41)" fill="rgb(242,242,242)" stroke="none" stroke-width="1"/><path id="ew8xHvrAC7X67" d="M334.59,174.36C327.950078,173.097396,321.084509,173.842442,314.87,176.5C307.331992,179.850587,298.723786,179.832403,291.2,176.45C282.51,172.6,271.63,172.68,263.34,176.99C260.874959,178.295502,258.12939,178.981894,255.34,178.99C244.05,178.99,234.66,167.61,232.7,152.61C234.955403,150.96703,236.870764,148.902243,238.34,146.53C245,135.87,255.21,129,266.72,129C278.23,129,288.36,135.77,294.98,146.32C298.997932,152.803131,306.113219,156.713505,313.74,156.63L314,156.63C323,156.64,330.8,163.85,334.59,174.36Z" transform="translate(-46,-84.41) translate(0,5)" opacity="0.03" fill="rgb(0,0,0)" stroke="none" stroke-width="1"/><path id="ew8xHvrAC7X68" d="M846.07,150.83L837,156.6L842.53,146.6C840.96798,145.337139,839.02839,144.633113,837.02,144.6L836.88,144.6C836.247113,144.608853,835.614675,144.562006,834.99,144.46L831.9,146.46L833.2,144C831.014576,143.238652,829.124945,141.807432,827.8,139.91L822.28,143.41L825.77,137.07C822.795714,133.231891,818.254091,130.933543,813.4,130.81C807.65,130.81,802.54,134.23,799.24,139.55C797.2433,142.775549,793.671186,144.683729,789.88,144.55L789.57,144.55C783.23,144.55,778.09,151.74,778.09,160.55C778.09,169.36,783.23,176.6,789.57,176.6C790.964596,176.595148,792.337191,176.252,793.57,175.6C797.936595,173.478348,803.014252,173.379646,807.46,175.33C811.218861,177.003276,815.511139,177.003276,819.27,175.33C823.682027,173.419157,828.706271,173.517671,833.04,175.6C834.272665,176.252375,835.645355,176.595547,837.04,176.6C843.38,176.6,848.52,169.42,848.52,160.55C848.52955,157.156034,847.687151,153.813944,846.07,150.83Z" transform="matrix(1 0 0 1 -46 -84.41)" fill="rgb(242,242,242)" stroke="none" stroke-width="1"/><path id="ew8xHvrAC7X69" d="M828.92,174.32C825.609694,173.694801,822.188268,174.067224,819.09,175.39C815.331139,177.063276,811.038861,177.063276,807.28,175.39C802.830861,173.439279,797.750028,173.537972,793.38,175.66C792.148206,176.314646,790.774945,176.657961,789.38,176.66C783.74,176.66,779.06,170.99,778.08,163.51C779.201563,162.697677,780.158539,161.679618,780.9,160.51C784.2,155.19,789.32,151.78,795.06,151.78C800.8,151.78,805.85,155.15,809.15,160.41C811.152595,163.646348,814.704459,165.596837,818.51,165.55L818.66,165.55C823.15,165.48,827,169.08,828.92,174.32Z" transform="translate(-46,-84.41) translate(-5,0)" opacity="0.03" fill="rgb(0,0,0)" stroke="none" stroke-width="1"/><path id="ew8xHvrAC7X70" d="M250.34,300.27L265,309.55L256.12,293.4C258.637972,291.395683,261.751914,290.28733,264.97,290.25L265.2,290.25C266.204524,290.265054,267.208418,290.191435,268.2,290.03L273.15,293.17L271,289.31C274.506783,288.076912,277.538896,285.775724,279.67,282.73L288.54,288.35L283,278.16C288.19,271.94,295.18,268.16,302.87,268.16C312.1,268.16,320.31,273.64,325.62,282.16C328.804635,287.356838,334.527691,290.451103,340.62,290.27L341.12,290.27C351.3,290.27,359.55,301.81,359.55,316.05C359.55,330.29,351.3,341.84,341.12,341.84C338.877996,341.831297,336.671567,341.278832,334.69,340.23C327.676148,336.822246,319.519955,336.665044,312.38,339.8C306.334875,342.50209,299.425125,342.50209,293.38,339.8C286.29294,336.730071,278.222395,336.886957,271.26,340.23C269.298361,341.251015,267.121421,341.789251,264.91,341.8C254.72,341.8,246.47,330.26,246.47,316.01C246.422044,310.522095,247.752723,305.109979,250.34,300.27Z" transform="translate(-46,-84.41) translate(5,1)" fill="rgb(255,255,255)" stroke="none" stroke-width="1"/><path id="ew8xHvrAC7X71" d="M277.89,338C283.210837,336.997309,288.709548,337.595903,293.69,339.72C299.735125,342.42209,306.644875,342.42209,312.69,339.72C319.833347,336.584678,327.992714,336.74187,335.01,340.15C336.987999,341.198763,339.191181,341.751275,341.43,341.76C350.48,341.76,358,332.65,359.57,320.63C357.764189,319.308401,356.229613,317.651602,355.05,315.75C349.74,307.21,341.53,301.75,332.3,301.75C323.07,301.75,314.97,307.17,309.66,315.63C306.446501,320.813632,300.758588,323.941984,294.66,323.88L294.43,323.88C287.17,323.81,280.93,329.59,277.89,338Z" transform="matrix(1 0 0 1 -46 -84.41)" opacity="0.03" fill="rgb(0,0,0)" stroke="none" stroke-width="1"/></g></svg>