<svg id="eHPgL91n4XV1" xmlns="http://www.w3.org/2000/svg" xmlns:xlink="http://www.w3.org/1999/xlink" viewBox="0 0 651.813 551.31" shape-rendering="geometricPrecision" text-rendering="geometricPrecision"><style><![CDATA[#eHPgL91n4XV9 {animation: eHPgL91n4XV9__tt 2000ms linear infinite normal forwards}@keyframes eHPgL91n4XV9__tt { 0% {transform: translate(-274.093px,-174.345px) translate(-8px,0px)} 50% {transform: translate(-274.093px,-174.345px) translate(0px,0px)} 100% {transform: translate(-274.093px,-174.345px) translate(8px,0px)}} #eHPgL91n4XV10 {animation: eHPgL91n4XV10_c_o 2000ms linear infinite normal forwards}@keyframes eHPgL91n4XV10_c_o { 0% {opacity: 0} 50% {opacity: 1} 100% {opacity: 1}} #eHPgL91n4XV11 {animation: eHPgL91n4XV11_c_o 2000ms linear infinite normal forwards}@keyframes eHPgL91n4XV11_c_o { 0% {opacity: 0} 55% {opacity: 1} 100% {opacity: 1}} #eHPgL91n4XV12 {animation: eHPgL91n4XV12_c_o 2000ms linear infinite normal forwards}@keyframes eHPgL91n4XV12_c_o { 0% {opacity: 0} 70% {opacity: 1} 100% {opacity: 1}}]]></style><path id="eHPgL91n4XV2" d="M617.005,275.545L614.665,275.545L614.665,211.445C614.665,201.605467,610.756261,192.168937,603.798661,185.211338C596.841061,178.253738,587.404531,174.345,577.565,174.345L441.759,174.345C431.919468,174.345,422.482938,178.253739,415.525338,185.211338C408.567739,192.168938,404.659,201.605468,404.659,211.445L404.659,563.106C404.659,572.945532,408.567739,582.382062,415.525338,589.339662C422.482938,596.297261,431.919468,600.206,441.759,600.206L577.565,600.206C587.404532,600.206,596.841062,596.297261,603.798662,589.339662C610.756261,582.382062,614.665,572.945532,614.665,563.106L614.665,321.173L617.005,321.173Z" transform="matrix(1 0 0 1 -274.093 -174.345)" fill="rgb(255,255,255)" stroke="none" stroke-width="1"/><path id="eHPgL91n4XV3" d="M579.063,184L561.335,184C562.990352,188.058713,562.51675,192.675144,560.071783,196.313204C557.626816,199.951263,553.531303,202.13358,549.148,202.134L471.348,202.134C466.96452,202.133913,462.8687,199.951733,460.423496,196.313619C457.978292,192.675505,457.504581,188.058877,459.16,184L442.6,184C427.303085,184.003312,414.903312,196.403085,414.9,211.7L414.9,562.848C414.9,578.147259,427.300742,590.550687,442.6,590.554L579.06,590.554C586.408088,590.554,593.455218,587.634983,598.6511,582.4391C603.846983,577.243218,606.766,570.196088,606.766,562.848L606.766,562.848L606.766,211.7C606.762687,196.401913,594.361087,184.001656,579.063,184Z" transform="matrix(1 0 0 1 -274.093 -174.345)" fill="rgb(0,0,0)" stroke="none" stroke-width="1"/><path id="eHPgL91n4XV4" d="M513.454,477.753C481.360895,477.759216,452.674739,457.735746,441.615451,427.608357C430.556162,397.480969,439.474486,363.653488,463.949548,342.894425C488.42461,322.135361,523.254034,318.857225,551.172641,334.685011C579.091247,350.512797,594.164705,382.082178,588.921,413.744C582.837289,450.683795,550.891405,477.7794,513.454,477.753ZM513.454,327.753C501.848412,327.718809,490.403338,330.464008,480.076,335.759C446.851923,352.673434,431.53629,391.769503,444.430653,426.750537C457.325016,461.731572,494.3512,481.533918,530.604774,472.838187C566.858349,464.142456,590.873186,429.698897,586.496505,392.674823C582.119825,355.650749,550.735864,327.755978,513.454,327.753Z" transform="matrix(1 0 0 1 -274.093 -174.345)" fill="rgb(240,240,240)" stroke="none" stroke-width="1"/><path id="eHPgL91n4XV5" d="M347.69,333.361C351.940772,333.893997,355.73714,336.282433,358.057589,339.883637C360.378039,343.48484,360.984211,347.928891,359.713,352.02L385.13,373.192L376.03,391.776L340.556,361.376C333.672099,358.727776,329.857565,351.348652,331.677642,344.201031C333.497718,337.053409,340.376904,332.397343,347.689,333.364Z" transform="matrix(1 0 0 1 -274.093 -174.345)" fill="rgb(255,182,182)" stroke="none" stroke-width="1"/><path id="eHPgL91n4XV6" d="M585.075,421.653C584.565,416.173,582.458,406.323,580.67,402.68C575.17,388.292,539.655,376.467,534.885,374.943L533.675,361.493L484.325,356.183L478.065,373.383L460.365,380.023C457.931887,380.930452,456.031877,382.878146,455.185,385.333L455.185,385.333L439.305,389.923L423.635,394.453L369.195,356.093L366.625,357.773L349.445,368.983L346.795,370.713L417.245,434.273L443.415,428.133L463.095,423.503L464.775,430.323L460.425,454.283C486.457161,480.324807,527.546747,483.609092,557.385,462.033L568.565,452.113C576.356893,443.687657,582.108252,433.584289,585.375,422.583Z" transform="matrix(1 0 0 1 -274.093 -174.345)" fill="rgb(255,255,255)" stroke="none" stroke-width="1"/><circle id="eHPgL91n4XV7" r="35.532" transform="matrix(0.949321 -0.314307 0.314307 0.949321 239.243247 137.106326)" fill="rgb(255,182,182)" stroke="none" stroke-width="1"/><path id="eHPgL91n4XV8" d="M485.271,270.944C488.725439,266.010681,493.909512,262.557607,499.793,261.271C505.610378,260.075758,511.664577,261.187278,516.678,264.371C522.13,262.171,528.008,260.718,533.784,261.458C539.56,262.198,545.22,265.425,547.892,270.739C548.454011,272.115836,549.135969,273.440602,549.93,274.698C552.284,277.839,556.66,278.247,560.524,278.398L554.662,281.816L560.504,284.538L552.553,287.573C558.721,292.995,560.214,302.645,557.878,310.736C555.667,318.396,550.597,324.844,544.936,330.364C543.836,326.245,545.047,321.779,545.856,317.514C546.71,313.008,546.847,307.739,543.692,304.558C541.564,302.412,538.442,301.764,535.498,301.243C520.649149,298.616796,505.662949,296.837256,490.612,295.913C488.597512,295.634708,486.54565,295.844249,484.629,296.524C480.966,298.152,479.495,302.624,478.429,306.585C477.920655,299.628671,478.326785,292.635713,479.637,285.785C480.644,280.537,482.226,275.289,485.271,270.944Z" transform="matrix(1 0 0 1 -274.093 -174.345)" fill="rgb(0,0,0)" stroke="none" stroke-width="1"/><path id="eHPgL91n4XV9" d="M531.454,513.8L489.454,513.8C486.416434,513.8,483.954,511.337566,483.954,508.3C483.954,505.262434,486.416434,502.8,489.454,502.8L531.454,502.8C534.491566,502.8,536.954,505.262434,536.954,508.3C536.954,511.337566,534.491566,513.8,531.454,513.8Z" transform="translate(-274.093,-174.345) translate(-8,0)" fill="rgb(108,99,255)" stroke="none" stroke-width="1"/><path id="eHPgL91n4XV10" d="M393.636,219.47L278.111,219.47C275.89192,219.47,274.093,217.67108,274.093,215.452C274.093,213.23292,275.89192,211.434,278.111,211.434L393.636,211.434C395.85508,211.434,397.654,213.23292,397.654,215.452C397.654,217.67108,395.85508,219.47,393.636,219.47Z" transform="matrix(1 0 0 1 -274.093 -174.345)" opacity="0" fill="rgb(108,99,255)" stroke="none" stroke-width="1"/><path id="eHPgL91n4XV11" d="M460.336,245.133L278.111,245.133C275.89192,245.133,274.093,243.33408,274.093,241.115C274.093,238.89592,275.89192,237.097,278.111,237.097L460.336,237.097C462.55508,237.097,464.354,238.89592,464.354,241.115C464.354,243.33408,462.55508,245.133,460.336,245.133Z" transform="matrix(1 0 0 1 -274.093 -174.345)" opacity="0" fill="rgb(108,99,255)" stroke="none" stroke-width="1"/><path id="eHPgL91n4XV12" d="M425.319,269.31L278.112,269.31C275.89292,269.31,274.094,267.51108,274.094,265.292C274.094,263.07292,275.89292,261.274,278.112,261.274L425.319,261.274C427.53808,261.274,429.337,263.07292,429.337,265.292C429.337,267.51108,427.53808,269.31,425.319,269.31Z" transform="matrix(1 0 0 1 -274.093 -174.345)" opacity="0" fill="rgb(255,255,255)" stroke="none" stroke-width="1"/><path id="eHPgL91n4XV13" d="M361.121,293.4L278.112,293.4C275.89292,293.4,274.094,291.60108,274.094,289.382C274.094,287.16292,275.89292,285.364,278.112,285.364L361.121,285.364C363.34008,285.364,365.139,287.16292,365.139,289.382C365.139,291.60108,363.34008,293.4,361.121,293.4Z" transform="matrix(1 0 0 1 -274.093 -174.345)" fill="rgb(255,255,255)" stroke="none" stroke-width="1"/><path id="eHPgL91n4XV14" d="M406.976,317.485L278.111,317.485C275.89192,317.485,274.093,315.68608,274.093,313.467C274.093,311.24792,275.89192,309.449,278.111,309.449L406.976,309.449C409.19508,309.449,410.994,311.24792,410.994,313.467C410.994,315.68608,409.19508,317.485,406.976,317.485Z" transform="matrix(1 0 0 1 -274.093 -174.345)" fill="rgb(255,255,255)" stroke="none" stroke-width="1"/><path id="eHPgL91n4XV15" d="M496.06,536.227L485.706,536.227L480.78,496.289L496.062,496.289Z" fill="rgb(159,97,106)" stroke="none" stroke-width="1"/><path id="eHPgL91n4XV16" d="M774.227,724.9L734.7,724.9L734.7,724.4C734.700552,715.903166,741.588166,709.015104,750.085,709.014L750.085,709.014L757.306,703.536L770.778,709.015L774.229,709.015Z" transform="matrix(1 0 0 1 -274.093 -174.345)" fill="rgb(255,255,255)" stroke="none" stroke-width="1"/><path id="eHPgL91n4XV17" d="M764.121,522.871L759.554,467.192L755.967,446.292L776.053,441.856L782.718,470.467L776.911,524.414C779.307105,527.350448,779.679189,531.448027,777.851208,534.768047C776.023226,538.088067,772.361733,539.964784,768.599093,539.510266C764.836452,539.055749,761.727165,536.361138,760.742328,532.701337C759.757491,529.041536,761.094589,525.150422,764.121,522.869Z" transform="matrix(1 0 0 1 -274.093 -174.345)" fill="rgb(159,97,106)" stroke="none" stroke-width="1"/><path id="eHPgL91n4XV18" d="M441.06,536.227L430.706,536.227L425.78,496.289L441.062,496.289Z" fill="rgb(159,97,106)" stroke="none" stroke-width="1"/><path id="eHPgL91n4XV19" d="M698.583,535.494L693.993,543.434C693.993,543.434,688.949,544.812,690.593,561.253C692.237,577.694,692.312,675.103,700.293,687.089L701.737,697.382L716.804,698.822L717.184,689.689L735.152,562.8C735.152,562.8,745.733,687.36,754.486,690.408L757.647,700.786L771.455,700.792L770.64,688.563L771.53,534.204Z" transform="matrix(1 0 0 1 -274.093 -174.345)" fill="rgb(255,255,255)" stroke="none" stroke-width="1"/><path id="eHPgL91n4XV20" d="M693.537,542.829L693.22,542.747C702.694,507.311,699.961,461.424,693.272,412.147L693.272,411.947L717.455,389.8L738.455,389.8L759.273,403.235C772.732,409.964,775.79,424.214,775.819,424.358L775.84,424.458L767.594,453.242L773.806,536.485L773.813,536.585L773.778,536.675C771.768,541.775,766.378,541.047,760.142,540.206C753.906,539.365,730.966,547.044,723.929,547.044C710.177,547.037,694.519,543.081,693.537,542.829Z" transform="matrix(1 0 0 1 -274.093 -174.345)" fill="rgb(255,255,255)" stroke="none" stroke-width="1"/><path id="eHPgL91n4XV21" d="M754.913,414.449L763.934,410.524L775.82,425.1L785.454,471.8L752.454,466.8Z" transform="matrix(1 0 0 1 -274.093 -174.345)" fill="rgb(255,255,255)" stroke="none" stroke-width="1"/><path id="eHPgL91n4XV22" d="M616.154,500.56L657.395,462.874L671.728,447.247L687.528,460.418L668.978,483.2L622.758,511.621C621.901294,515.313227,618.887424,518.114738,615.142546,518.699864C611.397669,519.284991,607.672855,517.536379,605.730679,514.28147C603.788504,511.02656,604.018489,506.918156,606.311806,503.900345C608.605122,500.882535,612.501824,499.560569,616.158,500.56Z" transform="matrix(1 0 0 1 -274.093 -174.345)" fill="rgb(159,97,106)" stroke="none" stroke-width="1"/><path id="eHPgL91n4XV23" d="M656.5,463.285L667.922,448.452C668.017,448.239,677.493,427.062,685.708,417.861C694.134,408.422,700.768,413.249,700.834,413.301L700.999,413.425L701.457,448.282L669.829,486.074Z" transform="matrix(1 0 0 1 -274.093 -174.345)" fill="rgb(255,255,255)" stroke="none" stroke-width="1"/><circle id="eHPgL91n4XV24" r="19.251" transform="matrix(0.160174 -0.987089 0.987089 0.160174 451.777956 191.500063)" fill="rgb(159,97,106)" stroke="none" stroke-width="1"/><path id="eHPgL91n4XV25" d="M708.272,362.99C708.272,362.99,708.118,356.222,707.262,353.228C706.406,350.234,704.695,347.667,705.551,347.667C706.407,347.667,706.834,345.528,706.834,345.528C706.834,345.528,707.69,345.1,708.117,345.528C708.544,345.956,708.973,342.533,708.973,342.533C708.973,342.533,709.401,341.25,709.829,342.105C710.257,342.96,710.257,342.533,710.685,341.249C711.113,339.965,713.252,339.11,713.252,339.11C713.252,339.11,721.38,339.538,722.663,337.827C723.946,336.116,738.491,337.399,741.486,339.538C744.481,341.677,757.742,349.377,755.603,355.794C753.464,362.211,747.303,376.986,745.764,378.467C743.324,380.809,741.635,381.654,730.09,383.951C727.831,384.401,716.298,377.025,716.298,375.742C716.298,374.459,717.688,370.389,715.453,369.83C712.075,368.985,711.695,373.256,710.839,371.973C709.983,370.69,708.272,362.99,708.272,362.99Z" transform="matrix(1 0 0 1 -274.093 -174.345)" fill="rgb(0,0,0)" stroke="none" stroke-width="1"/><path id="eHPgL91n4XV26" d="M719.227,724.9L679.7,724.9L679.7,724.4C679.700552,715.903166,686.588166,709.015104,695.085,709.014L695.085,709.014L702.306,703.536L715.778,709.015L719.229,709.015Z" transform="matrix(1 0 0 1 -274.093 -174.345)" fill="rgb(255,255,255)" stroke="none" stroke-width="1"/><path id="eHPgL91n4XV27" d="M924.716,725.655L277.422,725.655C276.777937,725.636332,276.265507,725.108833,276.265507,724.4645C276.265507,723.820167,276.777937,723.292668,277.422,723.274L924.716,723.274C925.360063,723.292668,925.872493,723.820167,925.872493,724.4645C925.872493,725.108833,925.360063,725.636332,924.716,725.655Z" transform="matrix(1 0 0 1 -274.093 -174.345)" fill="rgb(255,255,255)" stroke="none" stroke-width="1"/></svg>