<svg id="eVhFtrDjb481" xmlns="http://www.w3.org/2000/svg" xmlns:xlink="http://www.w3.org/1999/xlink" viewBox="0 0 1264.877 1027.782" shape-rendering="geometricPrecision" text-rendering="geometricPrecision"><style><![CDATA[#eVhFtrDjb4828 {animation: eVhFtrDjb4828__sz 2000ms linear infinite normal forwards}@keyframes eVhFtrDjb4828__sz { 0% {width: 0px;height: 0px} 10% {width: 0px;height: 0px} 55% {width: 182.709px;height: 110.93px} 100% {width: 182.709px;height: 110.93px}} #eVhFtrDjb4829_to {animation: eVhFtrDjb4829_to__to 2000ms linear infinite normal forwards}@keyframes eVhFtrDjb4829_to__to { 0% {transform: translate(942.216px,200px)} 50% {transform: translate(942.216px,301.058px)} 100% {transform: translate(942.216px,301.058px)}} #eVhFtrDjb4831 {animation: eVhFtrDjb4831__sz 2000ms linear infinite normal forwards}@keyframes eVhFtrDjb4831__sz { 0% {width: 0px;height: 0px} 50% {width: 219.251px;height: 163.228px} 100% {width: 219.251px;height: 163.228px}}]]></style><defs><linearGradient id="eVhFtrDjb4827-fill" x1="0.532" y1="2.365" x2="0.541" y2="-0.073" spreadMethod="pad" gradientUnits="objectBoundingBox" gradientTransform="matrix(1 0 0 1 0 0)"><stop id="eVhFtrDjb4827-fill-0" offset="0%" stop-color="rgb(83,0,180)"/><stop id="eVhFtrDjb4827-fill-1" offset="100%" stop-color="rgb(0,0,0)"/></linearGradient><linearGradient id="eVhFtrDjb4830-fill" x1="0.5" y1="-0.563" x2="0.5" y2="1" spreadMethod="pad" gradientUnits="objectBoundingBox" gradientTransform="matrix(1 0 0 1 0 0)"><stop id="eVhFtrDjb4830-fill-0" offset="0%" stop-color="rgb(83,0,180)"/><stop id="eVhFtrDjb4830-fill-1" offset="100%" stop-color="rgb(0,0,0)"/></linearGradient></defs><g id="eVhFtrDjb482"><path id="eVhFtrDjb483" d="M417.936,565.015C414.019512,563.547109,410.954203,560.42009,409.564656,556.475126C408.175108,552.530163,408.604016,548.172364,410.736,544.574L378.3,506.22L404.217,503.12L431.045,540.02C436.990962,544.089131,438.950812,551.96412,435.605678,558.345528C432.260544,564.726936,424.669111,567.595142,417.94,565.02Z" transform="matrix(1 0 0 1 -57.491 85.438)" fill="rgb(255,182,182)" stroke="none" stroke-width="1"/><path id="eVhFtrDjb484" d="M161.429,737.664L178.661,737.664L186.861,671.195L161.425,671.195Z" transform="matrix(1 0 0 1 65.479 272.255)" fill="rgb(255,182,182)" stroke="none" stroke-width="1"/><path id="eVhFtrDjb485" d="M308.367,801.106L313.218,801.106L332.155,793.406L342.305,801.106L342.305,801.106C354.248805,801.106552,363.931343,810.788195,363.933,822.732L363.933,823.432L308.367,823.432Z" transform="matrix(1 0 0 1 -85.856 203.186)" fill="rgb(47,46,65)" stroke="none" stroke-width="1"/><path id="eVhFtrDjb486" d="M208.937,729.466L225.747,733.266L248.385,670.235L223.576,664.635Z" transform="matrix(1 0 0 1 84.751 269.592)" fill="rgb(255,182,182)" stroke="none" stroke-width="1"/><path id="eVhFtrDjb487" d="M358.254,791.223L362.985,792.291L383.153,788.95L391.353,798.697L391.353,798.697C403.003388,801.328951,410.31504,812.906181,407.685,824.557L407.53,825.243L353.33,813.005Z" transform="matrix(1 0 0 1 -67.615 201.379)" fill="rgb(47,46,65)" stroke="none" stroke-width="1"/><path id="eVhFtrDjb488" d="M289.05,568.2L304.633,742.792C304.633,742.792,298.794,847.609,317.633,884.492L344.96,884.492L358.489,733.218L360.189,631.682L418.77,717.344L381.456,882.021L415.086,885.027L475.633,706.317L409.115,538.551Z" transform="matrix(1 0 0 1 -93.691 99.81)" fill="rgb(255,255,255)" stroke="none" stroke-width="1"/><circle id="eVhFtrDjb489" r="40.188" transform="matrix(1 0 0 1 211.679 349.789)" fill="rgb(255,184,184)" stroke="none" stroke-width="1"/><path id="eVhFtrDjb4810" d="M403.365,398.564L356.676,384.418L350.6,365.733L300.531,373.86L289.893,392.1L255.456,424.121L295.8,606.552L294.581,646.4C294.581,646.4,320.4,658.022,432.4,631.256C433.743,630.935,430.932,629.529,430.932,629.529Z" transform="matrix(1 0 0 1 -107.318 29.71)" fill="rgb(83,0,180)" stroke="none" stroke-width="1"/><path id="eVhFtrDjb4811" d="M412.5,591.66L357.77,518.371L342.252,388.483L342.705,388.265C351.313165,384.120564,361.429275,384.587502,369.619056,389.507293C377.808837,394.427085,382.972103,403.138824,383.356,412.685L386.582,492.948L440.938,564.679Z" transform="matrix(1 0 0 1 -72.111 37.71)" fill="rgb(83,0,180)" stroke="none" stroke-width="1"/><path id="eVhFtrDjb4812" d="M271.265,349.81Q270.845,349.237,270.433,348.654C270.322,348.887,270.233,349.128,270.108,349.354Z" transform="matrix(1 0 0 1 -101.375 22.782)" fill="rgb(47,46,65)" stroke="none" stroke-width="1"/><path id="eVhFtrDjb4813" d="M353.385,317.917C350.698697,312.065043,345.909118,307.437889,339.968,304.955C334.079112,302.579778,327.497738,302.585515,321.613,304.971C316.3,301.614,310.397,298.953,304.18,298.624C297.963,298.295,291.39,300.601,287.559,305.678C286.7047,307.018173,285.734302,308.280694,284.659,309.451C281.579,312.303,276.899,311.892,272.806,311.308L278.315,316.029L271.647,317.771L279.427,322.49C271.898,327.009,268.476,336.873,269.38,345.831C270.235,354.312,274.33,362.068,279.225,368.961C281.178,364.84,280.757,359.91,280.725,355.269C280.691,350.369,281.559,344.797,285.488,342.056C288.139,340.207,291.547,340.125,294.743,340.142C310.865749,340.230334,326.970424,341.235624,342.979,343.153C345.151376,343.246871,347.269437,343.861095,349.155,344.944C352.695,347.359,353.385,352.344,353.74,356.716C355.610534,349.496089,356.526008,342.062019,356.463,334.604C356.620486,328.887273,355.573123,323.201393,353.389,317.916Z" transform="matrix(1 0 0 1 -101.729 2.476)" fill="rgb(33,2,69)" stroke="none" stroke-width="1"/><circle id="eVhFtrDjb4814" r="63.253" transform="matrix(1 0 0 1 247.704 744.983)" fill="rgb(240,240,240)" stroke="none" stroke-width="1"/><path id="eVhFtrDjb4815" d="M344.95,568.4C341.7013,568.400381,338.457202,568.644399,335.245,569.13C333.593,569.37,331.991,569.679,330.402,570.059C306.603622,575.543499,287.92956,593.974883,282.13425,617.699488C276.338939,641.424094,284.412356,666.389198,303.002,682.228C304.084,683.142,305.18,684.028,306.319,684.871C328.850856,701.67007,359.655271,701.986177,382.527121,685.653027C405.398971,669.319878,415.097153,640.080228,406.519793,613.316031C397.942433,586.551835,373.05504,568.396132,344.95,568.4ZM344.95,694.907C331.799298,694.921094,318.990473,690.718779,308.404,682.917C307.252,682.074,306.141,681.202,305.059,680.274C286.936636,664.986845,279.155398,640.680815,285.0304,617.711237C290.905403,594.741658,309.401257,577.156604,332.638,572.448C334.212,572.125,335.786,571.872,337.389,571.675C339.897661,571.364266,342.423168,571.209303,344.951,571.211C379.109812,571.211,406.801,598.902188,406.801,633.061C406.801,667.219812,379.109812,694.911,344.951,694.911Z" transform="matrix(1 0 0 1 -97.245 111.919)" fill="rgb(0,0,0)" stroke="none" stroke-width="1"/><rect id="eVhFtrDjb4816" width="70.281" height="8.434" rx="3" ry="3" transform="matrix(-1 0 0 -1 282.845 732.332)" fill="rgb(83,0,180)" stroke="none" stroke-width="1"/><rect id="eVhFtrDjb4817" width="70.281" height="8.434" rx="3" ry="3" transform="matrix(-1 0 0 -1 282.845 749.2)" fill="rgb(83,0,180)" stroke="none" stroke-width="1"/><rect id="eVhFtrDjb4818" width="70.281" height="8.434" rx="3" ry="3" transform="matrix(-1 0 0 -1 282.845 766.067)" fill="rgb(83,0,180)" stroke="none" stroke-width="1"/><path id="eVhFtrDjb4819" d="M343.825,598.859C339.690811,598.220759,336.051659,595.784113,333.886764,592.204713C331.72187,588.625313,331.253616,584.270843,332.608,580.313L293.041,549.37L317.784,541.058L351.564,571.717C358.209597,574.492638,361.728152,581.8008,359.753432,588.726737C357.778712,595.652674,350.935128,600.006388,343.825,598.86Z" transform="matrix(1 0 0 1 -92.073 100.826)" fill="rgb(255,182,182)" stroke="none" stroke-width="1"/><path id="eVhFtrDjb4820" d="M284.149,406.9L259.782,407.417C250.115684,416.320625,244.669438,428.899561,244.791,442.041L244.791,557.18L336.224,633.623L365.79,604.993L297.735,530.848Z" transform="matrix(1 0 0 1 -111.645 46.41)" fill="rgb(83,0,180)" stroke="none" stroke-width="1"/><rect id="eVhFtrDjb4821" width="905.03" height="579.622" rx="14" ry="14" transform="matrix(1 0 0 1 359.847 179.32)" fill="rgb(0,0,0)" stroke="none" stroke-width="1"/><rect id="eVhFtrDjb4822" width="853.272" height="472.632" rx="15" ry="15" transform="matrix(1 0 0 1 385.726 252.019)" fill="rgb(0,0,0)" stroke="none" stroke-width="1"/><rect id="eVhFtrDjb4823" width="905.03" height="38.449" rx="14" ry="14" transform="matrix(1 0 0 1 359.461 178.807)" fill="rgb(0,0,0)" stroke="none" stroke-width="1"/><circle id="eVhFtrDjb4824" r="7.126" transform="matrix(1 0 0 1 388.033 198.464)" fill="rgb(255,0,0)" stroke="none" stroke-width="1"/><circle id="eVhFtrDjb4825" r="7.126" transform="matrix(1 0 0 1 415.082 198.464)" fill="rgb(247,247,0)" stroke="none" stroke-width="1"/><circle id="eVhFtrDjb4826" r="7.126" transform="matrix(1 0 0 1 442.131 198.464)" fill="rgb(58,191,34)" stroke="none" stroke-width="1"/><path id="eVhFtrDjb4827" d="M0,0L182.709,0L182.709,103.1L0,103.1Z" transform="matrix(1 0 0 1 720.355 301.058)" fill="url(#eVhFtrDjb4827-fill)" stroke="none" stroke-width="1"/><rect id="eVhFtrDjb4828" width="0" height="0" rx="14" ry="14" transform="matrix(1 0 0 1 720.355 432.87)" fill="rgb(255,255,255)" stroke="none" stroke-width="1"/><g id="eVhFtrDjb4829_to" transform="translate(942.216,200)"><rect id="eVhFtrDjb4829" width="219.251" height="163.228" rx="12" ry="12" transform="translate(0,0)" fill="rgb(230,230,230)" stroke="none" stroke-width="1"/></g><rect id="eVhFtrDjb4830" width="219.251" height="163.228" rx="12" ry="12" transform="matrix(1 0 0 1 942.216 512.383)" fill="url(#eVhFtrDjb4830-fill)" stroke="none" stroke-width="1"/><rect id="eVhFtrDjb4831" width="0" height="0" rx="11" ry="11" transform="matrix(1 0 0 1 464.302 301.058)" fill="rgb(255,250,250)" stroke="none" stroke-width="1"/><path id="eVhFtrDjb4832" d="M639.232,79.642L576.774,314.6L579.636,315.36L641.507,82.6Z" transform="matrix(1 0 0 1 233.956 32.305)" fill="rgb(0,0,0)" stroke="none" stroke-width="1"/><path id="eVhFtrDjb4833" d="M767.319,421.592L705.447,654.35L707.723,657.31L770.18,422.352Z" transform="matrix(1 0 0 1 286.149 171.01)" fill="rgb(0,0,0)" stroke="none" stroke-width="1"/><path id="eVhFtrDjb4834" d="M695.554,487.891L484.71,487.891C482.935716,487.916297,481.285278,486.984218,480.390753,485.451721C479.496228,483.919224,479.496228,482.023776,480.390753,480.491279C481.285278,478.958782,482.935716,478.026703,484.71,478.052L695.554,478.052C698.243615,478.090348,700.403859,480.281611,700.403859,482.9715C700.403859,485.661389,698.243615,487.852652,695.554,487.891Z" transform="matrix(1 0 0 1 -16.322 75.27)" fill="rgb(230,230,230)" stroke="none" stroke-width="1"/><path id="eVhFtrDjb4835" d="M695.554,467.891L484.71,467.891C482.935716,467.916297,481.285278,466.984218,480.390753,465.451721C479.496228,463.919224,479.496228,462.023776,480.390753,460.491279C481.285278,458.958782,482.935716,458.026703,484.71,458.052L695.554,458.052C698.243615,458.090348,700.403859,460.281611,700.403859,462.9715C700.403859,465.661389,698.243615,467.852652,695.554,467.891Z" transform="matrix(1 0 0 1 -16.322 67.157)" fill="rgb(230,230,230)" stroke="none" stroke-width="1"/><path id="eVhFtrDjb4836" d="M695.554,507.891L484.71,507.891C482.935716,507.916297,481.285278,506.984218,480.390753,505.451721C479.496228,503.919224,479.496228,502.023776,480.390753,500.491279C481.285278,498.958782,482.935716,498.026703,484.71,498.052L695.554,498.052C698.243615,498.090348,700.403859,500.281611,700.403859,502.9715C700.403859,505.661389,698.243615,507.852652,695.554,507.891Z" transform="matrix(1 0 0 1 -16.322 83.382)" fill="rgb(230,230,230)" stroke="none" stroke-width="1"/><path id="eVhFtrDjb4837" d="M695.554,527.891L484.71,527.891C482.935716,527.916297,481.285278,526.984218,480.390753,525.451721C479.496228,523.919224,479.496228,522.023776,480.390753,520.491279C481.285278,518.958782,482.935716,518.026703,484.71,518.052L695.554,518.052C698.243615,518.090348,700.403859,520.281611,700.403859,522.9715C700.403859,525.661389,698.243615,527.852652,695.554,527.891Z" transform="matrix(1 0 0 1 -16.322 91.495)" fill="rgb(230,230,230)" stroke="none" stroke-width="1"/><path id="eVhFtrDjb4838" d="M695.554,547.891L484.71,547.891C482.935716,547.916297,481.285278,546.984218,480.390753,545.451721C479.496228,543.919224,479.496228,542.023776,480.390753,540.491279C481.285278,538.958782,482.935716,538.026703,484.71,538.052L695.554,538.052C698.243615,538.090348,700.403859,540.281611,700.403859,542.9715C700.403859,545.661389,698.243615,547.852652,695.554,547.891Z" transform="matrix(1 0 0 1 -16.322 99.608)" fill="rgb(230,230,230)" stroke="none" stroke-width="1"/><path id="eVhFtrDjb4839" d="M695.554,567.891L484.71,567.891C482.935716,567.916297,481.285278,566.984218,480.390753,565.451721C479.496228,563.919224,479.496228,562.023776,480.390753,560.491279C481.285278,558.958782,482.935716,558.026703,484.71,558.052L695.554,558.052C698.243615,558.090348,700.403859,560.281611,700.403859,562.9715C700.403859,565.661389,698.243615,567.852652,695.554,567.891Z" transform="matrix(1 0 0 1 -16.322 107.72)" fill="rgb(230,230,230)" stroke="none" stroke-width="1"/><path id="eVhFtrDjb4840" d="M841.255,507.891L666.955,507.891C664.265385,507.852652,662.105141,505.661389,662.105141,502.9715C662.105141,500.281611,664.265385,498.090348,666.955,498.052L841.255,498.052C843.944615,498.090348,846.104859,500.281611,846.104859,502.9715C846.104859,505.661389,843.944615,507.852652,841.255,507.891Z" transform="matrix(1 0 0 1 57.603 83.382)" fill="rgb(230,230,230)" stroke="none" stroke-width="1"/><path id="eVhFtrDjb4841" d="M841.255,527.891L666.955,527.891C664.265385,527.852652,662.105141,525.661389,662.105141,522.9715C662.105141,520.281611,664.265385,518.090348,666.955,518.052L841.255,518.052C843.029284,518.026703,844.679722,518.958782,845.574247,520.491279C846.468772,522.023776,846.468772,523.919224,845.574247,525.451721C844.679722,526.984218,843.029284,527.916297,841.255,527.891Z" transform="matrix(1 0 0 1 57.603 91.495)" fill="rgb(230,230,230)" stroke="none" stroke-width="1"/><path id="eVhFtrDjb4842" d="M841.255,547.891L666.955,547.891C664.265385,547.852652,662.105141,545.661389,662.105141,542.9715C662.105141,540.281611,664.265385,538.090348,666.955,538.052L841.255,538.052C843.944615,538.090348,846.104859,540.281611,846.104859,542.9715C846.104859,545.661389,843.944615,547.852652,841.255,547.891Z" transform="matrix(1 0 0 1 57.603 99.608)" fill="rgb(230,230,230)" stroke="none" stroke-width="1"/><path id="eVhFtrDjb4843" d="M841.255,567.891L666.955,567.891C664.265385,567.852652,662.105141,565.661389,662.105141,562.9715C662.105141,560.281611,664.265385,558.090348,666.955,558.052L841.255,558.052C843.029284,558.026703,844.679722,558.958782,845.574247,560.491279C846.468772,562.023776,846.468772,563.919224,845.574247,565.451721C844.679722,566.984218,843.029284,567.916297,841.255,567.891Z" transform="matrix(1 0 0 1 57.603 107.72)" fill="rgb(230,230,230)" stroke="none" stroke-width="1"/><circle id="eVhFtrDjb4844" r="63.253" transform="matrix(1 0 0 1 877.426 64.659)" fill="rgb(240,240,240)" stroke="none" stroke-width="1"/><path id="eVhFtrDjb4845" d="M792.95,84.4C789.7013,84.400396,786.457204,84.644414,783.245,85.13C781.593,85.37,779.991,85.679,778.402,86.059C754.603622,91.543499,735.92956,109.974883,730.13425,133.699488C724.338939,157.424094,732.412356,182.389198,751.002,198.228C752.084,199.142,753.18,200.028,754.319,200.871C776.850856,217.67007,807.655271,217.986177,830.527121,201.653027C853.398971,185.319878,863.097153,156.080228,854.519793,129.316031C845.942433,102.551835,821.05504,84.396132,792.95,84.4ZM792.95,210.907C779.799298,210.921094,766.990473,206.718779,756.404,198.917C755.252,198.074,754.141,197.202,753.059,196.274C734.939733,180.986448,727.160487,156.682479,733.035022,133.714959C738.909558,110.74744,757.40276,93.163327,780.637,88.453C782.211,88.13,783.785,87.877,785.388,87.68C787.896663,87.369289,790.422169,87.214326,792.95,87.216C827.108812,87.216,854.8,114.907188,854.8,149.066C854.8,183.224812,827.108812,210.916,792.95,210.916Z" transform="matrix(1 0 0 1 84.476 -84.405)" fill="rgb(0,0,0)" stroke="none" stroke-width="1"/><path id="eVhFtrDjb4846" d="M4.217,0L66.065,0C68.393985,0,70.282,1.888015,70.282,4.217C70.282,6.545985,68.393985,8.434,66.065,8.434L4.217,8.434C1.888015,8.434,0,6.545985,0,4.217C0,1.888015,1.888015,0,4.217,0Z" transform="matrix(-1 0 0 -1 912.567 52.008)" fill="rgb(83,0,180)" stroke="none" stroke-width="1"/><path id="eVhFtrDjb4847" d="M4.217,0L66.065,0C68.393985,0,70.282,1.888015,70.282,4.217C70.282,6.545985,68.393985,8.434,66.065,8.434L4.217,8.434C1.888015,8.434,0,6.545985,0,4.217C0,1.888015,1.888015,0,4.217,0Z" transform="matrix(-1 0 0 -1 912.567 68.876)" fill="rgb(83,0,180)" stroke="none" stroke-width="1"/><path id="eVhFtrDjb4848" d="M4.217,0L66.065,0C68.393985,0,70.282,1.888015,70.282,4.217C70.282,6.545985,68.393985,8.434,66.065,8.434L4.217,8.434C1.888015,8.434,0,6.545985,0,4.217C0,1.888015,1.888015,0,4.217,0Z" transform="matrix(-1 0 0 -1 912.567 85.743)" fill="rgb(83,0,180)" stroke="none" stroke-width="1"/><circle id="eVhFtrDjb4849" r="63.253" transform="matrix(1 0 0 1 984.254 882.734)" fill="rgb(240,240,240)" stroke="none" stroke-width="1"/><path id="eVhFtrDjb4850" d="M868.95,666.4C865.700968,666.40038,862.456538,666.644397,859.244,667.13C857.592,667.37,855.99,667.679,854.401,668.059C830.602622,673.543499,811.92856,691.974883,806.13325,715.699488C800.337939,739.424094,808.411356,764.389198,827.001,780.228C828.084,781.142,829.18,782.028,830.318,782.871C852.849758,799.669997,883.654015,799.986181,906.52585,783.653221C929.397684,767.320261,939.096043,738.080834,930.518997,711.316666C921.94195,684.552499,897.054917,666.396566,868.95,666.4ZM868.95,792.907C855.799298,792.921094,842.990473,788.718779,832.404,780.917C831.252,780.074,830.141,779.202,829.059,778.274C810.936636,762.986845,803.155398,738.680815,809.0304,715.711237C814.905403,692.741658,833.401257,675.156604,856.638,670.448C858.212,670.125,859.786,669.872,861.389,669.675C863.897662,669.364271,866.423169,669.209308,868.951,669.211C903.109812,669.211,930.801,696.902188,930.801,731.061C930.801,765.219812,903.109812,792.911,868.951,792.911Z" transform="matrix(1 0 0 1 115.304 151.671)" fill="rgb(0,0,0)" stroke="none" stroke-width="1"/><path id="eVhFtrDjb4851" d="M4.217,0L66.065,0C68.393985,0,70.282,1.888015,70.282,4.217C70.282,6.545985,68.393985,8.434,66.065,8.434L4.217,8.434C1.888015,8.434,0,6.545985,0,4.217C0,1.888015,1.888015,0,4.217,0Z" transform="matrix(-1 0 0 -1 1019.4 870.084)" fill="rgb(83,0,180)" stroke="none" stroke-width="1"/><rect id="eVhFtrDjb4852" width="70.281" height="8.434" rx="3" ry="3" transform="matrix(-1 0 0 -1 1019.4 886.951)" fill="rgb(83,0,180)" stroke="none" stroke-width="1"/><rect id="eVhFtrDjb4853" width="70.281" height="8.434" rx="3" ry="3" transform="matrix(-1 0 0 -1 1019.4 903.819)" fill="rgb(83,0,180)" stroke="none" stroke-width="1"/><path id="eVhFtrDjb4854" d="M638.5,816.561L151.741,816.561C151.133363,816.575855,150.565417,816.260176,150.257229,815.736283C149.949042,815.212391,149.949042,814.562609,150.257229,814.038717C150.565417,813.514824,151.133363,813.199145,151.741,813.214L638.5,813.214C639.107637,813.199145,639.675583,813.514824,639.983771,814.038717C640.291958,814.562609,640.291958,815.212391,639.983771,815.736283C639.675583,816.260176,639.107637,816.575855,638.5,816.561Z" transform="matrix(1 0 0 1 -150.067 211.221)" fill="rgb(202,202,202)" stroke="none" stroke-width="1"/></g></svg>