<svg id="Group_40" data-name="Group 40" xmlns="http://www.w3.org/2000/svg" width="752.316" height="536.208" viewBox="0 0 752.316 536.208">
  <path id="Path_2960" data-name="Path 2960" d="M273.7,718.1H926.258a1.247,1.247,0,1,0,0-2.494H273.7a1.247,1.247,0,0,0,0,2.494Z" transform="translate(-223.842 -181.896)" fill="#ccc"/>
  <path id="Path_696" data-name="Path 696" d="M399.079,416.009c-38.164-37.569-54.282-76.764-45.388-110.362,11.415-43.116,62.124-72.928,139.125-81.79l.284,2.473c-75.929,8.738-125.865,37.881-137,79.953-8.656,32.7,7.228,71.036,44.728,107.952Z" transform="translate(-223.842 -181.896)" fill="#f0f0f0"/>
  <path id="Path_697" data-name="Path 697" d="M767.295,549.369c-47.631,0-99.39-7.078-150.8-20.689-63.577-16.831-121.871-42.236-168.578-73.47l1.383-2.069c46.483,31.082,104.518,56.371,167.832,73.132,57.216,15.148,114.861,22.167,166.682,20.315l.09,2.487Q775.693,549.37,767.295,549.369Z" transform="translate(-223.842 -181.896)" fill="#f0f0f0"/>
  <path id="Path_698" data-name="Path 698" d="M876.565,533.716l-.8-2.358c42.6-14.4,69.243-37.6,77.052-67.1,9.926-37.494-11.638-81-60.72-122.514-49.332-41.721-120.47-76.339-200.312-97.476l.637-2.406c80.191,21.23,151.675,56.027,201.282,97.982,49.857,42.165,71.706,86.576,61.52,125.051C947.194,495.237,919.994,519.034,876.565,533.716Z" transform="translate(-223.842 -181.896)" fill="#f0f0f0"/>
  <path id="Path_699" data-name="Path 699" d="M485.406,550.409C391.814,508.9,319.7,455.048,282.334,398.77l2.073-1.377c37.1,55.888,108.844,109.421,202.007,150.741Z" transform="translate(-223.842 -181.896)" fill="#f0f0f0"/>
  <path id="Path_700" data-name="Path 700" d="M814.466,622.32q-14.48,0-29.455-.647l.107-2.487c74.5,3.226,140.237-5.69,190.11-25.788l.931,2.309C932.653,613.238,877.2,622.32,814.466,622.32Z" transform="translate(-223.842 -181.896)" fill="#f0f0f0"/>
  <path id="Path_701" data-name="Path 701" d="M760.163,226.089c-15.469-5.036-31.38-9.726-47.292-13.938-91.564-24.24-181.572-32.847-260.3-24.884l-.25-2.477c79.019-7.988,169.335.639,261.184,24.955,15.956,4.225,31.913,8.927,47.425,13.978Z" transform="translate(-223.842 -181.896)" fill="#f0f0f0"/>
  <path id="Path_702" data-name="Path 702" d="M340.587,419.742C302.423,382.173,286.3,342.979,295.2,309.38c11.415-43.116,62.124-72.928,139.125-81.79l.284,2.473c-75.929,8.738-125.865,37.881-137,79.953-8.656,32.7,7.228,71.036,44.728,107.952Z" transform="translate(-223.842 -181.896)" fill="#f0f0f0"/>
  <path id="Path_703" data-name="Path 703" d="M708.8,553.1c-47.631,0-99.39-7.078-150.8-20.689-63.577-16.831-121.871-42.236-168.578-73.47l1.383-2.069c46.483,31.082,104.518,56.371,167.832,73.132,57.216,15.148,114.861,22.167,166.682,20.315l.09,2.487Q717.2,553.1,708.8,553.1Z" transform="translate(-223.842 -181.896)" fill="#f0f0f0"/>
  <path id="Path_704" data-name="Path 704" d="M818.073,537.45l-.8-2.358c42.6-14.4,69.243-37.6,77.052-67.1,9.926-37.494-11.638-81-60.72-122.514C784.276,303.759,713.138,269.141,633.3,248l.637-2.406c80.191,21.23,151.675,56.027,201.282,97.982,49.857,42.165,71.706,86.576,61.52,125.051C888.7,498.97,861.5,522.767,818.073,537.45Z" transform="translate(-223.842 -181.896)" fill="#f0f0f0"/>
  <path id="Path_705" data-name="Path 705" d="M426.914,554.143C333.322,512.634,261.2,458.781,223.842,402.5l2.073-1.377c37.1,55.888,108.844,109.421,202.007,150.741Z" transform="translate(-223.842 -181.896)" fill="#f0f0f0"/>
  <path id="Path_706" data-name="Path 706" d="M755.974,626.054q-14.48,0-29.455-.647l.107-2.487c74.5,3.226,140.237-5.69,190.109-25.788l.931,2.309C874.16,616.971,818.709,626.054,755.974,626.054Z" transform="translate(-223.842 -181.896)" fill="#f0f0f0"/>
  <path id="Path_707" data-name="Path 707" d="M701.671,229.822c-15.469-5.036-31.38-9.726-47.292-13.938-91.564-24.24-181.572-32.847-260.3-24.884l-.25-2.477c79.019-7.988,169.335.639,261.184,24.955,15.956,4.225,31.913,8.927,47.425,13.978Z" transform="translate(-223.842 -181.896)" fill="#f0f0f0"/>
  <path id="Path_708" data-name="Path 708" d="M266.266,353.075c17.887-20.054,46.419-32.277,72.275-24.96a123.81,123.81,0,0,0-48.314,69.939c-2.794,10.918-4.764,23.353-13.844,30.028-5.65,4.154-13.136,5.146-20.084,4.2s-13.518-3.648-20-6.326l-1.744.151C239.57,399.707,248.379,373.13,266.266,353.075Z" transform="translate(-223.842 -181.896)" fill="#f2f2f2"/>
  <path id="Path_709" data-name="Path 709" d="M338.462,328.673a105.824,105.824,0,0,0-55.5,34.046,45.574,45.574,0,0,0-7.684,12.034,26.137,26.137,0,0,0-1.543,13.669c.581,4.314,1.674,8.66,1.2,13.04a16,16,0,0,1-6.783,11.193c-4.54,3.316-10,4.8-15.393,6.07-5.986,1.408-12.225,2.775-17.1,6.753-.591.482-1.3-.464-.714-.945,8.489-6.921,20.287-6.032,29.679-11.059,4.383-2.346,8.085-6.026,8.985-11.077.787-4.416-.337-8.9-.962-13.262a27.891,27.891,0,0,1,1.011-13.422,42.131,42.131,0,0,1,7.193-12.285,102.667,102.667,0,0,1,23.9-21.407A107.7,107.7,0,0,1,338.322,327.5c.739-.179.874,1,.14,1.176Z" transform="translate(-223.842 -181.896)" fill="#fff"/>
  <path id="Path_710" data-name="Path 710" d="M287.3,357a15.877,15.877,0,0,1-.489-20.553c.481-.591,1.422.13.94.721a14.7,14.7,0,0,0,.494,19.118C288.754,356.856,287.807,357.567,287.3,357Z" transform="translate(-223.842 -181.896)" fill="#fff"/>
  <path id="Path_711" data-name="Path 711" d="M273.154,386.274a30.6,30.6,0,0,0,21.261-6.732c.593-.48,1.306.466.714.945a31.83,31.83,0,0,1-22.138,6.96C272.229,387.394,272.4,386.221,273.154,386.274Z" transform="translate(-223.842 -181.896)" fill="#fff"/>
  <path id="Path_712" data-name="Path 712" d="M315.3,336.849a8.987,8.987,0,0,0,7.253,4.486c.762.043.594,1.216-.163,1.173a10.071,10.071,0,0,1-8.034-4.944.612.612,0,0,1,.115-.829.6.6,0,0,1,.829.115Z" transform="translate(-223.842 -181.896)" fill="#fff"/>
  <path id="Path_713" data-name="Path 713" d="M375.245,411.366c-.477-.013-.953-.027-1.436-.032a118.356,118.356,0,0,0-19.166,1.118c-.492.061-.99.13-1.479.206a124.774,124.774,0,0,0-43.38,15.115,121.173,121.173,0,0,0-15.222,10.356c-6.634,5.294-13.406,11.561-21.173,14.274a20.793,20.793,0,0,1-2.469.724l-36.045-24.9c-.054-.1-.113-.188-.167-.285l-1.485-.928c.234-.215.481-.433.715-.648.135-.125.278-.245.414-.37.093-.082.186-.163.265-.242.031-.027.062-.054.087-.074.079-.079.161-.144.234-.215q2.068-1.833,4.169-3.643c.006-.008.006-.008.019-.011a178.166,178.166,0,0,1,34.711-23.862c.375-.191.755-.39,1.146-.569a115.621,115.621,0,0,1,17.5-7.057,102.2,102.2,0,0,1,10.027-2.537,85,85,0,0,1,26.557-1.018c17.644,2.106,34.418,9.832,45.353,23.547C374.7,410.661,374.971,411.007,375.245,411.366Z" transform="translate(-223.842 -181.896)" fill="#f2f2f2"/>
  <path id="Path_714" data-name="Path 714" d="M374.848,411.768a105.824,105.824,0,0,0-64.81-6.23,45.571,45.571,0,0,0-13.381,4.982,26.137,26.137,0,0,0-9.462,9.985c-2.134,3.794-3.877,7.922-6.9,11.132a16,16,0,0,1-12.155,4.853c-5.622-.086-10.877-2.188-15.945-4.421-5.627-2.48-11.432-5.145-17.723-4.906-.762.029-.762-1.155,0-1.184,10.945-.415,19.83,7.4,30.356,9.039,4.912.766,10.084.056,13.843-3.435,3.287-3.052,5.089-7.308,7.216-11.168a27.89,27.89,0,0,1,8.888-10.108,42.13,42.13,0,0,1,13.14-5.478,102.668,102.668,0,0,1,31.975-2.7,107.7,107.7,0,0,1,35.552,8.616c.7.3.1,1.324-.6,1.023Z" transform="translate(-223.842 -181.896)" fill="#fff"/>
  <path id="Path_715" data-name="Path 715" d="M316.941,403.585a15.877,15.877,0,0,1,11.984-16.705c.74-.182,1.057.96.316,1.142a14.7,14.7,0,0,0-11.116,15.562C318.191,404.343,317.006,404.34,316.941,403.585Z" transform="translate(-223.842 -181.896)" fill="#fff"/>
  <path id="Path_716" data-name="Path 716" d="M288.023,418.438a30.6,30.6,0,0,0,21.029,7.425c.762-.026.763,1.158,0,1.184a31.83,31.83,0,0,1-21.867-7.771c-.576-.5.263-1.336.836-.838Z" transform="translate(-223.842 -181.896)" fill="#fff"/>
  <path id="Path_717" data-name="Path 717" d="M351.428,404.348a8.987,8.987,0,0,0,3.09,7.948c.583.493-.258,1.329-.836.839a10.071,10.071,0,0,1-3.438-8.785.612.612,0,0,1,.591-.593.6.6,0,0,1,.593.591Z" transform="translate(-223.842 -181.896)" fill="#fff"/>
  <path id="Path_718" data-name="Path 718" d="M967.124,517.471c-10.106-24.9-32.87-46-59.681-47.8a123.81,123.81,0,0,1,22,82.108c-1.038,11.222-3.362,23.6,2.946,32.935,3.925,5.811,10.642,9.262,17.5,10.706s13.958,1.107,20.962.764l1.592.729C976.594,570.363,977.229,542.37,967.124,517.471Z" transform="translate(-223.842 -181.896)" fill="#f2f2f2"/>
  <path id="Path_719" data-name="Path 719" d="M907.329,470.224a105.824,105.824,0,0,1,40.827,50.718,45.569,45.569,0,0,1,3.193,13.917,26.137,26.137,0,0,1-3.141,13.392c-2,3.868-4.487,7.593-5.509,11.879a16,16,0,0,0,2.627,12.822c3.162,4.649,7.806,7.884,12.457,10.89,5.164,3.338,10.581,6.723,13.84,12.109.395.653,1.384,0,.99-.65-5.669-9.371-17.079-12.5-24.236-20.391-3.339-3.682-5.589-8.393-4.739-13.452.743-4.424,3.308-8.268,5.364-12.167a27.89,27.89,0,0,0,3.559-12.981,42.129,42.129,0,0,0-2.646-13.988,102.669,102.669,0,0,0-15.319-28.2,107.7,107.7,0,0,0-26.739-24.965c-.636-.417-1.159.647-.527,1.061Z" transform="translate(-223.842 -181.896)" fill="#fff"/>
  <path id="Path_720" data-name="Path 720" d="M945.993,514.1a15.877,15.877,0,0,0,7.369-19.193c-.255-.718-1.383-.356-1.128.363a14.7,14.7,0,0,1-6.891,17.84C944.673,513.473,945.326,514.461,945.993,514.1Z" transform="translate(-223.842 -181.896)" fill="#fff"/>
  <path id="Path_721" data-name="Path 721" d="M949.479,546.423a30.6,30.6,0,0,1-17.762-13.486c-.4-.651-1.387,0-.99.65a31.831,31.831,0,0,0,18.511,14c.735.206.972-.954.241-1.16Z" transform="translate(-223.842 -181.896)" fill="#fff"/>
  <path id="Path_722" data-name="Path 722" d="M926.4,485.71a8.987,8.987,0,0,1-8.338,1.787c-.732-.215-.968.946-.241,1.16a10.071,10.071,0,0,0,9.229-1.956.612.612,0,0,0,.17-.82.6.6,0,0,0-.82-.17Z" transform="translate(-223.842 -181.896)" fill="#fff"/>
  <path id="Path_723" data-name="Path 723" d="M844.893,535.743c.453.148.907.3,1.363.452a118.353,118.353,0,0,1,17.676,7.5c.443.223.888.455,1.323.69A124.775,124.775,0,0,1,901.031,573.2a121.173,121.173,0,0,1,10.856,14.869c4.469,7.216,8.741,15.395,15.144,20.56a20.78,20.78,0,0,0,2.082,1.512l42.318-11.34c.083-.074.17-.139.253-.213l1.71-.376c-.148-.281-.308-.57-.456-.851-.085-.163-.18-.324-.265-.488-.06-.108-.12-.216-.168-.317-.02-.036-.04-.072-.057-.1-.048-.1-.1-.19-.148-.281q-1.332-2.421-2.7-4.833c0-.01,0-.01-.015-.017a178.157,178.157,0,0,0-24.671-34.141c-.289-.305-.58-.621-.889-.921a115.628,115.628,0,0,0-14.109-12.528,102.253,102.253,0,0,0-8.591-5.759,85,85,0,0,0-24.67-9.884c-17.325-3.946-35.72-2.308-50.629,6.934C845.644,535.263,845.272,535.5,844.893,535.743Z" transform="translate(-223.842 -181.896)" fill="#f2f2f2"/>
  <path id="Path_724" data-name="Path 724" d="M845.132,536.255a105.823,105.823,0,0,1,63.134,15.915,45.57,45.57,0,0,1,10.928,9.19,26.137,26.137,0,0,1,5.555,12.584c.734,4.291.989,8.764,2.753,12.8a16,16,0,0,0,9.817,8.656c5.324,1.808,10.979,1.6,16.5,1.2,6.133-.444,12.5-1,18.341,1.336.708.283,1.107-.832.4-1.115-10.169-4.069-21.163.3-31.628-1.69-4.883-.93-9.516-3.336-11.883-7.887-2.07-3.98-2.337-8.593-3.043-12.944a27.889,27.889,0,0,0-4.973-12.507,42.128,42.128,0,0,0-10.534-9.576,102.667,102.667,0,0,0-29.207-13.29,107.7,107.7,0,0,0-36.38-3.834c-.759.05-.536,1.214.218,1.164Z" transform="translate(-223.842 -181.896)" fill="#fff"/>
  <path id="Path_725" data-name="Path 725" d="M902.421,548.01a15.877,15.877,0,0,0-5.672-19.761c-.636-.42-1.318.548-.682.969a14.7,14.7,0,0,1,5.239,18.393c-.317.693.8,1.088,1.115.4Z" transform="translate(-223.842 -181.896)" fill="#fff"/>
  <path id="Path_726" data-name="Path 726" d="M924.664,571.719a30.6,30.6,0,0,1-22.3-.074c-.709-.281-1.108.834-.4,1.115a31.83,31.83,0,0,0,23.207.03c.711-.278.2-1.347-.506-1.071Z" transform="translate(-223.842 -181.896)" fill="#fff"/>
  <path id="Path_727" data-name="Path 727" d="M869.683,537.138a8.987,8.987,0,0,1-5.582,6.447c-.714.269-.2,1.338.506,1.071a10.071,10.071,0,0,0,6.191-7.118.612.612,0,0,0-.358-.757.6.6,0,0,0-.757.358Z" transform="translate(-223.842 -181.896)" fill="#fff"/>
  <circle id="Ellipse_90" data-name="Ellipse 90" cx="9.956" cy="9.956" r="9.956" transform="translate(201.268 124.285)" fill="#fd6584"/>
  <circle id="Ellipse_91" data-name="Ellipse 91" cx="9.956" cy="9.956" r="9.956" transform="translate(571.067 249.059) rotate(-80.783)" fill="#e6e6e6"/>
  <circle id="Ellipse_92" data-name="Ellipse 92" cx="9.956" cy="9.956" r="9.956" transform="translate(200.863 12.244)" fill="#e6e6e6"/>
  <path id="Path_728" data-name="Path 728" d="M731.732,321.254h-2.842V243.4a45.058,45.058,0,0,0-45.057-45.058H518.9A45.057,45.057,0,0,0,473.84,243.4h0V670.5A45.058,45.058,0,0,0,518.9,715.553H683.833A45.058,45.058,0,0,0,728.891,670.5V376.669h2.842Z" transform="translate(-223.842 -181.896)" fill="#fff"/>
  <path id="Path_729" data-name="Path 729" d="M719.3,243.716V670.182a33.642,33.642,0,0,1-33.641,33.646H519.918a33.644,33.644,0,0,1-33.646-33.644V243.716a33.645,33.645,0,0,1,33.644-33.646h20.115a15.984,15.984,0,0,0,14.8,22.024h94.493a15.991,15.991,0,0,0,14.8-22.024h21.529A33.644,33.644,0,0,1,719.3,243.714v0Z" transform="translate(-223.842 -181.896)"/>
  <rect id="Rectangle_139" data-name="Rectangle 139" width="51.414" height="2.301" transform="translate(274.99 68.884)" fill="#fff"/>
  <rect id="Rectangle_140" data-name="Rectangle 140" width="51.414" height="2.301" transform="translate(353.236 68.884)" fill="#fff"/>
  <path id="Path_730" data-name="Path 730" d="M683.388,526.338h-167.6a4.3,4.3,0,0,1,0-8.6h167.6a4.3,4.3,0,0,1,0,8.6Z" transform="translate(-223.842 -181.896)" fill="#ccc"/>
  <path id="Path_731" data-name="Path 731" d="M683.388,556.256h-167.6a4.3,4.3,0,0,1,0-8.6h167.6a4.3,4.3,0,0,1,0,8.6Z" transform="translate(-223.842 -181.896)" fill="#ccc"/>
  <path id="Path_732" data-name="Path 732" d="M683.388,586.174h-167.6a4.3,4.3,0,0,1,0-8.6h167.6a4.3,4.3,0,0,1,0,8.6Z" transform="translate(-223.842 -181.896)" fill="#ccc"/>
  <rect id="Rectangle_141" data-name="Rectangle 141" width="51.414" height="2.301" transform="translate(431.482 68.884)" fill="#fff"/>
  <rect id="Rectangle_142" data-name="Rectangle 142" width="51.414" height="2.301" transform="translate(274.99 481.979)" fill="#fff"/>
  <rect id="Rectangle_143" data-name="Rectangle 143" width="51.414" height="2.301" transform="translate(353.236 481.979)" fill="#fff"/>
  <rect id="Rectangle_144" data-name="Rectangle 144" width="51.414" height="2.301" transform="translate(431.482 481.979)" fill="#fff"/>
  <circle id="Ellipse_93" data-name="Ellipse 93" cx="77.934" cy="77.934" r="77.934" transform="translate(301.009 129.666)" fill="#d1d3d4"/>
  <circle id="Ellipse_94" data-name="Ellipse 94" cx="71.1" cy="71.1" r="71.1" transform="translate(307.844 139.954)" fill="#6c63ff"/>
  <path id="Path_733" data-name="Path 733" d="M596.578,420.816c-.154,0-.309,0-.464-.011a9.47,9.47,0,0,1-7.018-3.648l-11.206-14.406a9.487,9.487,0,0,1,1.661-13.3l.4-.313a9.493,9.493,0,0,1,13.3,1.659,5.684,5.684,0,0,0,4.214,2.19,5.576,5.576,0,0,0,4.408-1.768L624.63,367.2a9.489,9.489,0,0,1,13.4-.363l.37.35a9.488,9.488,0,0,1,.364,13.4l-35.307,37.268a9.462,9.462,0,0,1-6.878,2.96Z" transform="translate(-223.842 -181.896)" fill="#fff"/>
  <rect id="Rectangle_145" data-name="Rectangle 145" width="9.205" height="49.479" transform="translate(245.216 98.529)" fill="#fff"/>
  <rect id="Rectangle_146" data-name="Rectangle 146" width="9.205" height="28.767" transform="translate(245.216 153.762)" fill="#fff"/>
  <rect id="Rectangle_147" data-name="Rectangle 147" width="9.205" height="28.767" transform="translate(245.216 188.283)" fill="#fff"/>
  <circle id="Ellipse_95" data-name="Ellipse 95" cx="4.603" cy="4.603" r="4.603" transform="translate(329.216 30.639)" fill="#fff"/>
  <path id="Path_734" data-name="Path 734" d="M602.785,454.2a71.088,71.088,0,0,1-70.9-66.085c-.116,1.646-.2,3.311-.2,5a71.1,71.1,0,0,0,142.2,0c0-1.685-.08-3.35-.195-5a71.09,71.09,0,0,1-70.9,66.095Z" transform="translate(-223.842 -181.896)" fill="#231f20" opacity="0.16"/>
  <path id="Path_735" data-name="Path 735" d="M479.182,268.426l56.383,2.3,6.9-37.973L494.14,217.8Z" fill="#ffb8b8"/>
  <path id="Path_736" data-name="Path 736" d="M724.334,368.077l.546-17.94-27.326-6.851-49.2-14.353a10.271,10.271,0,1,0-5.482,12.555L690.7,361.15Z" transform="translate(-223.842 -181.896)" fill="#ffb8b8"/>
  <path id="Path_737" data-name="Path 737" d="M706.725,367.951,722.1,346.026l.384.051c.241.032,24.349,3.257,40.153,7.963a12.633,12.633,0,0,1,8.181,6.8,13.25,13.25,0,0,1-1.843,14.41,14.173,14.173,0,0,1-14.567,4.84Z" transform="translate(-223.842 -181.896)" fill="#6c63ff"/>
  <path id="Path_738" data-name="Path 738" d="M492.621,518.459H476.984l-7.439-60.313h23.078Z" fill="#ffb8b8"/>
  <path id="Path_739" data-name="Path 739" d="M614.374,511.69l-15.461,2.337L582.541,455.5l20.269-3.449Z" fill="#ffb8b8"/>
  <path id="Path_740" data-name="Path 740" d="M761.708,441.116l-54.082-9.205-1.924,3.965a183.653,183.653,0,0,0-18,68.212c-1.306,20-2.074,41.115-2.1,63.254-.039,34.3,1.711,66.129,4.478,95.089l29.682-.186a701.079,701.079,0,0,1,3.495-92.114c2.272-21.816,5.431-42.2,9.083-61a419.628,419.628,0,0,0,28.543,80.124c10.373,21.936,31.708,47.291,42.081,69.227l31.886-3.826c-8.376-22.151-23.319-54.5-31.7-76.649-11.976-31.672-17.386-53.147-29.363-84.819a97.6,97.6,0,0,0,.4-17.936c-.558-9.964-2.631-21.922-8.689-29.893Z" transform="translate(-223.842 -181.896)" fill="#5300b4"/>
  <path id="Path_741" data-name="Path 741" d="M770.063,424.607c2.7,5.048-3.714,15.507-8.355,16.509l-53.482-17.288L735.156,345.8l13.549,2.462,21.668,3.651,7.686,6.986a13.513,13.513,0,0,1,3.727,14.263Z" transform="translate(-223.842 -181.896)" fill="#5300b4"/>
  <path id="Path_742" data-name="Path 742" d="M733.247,394.45l-15.13-9.655-19.878,19.963-37.522,34.909a10.271,10.271,0,1,0,7.977,11.138l41.38-31.015Z" transform="translate(-223.842 -181.896)" fill="#ffb8b8"/>
  <path id="Path_743" data-name="Path 743" d="M724.122,409.51l-10.961-24.431.24-.3c.151-.191,15.266-19.246,27.4-30.411a12.634,12.634,0,0,1,10.031-3.544,13.257,13.257,0,0,1,11.433,8.962,14.171,14.171,0,0,1-3.3,14.989Z" transform="translate(-223.842 -181.896)" fill="#6c63ff"/>
  <circle id="Ellipse_96" data-name="Ellipse 96" cx="23.786" cy="23.786" r="23.786" transform="translate(510.586 111.114)" fill="#ffb8b8"/>
  <path id="Path_744" data-name="Path 744" d="M777.423,351.262l-.091-.023-34.565-8.645a7.9,7.9,0,0,1-4.857-11.733l1.142-1.9a12.96,12.96,0,0,0,.53-12.379,13.644,13.644,0,0,0-7.845-6.7l-.115-.055-.726-.452a5.663,5.663,0,0,1-3-3.464,5.843,5.843,0,0,1,.572-4.712,28.6,28.6,0,0,1,13.064-11.518,29.494,29.494,0,0,1,21.678-.651,3.85,3.85,0,0,1,3.54-.9c17.9,4.335,19.374,16.351,15.838,35.638l4.186,16.882a8.459,8.459,0,0,1-7.546,10.47Zm-14.4-62.043,0,0Zm.432-.106h0Z" transform="translate(-223.842 -181.896)" fill="#2f2e41"/>
  <path id="Path_745" data-name="Path 745" d="M720.273,715.99h-8.924l-1.593-8.426-4.08,8.426H682.007a5.321,5.321,0,0,1-3.023-9.7l18.9-13.054v-8.518l19.881,1.187Z" transform="translate(-223.842 -181.896)" fill="#4a01a0"/>
  <path id="Path_746" data-name="Path 746" d="M840.7,715.99h-8.924l-1.593-8.426-4.08,8.426H802.438a5.321,5.321,0,0,1-3.023-9.7l18.9-13.054v-8.518l19.881,1.187Z" transform="translate(-223.842 -181.896)" fill="#5300b4"/>
</svg>
