<svg id="Illustration" xmlns="http://www.w3.org/2000/svg" width="651.813" height="551.31" viewBox="0 0 651.813 551.31">
  <path id="Path_156" data-name="Path 156" d="M617.005,275.545h-2.34v-64.1a37.1,37.1,0,0,0-37.1-37.1H441.759a37.1,37.1,0,0,0-37.1,37.1V563.106a37.1,37.1,0,0,0,37.1,37.1H577.565a37.1,37.1,0,0,0,37.1-37.1V321.173h2.34Z" transform="translate(-274.093 -174.345)" fill="#fff"/>
  <path id="Path_157" data-name="Path 157" d="M579.063,184H561.335a13.163,13.163,0,0,1-12.187,18.134h-77.8A13.163,13.163,0,0,1,459.16,184H442.6A27.706,27.706,0,0,0,414.9,211.7V562.848A27.706,27.706,0,0,0,442.6,590.554h136.46a27.706,27.706,0,0,0,27.706-27.706h0V211.7A27.706,27.706,0,0,0,579.063,184Z" transform="translate(-274.093 -174.345)"/>
  <path id="Path_158" data-name="Path 158" d="M513.454,477.753a76.51,76.51,0,1,1,75.467-64.009,76.429,76.429,0,0,1-75.467,64.009Zm0-150a72.689,72.689,0,0,0-33.378,8.006,73.557,73.557,0,1,0,33.378-8.006Z" transform="translate(-274.093 -174.345)" fill="#f0f0f0"/>
  <path id="Path_159" data-name="Path 159" d="M347.69,333.361a14.476,14.476,0,0,1,12.023,18.659l25.417,21.172-9.1,18.584-35.474-30.4a14.554,14.554,0,0,1,7.133-28.012Z" transform="translate(-274.093 -174.345)" fill="#ffb6b6"/>
  <path id="Path_160" data-name="Path 160" d="M585.075,421.653c-.51-5.48-2.617-15.33-4.405-18.973-5.5-14.388-41.015-26.213-45.785-27.737l-1.21-13.45-49.35-5.31-6.26,17.2-17.7,6.64a8.693,8.693,0,0,0-5.18,5.31h0l-15.88,4.59-15.67,4.53-54.44-38.36-2.57,1.68-17.18,11.21-2.65,1.73,70.45,63.56,26.17-6.14,19.68-4.63,1.68,6.82-4.35,23.96a74.977,74.977,0,0,0,96.96,7.75l11.18-9.92a74.89,74.89,0,0,0,16.81-29.53Z" transform="translate(-274.093 -174.345)" fill="#fff"/>
  <circle id="Ellipse_37" data-name="Ellipse 37" cx="35.532" cy="35.532" r="35.532" transform="translate(194.344 114.543) rotate(-18.319)" fill="#ffb6b6"/>
  <path id="Path_161" data-name="Path 161" d="M485.271,270.944a23.983,23.983,0,0,1,14.522-9.673,22.9,22.9,0,0,1,16.885,3.1c5.452-2.2,11.33-3.653,17.106-2.913s11.436,3.967,14.108,9.281a25.375,25.375,0,0,0,2.038,3.959c2.354,3.141,6.73,3.549,10.594,3.7l-5.862,3.418,5.842,2.722-7.951,3.035c6.168,5.422,7.661,15.072,5.325,23.163-2.211,7.66-7.281,14.108-12.942,19.628-1.1-4.119.111-8.585.92-12.85.854-4.506.991-9.775-2.164-12.956-2.128-2.146-5.25-2.794-8.194-3.315a397.691,397.691,0,0,0-44.886-5.33,12.7,12.7,0,0,0-5.983.611c-3.663,1.628-5.134,6.1-6.2,10.061a79.776,79.776,0,0,1,1.208-20.8C480.644,280.537,482.226,275.289,485.271,270.944Z" transform="translate(-274.093 -174.345)"/>
  <path id="Path_162" data-name="Path 162" d="M531.454,513.8h-42a5.5,5.5,0,1,1,0-11h42a5.5,5.5,0,0,1,0,11Z" transform="translate(-274.093 -174.345)" fill="#6c63ff"/>
  <path id="Path_163" data-name="Path 163" d="M393.636,219.47H278.111a4.018,4.018,0,0,1,0-8.036H393.636a4.018,4.018,0,0,1,0,8.036Z" transform="translate(-274.093 -174.345)" fill="#6c63ff"/>
  <path id="Path_164" data-name="Path 164" d="M460.336,245.133H278.111a4.018,4.018,0,0,1,0-8.036H460.336a4.018,4.018,0,0,1,0,8.036Z" transform="translate(-274.093 -174.345)" fill="#6c63ff"/>
  <path id="Path_165" data-name="Path 165" d="M425.319,269.31H278.112a4.018,4.018,0,0,1,0-8.036H425.319a4.018,4.018,0,0,1,0,8.036Z" transform="translate(-274.093 -174.345)" fill="#fff"/>
  <path id="Path_166" data-name="Path 166" d="M361.121,293.4H278.112a4.018,4.018,0,0,1,0-8.036h83.009a4.018,4.018,0,1,1,0,8.036Z" transform="translate(-274.093 -174.345)" fill="#fff"/>
  <path id="Path_167" data-name="Path 167" d="M406.976,317.485H278.111a4.018,4.018,0,1,1,0-8.036H406.976a4.018,4.018,0,0,1,0,8.036Z" transform="translate(-274.093 -174.345)" fill="#fff"/>
  <path id="Path_168" data-name="Path 168" d="M496.06,536.227H485.706l-4.926-39.938h15.282Z" transform="translate(0 0)" fill="#9f616a"/>
  <path id="Path_169" data-name="Path 169" d="M774.227,724.9H734.7v-.5a15.387,15.387,0,0,1,15.385-15.386h0l7.221-5.478,13.472,5.479h3.451Z" transform="translate(-274.093 -174.345)" fill="#fff"/>
  <path id="Path_170" data-name="Path 170" d="M764.121,522.871l-4.567-55.679-3.587-20.9,20.086-4.436,6.665,28.611-5.807,53.947a9.29,9.29,0,1,1-12.79-1.545Z" transform="translate(-274.093 -174.345)" fill="#9f616a"/>
  <path id="Path_171" data-name="Path 171" d="M441.06,536.227H430.706l-4.926-39.938h15.282Z" transform="translate(0 0)" fill="#9f616a"/>
  <path id="Path_172" data-name="Path 172" d="M698.583,535.494l-4.59,7.94s-5.044,1.378-3.4,17.819,1.719,113.85,9.7,125.836l1.444,10.293,15.067,1.44.38-9.133L735.152,562.8s10.581,124.56,19.334,127.608l3.161,10.378,13.808.006-.815-12.229.89-154.359Z" transform="translate(-274.093 -174.345)" fill="#fff"/>
  <path id="Path_173" data-name="Path 173" d="M693.537,542.829l-.317-.082c9.474-35.436,6.741-81.323.052-130.6v-.2L717.455,389.8h21l20.818,13.435c13.459,6.729,16.517,20.979,16.546,21.123l.021.1-8.246,28.784,6.212,83.243.007.1-.035.09c-2.01,5.1-7.4,4.372-13.636,3.531s-29.176,6.838-36.213,6.838C710.177,547.037,694.519,543.081,693.537,542.829Z" transform="translate(-274.093 -174.345)" fill="#fff"/>
  <path id="Path_174" data-name="Path 174" d="M754.913,414.449l9.021-3.925L775.82,425.1l9.634,46.7-33-5Z" transform="translate(-274.093 -174.345)" fill="#fff"/>
  <path id="Path_175" data-name="Path 175" d="M616.154,500.56l41.241-37.686,14.333-15.627,15.8,13.171L668.978,483.2l-46.22,28.421a9.29,9.29,0,1,1-6.6-11.061Z" transform="translate(-274.093 -174.345)" fill="#9f616a"/>
  <path id="Path_176" data-name="Path 176" d="M656.5,463.285l11.422-14.833c.095-.213,9.571-21.39,17.786-30.591,8.426-9.439,15.06-4.612,15.126-4.56l.165.124.458,34.857-31.628,37.792Z" transform="translate(-274.093 -174.345)" fill="#fff"/>
  <circle id="Ellipse_38" data-name="Ellipse 38" cx="19.251" cy="19.251" r="19.251" transform="translate(429.692 207.419) rotate(-80.783)" fill="#9f616a"/>
  <path id="Path_177" data-name="Path 177" d="M708.272,362.99s-.154-6.768-1.01-9.762-2.567-5.561-1.711-5.561,1.283-2.139,1.283-2.139.856-.428,1.283,0,.856-2.995.856-2.995.428-1.283.856-.428.428.428.856-.856,2.567-2.139,2.567-2.139,8.128.428,9.411-1.283,15.828-.428,18.823,1.711,16.256,9.839,14.117,16.256-8.3,21.192-9.839,22.673c-2.44,2.342-4.129,3.187-15.674,5.484-2.259.45-13.792-6.926-13.792-8.209s1.39-5.353-.845-5.912c-3.378-.845-3.758,3.426-4.614,2.143S708.272,362.99,708.272,362.99Z" transform="translate(-274.093 -174.345)"/>
  <path id="Path_178" data-name="Path 178" d="M719.227,724.9H679.7v-.5a15.387,15.387,0,0,1,15.385-15.386h0l7.221-5.478,13.472,5.479h3.451Z" transform="translate(-274.093 -174.345)" fill="#fff"/>
  <path id="Path_179" data-name="Path 179" d="M924.716,725.655H277.422a1.191,1.191,0,0,1,0-2.381H924.716a1.191,1.191,0,0,1,0,2.381Z" transform="translate(-274.093 -174.345)" fill="#fff"/>
</svg>
