<svg xmlns="http://www.w3.org/2000/svg" width="1108" height="731.14" viewBox="0 0 1108 731.14">
  <g id="Group_28" data-name="Group 28" transform="translate(0 -0.04)">
    <ellipse id="Ellipse_47" data-name="Ellipse 47" cx="554" cy="23.5" rx="554" ry="23.5" transform="translate(0 684.18)" fill="#3f3d56"/>
    <ellipse id="Ellipse_48" data-name="Ellipse 48" cx="554" cy="23.5" rx="554" ry="23.5" transform="translate(0 684.18)" opacity="0.5"/>
    <ellipse id="Ellipse_49" data-name="Ellipse 49" cx="554" cy="23.5" rx="554" ry="23.5" transform="translate(0 671.18)"/>
    <path id="Path_454" data-name="Path 454" d="M131,770.73c-3-5.51.4-12.26,4.28-17.18s8.61-10,8.51-16.29c-.14-9-9.7-14.31-17.33-19.08a84.78,84.78,0,0,1-15.56-12.51,23,23,0,0,1-4.78-6.4c-1.58-3.52-1.53-7.52-1.43-11.38q.5-19.26,1.9-38.48" transform="translate(-46 -84.41)" fill="none" stroke="#3f3d56" stroke-miterlimit="10" stroke-width="4"/>
    <path id="Path_455" data-name="Path 455" d="M92.11,648.7a14,14,0,0,1,7-11.49l3.14,6.21-.09-7.52a13.858,13.858,0,0,1,4.62-.56A14,14,0,1,1,92.11,648.7Z" transform="translate(-46 -84.41)" fill="#6c63ff"/>
    <path id="Path_456" data-name="Path 456" d="M117.14,743.7a14,14,0,0,0,26.5-5.76,13.82,13.82,0,0,0-.91-5.69,14,14,0,0,0-26.27.15l8.77,7.13-9.64-2.24a13.89,13.89,0,0,0,1.55,6.41Z" transform="translate(-46 -84.41)" fill="#6c63ff"/>
    <path id="Path_457" data-name="Path 457" d="M124.07,716.45a14,14,0,0,0,4.46-27.54l.07,5.79-3.18-6.29h0a14.04,14.04,0,0,0-1.31,28.05Z" transform="translate(-46 -84.41)" fill="#6c63ff"/>
    <path id="Path_458" data-name="Path 458" d="M90,693.78a14.016,14.016,0,1,0-6.2-26.22l2.48,6.8-5.11-4.9a14,14,0,0,0-4.53,9.69A13.33,13.33,0,0,0,77,683a14,14,0,0,0,13,10.78Z" transform="translate(-46 -84.41)" fill="#6c63ff"/>
    <path id="Path_459" data-name="Path 459" d="M94,652.44c3.24.36,6.39,1.37,9.64,1.57s6.82-.58,8.88-3.1c1.11-1.37,1.66-3.09,2.59-4.57a10.08,10.08,0,0,1,3.54-3.33,14,14,0,1,1-26.24,9.32C92.94,652.35,93.47,652.39,94,652.44Z" transform="translate(-46 -84.41)" opacity="0.1"/>
    <path id="Path_460" data-name="Path 460" d="M90,693.78a14,14,0,0,0,13.35-20,10.4,10.4,0,0,0-2.82,2.83c-1,1.51-1.61,3.25-2.78,4.64-2.19,2.57-5.92,3.41-9.31,3.25s-6.66-1.11-10-1.42c-.47,0-.94-.08-1.41-.09A14,14,0,0,0,90,693.78Z" transform="translate(-46 -84.41)" opacity="0.1"/>
    <path id="Path_461" data-name="Path 461" d="M124.07,716.45a14,14,0,0,0,13.47-19.76,11.36,11.36,0,0,0-3,2.85c-1.09,1.54-1.77,3.31-3,4.73-2.36,2.64-6.34,3.57-9.93,3.48s-6.82-.93-10.28-1.19a14,14,0,0,0,12.74,9.89Z" transform="translate(-46 -84.41)" opacity="0.1"/>
    <path id="Path_462" data-name="Path 462" d="M117.14,743.7a14,14,0,0,0,26.5-5.76,13.82,13.82,0,0,0-.91-5.69,14,14,0,0,0-3.08,2.74c-1.34,1.63-2.21,3.47-3.76,5-2.87,2.82-7.5,4-11.62,4.09a62.362,62.362,0,0,1-7.13-.38Z" transform="translate(-46 -84.41)" opacity="0.1"/>
    <path id="Path_463" data-name="Path 463" d="M152.19,764.39s-11.08-.34-14.41-2.72-17-5.22-17.87-1.4-16.65,19-4.14,19.06,29.06-2,32.39-4S152.19,764.39,152.19,764.39Z" transform="translate(-46 -84.41)" fill="#656380"/>
    <path id="Path_464" data-name="Path 464" d="M115.54,778c12.51.1,29.06-2,32.4-4,2.53-1.54,3.54-7.09,3.88-9.65h.37s-.7,8.93-4,11-19.89,4.08-32.39,4c-3.61,0-4.86-1.31-4.79-3.22C111.48,777.26,112.86,778,115.54,778Z" transform="translate(-46 -84.41)" opacity="0.2"/>
    <path id="Path_465" data-name="Path 465" d="M1101,779.73c-3-5.51.4-12.26,4.28-17.18s8.61-10,8.51-16.29c-.14-9-9.7-14.31-17.33-19.08a84.783,84.783,0,0,1-15.56-12.51,23,23,0,0,1-4.78-6.4c-1.58-3.52-1.53-7.52-1.43-11.38q.49-19.26,1.9-38.48" transform="translate(-46 -84.41)" fill="none" stroke="#3f3d56" stroke-miterlimit="10" stroke-width="4"/>
    <path id="Path_466" data-name="Path 466" d="M1062.11,657.7a14,14,0,0,1,7-11.49l3.14,6.21-.09-7.52a13.86,13.86,0,0,1,4.62-.56,14,14,0,1,1-14.68,13.36Z" transform="translate(-46 -84.41)" fill="#6c63ff"/>
    <path id="Path_467" data-name="Path 467" d="M1087.14,752.7a14,14,0,0,0,26.5-5.76,13.821,13.821,0,0,0-.91-5.69,14,14,0,0,0-26.27.15l8.77,7.13-9.64-2.24A13.888,13.888,0,0,0,1087.14,752.7Z" transform="translate(-46 -84.41)" fill="#6c63ff"/>
    <path id="Path_468" data-name="Path 468" d="M1094.07,725.45a14,14,0,0,0,4.46-27.54l.07,5.79-3.18-6.29h0a14.04,14.04,0,0,0-1.31,28.05Z" transform="translate(-46 -84.41)" fill="#6c63ff"/>
    <path id="Path_469" data-name="Path 469" d="M1060,702.78a14.016,14.016,0,1,0-6.2-26.22l2.48,6.8-5.11-4.9a14,14,0,0,0-4.53,9.69A13.329,13.329,0,0,0,1047,692,14,14,0,0,0,1060,702.78Z" transform="translate(-46 -84.41)" fill="#6c63ff"/>
    <path id="Path_470" data-name="Path 470" d="M1064,661.44c3.24.36,6.39,1.37,9.64,1.57s6.82-.58,8.88-3.1c1.11-1.37,1.66-3.09,2.59-4.57a10.08,10.08,0,0,1,3.54-3.33,14,14,0,1,1-26.24,9.32C1062.94,661.35,1063.47,661.39,1064,661.44Z" transform="translate(-46 -84.41)" opacity="0.1"/>
    <path id="Path_471" data-name="Path 471" d="M1060,702.78a14,14,0,0,0,13.35-20,10.4,10.4,0,0,0-2.82,2.83c-1,1.51-1.61,3.25-2.78,4.64-2.19,2.57-5.92,3.41-9.31,3.25s-6.66-1.11-10-1.42c-.47,0-.94-.08-1.41-.09A14,14,0,0,0,1060,702.78Z" transform="translate(-46 -84.41)" opacity="0.1"/>
    <path id="Path_472" data-name="Path 472" d="M1094.07,725.45a14,14,0,0,0,13.47-19.76,11.358,11.358,0,0,0-3,2.85c-1.09,1.54-1.77,3.31-3,4.73-2.36,2.64-6.34,3.57-9.93,3.48s-6.82-.93-10.28-1.19a14,14,0,0,0,12.74,9.89Z" transform="translate(-46 -84.41)" opacity="0.1"/>
    <path id="Path_473" data-name="Path 473" d="M1087.14,752.7a14,14,0,0,0,26.5-5.76,13.821,13.821,0,0,0-.91-5.69,14,14,0,0,0-3.08,2.74c-1.34,1.63-2.21,3.47-3.76,5-2.87,2.82-7.5,4-11.62,4.09a62.362,62.362,0,0,1-7.13-.38Z" transform="translate(-46 -84.41)" opacity="0.1"/>
    <path id="Path_474" data-name="Path 474" d="M1122.19,773.39s-11.08-.34-14.41-2.72-17-5.22-17.87-1.4-16.65,19-4.14,19.06,29.06-2,32.39-4S1122.19,773.39,1122.19,773.39Z" transform="translate(-46 -84.41)" fill="#656380"/>
    <path id="Path_475" data-name="Path 475" d="M1085.54,787c12.51.1,29.06-2,32.4-4,2.53-1.54,3.54-7.09,3.88-9.65h.37s-.7,8.93-4,11-19.89,4.08-32.39,4c-3.61,0-4.86-1.31-4.79-3.22C1081.48,786.26,1082.86,787,1085.54,787Z" transform="translate(-46 -84.41)" opacity="0.2"/>
    <path id="Path_476" data-name="Path 476" d="M791.57,415.56q-9.92-3.4-20-6.3,1.66-6.79,3.09-13.65c15.14-73.51,5.24-132.73-28.57-152.22-32.42-18.7-85.44.8-139,47.39q-7.92,6.92-15.47,14.2-5.07-4.85-10.3-9.51C525.21,245.64,469,224.65,435.18,244.2c-32.39,18.75-42,74.42-28.35,144.09q2,10.35,4.59,20.58c-7.95,2.26-15.64,4.67-23,7.24C322.63,439,280.61,475,280.61,512.29c0,38.51,45.11,77.14,113.64,100.56q8.34,2.83,16.8,5.26-2.74,11-4.88,22.18c-13,68.46-2.84,122.82,29.46,141.45C469,801,525,781.2,579.52,733.54c4.31-3.77,8.63-7.77,13-11.95q8.18,7.89,16.79,15.32c52.82,45.45,105,63.81,137.26,45.12,33.33-19.29,44.16-77.69,30.1-148.73q-1.6-8.14-3.73-16.61,5.91-1.74,11.56-3.61c71.24-23.6,117.6-61.76,117.6-100.79,0-37.43-43.38-73.62-110.5-96.73Z" transform="translate(-46 -84.41)" fill="#001dff"/>
    <path id="Path_477" data-name="Path 477" d="M776.12,587.88c-3.4,1.13-6.88,2.21-10.44,3.27a621.613,621.613,0,0,0-31.47-78.73,623.065,623.065,0,0,0,30.25-77.58c6.35,1.84,12.53,3.78,18.47,5.83,57.51,19.79,92.59,49.06,92.59,71.62C875.52,536.29,837.63,567.5,776.12,587.88ZM750.6,638.46c6.22,31.41,7.1,59.81,3,82-3.7,19.95-11.14,33.25-20.34,38.58-19.59,11.33-61.47-3.4-106.64-42.27q-7.77-6.69-15.63-14.25a624.255,624.255,0,0,0,52.09-66.14,620.193,620.193,0,0,0,84.17-13q1.9,7.68,3.37,15ZM492.48,757.1c-19.14,6.76-34.38,6.95-43.59,1.64-19.6-11.31-27.75-55-16.63-113.5q2-10.37,4.53-20.63a625.8,625.8,0,0,0,83.75,12.13,645.112,645.112,0,0,0,53.35,65.9q-5.79,5.61-11.84,10.91c-24.11,21.08-48.28,36-69.57,43.55ZM402.84,587.73c-30.31-10.36-55.33-23.82-72.49-38.5-15.41-13.2-23.19-26.31-23.19-36.94,0-22.63,33.74-51.5,90-71.11q10.6-3.69,21.39-6.73a637.067,637.067,0,0,0,30.29,78.48,646.281,646.281,0,0,0-30.66,79.6Q410.44,590.32,402.84,587.73Zm30.05-204.54c-11.68-59.69-3.93-104.72,15.59-116,20.79-12,66.76,5.12,115.22,48.15,3.1,2.75,6.21,5.63,9.32,8.6a635.916,635.916,0,0,0-52.93,65.52,648.414,648.414,0,0,0-82.93,12.89q-2.39-9.52-4.27-19.15ZM701,449.38q-9.11-15.74-18.89-31.08c19.83,2.51,38.82,5.83,56.66,9.91a565.522,565.522,0,0,1-19.89,53.51q-8.61-16.35-17.88-32.34ZM591.64,342.91a569.3,569.3,0,0,1,36.57,44.14q-36.71-1.73-73.45,0c12.07-15.92,24.44-30.72,36.88-44.13Zm-110,106.65q-9.15,15.87-17.55,32.14c-7.73-18.33-14.34-36.36-19.74-53.77,17.73-4,36.64-7.21,56.34-9.68q-9.92,15.44-19.07,31.31Zm19.61,158.65A564.608,564.608,0,0,1,444,599c5.49-17.71,12.25-36.13,20.15-54.86q8.43,16.29,17.61,32.16,9.34,16.19,19.47,31.91Zm91.14,75.33A570.167,570.167,0,0,1,555,638.79q17.85.71,36.36.71,19,0,37.51-.84a563.915,563.915,0,0,1-36.5,44.88ZM719.08,543.19A562.827,562.827,0,0,1,740,597.85a561.352,561.352,0,0,1-58,9.89q9.85-15.63,19.08-31.63Q710.46,559.85,719.08,543.19Zm-41,19.66q-14.12,24.52-29.81,48.1c-18.44,1.32-37.49,2-56.91,2s-38.15-.6-56.27-1.78Q519,587.67,504.7,563t-26.51-50.08q12.27-25.53,26.43-50.1h0q14.14-24.56,30.13-48c18.49-1.4,37.43-2.13,56.59-2.13s38.22.74,56.69,2.14q15.81,23.37,30,47.81t26.79,49.87q-12.45,25.62-26.71,50.3Zm54.77-296.46c20.81,12,28.9,60.4,15.83,123.87q-1.29,6.19-2.8,12.35a635.73,635.73,0,0,0-83.09-13.13,625.154,625.154,0,0,0-52.53-65.56q7-6.74,14.29-13.11c45.88-39.93,88.76-55.69,108.3-44.42Z" transform="translate(-46 -84.41)"/>
    <path id="Path_478" data-name="Path 478" d="M591.34,456.79a55,55,0,1,0,.01,0" transform="translate(-46 -84.41)" fill="blue"/>
    <path id="Path_479" data-name="Path 479" d="M605.26,104.81a16.52,16.52,0,1,1-4.838-11.762A16.6,16.6,0,0,1,605.26,104.81Z" transform="translate(-46 -84.41)" fill="#3f3d56"/>
    <path id="Path_480" data-name="Path 480" d="M575.4,109a16.62,16.62,0,0,1,12.49-24.54,16.6,16.6,0,1,0,1.41,33.07A16.6,16.6,0,0,1,575.4,109Z" transform="translate(-46 -84.41)" fill="#3f3d56"/>
    <rect id="Rectangle_136" data-name="Rectangle 136" width="44.47" height="69.37" transform="translate(521.91 43.52)" fill="#3f3d56"/>
    <rect id="Rectangle_137" data-name="Rectangle 137" width="44.47" height="69.37" transform="translate(521.91 43.52)" opacity="0.1"/>
    <path id="Path_481" data-name="Path 481" d="M497.66,379.61s-4.75,13.05-16,14.83-17.79,4.74-17.79,4.74l26.68,17.19,14.23-1.78s1.78-18.38,7.71-22.53S497.66,379.61,497.66,379.61Z" transform="translate(-46 -84.41)" fill="#a0616a"/>
    <path id="Path_482" data-name="Path 482" d="M690.34,379.61s4.75,13.05,16,14.83,17.79,4.74,17.79,4.74l-26.68,17.19-14.23-1.78s-1.78-18.38-7.71-22.53S690.34,379.61,690.34,379.61Z" transform="translate(-46 -84.41)" fill="#a0616a"/>
    <path id="Path_483" data-name="Path 483" d="M560.5,264.59s-7.11,3.56-9.48,10.68c0,0-13,4.15-20.16,15.41,0,0-8.9,9.49-10.08,14.23S506,338.11,506,338.11s-13.64,44.47-20.75,49.21c0,0,22.53-4.74,26.68,17.79,0,0,5.33,0,11.26-20.75s20.16-46.25,20.16-46.25,4.74-17.78,8.89-20.75,10.67-16.6,16.6-13,45.06-.6,45.06-.6,23.1,10.64,23.68,17.75,4.74,7.71,5.33,13.64,22.53,52.76,22.53,52.76,4.15,13,5.34,16c0,0,13-31.42,30.24-13.63,0,0-.6-11.86-5.93-19s-28.46-62.84-28.46-62.84-2.37-8.3-4.74-10.67-20.76-21.35-27.28-21.35c0,0-3.55-8.89-7.7-10.08Z" transform="translate(-46 -84.41)" fill="#fff"/>
    <path id="Path_484" data-name="Path 484" d="M507.14,410.44a28.89,28.89,0,0,1-28.22-3.79,56.368,56.368,0,0,0-12.59-7.3c-6.29-2.54-13.81-4.42-16.1-.17-4.15,7.71,50.39,26.68,50.39,26.68S507.74,421.71,507.14,410.44Z" transform="translate(-46 -84.41)" fill="#f6f5ff"/>
    <path id="Path_485" data-name="Path 485" d="M680.86,410.44a28.89,28.89,0,0,0,28.22-3.79,56.371,56.371,0,0,1,12.59-7.3c6.29-2.54,13.81-4.42,16.1-.17,4.15,7.71-50.39,26.68-50.39,26.68S680.26,421.71,680.86,410.44Z" transform="translate(-46 -84.41)" fill="#fff"/>
    <path id="Path_486" data-name="Path 486" d="M579.88,167.08c-.22,2.06-.9,4.29-2.66,5.38-1.44.9-3.26.83-4.92,1.17a11.46,11.46,0,0,0-7.82,6.77,17.51,17.51,0,0,0-.75,10.55,39.209,39.209,0,0,0,1.52,5.06c1.74,4.92,3.84,9.8,7.09,13.89a59,59,0,0,0,9.3,8.77c2.11,1.72,4.29,3.47,6.89,4.28a21.749,21.749,0,0,0,5.4.72c2.25.1,4.65.17,6.6-.95,3-1.73,3.89-5.55,5.52-8.62,1.38-2.6,3.44-4.81,4.73-7.46a29.488,29.488,0,0,0,2-6.52l2.77-12.3c1-4.47,1.92-9.51-.59-13.34a2.279,2.279,0,0,0-.74-.77,2.79,2.79,0,0,0-1.52-.15,16.44,16.44,0,0,1-9.15-2.09,3.929,3.929,0,0,1-1.15-.9,4.719,4.719,0,0,1-.7-2.12,22.2,22.2,0,0,0-1.28-4.45,3,3,0,0,0-.87-1.34,3.15,3.15,0,0,0-1.41-.47,114.472,114.472,0,0,0-12.93-1.35c-1.42-.07-3.56-.64-4.54.62S580,165.58,579.88,167.08Z" transform="translate(-46 -84.41)" fill="#a0616a"/>
    <path id="Path_487" data-name="Path 487" d="M579.88,167.08c-.22,2.06-.9,4.29-2.66,5.38-1.44.9-3.26.83-4.92,1.17a11.46,11.46,0,0,0-7.82,6.77,17.51,17.51,0,0,0-.75,10.55,39.209,39.209,0,0,0,1.52,5.06c1.74,4.92,3.84,9.8,7.09,13.89a59,59,0,0,0,9.3,8.77c2.11,1.72,4.29,3.47,6.89,4.28a21.749,21.749,0,0,0,5.4.72c2.25.1,4.65.17,6.6-.95,3-1.73,3.89-5.55,5.52-8.62,1.38-2.6,3.44-4.81,4.73-7.46a29.488,29.488,0,0,0,2-6.52l2.77-12.3c1-4.47,1.92-9.51-.59-13.34a2.279,2.279,0,0,0-.74-.77,2.79,2.79,0,0,0-1.52-.15,16.44,16.44,0,0,1-9.15-2.09,3.929,3.929,0,0,1-1.15-.9,4.719,4.719,0,0,1-.7-2.12,22.2,22.2,0,0,0-1.28-4.45,3,3,0,0,0-.87-1.34,3.15,3.15,0,0,0-1.41-.47,114.472,114.472,0,0,0-12.93-1.35c-1.42-.07-3.56-.64-4.54.62S580,165.58,579.88,167.08Z" transform="translate(-46 -84.41)" opacity="0.1"/>
    <path id="Path_488" data-name="Path 488" d="M571.85,174.15a26.93,26.93,0,0,0-7.13-1.12c-5.72-.14-11.84,1.83-15.14,6.5A15.34,15.34,0,0,0,547.29,191a23.57,23.57,0,0,0,5.2,10.66,32,32,0,0,1,4,5.24c1.58,3,1.63,6.59,2.06,10,1,8.12,4.46,15.75,5.83,23.82s.19,17.42-6.18,22.55c-1.07.86-2.37,1.77-2.46,3.14-.14,2.19,2.71,3.12,4.9,3.33,6.55.62,13.27,1.23,19.63-.46,2.63-.7,5.17-1.79,7.85-2.29,6.8-1.27,13.64,1.34,20.45,2.59a90.608,90.608,0,0,0,14.91,1.21,7.94,7.94,0,0,0,3.43-.45,2.75,2.75,0,0,0,1.74-2.74,4.76,4.76,0,0,0-1.18-2c-3.44-4.25-4.49-9.9-5.43-15.29l-3.15-18.11c-1.69-9.68-3.26-20.2,1.32-28.89,3.29-6.25,9.36-10.65,12.83-16.8a9.84,9.84,0,0,0,1.55-6.28c-.52-3.09-3.31-5.3-6.17-6.59A23.21,23.21,0,0,0,611,173c.1,4.33-1,8.71-1.71,13l-1.21,7a88.835,88.835,0,0,1-2.71,12.2,12.85,12.85,0,0,1-2.17,4.42,11.431,11.431,0,0,1-3.83,2.79,22.83,22.83,0,0,1-10.14,2.32,13.539,13.539,0,0,1-4.48-.69,19,19,0,0,1-6.17-4.34,10.112,10.112,0,0,1-1.63-1.77,9.929,9.929,0,0,1-1.11-2.67,55.424,55.424,0,0,1-1.91-7.48c-.3-1.94-.4-3.91-.54-5.87C573,186.12,573,179.72,571.85,174.15Z" transform="translate(-46 -84.41)" fill="#5300b4"/>
    <path id="Path_489" data-name="Path 489" d="M565.84,288.9s-2.37,31.43,12.45,36.76,1.78-26.09,1.78-26.09l-4.75-9.48Z" transform="translate(-46 -84.41)" fill="#a0616a"/>
    <path id="Path_490" data-name="Path 490" d="M616.23,288.9s2.37,31.43-12.45,36.76S602,299.57,602,299.57l4.75-9.48Z" transform="translate(-46 -84.41)" fill="#a0616a"/>
    <path id="Path_491" data-name="Path 491" d="M552.79,184l-4.74,7.71s4.15,26.68,4.74,31.42a62.2,62.2,0,0,0,2.38,10.08s.59,14.23.59,19.57,3,14.23,3,14.23a64.823,64.823,0,0,0,3,14.82c2.37,6.52,4.74,14.23,4.74,14.23s3-8.3,14.82,4.15a7.18,7.18,0,0,0,0-10.08s-3.55-16-3.55-24.31-6.53-48-6.53-48S567,172.7,552.79,184Z" transform="translate(-46 -84.41)" opacity="0.1"/>
    <path id="Path_492" data-name="Path 492" d="M551.61,183.37l-4.74,7.71s4.15,26.68,4.74,31.42A61.835,61.835,0,0,0,554,232.58s.59,14.23.59,19.56,3,14.23,3,14.23a64.529,64.529,0,0,0,3,14.82c2.37,6.53,4.75,14.23,4.75,14.23s3-8.3,14.82,4.15a7.18,7.18,0,0,0,0-10.07s-3.56-16-3.56-24.31-6.52-48-6.52-48S565.84,172.1,551.61,183.37Z" transform="translate(-46 -84.41)" fill="#5300b4"/>
    <path id="Path_493" data-name="Path 493" d="M629.87,179.22l3,3.53s3.49,20.18-4.22,45.68l-2.37,23.12s-4.15,19.57-4.74,24.31-.59,5.33-1.78,7.11a2.29,2.29,0,0,0,0,3l-3.56,13s-5.33-6.52-16,1.78c0,0-3-4.74-.6-8.89s2.37-5.93,1.78-7.12,2.37-7.11,2.37-8.3S607.93,248,607.93,248s1.78-26.68,3.56-35.57c1.09-5.47,1.07-17.66.88-26.24-.19-8.94,10.63-13.78,17-7.5A6.624,6.624,0,0,1,629.87,179.22Z" transform="translate(-46 -84.41)" opacity="0.1"/>
    <path id="Path_494" data-name="Path 494" d="M631.65,178l3,3.53s3.49,20.19-4.22,45.68l-2.37,23.12s-4.15,19.57-4.74,24.31-.6,5.34-1.78,7.12a2.28,2.28,0,0,0,0,3L618,297.8s-5.33-6.53-16,1.77c0,0-3-4.74-.59-8.89s2.37-5.93,1.78-7.11,2.37-7.12,2.37-8.3,4.15-28.46,4.15-28.46,1.78-26.68,3.56-35.58.59-35.57.59-35.57S623.35,169.14,631.65,178Z" transform="translate(-46 -84.41)" fill="#5300b4"/>
    <circle id="Ellipse_50" data-name="Ellipse 50" cx="23.72" cy="23.72" r="23.72" transform="translate(522.2 37.89)" fill="#a0616a"/>
    <path id="Path_495" data-name="Path 495" d="M604.29,110.41a16.6,16.6,0,0,1-31.09.44c9.26-3.73,18.72-.41,18.72-.41C596.65,108.78,600.75,108.93,604.29,110.41Z" transform="translate(-46 -84.41)" opacity="0.1"/>
    <path id="Path_496" data-name="Path 496" d="M591.92,111.63s-45.65-16-34.38,61.66c0,0,10.08,6.52,17.78,2.37,0,0-5.33-53.95,15.42-51.58s17.19,50.4,17.19,50.4,11.86,3.55,15.42-3S622.16,101,591.92,111.63Z" transform="translate(-46 -84.41)" fill="#3f3d56"/>
    <path id="Path_497" data-name="Path 497" d="M590.74,120.52c-14.24-1.62-16.2,23.27-16,39.05.17-15.69,2.81-37,16-35.49,14.81,1.69,17.24,26.66,17.41,40.8C608.32,151.9,606.9,122.37,590.74,120.52Z" transform="translate(-46 -84.41)" opacity="0.1"/>
    <path id="Path_498" data-name="Path 498" d="M557.54,169.73a159.382,159.382,0,0,1-1.77-20.53,152.119,152.119,0,0,0,1.77,24.09s10.08,6.52,17.78,2.37c0,0-.12-1.28-.26-3.43C567.39,176.1,557.54,169.73,557.54,169.73Z" transform="translate(-46 -84.41)" opacity="0.1"/>
    <path id="Path_499" data-name="Path 499" d="M623.35,168c-3.32,6.08-13.83,3.41-15.25,3-.07,2.2-.17,3.52-.17,3.52s11.86,3.55,15.42-3c.73-1.34,1.11-5.13,1-10.2C624.25,164.57,623.9,167,623.35,168Z" transform="translate(-46 -84.41)" opacity="0.1"/>
    <path id="Path_500" data-name="Path 500" d="M872.73,757.37c4.74-8.78-.64-19.54-6.82-27.37s-13.73-16-13.57-26c.23-14.35,15.45-22.81,27.62-30.42a134.776,134.776,0,0,0,24.79-19.93c3-3.05,5.87-6.31,7.62-10.21,2.52-5.6,2.45-12,2.29-18.12q-.79-30.71-3-61.34" transform="translate(-46 -84.41)" fill="none" stroke="#3f3d56" stroke-miterlimit="10" stroke-width="4"/>
    <path id="Path_501" data-name="Path 501" d="M934.74,562.9a22.31,22.31,0,0,0-11.16-18.32l-5,9.9.15-12a22.37,22.37,0,1,0,16,20.41Z" transform="translate(-46 -84.41)" fill="#6c63ff"/>
    <path id="Path_502" data-name="Path 502" d="M894.86,714.29a22.36,22.36,0,1,1,1.08-18l-14,11.37,15.37-3.57a22.249,22.249,0,0,1-2.45,10.2Z" transform="translate(-46 -84.41)" fill="#6c63ff"/>
    <path id="Path_503" data-name="Path 503" d="M883.81,670.86A22.37,22.37,0,0,1,876.72,627l-.12,9.22,5.06-10h.06a22.37,22.37,0,1,1,2.09,44.691Z" transform="translate(-46 -84.41)" fill="#6c63ff"/>
    <path id="Path_504" data-name="Path 504" d="M938.11,634.73A22.37,22.37,0,1,1,948,592.87l-4,10.83,8.13-7.8a22.37,22.37,0,0,1-14.07,38.83Z" transform="translate(-46 -84.41)" fill="#6c63ff"/>
    <path id="Path_505" data-name="Path 505" d="M931.74,568.86c-5.17.57-10.19,2.18-15.37,2.5s-10.87-.92-14.14-5c-1.77-2.17-2.65-4.91-4.14-7.28a16,16,0,0,0-5.63-5.3,22.37,22.37,0,1,0,41.81,14.84C933.42,568.71,932.58,568.77,931.74,568.86Z" transform="translate(-46 -84.41)" opacity="0.1"/>
    <path id="Path_506" data-name="Path 506" d="M938.11,634.73a22.39,22.39,0,0,1-21.28-31.91,16.37,16.37,0,0,1,4.5,4.51c1.59,2.4,2.56,5.18,4.43,7.39,3.48,4.09,9.44,5.43,14.84,5.19s10.6-1.78,16-2.28c.75-.06,1.5-.11,2.26-.13a22.37,22.37,0,0,1-20.75,17.23Z" transform="translate(-46 -84.41)" opacity="0.1"/>
    <path id="Path_507" data-name="Path 507" d="M883.81,670.86a22.37,22.37,0,0,1-21.46-31.49,17.831,17.831,0,0,1,4.73,4.55c1.74,2.45,2.82,5.27,4.86,7.54,3.77,4.2,10.11,5.68,15.83,5.54,5.54-.12,10.87-1.48,16.38-1.9A22.36,22.36,0,0,1,883.81,670.86Z" transform="translate(-46 -84.41)" opacity="0.1"/>
    <path id="Path_508" data-name="Path 508" d="M894.86,714.29A22.37,22.37,0,0,1,854.08,696a22.268,22.268,0,0,1,4.91,4.38c2.13,2.59,3.53,5.53,6,7.94,4.57,4.49,11.95,6.34,18.52,6.51a97.1,97.1,0,0,0,11.35-.54Z" transform="translate(-46 -84.41)" opacity="0.1"/>
    <path id="Path_509" data-name="Path 509" d="M839,747.26s17.65-.54,23-4.33,27.16-8.31,28.48-2.24,26.53,30.22,6.6,30.38-46.31-3.1-51.62-6.34S839,747.26,839,747.26Z" transform="translate(-46 -84.41)" fill="#656380"/>
    <path id="Path_510" data-name="Path 510" d="M897.4,769c-19.93.16-46.31-3.11-51.62-6.34-4-2.47-5.65-11.3-6.19-15.38H839s1.12,14.24,6.43,17.47,31.69,6.5,51.62,6.34c5.75,0,7.74-2.09,7.63-5.12C903.88,767.78,901.69,768.92,897.4,769Z" transform="translate(-46 -84.41)" opacity="0.2"/>
    <path id="Path_511" data-name="Path 511" d="M369,127.27l-18.25,11.57,11.08-20.15a18,18,0,0,0-11-3.94h-.3a21.579,21.579,0,0,1-3.78-.28l-6.19,3.92,2.65-4.82a22.06,22.06,0,0,1-10.82-8.21l-11.07,7,7-12.72c-6.48-7.77-15.2-12.54-24.81-12.54-11.51,0-21.76,6.85-28.38,17.52a21.24,21.24,0,0,1-18.76,10.12h-.62c-12.71,0-23,14.41-23,32.19s10.3,32.18,23,32.18a17.2,17.2,0,0,0,8-2c8.29-4.31,19.17-4.39,27.85-.54a29,29,0,0,0,23.68.05c8.62-3.77,19.37-3.69,27.61.54a17.23,17.23,0,0,0,7.93,2c12.71,0,23-14.41,23-32.18A40.86,40.86,0,0,0,369,127.27Z" transform="translate(-46 -84.41)" fill="#f2f2f2"/>
    <path id="Path_512" data-name="Path 512" d="M334.59,174.36a34,34,0,0,0-19.72,2.14,29,29,0,0,1-23.67-.05c-8.69-3.85-19.57-3.77-27.86.54a17.2,17.2,0,0,1-8,2c-11.29,0-20.68-11.38-22.64-26.38a21.58,21.58,0,0,0,5.64-6.08C245,135.87,255.21,129,266.72,129s21.64,6.77,28.26,17.32a21.79,21.79,0,0,0,18.76,10.31H314C323,156.64,330.8,163.85,334.59,174.36Z" transform="translate(-46 -84.41)" opacity="0.03"/>
    <path id="Path_513" data-name="Path 513" d="M846.07,150.83,837,156.6l5.53-10a9,9,0,0,0-5.51-2h-.14a10.791,10.791,0,0,1-1.89-.14l-3.09,2,1.3-2.46a11,11,0,0,1-5.4-4.09l-5.52,3.5,3.49-6.34a16.17,16.17,0,0,0-12.37-6.26c-5.75,0-10.86,3.42-14.16,8.74a10.57,10.57,0,0,1-9.36,5h-.31c-6.34,0-11.48,7.19-11.48,16s5.14,16.05,11.48,16.05a8.62,8.62,0,0,0,4-1,16.56,16.56,0,0,1,13.89-.27,14.52,14.52,0,0,0,11.81,0,16.58,16.58,0,0,1,13.77.27,8.61,8.61,0,0,0,4,1c6.34,0,11.48-7.18,11.48-16.05a20.28,20.28,0,0,0-2.45-9.72Z" transform="translate(-46 -84.41)" fill="#f2f2f2"/>
    <path id="Path_514" data-name="Path 514" d="M828.92,174.32a17,17,0,0,0-9.83,1.07,14.52,14.52,0,0,1-11.81,0,16.58,16.58,0,0,0-13.9.27,8.55,8.55,0,0,1-4,1c-5.64,0-10.32-5.67-11.3-13.15a10.93,10.93,0,0,0,2.82-3c3.3-5.32,8.42-8.73,14.16-8.73s10.79,3.37,14.09,8.63a10.85,10.85,0,0,0,9.36,5.14h.15C823.15,165.48,827,169.08,828.92,174.32Z" transform="translate(-46 -84.41)" opacity="0.03"/>
    <path id="Path_515" data-name="Path 515" d="M250.34,300.27,265,309.55l-8.88-16.15a14.48,14.48,0,0,1,8.85-3.15h.23a17.077,17.077,0,0,0,3-.22l4.95,3.14L271,289.31a17.78,17.78,0,0,0,8.67-6.58l8.87,5.62L283,278.16c5.19-6.22,12.18-10,19.87-10,9.23,0,17.44,5.48,22.75,14a17,17,0,0,0,15,8.11h.5c10.18,0,18.43,11.54,18.43,25.78s-8.25,25.79-18.43,25.79a13.86,13.86,0,0,1-6.43-1.61,26.59,26.59,0,0,0-22.31-.43,23.28,23.28,0,0,1-19,0,26.64,26.64,0,0,0-22.12.43,13.9,13.9,0,0,1-6.35,1.57c-10.19,0-18.44-11.54-18.44-25.79a32.78,32.78,0,0,1,3.87-15.74Z" transform="translate(-46 -84.41)" fill="#f2f2f2"/>
    <path id="Path_516" data-name="Path 516" d="M277.89,338a27.36,27.36,0,0,1,15.8,1.72,23.28,23.28,0,0,0,19,0,26.61,26.61,0,0,1,22.32.43,13.82,13.82,0,0,0,6.42,1.61c9.05,0,16.57-9.11,18.14-21.13a17.439,17.439,0,0,1-4.52-4.88c-5.31-8.54-13.52-14-22.75-14s-17.33,5.42-22.64,13.88a17.44,17.44,0,0,1-15,8.25h-.23C287.17,323.81,280.93,329.59,277.89,338Z" transform="translate(-46 -84.41)" opacity="0.03"/>
  </g>
</svg>
